M48
; DRILL file {KiCad 9.0.7} date 2026-01-12T04:18:36+0100
; FORMAT={-:-/ absolute / metric / decimal}
; #@! TF.CreationDate,2026-01-12T04:18:36+01:00
; #@! TF.GenerationSoftware,Kicad,Pcbnew,9.0.7
; #@! TF.FileFunction,Plated,1,2,PTH
FMAT,2
METRIC
; #@! TA.AperFunction,Plated,PTH,ViaDrill
T1C0.300
; #@! TA.AperFunction,Plated,PTH,ViaDrill
T2C0.400
; #@! TA.AperFunction,Plated,PTH,ComponentDrill
T3C0.600
; #@! TA.AperFunction,Plated,PTH,ComponentDrill
T4C0.800
; #@! TA.AperFunction,Plated,PTH,ComponentDrill
T5C1.000
%
G90
G05
T1
X1.25Y-29.5
X1.5Y-6.25
X1.891Y-6.939
X1.9Y-51.9
X2.5Y-7.5
X2.639Y-4.517
X2.75Y-29.5
X3.25Y-7.75
X4.0Y-7.75
X4.0Y-14.0
X4.389Y-4.517
X4.5Y-46.5
X4.652Y-36.572
X4.75Y-7.5
X4.75Y-43.75
X4.86Y-51.8
X5.25Y-7.0
X5.26Y-28.08
X5.5Y-6.25
X5.59Y-33.81
X6.0Y-12.0
X6.0Y-20.0
X6.0Y-21.0
X6.0Y-22.5
X6.0Y-25.0
X6.25Y-38.5
X6.73Y-33.52
X7.25Y-38.5
X7.25Y-52.0
X7.75Y-29.25
X7.75Y-43.75
X8.11Y-33.69
X8.25Y-38.5
X8.25Y-46.5
X8.92Y-25.09
X8.975Y-22.866
X9.13Y-27.91
X9.25Y-38.5
X9.417Y-23.386
X9.5Y-33.25
X10.0Y-38.5
X10.25Y-29.25
X10.75Y-4.0
X11.0Y-34.06
X11.0Y-38.5
X11.0Y-46.5
X11.5Y-29.25
X11.698Y-5.877
X11.7Y-51.0
X11.75Y-38.5
X12.25Y-4.0
X12.25Y-11.25
X12.66Y-33.97
X12.68Y-7.85
X12.863Y-36.572
X13.085Y-7.042
X13.5Y-46.25
X14.0Y-4.5
X14.0Y-9.0
X14.0Y-34.0
X14.0Y-45.5
X14.25Y-10.0
X14.388Y-16.489
X14.404Y-18.477
X14.424Y-37.032
X14.458Y-12.846
X14.5Y-14.5
X14.5Y-20.25
X14.5Y-21.75
X14.5Y-46.25
X15.213Y-4.885
X15.3Y-51.8
X15.5Y-4.0
X15.807Y-6.307
X16.5Y-7.0
X17.0Y-8.0
X17.583Y-39.148
X17.588Y-41.009
X17.615Y-42.956
X18.0Y-9.0
X18.0Y-24.0
X18.0Y-26.5
X18.41Y-48.3
X18.459Y-50.949
X18.5Y-16.5
X18.75Y-46.75
X19.0Y-45.5
X19.5Y-8.5
X19.5Y-16.0
X19.5Y-17.5
X19.5Y-20.5
X19.5Y-26.5
X19.5Y-46.0
X19.792Y-40.603
X20.0Y-41.5
X20.168Y-20.871
X20.243Y-20.137
X20.5Y-47.0
X20.584Y-44.362
X20.973Y-20.209
X20.982Y-20.91
X21.0Y-7.5
X21.41Y-37.06
X21.5Y-52.0
X21.721Y-20.137
X21.732Y-20.903
X22.0Y-6.5
X22.0Y-31.5
X22.33Y-11.46
X22.5Y-13.0
X22.5Y-15.0
X22.5Y-20.5
X22.5Y-52.0
X22.71Y-32.44
X22.88Y-5.71
X23.0Y-10.0
X23.0Y-42.5
X23.004Y-21.042
X23.5Y-5.0
X23.5Y-11.5
X23.5Y-20.5
X23.5Y-31.5
X23.5Y-48.5
X23.617Y-19.895
X24.0Y-9.0
X24.0Y-10.0
X24.0Y-17.0
X24.0Y-27.0
X24.0Y-41.0
X24.07Y-43.83
X24.097Y-17.871
X24.25Y-42.5
X24.5Y-26.0
X24.75Y-27.25
X25.0Y-41.0
X25.5Y-29.5
X26.0Y-42.5
X26.5Y-29.5
X26.5Y-30.5
X26.809Y-23.381
X27.0Y-51.0
X28.0Y-3.0
X28.0Y-6.0
X28.0Y-9.0
X28.5Y-9.96
X28.5Y-44.5
X28.6Y-37.23
X29.0Y-6.5
X29.0Y-11.5
X29.0Y-46.5
X29.05Y-39.67
X29.25Y-4.75
X29.346Y-45.5
X29.349Y-28.5
X29.349Y-31.5
X29.95Y-40.22
X30.0Y-7.5
X30.0Y-11.0
X30.27Y-26.73
X30.5Y-33.0
X30.72Y-51.72
X30.802Y-36.227
X31.0Y-5.5
X31.0Y-8.5
X31.0Y-11.5
X31.0Y-33.5
X31.0Y-37.5
X31.013Y-35.315
X31.013Y-26.145
X31.3Y-50.93
X31.37Y-49.71
X31.5Y-27.0
X32.0Y-6.5
X32.0Y-9.5
X32.0Y-32.5
X33.0Y-7.5
X33.0Y-10.5
X33.5Y-33.0
X34.0Y-8.5
X34.0Y-29.5
X34.0Y-30.5
X34.0Y-31.5
X34.0Y-32.5
T2
X21.0Y-18.825
T4
X3.0Y-11.0
X3.0Y-13.0
X3.0Y-15.0
X5.0Y-11.0
X5.0Y-13.0
X5.0Y-15.0
X29.0Y-14.0
X29.0Y-16.0
X29.0Y-18.0
X29.0Y-20.0
X29.0Y-22.0
X31.0Y-14.0
X31.0Y-16.0
X31.0Y-18.0
X31.0Y-20.0
X31.0Y-22.0
T5
X2.377Y-37.48
X2.377Y-40.02
X2.377Y-42.56
X2.377Y-45.1
X2.5Y-18.38
X2.5Y-20.92
X2.5Y-23.46
X2.5Y-26.0
X33.5Y-37.5
X33.5Y-40.04
X33.5Y-42.58
X33.5Y-45.12
X33.5Y-47.66
X33.5Y-50.2
T3
X28.119Y-25.68G85X29.219Y-25.68
G05
X28.119Y-34.32G85X29.219Y-34.32
G05
X32.449Y-25.68G85X33.249Y-25.68
G05
X32.449Y-34.32G85X33.249Y-34.32
G05
M30
