%TF.GenerationSoftware,KiCad,Pcbnew,9.0.7*%
%TF.CreationDate,2026-01-12T04:18:19+01:00*%
%TF.ProjectId,lsw5-esp32,6c737735-2d65-4737-9033-322e6b696361,p1*%
%TF.SameCoordinates,Original*%
%TF.FileFunction,Copper,L2,Bot*%
%TF.FilePolarity,Positive*%
%FSLAX46Y46*%
G04 Gerber Fmt 4.6, Leading zero omitted, Abs format (unit mm)*
G04 Created by KiCad (PCBNEW 9.0.7) date 2026-01-12 04:18:19*
%MOMM*%
%LPD*%
G01*
G04 APERTURE LIST*
G04 Aperture macros list*
%AMRoundRect*
0 Rectangle with rounded corners*
0 $1 Rounding radius*
0 $2 $3 $4 $5 $6 $7 $8 $9 X,Y pos of 4 corners*
0 Add a 4 corners polygon primitive as box body*
4,1,4,$2,$3,$4,$5,$6,$7,$8,$9,$2,$3,0*
0 Add four circle primitives for the rounded corners*
1,1,$1+$1,$2,$3*
1,1,$1+$1,$4,$5*
1,1,$1+$1,$6,$7*
1,1,$1+$1,$8,$9*
0 Add four rect primitives between the rounded corners*
20,1,$1+$1,$2,$3,$4,$5,0*
20,1,$1+$1,$4,$5,$6,$7,0*
20,1,$1+$1,$6,$7,$8,$9,0*
20,1,$1+$1,$8,$9,$2,$3,0*%
G04 Aperture macros list end*
%TA.AperFunction,ComponentPad*%
%ADD10R,1.350000X1.350000*%
%TD*%
%TA.AperFunction,ComponentPad*%
%ADD11C,1.350000*%
%TD*%
%TA.AperFunction,ComponentPad*%
%ADD12O,2.100000X1.000000*%
%TD*%
%TA.AperFunction,ComponentPad*%
%ADD13O,1.800000X1.000000*%
%TD*%
%TA.AperFunction,ComponentPad*%
%ADD14R,1.700000X1.700000*%
%TD*%
%TA.AperFunction,ComponentPad*%
%ADD15C,1.700000*%
%TD*%
%TA.AperFunction,SMDPad,CuDef*%
%ADD16RoundRect,0.237500X-0.237500X0.300000X-0.237500X-0.300000X0.237500X-0.300000X0.237500X0.300000X0*%
%TD*%
%TA.AperFunction,SMDPad,CuDef*%
%ADD17RoundRect,0.237500X0.237500X-0.250000X0.237500X0.250000X-0.237500X0.250000X-0.237500X-0.250000X0*%
%TD*%
%TA.AperFunction,SMDPad,CuDef*%
%ADD18RoundRect,0.237500X0.250000X0.237500X-0.250000X0.237500X-0.250000X-0.237500X0.250000X-0.237500X0*%
%TD*%
%TA.AperFunction,SMDPad,CuDef*%
%ADD19RoundRect,0.237500X-0.250000X-0.237500X0.250000X-0.237500X0.250000X0.237500X-0.250000X0.237500X0*%
%TD*%
%TA.AperFunction,ViaPad*%
%ADD20C,0.600000*%
%TD*%
%TA.AperFunction,ViaPad*%
%ADD21C,0.800000*%
%TD*%
%TA.AperFunction,ViaPad*%
%ADD22C,0.500000*%
%TD*%
%TA.AperFunction,Conductor*%
%ADD23C,0.200000*%
%TD*%
%TA.AperFunction,Conductor*%
%ADD24C,0.800000*%
%TD*%
G04 APERTURE END LIST*
D10*
%TO.P,J4,1,Pin_1*%
%TO.N,/SIM1*%
X29000000Y-14000000D03*
D11*
%TO.P,J4,2,Pin_2*%
%TO.N,unconnected-(J4-Pin_2-Pad2)*%
X31000000Y-14000000D03*
%TO.P,J4,3,Pin_3*%
%TO.N,unconnected-(J4-Pin_3-Pad3)*%
X29000000Y-16000000D03*
%TO.P,J4,4,Pin_4*%
%TO.N,/SIM2*%
X31000000Y-16000000D03*
%TO.P,J4,5,Pin_5*%
%TO.N,/+3V3_IN*%
X29000000Y-18000000D03*
%TO.P,J4,6,Pin_6*%
X31000000Y-18000000D03*
%TO.P,J4,7,Pin_7*%
%TO.N,/TX*%
X29000000Y-20000000D03*
%TO.P,J4,8,Pin_8*%
%TO.N,/RX*%
X31000000Y-20000000D03*
%TO.P,J4,9,Pin_9*%
%TO.N,GND*%
X29000000Y-22000000D03*
%TO.P,J4,10,Pin_10*%
X31000000Y-22000000D03*
%TD*%
D12*
%TO.P,J3,SH1,SHELL_GND*%
%TO.N,GND*%
X28669145Y-34320000D03*
%TO.P,J3,SH2,SHELL_GND__1*%
X28669145Y-25680000D03*
D13*
%TO.P,J3,SH3,SHELL_GND__2*%
X32849145Y-34320000D03*
%TO.P,J3,SH4,SHELL_GND__3*%
X32849145Y-25680000D03*
%TD*%
D14*
%TO.P,J6,1,Pin_1*%
%TO.N,+5V_ISO*%
X2376741Y-37480000D03*
D15*
%TO.P,J6,2,Pin_2*%
%TO.N,GND_ISO*%
X2376741Y-40020000D03*
%TO.P,J6,3,Pin_3*%
%TO.N,Net-(J6-Pin_3)*%
X2376741Y-42560000D03*
%TO.P,J6,4,Pin_4*%
%TO.N,Net-(J6-Pin_4)*%
X2376741Y-45100000D03*
%TD*%
D14*
%TO.P,J2,1,Pin_1*%
%TO.N,+3V3*%
X2500000Y-26000000D03*
D15*
%TO.P,J2,2,Pin_2*%
%TO.N,/PRG_TX*%
X2500000Y-23460000D03*
%TO.P,J2,3,Pin_3*%
%TO.N,/PRG_RX*%
X2500000Y-20920000D03*
%TO.P,J2,4,Pin_4*%
%TO.N,GND*%
X2500000Y-18380000D03*
%TD*%
D10*
%TO.P,J1,1,Pin_1*%
%TO.N,GND*%
X3000000Y-11000000D03*
D11*
%TO.P,J1,2,Pin_2*%
X5000000Y-11000000D03*
%TO.P,J1,3,Pin_3*%
X3000000Y-13000000D03*
%TO.P,J1,4,Pin_4*%
%TO.N,/SW_MB*%
X5000000Y-13000000D03*
%TO.P,J1,5,Pin_5*%
%TO.N,unconnected-(J1-Pin_5-Pad5)*%
X3000000Y-15000000D03*
%TO.P,J1,6,Pin_6*%
%TO.N,unconnected-(J1-Pin_6-Pad6)*%
X5000000Y-15000000D03*
%TD*%
D14*
%TO.P,J_EXP1,1,Pin_1*%
%TO.N,+3V3*%
X33500000Y-37500000D03*
D15*
%TO.P,J_EXP1,2,Pin_2*%
%TO.N,Net-(J_EXP1-Pin_2)*%
X33500000Y-40040000D03*
%TO.P,J_EXP1,3,Pin_3*%
%TO.N,Net-(J_EXP1-Pin_3)*%
X33500000Y-42580000D03*
%TO.P,J_EXP1,4,Pin_4*%
%TO.N,Net-(J_EXP1-Pin_4)*%
X33500000Y-45120000D03*
%TO.P,J_EXP1,5,Pin_5*%
%TO.N,Net-(J_EXP1-Pin_5)*%
X33500000Y-47660000D03*
%TO.P,J_EXP1,6,Pin_6*%
%TO.N,GND*%
X33500000Y-50200000D03*
%TD*%
D16*
%TO.P,C6,1*%
%TO.N,GND*%
X24000000Y-14000000D03*
%TO.P,C6,2*%
%TO.N,Net-(U1-EN)*%
X24000000Y-15725000D03*
%TD*%
D17*
%TO.P,R10,1*%
%TO.N,+3V3*%
X22500000Y-18825000D03*
%TO.P,R10,2*%
%TO.N,Net-(U1-EN)*%
X22500000Y-17000000D03*
%TD*%
D18*
%TO.P,R11,1*%
%TO.N,GND*%
X32761645Y-31500000D03*
%TO.P,R11,2*%
%TO.N,Net-(J3-CC1)*%
X30936645Y-31500000D03*
%TD*%
D19*
%TO.P,R12,1*%
%TO.N,Net-(J3-CC2)*%
X30849145Y-28500000D03*
%TO.P,R12,2*%
%TO.N,GND*%
X32674145Y-28500000D03*
%TD*%
D20*
%TO.N,GND*%
X24250000Y-42500000D03*
X18000000Y-26500000D03*
X14500000Y-14500000D03*
X6000000Y-22500000D03*
X17615152Y-42956256D03*
X31000000Y-33500000D03*
X14000000Y-34000000D03*
X1900000Y-51900000D03*
X6000000Y-12000000D03*
X30000000Y-7500000D03*
X24000000Y-9000000D03*
X28500000Y-44500000D03*
X4000000Y-14000000D03*
X31000000Y-37500000D03*
X23000000Y-42500000D03*
X18458796Y-50949372D03*
X6000000Y-25000000D03*
X22330000Y-11460000D03*
X4388608Y-4516676D03*
X20243220Y-20136975D03*
X21410000Y-37060000D03*
X21000000Y-7500000D03*
X22500000Y-13000000D03*
X31012503Y-35314863D03*
X1890748Y-6938716D03*
X23000000Y-10000000D03*
X9130000Y-27910000D03*
X20000000Y-41500000D03*
X2750000Y-29500000D03*
X14500000Y-20250000D03*
X31300000Y-50930000D03*
X22500000Y-20500000D03*
X20982020Y-20910101D03*
X13084956Y-7042478D03*
X19500000Y-8500000D03*
X6000000Y-20000000D03*
X29000000Y-11500000D03*
X6000000Y-21000000D03*
X32000000Y-9500000D03*
X14404015Y-18477429D03*
X33000000Y-10500000D03*
X24000000Y-41000000D03*
X19500000Y-26500000D03*
X21721150Y-20136975D03*
X31012646Y-26144535D03*
X23500000Y-31500000D03*
X8974726Y-22865910D03*
X28600000Y-37230000D03*
X19500000Y-20500000D03*
X19500000Y-16000000D03*
X21500000Y-52000000D03*
X34000000Y-8500000D03*
X26000000Y-42500000D03*
X17588182Y-41009056D03*
X25500000Y-29500000D03*
X29000000Y-6500000D03*
X33000000Y-7500000D03*
X34000000Y-29500000D03*
X20167705Y-20870546D03*
X22710000Y-32440000D03*
X20500000Y-47000000D03*
X23500000Y-20500000D03*
X5590000Y-33810000D03*
X11698140Y-5876964D03*
X19500000Y-46000000D03*
X29346000Y-45500000D03*
X24070000Y-43830000D03*
X7250000Y-52000000D03*
X19000000Y-45500000D03*
X23003685Y-21042007D03*
X24097052Y-17871000D03*
X24000000Y-27000000D03*
X30500000Y-33000000D03*
X12680000Y-7850000D03*
X8110000Y-33690000D03*
X29950000Y-40220000D03*
X4860000Y-51800000D03*
X34000000Y-32500000D03*
X17582788Y-39148159D03*
X29000000Y-46500000D03*
X20584274Y-44362161D03*
X15213013Y-4885420D03*
X4750000Y-7500000D03*
X14500000Y-21750000D03*
X31000000Y-8500000D03*
X34000000Y-31500000D03*
X24750000Y-27250000D03*
X12660000Y-33970000D03*
X25000000Y-41000000D03*
X5500000Y-6250000D03*
X1500000Y-6250000D03*
X6730000Y-33520000D03*
X19500000Y-17500000D03*
X8920000Y-25090000D03*
X1250000Y-29500000D03*
X2500000Y-7500000D03*
X23500000Y-5000000D03*
X30720000Y-51720000D03*
X18750000Y-46750000D03*
X3250000Y-7750000D03*
X24500000Y-26000000D03*
X24000000Y-10000000D03*
X22000000Y-31500000D03*
X29050000Y-39670000D03*
X2638608Y-4516676D03*
X9500000Y-33250000D03*
X22500000Y-15000000D03*
X20973030Y-20208894D03*
X19792017Y-40602826D03*
X31000000Y-11500000D03*
X22500000Y-52000000D03*
X32000000Y-32500000D03*
X30269572Y-26730428D03*
X26500000Y-30500000D03*
X5250000Y-7000000D03*
X14458385Y-12846193D03*
X14388480Y-16489020D03*
X15500000Y-4000000D03*
X30802107Y-36226580D03*
X26500000Y-29500000D03*
X11700000Y-51000000D03*
X21731937Y-20902909D03*
X30000000Y-11000000D03*
X4000000Y-7750000D03*
X26808527Y-23380777D03*
X23617183Y-19895457D03*
X27000000Y-51000000D03*
X31370000Y-49710000D03*
X31500000Y-27000000D03*
X23500000Y-11500000D03*
X18000000Y-24000000D03*
X34000000Y-30500000D03*
X33500000Y-33000000D03*
X5260000Y-28080000D03*
X22880000Y-5710000D03*
X31000000Y-5500000D03*
X32000000Y-6500000D03*
X22000000Y-6500000D03*
X9417458Y-23386314D03*
X11000000Y-34060000D03*
X18500000Y-16500000D03*
D21*
%TO.N,+3V3*%
X21000000Y-18825000D03*
D22*
X28000000Y-3000000D03*
D20*
%TO.N,Net-(U1-EN)*%
X24000000Y-17000000D03*
%TO.N,Net-(D2-A)*%
X12250000Y-11250000D03*
X15300000Y-51800000D03*
%TO.N,Net-(D3-A)*%
X14250000Y-10000000D03*
X23500000Y-48500000D03*
%TO.N,/TX*%
X28000000Y-9000000D03*
%TO.N,/RX*%
X28500000Y-9960000D03*
%TO.N,Net-(D4-A)*%
X14000000Y-9000000D03*
X18410000Y-48300000D03*
%TO.N,Net-(J3-CC1)*%
X29349145Y-31500000D03*
%TO.N,/USB_DM*%
X28000000Y-6000000D03*
X29250000Y-4750000D03*
%TO.N,Net-(J3-CC2)*%
X29349145Y-28500000D03*
%TO.N,Net-(J_EXP1-Pin_4)*%
X16500000Y-7000000D03*
%TO.N,Net-(J_EXP1-Pin_3)*%
X17000000Y-8000000D03*
%TO.N,Net-(J_EXP1-Pin_5)*%
X15807034Y-6307034D03*
%TO.N,Net-(J_EXP1-Pin_2)*%
X18000000Y-9000000D03*
%TO.N,GND_ISO*%
X9250000Y-38500000D03*
X12863099Y-36572016D03*
X7250000Y-38500000D03*
X11750000Y-38500000D03*
X8250000Y-46500000D03*
X7750000Y-43750000D03*
X4652378Y-36572016D03*
X4750000Y-43750000D03*
X10000000Y-38500000D03*
X13500000Y-46250000D03*
X8250000Y-38500000D03*
X11000000Y-46500000D03*
X6250000Y-38500000D03*
X4500000Y-46500000D03*
X14500000Y-46250000D03*
X14000000Y-45500000D03*
X11000000Y-38500000D03*
X14423776Y-37032308D03*
%TO.N,/TX_RS485*%
X10750000Y-4000000D03*
X7750000Y-29250000D03*
%TO.N,/DE_RS485*%
X10250000Y-29250000D03*
X12250000Y-4000000D03*
%TO.N,/RX_RS485*%
X11500000Y-29250000D03*
X14000000Y-4500000D03*
%TD*%
D23*
%TO.N,GND*%
X32750000Y-27500000D02*
X31039144Y-27500000D01*
D24*
X3000000Y-13000000D02*
X5000000Y-11000000D01*
D23*
X32750000Y-28424145D02*
X32750000Y-27500000D01*
X28669145Y-25680000D02*
X30548111Y-25680000D01*
X30269572Y-26730428D02*
X29219145Y-25680000D01*
X32674145Y-28500000D02*
X32674145Y-31412500D01*
X31477181Y-25680000D02*
X31012646Y-26144535D01*
X30548111Y-25680000D02*
X31012646Y-26144535D01*
X4000000Y-14000000D02*
X4000000Y-16000000D01*
X4000000Y-16000000D02*
X2000000Y-18000000D01*
X31039144Y-27500000D02*
X30269572Y-26730428D01*
X32849145Y-25680000D02*
X31477181Y-25680000D01*
%TO.N,+3V3*%
X21000000Y-10000000D02*
X21000000Y-18825000D01*
D24*
X21000000Y-18825000D02*
X22500000Y-18825000D01*
D23*
X28000000Y-3000000D02*
X21000000Y-10000000D01*
%TO.N,Net-(U1-EN)*%
X24000000Y-15725000D02*
X24000000Y-17000000D01*
X22500000Y-17000000D02*
X24000000Y-17000000D01*
%TO.N,Net-(D2-A)*%
X16720000Y-32720000D02*
X12250000Y-28250000D01*
X16720000Y-50380000D02*
X16720000Y-32720000D01*
X15300000Y-51800000D02*
X16720000Y-50380000D01*
X12250000Y-28250000D02*
X12250000Y-11250000D01*
%TO.N,Net-(D3-A)*%
X19000000Y-33750000D02*
X13500000Y-28250000D01*
X13500000Y-28250000D02*
X13500000Y-10750000D01*
X19000000Y-44000000D02*
X19000000Y-33750000D01*
X23500000Y-48500000D02*
X19000000Y-44000000D01*
X13500000Y-10750000D02*
X14250000Y-10000000D01*
%TO.N,/TX*%
X27500000Y-18500000D02*
X29000000Y-20000000D01*
X28000000Y-9000000D02*
X27500000Y-9500000D01*
X27500000Y-9500000D02*
X27500000Y-18500000D01*
%TO.N,/RX*%
X33000000Y-11500000D02*
X33000000Y-18000000D01*
X28500000Y-9960000D02*
X31460000Y-9960000D01*
X33000000Y-18000000D02*
X31000000Y-20000000D01*
X31460000Y-9960000D02*
X33000000Y-11500000D01*
%TO.N,Net-(D4-A)*%
X13000000Y-28363611D02*
X13000000Y-10000000D01*
X17790000Y-47680000D02*
X17790000Y-45320122D01*
X17790000Y-45320122D02*
X18490000Y-44620122D01*
X18490000Y-44620122D02*
X18490000Y-33853611D01*
X18490000Y-33853611D02*
X13000000Y-28363611D01*
X18410000Y-48300000D02*
X17790000Y-47680000D01*
X13000000Y-10000000D02*
X14000000Y-9000000D01*
%TO.N,Net-(J3-CC1)*%
X29349145Y-31500000D02*
X30936645Y-31500000D01*
%TO.N,/USB_DM*%
X29250000Y-4750000D02*
X28000000Y-6000000D01*
%TO.N,Net-(J3-CC2)*%
X29349145Y-28500000D02*
X30849145Y-28500000D01*
%TO.N,Net-(J_EXP1-Pin_4)*%
X16000000Y-29500000D02*
X31620000Y-45120000D01*
X16000000Y-7500000D02*
X16500000Y-7000000D01*
X33500000Y-45120000D02*
X31620000Y-45120000D01*
X16000000Y-29500000D02*
X16000000Y-7500000D01*
%TO.N,Net-(J_EXP1-Pin_3)*%
X16500000Y-29500000D02*
X16500000Y-8500000D01*
X32080000Y-44000000D02*
X31000000Y-44000000D01*
X16500000Y-8500000D02*
X17000000Y-8000000D01*
X31000000Y-44000000D02*
X16500000Y-29500000D01*
X33500000Y-42580000D02*
X32080000Y-44000000D01*
%TO.N,Net-(J_EXP1-Pin_5)*%
X15500000Y-29660000D02*
X33500000Y-47660000D01*
X15807034Y-6307034D02*
X15500000Y-6614069D01*
X15500000Y-6614069D02*
X15500000Y-29660000D01*
%TO.N,Net-(J_EXP1-Pin_2)*%
X31040000Y-42500000D02*
X33500000Y-40040000D01*
X17028138Y-9000000D02*
X17000000Y-9028138D01*
X30500000Y-43000000D02*
X31000000Y-42500000D01*
X17000000Y-29500000D02*
X30500000Y-43000000D01*
X18000000Y-9000000D02*
X17028138Y-9000000D01*
X31000000Y-42500000D02*
X31040000Y-42500000D01*
X17000000Y-9028138D02*
X17000000Y-29500000D01*
%TO.N,/TX_RS485*%
X7750000Y-7000000D02*
X10750000Y-4000000D01*
X7750000Y-29250000D02*
X7750000Y-7000000D01*
%TO.N,/DE_RS485*%
X10250000Y-6000000D02*
X12250000Y-4000000D01*
X10250000Y-29250000D02*
X10250000Y-6000000D01*
%TO.N,/RX_RS485*%
X11500000Y-29250000D02*
X11500000Y-7000000D01*
X11500000Y-7000000D02*
X14000000Y-4500000D01*
%TD*%
%TA.AperFunction,Conductor*%
%TO.N,GND*%
G36*
X15198590Y-48106781D02*
G01*
X15198924Y-48106880D01*
X15250000Y-48106880D01*
X15447938Y-48106880D01*
X16095500Y-48106880D01*
X16162539Y-48126565D01*
X16208294Y-48179369D01*
X16219500Y-48230880D01*
X16219500Y-50121324D01*
X16199815Y-50188363D01*
X16183181Y-50209005D01*
X15329005Y-51063181D01*
X15267682Y-51096666D01*
X15241324Y-51099500D01*
X15231005Y-51099500D01*
X15095677Y-51126418D01*
X15095667Y-51126421D01*
X14968195Y-51179221D01*
X14968182Y-51179228D01*
X14853458Y-51255885D01*
X14853454Y-51255888D01*
X14755888Y-51353454D01*
X14755885Y-51353458D01*
X14679228Y-51468182D01*
X14679221Y-51468195D01*
X14626421Y-51595667D01*
X14626418Y-51595677D01*
X14599500Y-51731004D01*
X14599500Y-51731007D01*
X14599500Y-51868993D01*
X14599500Y-51868995D01*
X14599499Y-51868995D01*
X14626418Y-52004322D01*
X14626421Y-52004332D01*
X14679221Y-52131804D01*
X14679228Y-52131817D01*
X14755885Y-52246541D01*
X14755888Y-52246545D01*
X14787833Y-52278490D01*
X14821318Y-52339813D01*
X14816334Y-52409505D01*
X14774462Y-52465438D01*
X14708998Y-52489855D01*
X14700152Y-52490171D01*
X626358Y-52490171D01*
X559319Y-52470486D01*
X513564Y-52417682D01*
X502358Y-52366171D01*
X502358Y-48225102D01*
X522043Y-48158063D01*
X574847Y-48112308D01*
X626404Y-48101102D01*
X15198590Y-48106781D01*
G37*
%TD.AperFunction*%
%TA.AperFunction,Conductor*%
G36*
X19705703Y-34573963D02*
G01*
X19712181Y-34579995D01*
X32280283Y-47148097D01*
X32313768Y-47209420D01*
X32310533Y-47274096D01*
X32280291Y-47367169D01*
X32280291Y-47367172D01*
X32249500Y-47561577D01*
X32249500Y-47758422D01*
X32280290Y-47952826D01*
X32341117Y-48140029D01*
X32420424Y-48295677D01*
X32430476Y-48315405D01*
X32546172Y-48474646D01*
X32685354Y-48613828D01*
X32804784Y-48700600D01*
X32844596Y-48729525D01*
X32911628Y-48763679D01*
X32962425Y-48811653D01*
X32979220Y-48879474D01*
X32956683Y-48945609D01*
X32911630Y-48984648D01*
X32792443Y-49045378D01*
X32792440Y-49045380D01*
X32738282Y-49084727D01*
X32738282Y-49084728D01*
X33370591Y-49717037D01*
X33307007Y-49734075D01*
X33192993Y-49799901D01*
X33099901Y-49892993D01*
X33034075Y-50007007D01*
X33017037Y-50070591D01*
X32384728Y-49438282D01*
X32384727Y-49438282D01*
X32345380Y-49492439D01*
X32248904Y-49681782D01*
X32183242Y-49883869D01*
X32183242Y-49883872D01*
X32150000Y-50093753D01*
X32150000Y-50306246D01*
X32183242Y-50516127D01*
X32183242Y-50516130D01*
X32248904Y-50718217D01*
X32345375Y-50907550D01*
X32384728Y-50961716D01*
X33017037Y-50329408D01*
X33034075Y-50392993D01*
X33099901Y-50507007D01*
X33192993Y-50600099D01*
X33307007Y-50665925D01*
X33370589Y-50682962D01*
X32738282Y-51315269D01*
X32738282Y-51315270D01*
X32792449Y-51354624D01*
X32981782Y-51451095D01*
X33183870Y-51516757D01*
X33393754Y-51550000D01*
X33606246Y-51550000D01*
X33816127Y-51516757D01*
X33816130Y-51516757D01*
X34018217Y-51451095D01*
X34207557Y-51354620D01*
X34304473Y-51284208D01*
X34370279Y-51260728D01*
X34438333Y-51276554D01*
X34487028Y-51326659D01*
X34501358Y-51384526D01*
X34501358Y-52366171D01*
X34481673Y-52433210D01*
X34428869Y-52478965D01*
X34377358Y-52490171D01*
X15899848Y-52490171D01*
X15832809Y-52470486D01*
X15787054Y-52417682D01*
X15777110Y-52348524D01*
X15806135Y-52284968D01*
X15812167Y-52278490D01*
X15844111Y-52246545D01*
X15844114Y-52246542D01*
X15920775Y-52131811D01*
X15973580Y-52004328D01*
X16000500Y-51868993D01*
X16000500Y-51858674D01*
X16020185Y-51791635D01*
X16036814Y-51770997D01*
X17017104Y-50790707D01*
X17017109Y-50790704D01*
X17027312Y-50780500D01*
X17027314Y-50780500D01*
X17120500Y-50687314D01*
X17186392Y-50573186D01*
X17220500Y-50445892D01*
X17220500Y-48117676D01*
X17240185Y-48050637D01*
X17292989Y-48004882D01*
X17362147Y-47994938D01*
X17425703Y-48023963D01*
X17432181Y-48029995D01*
X17673181Y-48270995D01*
X17706666Y-48332318D01*
X17709500Y-48358676D01*
X17709500Y-48368993D01*
X17709500Y-48368995D01*
X17709499Y-48368995D01*
X17736418Y-48504322D01*
X17736421Y-48504332D01*
X17789221Y-48631804D01*
X17789228Y-48631817D01*
X17865885Y-48746541D01*
X17865888Y-48746545D01*
X17963454Y-48844111D01*
X17963458Y-48844114D01*
X18078182Y-48920771D01*
X18078195Y-48920778D01*
X18205667Y-48973578D01*
X18205672Y-48973580D01*
X18205676Y-48973580D01*
X18205677Y-48973581D01*
X18341004Y-49000500D01*
X18341007Y-49000500D01*
X18478995Y-49000500D01*
X18570041Y-48982389D01*
X18614328Y-48973580D01*
X18741811Y-48920775D01*
X18856542Y-48844114D01*
X18954114Y-48746542D01*
X19030775Y-48631811D01*
X19083580Y-48504328D01*
X19110500Y-48368993D01*
X19110500Y-48231007D01*
X19110500Y-48231004D01*
X19083581Y-48095677D01*
X19083580Y-48095676D01*
X19083580Y-48095672D01*
X19083578Y-48095667D01*
X19030778Y-47968195D01*
X19030771Y-47968182D01*
X18954114Y-47853458D01*
X18954111Y-47853454D01*
X18856545Y-47755888D01*
X18856541Y-47755885D01*
X18741817Y-47679228D01*
X18741804Y-47679221D01*
X18614332Y-47626421D01*
X18614322Y-47626418D01*
X18478995Y-47599500D01*
X18478993Y-47599500D01*
X18468676Y-47599500D01*
X18439235Y-47590855D01*
X18409249Y-47584332D01*
X18404233Y-47580577D01*
X18401637Y-47579815D01*
X18380995Y-47563181D01*
X18326819Y-47509005D01*
X18293334Y-47447682D01*
X18290500Y-47421324D01*
X18290500Y-45578798D01*
X18310185Y-45511759D01*
X18326819Y-45491117D01*
X18890497Y-44927439D01*
X18890499Y-44927437D01*
X18911368Y-44891292D01*
X18918336Y-44879224D01*
X18922277Y-44872395D01*
X18930165Y-44858733D01*
X18980728Y-44810517D01*
X19049335Y-44797291D01*
X19114201Y-44823256D01*
X19125235Y-44833049D01*
X22763181Y-48470995D01*
X22796666Y-48532318D01*
X22799500Y-48558676D01*
X22799500Y-48568993D01*
X22799500Y-48568995D01*
X22799499Y-48568995D01*
X22826418Y-48704322D01*
X22826421Y-48704332D01*
X22879221Y-48831804D01*
X22879228Y-48831817D01*
X22955885Y-48946541D01*
X22955888Y-48946545D01*
X23053454Y-49044111D01*
X23053458Y-49044114D01*
X23168182Y-49120771D01*
X23168195Y-49120778D01*
X23295667Y-49173578D01*
X23295672Y-49173580D01*
X23295676Y-49173580D01*
X23295677Y-49173581D01*
X23431004Y-49200500D01*
X23431007Y-49200500D01*
X23568995Y-49200500D01*
X23660041Y-49182389D01*
X23704328Y-49173580D01*
X23831811Y-49120775D01*
X23946542Y-49044114D01*
X24044114Y-48946542D01*
X24120775Y-48831811D01*
X24173580Y-48704328D01*
X24182389Y-48660041D01*
X24200500Y-48568995D01*
X24200500Y-48431004D01*
X24173581Y-48295677D01*
X24173580Y-48295676D01*
X24173580Y-48295672D01*
X24173578Y-48295667D01*
X24120778Y-48168195D01*
X24120771Y-48168182D01*
X24044114Y-48053458D01*
X24044111Y-48053454D01*
X23946545Y-47955888D01*
X23946541Y-47955885D01*
X23831817Y-47879228D01*
X23831804Y-47879221D01*
X23704332Y-47826421D01*
X23704322Y-47826418D01*
X23568995Y-47799500D01*
X23568993Y-47799500D01*
X23558676Y-47799500D01*
X23491637Y-47779815D01*
X23470995Y-47763181D01*
X19536819Y-43829005D01*
X19503334Y-43767682D01*
X19500500Y-43741324D01*
X19500500Y-34667676D01*
X19520185Y-34600637D01*
X19572989Y-34554882D01*
X19642147Y-34544938D01*
X19705703Y-34573963D01*
G37*
%TD.AperFunction*%
%TA.AperFunction,Conductor*%
G36*
X17425703Y-33497574D02*
G01*
X17432181Y-33503606D01*
X17953181Y-34024606D01*
X17986666Y-34085929D01*
X17989500Y-34112287D01*
X17989500Y-44361446D01*
X17969815Y-44428485D01*
X17953181Y-44449127D01*
X17432181Y-44970127D01*
X17370858Y-45003612D01*
X17301166Y-44998628D01*
X17245233Y-44956756D01*
X17220816Y-44891292D01*
X17220500Y-44882446D01*
X17220500Y-33591287D01*
X17240185Y-33524248D01*
X17292989Y-33478493D01*
X17362147Y-33468549D01*
X17425703Y-33497574D01*
G37*
%TD.AperFunction*%
%TA.AperFunction,Conductor*%
G36*
X30086420Y-20575405D02*
G01*
X30100318Y-20591445D01*
X30179648Y-20700634D01*
X30179652Y-20700639D01*
X30299360Y-20820347D01*
X30299365Y-20820351D01*
X30323915Y-20838188D01*
X30366581Y-20893518D01*
X30372560Y-20963131D01*
X30366329Y-20974939D01*
X30363568Y-21010015D01*
X30953554Y-21600000D01*
X30947339Y-21600000D01*
X30845606Y-21627259D01*
X30754394Y-21679920D01*
X30679920Y-21754394D01*
X30627259Y-21845606D01*
X30600000Y-21947339D01*
X30600000Y-21953552D01*
X30010014Y-21363566D01*
X30009730Y-21363589D01*
X29990270Y-21363589D01*
X29989985Y-21363566D01*
X29400000Y-21953551D01*
X29400000Y-21947339D01*
X29372741Y-21845606D01*
X29320080Y-21754394D01*
X29245606Y-21679920D01*
X29154394Y-21627259D01*
X29052661Y-21600000D01*
X29046447Y-21600000D01*
X29636431Y-21010016D01*
X29634448Y-20984828D01*
X29633414Y-20983486D01*
X29627440Y-20913872D01*
X29660050Y-20852079D01*
X29676077Y-20838192D01*
X29700641Y-20820346D01*
X29820346Y-20700641D01*
X29873723Y-20627174D01*
X29899682Y-20591445D01*
X29955011Y-20548779D01*
X30024625Y-20542800D01*
X30086420Y-20575405D01*
G37*
%TD.AperFunction*%
%TA.AperFunction,Conductor*%
G36*
X31268363Y-10480185D02*
G01*
X31289005Y-10496819D01*
X32463181Y-11670995D01*
X32496666Y-11732318D01*
X32499500Y-11758676D01*
X32499500Y-17741323D01*
X32479815Y-17808362D01*
X32463181Y-17829004D01*
X32287181Y-18005004D01*
X32225858Y-18038489D01*
X32156166Y-18033505D01*
X32100233Y-17991633D01*
X32075816Y-17926169D01*
X32075500Y-17917323D01*
X32075500Y-17915350D01*
X32049018Y-17748152D01*
X32024417Y-17672439D01*
X31996705Y-17587151D01*
X31996703Y-17587148D01*
X31996703Y-17587146D01*
X31955113Y-17505523D01*
X31919850Y-17436315D01*
X31899681Y-17408554D01*
X31820351Y-17299365D01*
X31820347Y-17299360D01*
X31700639Y-17179652D01*
X31700634Y-17179648D01*
X31591445Y-17100318D01*
X31548779Y-17044989D01*
X31542800Y-16975375D01*
X31575405Y-16913580D01*
X31591445Y-16899682D01*
X31700634Y-16820351D01*
X31700632Y-16820351D01*
X31700641Y-16820346D01*
X31820346Y-16700641D01*
X31919850Y-16563685D01*
X31996705Y-16412849D01*
X32049018Y-16251847D01*
X32050598Y-16241869D01*
X32075500Y-16084649D01*
X32075500Y-15915350D01*
X32049018Y-15748152D01*
X32024745Y-15673450D01*
X31996705Y-15587151D01*
X31996703Y-15587148D01*
X31996703Y-15587146D01*
X31931714Y-15459600D01*
X31919850Y-15436315D01*
X31895433Y-15402708D01*
X31820351Y-15299365D01*
X31820347Y-15299360D01*
X31700639Y-15179652D01*
X31700634Y-15179648D01*
X31591445Y-15100318D01*
X31548779Y-15044989D01*
X31542800Y-14975375D01*
X31575405Y-14913580D01*
X31591445Y-14899682D01*
X31700634Y-14820351D01*
X31700632Y-14820351D01*
X31700641Y-14820346D01*
X31820346Y-14700641D01*
X31919850Y-14563685D01*
X31996705Y-14412849D01*
X32049018Y-14251847D01*
X32060452Y-14179654D01*
X32075500Y-14084649D01*
X32075500Y-13915350D01*
X32049018Y-13748152D01*
X32024745Y-13673450D01*
X31996705Y-13587151D01*
X31996703Y-13587148D01*
X31996703Y-13587146D01*
X31968820Y-13532425D01*
X31919850Y-13436315D01*
X31835401Y-13320080D01*
X31820351Y-13299365D01*
X31820347Y-13299360D01*
X31700639Y-13179652D01*
X31700634Y-13179648D01*
X31563688Y-13080152D01*
X31563687Y-13080151D01*
X31563685Y-13080150D01*
X31509735Y-13052661D01*
X31412853Y-13003296D01*
X31251847Y-12950981D01*
X31084649Y-12924500D01*
X31084644Y-12924500D01*
X30915356Y-12924500D01*
X30915351Y-12924500D01*
X30748152Y-12950981D01*
X30587146Y-13003296D01*
X30436311Y-13080152D01*
X30299365Y-13179648D01*
X30299360Y-13179652D01*
X30255137Y-13223875D01*
X30193814Y-13257359D01*
X30124122Y-13252374D01*
X30068189Y-13210502D01*
X30056979Y-13192499D01*
X30003050Y-13086658D01*
X30003048Y-13086656D01*
X30003045Y-13086652D01*
X29913347Y-12996954D01*
X29913344Y-12996952D01*
X29913342Y-12996950D01*
X29823125Y-12950982D01*
X29800301Y-12939352D01*
X29706524Y-12924500D01*
X28293482Y-12924500D01*
X28199695Y-12939354D01*
X28180794Y-12948985D01*
X28112124Y-12961881D01*
X28047384Y-12935604D01*
X28007128Y-12878497D01*
X28000500Y-12838500D01*
X28000500Y-10696895D01*
X28020185Y-10629856D01*
X28072989Y-10584101D01*
X28142147Y-10574157D01*
X28171952Y-10582333D01*
X28295672Y-10633580D01*
X28295676Y-10633580D01*
X28295677Y-10633581D01*
X28431004Y-10660500D01*
X28431007Y-10660500D01*
X28568995Y-10660500D01*
X28660041Y-10642389D01*
X28704328Y-10633580D01*
X28831811Y-10580775D01*
X28946542Y-10504114D01*
X28949307Y-10501349D01*
X28953838Y-10496819D01*
X29015161Y-10463334D01*
X29041519Y-10460500D01*
X31201324Y-10460500D01*
X31268363Y-10480185D01*
G37*
%TD.AperFunction*%
%TA.AperFunction,Conductor*%
G36*
X3989983Y-13636430D02*
G01*
X4015158Y-13634450D01*
X4016498Y-13633417D01*
X4086111Y-13627435D01*
X4147907Y-13660038D01*
X4161809Y-13676080D01*
X4179652Y-13700639D01*
X4299360Y-13820347D01*
X4299365Y-13820351D01*
X4408554Y-13899682D01*
X4451220Y-13955012D01*
X4457199Y-14024625D01*
X4424593Y-14086420D01*
X4408554Y-14100318D01*
X4299365Y-14179648D01*
X4299360Y-14179652D01*
X4179652Y-14299360D01*
X4179648Y-14299365D01*
X4100318Y-14408554D01*
X4044988Y-14451220D01*
X3975375Y-14457199D01*
X3913580Y-14424593D01*
X3899682Y-14408554D01*
X3820351Y-14299365D01*
X3820347Y-14299360D01*
X3700639Y-14179652D01*
X3676080Y-14161809D01*
X3633415Y-14106479D01*
X3627436Y-14036866D01*
X3633671Y-14025047D01*
X3636431Y-13989983D01*
X3046448Y-13400000D01*
X3052661Y-13400000D01*
X3154394Y-13372741D01*
X3245606Y-13320080D01*
X3320080Y-13245606D01*
X3372741Y-13154394D01*
X3400000Y-13052661D01*
X3400000Y-13046447D01*
X3989983Y-13636430D01*
G37*
%TD.AperFunction*%
%TA.AperFunction,Conductor*%
G36*
X34444397Y-1510856D02*
G01*
X34490152Y-1563660D01*
X34501358Y-1615171D01*
X34501358Y-36125500D01*
X34481673Y-36192539D01*
X34428869Y-36238294D01*
X34377358Y-36249500D01*
X32618482Y-36249500D01*
X32537519Y-36262323D01*
X32524696Y-36264354D01*
X32411658Y-36321950D01*
X32411657Y-36321951D01*
X32411652Y-36321954D01*
X32321954Y-36411652D01*
X32321951Y-36411657D01*
X32264352Y-36524698D01*
X32249500Y-36618475D01*
X32249500Y-38381517D01*
X32260292Y-38449657D01*
X32264354Y-38475304D01*
X32321950Y-38588342D01*
X32321952Y-38588344D01*
X32321954Y-38588347D01*
X32411652Y-38678045D01*
X32411654Y-38678046D01*
X32411658Y-38678050D01*
X32524696Y-38735646D01*
X32524698Y-38735647D01*
X32618475Y-38750499D01*
X32618481Y-38750500D01*
X32765735Y-38750499D01*
X32832772Y-38770183D01*
X32878527Y-38822987D01*
X32888471Y-38892145D01*
X32859446Y-38955701D01*
X32838619Y-38974816D01*
X32685360Y-39086167D01*
X32685351Y-39086174D01*
X32546174Y-39225351D01*
X32546174Y-39225352D01*
X32546172Y-39225354D01*
X32498642Y-39290773D01*
X32430476Y-39384594D01*
X32341117Y-39559970D01*
X32280290Y-39747173D01*
X32249500Y-39941577D01*
X32249500Y-40138422D01*
X32280290Y-40332822D01*
X32280291Y-40332827D01*
X32310533Y-40425903D01*
X32312528Y-40495744D01*
X32280283Y-40551901D01*
X30798871Y-42033313D01*
X30773192Y-42053018D01*
X30692689Y-42099498D01*
X30692683Y-42099502D01*
X30587681Y-42204505D01*
X30526358Y-42237990D01*
X30456666Y-42233006D01*
X30412319Y-42204505D01*
X22277814Y-34070000D01*
X27149283Y-34070000D01*
X27952157Y-34070000D01*
X27934940Y-34079940D01*
X27879085Y-34135795D01*
X27839589Y-34204204D01*
X27819145Y-34280504D01*
X27819145Y-34359496D01*
X27839589Y-34435796D01*
X27879085Y-34504205D01*
X27934940Y-34560060D01*
X27952157Y-34570000D01*
X27149283Y-34570000D01*
X27157575Y-34611690D01*
X27157575Y-34611692D01*
X27232952Y-34793671D01*
X27232959Y-34793684D01*
X27342393Y-34957462D01*
X27342396Y-34957466D01*
X27481678Y-35096748D01*
X27481682Y-35096751D01*
X27645460Y-35206185D01*
X27645473Y-35206192D01*
X27827451Y-35281569D01*
X27827463Y-35281572D01*
X28020649Y-35319999D01*
X28020653Y-35320000D01*
X28419145Y-35320000D01*
X28419145Y-34620000D01*
X28919145Y-34620000D01*
X28919145Y-35320000D01*
X29317637Y-35320000D01*
X29317640Y-35319999D01*
X29510826Y-35281572D01*
X29510838Y-35281569D01*
X29692816Y-35206192D01*
X29692829Y-35206185D01*
X29856607Y-35096751D01*
X29856611Y-35096748D01*
X29995893Y-34957466D01*
X29995896Y-34957462D01*
X30105330Y-34793684D01*
X30105337Y-34793671D01*
X30180714Y-34611692D01*
X30180714Y-34611690D01*
X30189007Y-34570000D01*
X29386133Y-34570000D01*
X29403350Y-34560060D01*
X29459205Y-34504205D01*
X29498701Y-34435796D01*
X29519145Y-34359496D01*
X29519145Y-34280504D01*
X29498701Y-34204204D01*
X29459205Y-34135795D01*
X29403350Y-34079940D01*
X29386133Y-34070000D01*
X30189007Y-34070000D01*
X31479283Y-34070000D01*
X32282157Y-34070000D01*
X32264940Y-34079940D01*
X32209085Y-34135795D01*
X32169589Y-34204204D01*
X32149145Y-34280504D01*
X32149145Y-34359496D01*
X32169589Y-34435796D01*
X32209085Y-34504205D01*
X32264940Y-34560060D01*
X32282157Y-34570000D01*
X31479283Y-34570000D01*
X31487575Y-34611690D01*
X31487575Y-34611692D01*
X31562952Y-34793671D01*
X31562959Y-34793684D01*
X31672393Y-34957462D01*
X31672396Y-34957466D01*
X31811678Y-35096748D01*
X31811682Y-35096751D01*
X31975460Y-35206185D01*
X31975473Y-35206192D01*
X32157451Y-35281569D01*
X32157463Y-35281572D01*
X32350649Y-35319999D01*
X32350653Y-35320000D01*
X32599145Y-35320000D01*
X32599145Y-34620000D01*
X33099145Y-34620000D01*
X33099145Y-35320000D01*
X33347637Y-35320000D01*
X33347640Y-35319999D01*
X33540826Y-35281572D01*
X33540838Y-35281569D01*
X33722816Y-35206192D01*
X33722829Y-35206185D01*
X33886607Y-35096751D01*
X33886611Y-35096748D01*
X34025893Y-34957466D01*
X34025896Y-34957462D01*
X34135330Y-34793684D01*
X34135337Y-34793671D01*
X34210714Y-34611692D01*
X34210714Y-34611690D01*
X34219007Y-34570000D01*
X33416133Y-34570000D01*
X33433350Y-34560060D01*
X33489205Y-34504205D01*
X33528701Y-34435796D01*
X33549145Y-34359496D01*
X33549145Y-34280504D01*
X33528701Y-34204204D01*
X33489205Y-34135795D01*
X33433350Y-34079940D01*
X33416133Y-34070000D01*
X34219007Y-34070000D01*
X34210714Y-34028309D01*
X34210714Y-34028307D01*
X34135337Y-33846328D01*
X34135330Y-33846315D01*
X34025896Y-33682537D01*
X34025893Y-33682533D01*
X33886611Y-33543251D01*
X33886607Y-33543248D01*
X33722829Y-33433814D01*
X33722816Y-33433807D01*
X33540838Y-33358430D01*
X33540826Y-33358427D01*
X33347640Y-33320000D01*
X33099145Y-33320000D01*
X33099145Y-34020000D01*
X32599145Y-34020000D01*
X32599145Y-33320000D01*
X32350649Y-33320000D01*
X32157463Y-33358427D01*
X32157451Y-33358430D01*
X31975473Y-33433807D01*
X31975460Y-33433814D01*
X31811682Y-33543248D01*
X31811678Y-33543251D01*
X31672396Y-33682533D01*
X31672393Y-33682537D01*
X31562959Y-33846315D01*
X31562952Y-33846328D01*
X31487575Y-34028307D01*
X31487575Y-34028309D01*
X31479283Y-34070000D01*
X30189007Y-34070000D01*
X30180714Y-34028309D01*
X30180714Y-34028307D01*
X30105337Y-33846328D01*
X30105330Y-33846315D01*
X29995896Y-33682537D01*
X29995893Y-33682533D01*
X29856611Y-33543251D01*
X29856607Y-33543248D01*
X29692829Y-33433814D01*
X29692817Y-33433807D01*
X29634947Y-33409838D01*
X29580543Y-33365998D01*
X29558478Y-33299704D01*
X29575757Y-33232004D01*
X29585378Y-33219627D01*
X29584704Y-33219110D01*
X29589645Y-33212669D01*
X29589650Y-33212665D01*
X29658833Y-33092836D01*
X29694645Y-32959183D01*
X29694645Y-32820817D01*
X29658833Y-32687164D01*
X29589650Y-32567335D01*
X29491810Y-32469495D01*
X29491809Y-32469494D01*
X29491806Y-32469492D01*
X29411727Y-32423259D01*
X29363512Y-32372692D01*
X29350288Y-32304085D01*
X29376256Y-32239221D01*
X29433170Y-32198692D01*
X29449536Y-32194255D01*
X29496929Y-32184827D01*
X29553473Y-32173580D01*
X29680956Y-32120775D01*
X29795687Y-32044114D01*
X29795690Y-32044111D01*
X29802983Y-32036819D01*
X29829910Y-32022115D01*
X29855729Y-32005523D01*
X29861929Y-32004631D01*
X29864306Y-32003334D01*
X29890664Y-32000500D01*
X30030233Y-32000500D01*
X30097272Y-32020185D01*
X30136965Y-32061379D01*
X30178519Y-32131643D01*
X30178521Y-32131645D01*
X30178523Y-32131648D01*
X30292496Y-32245621D01*
X30292500Y-32245624D01*
X30292502Y-32245626D01*
X30292505Y-32245627D01*
X30292508Y-32245630D01*
X30385001Y-32300329D01*
X30431251Y-32327681D01*
X30472073Y-32339541D01*
X30586042Y-32372653D01*
X30586045Y-32372653D01*
X30586047Y-32372654D01*
X30622210Y-32375500D01*
X31251079Y-32375499D01*
X31287243Y-32372654D01*
X31442039Y-32327681D01*
X31580788Y-32245626D01*
X31640157Y-32186257D01*
X31700288Y-32126127D01*
X31701789Y-32127628D01*
X31749539Y-32093127D01*
X31819305Y-32089322D01*
X31880053Y-32123839D01*
X31896440Y-32144927D01*
X31929199Y-32198037D01*
X32051106Y-32319944D01*
X32051110Y-32319947D01*
X32197833Y-32410448D01*
X32197844Y-32410453D01*
X32361492Y-32464680D01*
X32462496Y-32474999D01*
X33011645Y-32474999D01*
X33060785Y-32474999D01*
X33060799Y-32474998D01*
X33161797Y-32464680D01*
X33325445Y-32410453D01*
X33325456Y-32410448D01*
X33472179Y-32319947D01*
X33472183Y-32319944D01*
X33594089Y-32198038D01*
X33594092Y-32198034D01*
X33684593Y-32051311D01*
X33684598Y-32051300D01*
X33738825Y-31887652D01*
X33749144Y-31786654D01*
X33749145Y-31786641D01*
X33749145Y-31750000D01*
X33011645Y-31750000D01*
X33011645Y-32474999D01*
X32462496Y-32474999D01*
X32511644Y-32474998D01*
X32511645Y-32474998D01*
X32511645Y-31250000D01*
X33011645Y-31250000D01*
X33749144Y-31250000D01*
X33749144Y-31213360D01*
X33749143Y-31213345D01*
X33738825Y-31112347D01*
X33684598Y-30948699D01*
X33684593Y-30948688D01*
X33594092Y-30801965D01*
X33594089Y-30801961D01*
X33472183Y-30680055D01*
X33472179Y-30680052D01*
X33325456Y-30589551D01*
X33325445Y-30589546D01*
X33161797Y-30535319D01*
X33060799Y-30525000D01*
X33011645Y-30525000D01*
X33011645Y-31250000D01*
X32511645Y-31250000D01*
X32511645Y-30525000D01*
X32511644Y-30524999D01*
X32462506Y-30525000D01*
X32462488Y-30525001D01*
X32361492Y-30535319D01*
X32197844Y-30589546D01*
X32197833Y-30589551D01*
X32051110Y-30680052D01*
X32051106Y-30680055D01*
X31929197Y-30801964D01*
X31896439Y-30855073D01*
X31844491Y-30901796D01*
X31775528Y-30913017D01*
X31711446Y-30885173D01*
X31700418Y-30873742D01*
X31700288Y-30873873D01*
X31580793Y-30754378D01*
X31580781Y-30754369D01*
X31442041Y-30672320D01*
X31442034Y-30672317D01*
X31287247Y-30627346D01*
X31287241Y-30627345D01*
X31251080Y-30624500D01*
X30622222Y-30624500D01*
X30622197Y-30624501D01*
X30586046Y-30627346D01*
X30431255Y-30672317D01*
X30431248Y-30672320D01*
X30292508Y-30754369D01*
X30292496Y-30754378D01*
X30178523Y-30868351D01*
X30178517Y-30868360D01*
X30136965Y-30938621D01*
X30128664Y-30946371D01*
X30123946Y-30956703D01*
X30103584Y-30969788D01*
X30085896Y-30986304D01*
X30073203Y-30989313D01*
X30065168Y-30994477D01*
X30030233Y-30999500D01*
X29890664Y-30999500D01*
X29823625Y-30979815D01*
X29802983Y-30963181D01*
X29795690Y-30955888D01*
X29795686Y-30955885D01*
X29680962Y-30879228D01*
X29680949Y-30879221D01*
X29553477Y-30826421D01*
X29553467Y-30826418D01*
X29418140Y-30799500D01*
X29418138Y-30799500D01*
X29280152Y-30799500D01*
X29280150Y-30799500D01*
X29144822Y-30826418D01*
X29144812Y-30826421D01*
X29017340Y-30879221D01*
X29017327Y-30879228D01*
X28902603Y-30955885D01*
X28902599Y-30955888D01*
X28805033Y-31053454D01*
X28805030Y-31053458D01*
X28728373Y-31168182D01*
X28728366Y-31168195D01*
X28675566Y-31295667D01*
X28675563Y-31295677D01*
X28648645Y-31431004D01*
X28648645Y-31431007D01*
X28648645Y-31568993D01*
X28648645Y-31568995D01*
X28648644Y-31568995D01*
X28675563Y-31704322D01*
X28675566Y-31704332D01*
X28728366Y-31831804D01*
X28728373Y-31831817D01*
X28805030Y-31946541D01*
X28805033Y-31946545D01*
X28902599Y-32044111D01*
X28902603Y-32044114D01*
X29017327Y-32120771D01*
X29017334Y-32120775D01*
X29069587Y-32142419D01*
X29123989Y-32186257D01*
X29146055Y-32252551D01*
X29128777Y-32320251D01*
X29077640Y-32367862D01*
X29054228Y-32376754D01*
X28966307Y-32400312D01*
X28966306Y-32400313D01*
X28846483Y-32469492D01*
X28846478Y-32469496D01*
X28748641Y-32567333D01*
X28748637Y-32567338D01*
X28679458Y-32687161D01*
X28679457Y-32687164D01*
X28643645Y-32820817D01*
X28643645Y-32959182D01*
X28679457Y-33092835D01*
X28679458Y-33092838D01*
X28748637Y-33212661D01*
X28748639Y-33212664D01*
X28748640Y-33212665D01*
X28846480Y-33310505D01*
X28846481Y-33310506D01*
X28846483Y-33310507D01*
X28857141Y-33316660D01*
X28905359Y-33367225D01*
X28919145Y-33424049D01*
X28919145Y-34020000D01*
X28419145Y-34020000D01*
X28419145Y-33320000D01*
X28020649Y-33320000D01*
X27827463Y-33358427D01*
X27827451Y-33358430D01*
X27645473Y-33433807D01*
X27645460Y-33433814D01*
X27481682Y-33543248D01*
X27481678Y-33543251D01*
X27342396Y-33682533D01*
X27342393Y-33682537D01*
X27232959Y-33846315D01*
X27232952Y-33846328D01*
X27157575Y-34028307D01*
X27157575Y-34028309D01*
X27149283Y-34070000D01*
X22277814Y-34070000D01*
X17536819Y-29329005D01*
X17503334Y-29267682D01*
X17500500Y-29241324D01*
X17500500Y-25430000D01*
X27149283Y-25430000D01*
X27952157Y-25430000D01*
X27934940Y-25439940D01*
X27879085Y-25495795D01*
X27839589Y-25564204D01*
X27819145Y-25640504D01*
X27819145Y-25719496D01*
X27839589Y-25795796D01*
X27879085Y-25864205D01*
X27934940Y-25920060D01*
X27952157Y-25930000D01*
X27149283Y-25930000D01*
X27157575Y-25971690D01*
X27157575Y-25971692D01*
X27232952Y-26153671D01*
X27232959Y-26153684D01*
X27342393Y-26317462D01*
X27342396Y-26317466D01*
X27481678Y-26456748D01*
X27481682Y-26456751D01*
X27645460Y-26566185D01*
X27645473Y-26566192D01*
X27827451Y-26641569D01*
X27827463Y-26641572D01*
X28020649Y-26679999D01*
X28020653Y-26680000D01*
X28419145Y-26680000D01*
X28419145Y-25980000D01*
X28919145Y-25980000D01*
X28919145Y-26575950D01*
X28899460Y-26642989D01*
X28857146Y-26683337D01*
X28846480Y-26689494D01*
X28748641Y-26787333D01*
X28748637Y-26787338D01*
X28679458Y-26907161D01*
X28679457Y-26907164D01*
X28643645Y-27040817D01*
X28643645Y-27179183D01*
X28658775Y-27235647D01*
X28679457Y-27312835D01*
X28679458Y-27312838D01*
X28748637Y-27432661D01*
X28748639Y-27432664D01*
X28748640Y-27432665D01*
X28846480Y-27530505D01*
X28966309Y-27599688D01*
X29054228Y-27623245D01*
X29113888Y-27659610D01*
X29144417Y-27722457D01*
X29136122Y-27791832D01*
X29091637Y-27845710D01*
X29069587Y-27857581D01*
X29017336Y-27879223D01*
X29017327Y-27879228D01*
X28902603Y-27955885D01*
X28902599Y-27955888D01*
X28805033Y-28053454D01*
X28805030Y-28053458D01*
X28728373Y-28168182D01*
X28728366Y-28168195D01*
X28675566Y-28295667D01*
X28675563Y-28295677D01*
X28648645Y-28431004D01*
X28648645Y-28431007D01*
X28648645Y-28568993D01*
X28648645Y-28568995D01*
X28648644Y-28568995D01*
X28675563Y-28704322D01*
X28675566Y-28704332D01*
X28728366Y-28831804D01*
X28728373Y-28831817D01*
X28805030Y-28946541D01*
X28805033Y-28946545D01*
X28902599Y-29044111D01*
X28902603Y-29044114D01*
X29017327Y-29120771D01*
X29017340Y-29120778D01*
X29075642Y-29144927D01*
X29144817Y-29173580D01*
X29144821Y-29173580D01*
X29144822Y-29173581D01*
X29280149Y-29200500D01*
X29280152Y-29200500D01*
X29418140Y-29200500D01*
X29516150Y-29181004D01*
X29553473Y-29173580D01*
X29680956Y-29120775D01*
X29795687Y-29044114D01*
X29798115Y-29041686D01*
X29802983Y-29036819D01*
X29829910Y-29022115D01*
X29855729Y-29005523D01*
X29861929Y-29004631D01*
X29864306Y-29003334D01*
X29890664Y-29000500D01*
X29942733Y-29000500D01*
X30009772Y-29020185D01*
X30049465Y-29061379D01*
X30091019Y-29131643D01*
X30091021Y-29131645D01*
X30091023Y-29131648D01*
X30204996Y-29245621D01*
X30205000Y-29245624D01*
X30205002Y-29245626D01*
X30205005Y-29245627D01*
X30205008Y-29245630D01*
X30242297Y-29267682D01*
X30343751Y-29327681D01*
X30384573Y-29339541D01*
X30498542Y-29372653D01*
X30498545Y-29372653D01*
X30498547Y-29372654D01*
X30534710Y-29375500D01*
X31163579Y-29375499D01*
X31199743Y-29372654D01*
X31354539Y-29327681D01*
X31493288Y-29245626D01*
X31540880Y-29198034D01*
X31612788Y-29126127D01*
X31614289Y-29127628D01*
X31662039Y-29093127D01*
X31731805Y-29089322D01*
X31792553Y-29123839D01*
X31808940Y-29144927D01*
X31841699Y-29198037D01*
X31963606Y-29319944D01*
X31963610Y-29319947D01*
X32110333Y-29410448D01*
X32110344Y-29410453D01*
X32273992Y-29464680D01*
X32374996Y-29474999D01*
X32924145Y-29474999D01*
X32973285Y-29474999D01*
X32973299Y-29474998D01*
X33074297Y-29464680D01*
X33237945Y-29410453D01*
X33237956Y-29410448D01*
X33384679Y-29319947D01*
X33384683Y-29319944D01*
X33506589Y-29198038D01*
X33506592Y-29198034D01*
X33597093Y-29051311D01*
X33597099Y-29051299D01*
X33651325Y-28887652D01*
X33661644Y-28786654D01*
X33661645Y-28786641D01*
X33661645Y-28750000D01*
X32924145Y-28750000D01*
X32924145Y-29474999D01*
X32374996Y-29474999D01*
X32424144Y-29474998D01*
X32424145Y-29474998D01*
X32424145Y-28250000D01*
X32924145Y-28250000D01*
X33661644Y-28250000D01*
X33661644Y-28213360D01*
X33661643Y-28213345D01*
X33651325Y-28112347D01*
X33597098Y-27948699D01*
X33597093Y-27948688D01*
X33506592Y-27801965D01*
X33506589Y-27801961D01*
X33384683Y-27680055D01*
X33384679Y-27680052D01*
X33237956Y-27589551D01*
X33237945Y-27589546D01*
X33074297Y-27535319D01*
X32973299Y-27525000D01*
X32924145Y-27525000D01*
X32924145Y-28250000D01*
X32424145Y-28250000D01*
X32424145Y-27525000D01*
X32424144Y-27524999D01*
X32375006Y-27525000D01*
X32374988Y-27525001D01*
X32273992Y-27535319D01*
X32110344Y-27589546D01*
X32110333Y-27589551D01*
X31963610Y-27680052D01*
X31963606Y-27680055D01*
X31841697Y-27801964D01*
X31808939Y-27855073D01*
X31756991Y-27901796D01*
X31688028Y-27913017D01*
X31623946Y-27885173D01*
X31612918Y-27873742D01*
X31612788Y-27873873D01*
X31493293Y-27754378D01*
X31493281Y-27754369D01*
X31354541Y-27672320D01*
X31354534Y-27672317D01*
X31199747Y-27627346D01*
X31199741Y-27627345D01*
X31163580Y-27624500D01*
X30534722Y-27624500D01*
X30534697Y-27624501D01*
X30498546Y-27627346D01*
X30343755Y-27672317D01*
X30343748Y-27672320D01*
X30205008Y-27754369D01*
X30204996Y-27754378D01*
X30091023Y-27868351D01*
X30091017Y-27868360D01*
X30049465Y-27938621D01*
X30041164Y-27946371D01*
X30036446Y-27956703D01*
X30016084Y-27969788D01*
X29998396Y-27986304D01*
X29985703Y-27989313D01*
X29977668Y-27994477D01*
X29942733Y-27999500D01*
X29890664Y-27999500D01*
X29823625Y-27979815D01*
X29802983Y-27963181D01*
X29795690Y-27955888D01*
X29795686Y-27955885D01*
X29680962Y-27879228D01*
X29680949Y-27879221D01*
X29553477Y-27826421D01*
X29553467Y-27826418D01*
X29449535Y-27805744D01*
X29387624Y-27773358D01*
X29353050Y-27712642D01*
X29356791Y-27642873D01*
X29397658Y-27586201D01*
X29411715Y-27576747D01*
X29491810Y-27530505D01*
X29589650Y-27432665D01*
X29658833Y-27312836D01*
X29694645Y-27179183D01*
X29694645Y-27040817D01*
X29658833Y-26907164D01*
X29589650Y-26787335D01*
X29589648Y-26787333D01*
X29584704Y-26780890D01*
X29587330Y-26778874D01*
X29561233Y-26731080D01*
X29566217Y-26661388D01*
X29608089Y-26605455D01*
X29634949Y-26590160D01*
X29692819Y-26566190D01*
X29692829Y-26566185D01*
X29856607Y-26456751D01*
X29856611Y-26456748D01*
X29995893Y-26317466D01*
X29995896Y-26317462D01*
X30105330Y-26153684D01*
X30105337Y-26153671D01*
X30180714Y-25971692D01*
X30180714Y-25971690D01*
X30189007Y-25930000D01*
X29386133Y-25930000D01*
X29403350Y-25920060D01*
X29459205Y-25864205D01*
X29498701Y-25795796D01*
X29519145Y-25719496D01*
X29519145Y-25640504D01*
X29498701Y-25564204D01*
X29459205Y-25495795D01*
X29403350Y-25439940D01*
X29386133Y-25430000D01*
X30189007Y-25430000D01*
X31479283Y-25430000D01*
X32282157Y-25430000D01*
X32264940Y-25439940D01*
X32209085Y-25495795D01*
X32169589Y-25564204D01*
X32149145Y-25640504D01*
X32149145Y-25719496D01*
X32169589Y-25795796D01*
X32209085Y-25864205D01*
X32264940Y-25920060D01*
X32282157Y-25930000D01*
X31479283Y-25930000D01*
X31487575Y-25971690D01*
X31487575Y-25971692D01*
X31562952Y-26153671D01*
X31562959Y-26153684D01*
X31672393Y-26317462D01*
X31672396Y-26317466D01*
X31811678Y-26456748D01*
X31811682Y-26456751D01*
X31975460Y-26566185D01*
X31975473Y-26566192D01*
X32157451Y-26641569D01*
X32157463Y-26641572D01*
X32350649Y-26679999D01*
X32350653Y-26680000D01*
X32599145Y-26680000D01*
X32599145Y-25980000D01*
X33099145Y-25980000D01*
X33099145Y-26680000D01*
X33347637Y-26680000D01*
X33347640Y-26679999D01*
X33540826Y-26641572D01*
X33540838Y-26641569D01*
X33722816Y-26566192D01*
X33722829Y-26566185D01*
X33886607Y-26456751D01*
X33886611Y-26456748D01*
X34025893Y-26317466D01*
X34025896Y-26317462D01*
X34135330Y-26153684D01*
X34135337Y-26153671D01*
X34210714Y-25971692D01*
X34210714Y-25971690D01*
X34219007Y-25930000D01*
X33416133Y-25930000D01*
X33433350Y-25920060D01*
X33489205Y-25864205D01*
X33528701Y-25795796D01*
X33549145Y-25719496D01*
X33549145Y-25640504D01*
X33528701Y-25564204D01*
X33489205Y-25495795D01*
X33433350Y-25439940D01*
X33416133Y-25430000D01*
X34219007Y-25430000D01*
X34210714Y-25388309D01*
X34210714Y-25388307D01*
X34135337Y-25206328D01*
X34135330Y-25206315D01*
X34025896Y-25042537D01*
X34025893Y-25042533D01*
X33886611Y-24903251D01*
X33886607Y-24903248D01*
X33722829Y-24793814D01*
X33722816Y-24793807D01*
X33540838Y-24718430D01*
X33540826Y-24718427D01*
X33347640Y-24680000D01*
X33099145Y-24680000D01*
X33099145Y-25380000D01*
X32599145Y-25380000D01*
X32599145Y-24680000D01*
X32350649Y-24680000D01*
X32157463Y-24718427D01*
X32157451Y-24718430D01*
X31975473Y-24793807D01*
X31975460Y-24793814D01*
X31811682Y-24903248D01*
X31811678Y-24903251D01*
X31672396Y-25042533D01*
X31672393Y-25042537D01*
X31562959Y-25206315D01*
X31562952Y-25206328D01*
X31487575Y-25388307D01*
X31487575Y-25388309D01*
X31479283Y-25430000D01*
X30189007Y-25430000D01*
X30180714Y-25388309D01*
X30180714Y-25388307D01*
X30105337Y-25206328D01*
X30105330Y-25206315D01*
X29995896Y-25042537D01*
X29995893Y-25042533D01*
X29856611Y-24903251D01*
X29856607Y-24903248D01*
X29692829Y-24793814D01*
X29692816Y-24793807D01*
X29510838Y-24718430D01*
X29510826Y-24718427D01*
X29317640Y-24680000D01*
X28919145Y-24680000D01*
X28919145Y-25380000D01*
X28419145Y-25380000D01*
X28419145Y-24680000D01*
X28020649Y-24680000D01*
X27827463Y-24718427D01*
X27827451Y-24718430D01*
X27645473Y-24793807D01*
X27645460Y-24793814D01*
X27481682Y-24903248D01*
X27481678Y-24903251D01*
X27342396Y-25042533D01*
X27342393Y-25042537D01*
X27232959Y-25206315D01*
X27232952Y-25206328D01*
X27157575Y-25388307D01*
X27157575Y-25388309D01*
X27149283Y-25430000D01*
X17500500Y-25430000D01*
X17500500Y-18746153D01*
X20199500Y-18746153D01*
X20199500Y-18903846D01*
X20230261Y-19058489D01*
X20230264Y-19058501D01*
X20290602Y-19204172D01*
X20290609Y-19204185D01*
X20378210Y-19335288D01*
X20378213Y-19335292D01*
X20489707Y-19446786D01*
X20489711Y-19446789D01*
X20620814Y-19534390D01*
X20620827Y-19534397D01*
X20766498Y-19594735D01*
X20766503Y-19594737D01*
X20921153Y-19625499D01*
X20921156Y-19625500D01*
X20921158Y-19625500D01*
X21906087Y-19625500D01*
X21969206Y-19642767D01*
X22007106Y-19665181D01*
X22021972Y-19669500D01*
X22161897Y-19710153D01*
X22161900Y-19710153D01*
X22161902Y-19710154D01*
X22198065Y-19713000D01*
X22801934Y-19712999D01*
X22838098Y-19710154D01*
X22992894Y-19665181D01*
X23131643Y-19583126D01*
X23245626Y-19469143D01*
X23327681Y-19330394D01*
X23372654Y-19175598D01*
X23375500Y-19139435D01*
X23375499Y-18510566D01*
X23372654Y-18474402D01*
X23327681Y-18319606D01*
X23274535Y-18229740D01*
X23245630Y-18180863D01*
X23245621Y-18180851D01*
X23131648Y-18066878D01*
X23131645Y-18066876D01*
X23131643Y-18066874D01*
X23051082Y-18019230D01*
X23003400Y-17968164D01*
X22990896Y-17899422D01*
X23017541Y-17834833D01*
X23051080Y-17805769D01*
X23131643Y-17758126D01*
X23245626Y-17644143D01*
X23273334Y-17597291D01*
X23294572Y-17561380D01*
X23302872Y-17553630D01*
X23307591Y-17543297D01*
X23327954Y-17530210D01*
X23345641Y-17513696D01*
X23358333Y-17510686D01*
X23366369Y-17505523D01*
X23401304Y-17500500D01*
X23458481Y-17500500D01*
X23525520Y-17520185D01*
X23546162Y-17536819D01*
X23553454Y-17544111D01*
X23553458Y-17544114D01*
X23668182Y-17620771D01*
X23668195Y-17620778D01*
X23795667Y-17673578D01*
X23795672Y-17673580D01*
X23795676Y-17673580D01*
X23795677Y-17673581D01*
X23931004Y-17700500D01*
X23931007Y-17700500D01*
X24068995Y-17700500D01*
X24160041Y-17682389D01*
X24204328Y-17673580D01*
X24331811Y-17620775D01*
X24446542Y-17544114D01*
X24544114Y-17446542D01*
X24620775Y-17331811D01*
X24673580Y-17204328D01*
X24700500Y-17068993D01*
X24700500Y-16931007D01*
X24700500Y-16931004D01*
X24673581Y-16795677D01*
X24673580Y-16795676D01*
X24673580Y-16795672D01*
X24634217Y-16700641D01*
X24618444Y-16662560D01*
X24619566Y-16662095D01*
X24606622Y-16599976D01*
X24631613Y-16534728D01*
X24642536Y-16522232D01*
X24745626Y-16419143D01*
X24827681Y-16280394D01*
X24872654Y-16125598D01*
X24875500Y-16089435D01*
X24875499Y-15360566D01*
X24872654Y-15324402D01*
X24827681Y-15169606D01*
X24781289Y-15091161D01*
X24745630Y-15030863D01*
X24745621Y-15030851D01*
X24735307Y-15020537D01*
X24701822Y-14959214D01*
X24706806Y-14889522D01*
X24735307Y-14845174D01*
X24819948Y-14760533D01*
X24910448Y-14613811D01*
X24910453Y-14613800D01*
X24964680Y-14450152D01*
X24974999Y-14349154D01*
X24975000Y-14349141D01*
X24975000Y-14250000D01*
X23025001Y-14250000D01*
X23025001Y-14349154D01*
X23035319Y-14450152D01*
X23089546Y-14613800D01*
X23089551Y-14613811D01*
X23180052Y-14760534D01*
X23180055Y-14760538D01*
X23264692Y-14845175D01*
X23298177Y-14906498D01*
X23293193Y-14976190D01*
X23264698Y-15020532D01*
X23254376Y-15030854D01*
X23254368Y-15030865D01*
X23172320Y-15169603D01*
X23172317Y-15169610D01*
X23127346Y-15324397D01*
X23127345Y-15324403D01*
X23124500Y-15360557D01*
X23124500Y-16032901D01*
X23104815Y-16099940D01*
X23052011Y-16145695D01*
X22982853Y-16155639D01*
X22965905Y-16151977D01*
X22838102Y-16114846D01*
X22838096Y-16114845D01*
X22801935Y-16112000D01*
X22198077Y-16112000D01*
X22198052Y-16112001D01*
X22161901Y-16114846D01*
X22007110Y-16159817D01*
X22007103Y-16159820D01*
X21868363Y-16241869D01*
X21868351Y-16241878D01*
X21754378Y-16355851D01*
X21754372Y-16355859D01*
X21731232Y-16394988D01*
X21680163Y-16442671D01*
X21611422Y-16455175D01*
X21546832Y-16428530D01*
X21506902Y-16371195D01*
X21500500Y-16331867D01*
X21500500Y-13650845D01*
X23025000Y-13650845D01*
X23025000Y-13750000D01*
X23750000Y-13750000D01*
X24250000Y-13750000D01*
X24974999Y-13750000D01*
X24974999Y-13650860D01*
X24974998Y-13650845D01*
X24964680Y-13549847D01*
X24910453Y-13386199D01*
X24910448Y-13386188D01*
X24819947Y-13239465D01*
X24819944Y-13239461D01*
X24698038Y-13117555D01*
X24698034Y-13117552D01*
X24551311Y-13027051D01*
X24551300Y-13027046D01*
X24387652Y-12972819D01*
X24286654Y-12962500D01*
X24250000Y-12962500D01*
X24250000Y-13750000D01*
X23750000Y-13750000D01*
X23750000Y-12962500D01*
X23713361Y-12962500D01*
X23713343Y-12962501D01*
X23612347Y-12972819D01*
X23448699Y-13027046D01*
X23448688Y-13027051D01*
X23301965Y-13117552D01*
X23301961Y-13117555D01*
X23180055Y-13239461D01*
X23180052Y-13239465D01*
X23089551Y-13386188D01*
X23089546Y-13386199D01*
X23035319Y-13549847D01*
X23025000Y-13650845D01*
X21500500Y-13650845D01*
X21500500Y-10258676D01*
X21520185Y-10191637D01*
X21536819Y-10170995D01*
X22273706Y-9434108D01*
X26999500Y-9434108D01*
X26999500Y-18434108D01*
X26999500Y-18565892D01*
X27006364Y-18591510D01*
X27033608Y-18693187D01*
X27064189Y-18746153D01*
X27099500Y-18807314D01*
X27099502Y-18807316D01*
X27919177Y-19626991D01*
X27952662Y-19688314D01*
X27952073Y-19743607D01*
X27950981Y-19748154D01*
X27924500Y-19915350D01*
X27924500Y-20084649D01*
X27950981Y-20251847D01*
X28003296Y-20412853D01*
X28080152Y-20563688D01*
X28179648Y-20700634D01*
X28179652Y-20700639D01*
X28299360Y-20820347D01*
X28299365Y-20820351D01*
X28323915Y-20838188D01*
X28366581Y-20893518D01*
X28372560Y-20963131D01*
X28366329Y-20974939D01*
X28363568Y-21010015D01*
X28953554Y-21600000D01*
X28947339Y-21600000D01*
X28845606Y-21627259D01*
X28754394Y-21679920D01*
X28679920Y-21754394D01*
X28627259Y-21845606D01*
X28600000Y-21947339D01*
X28600000Y-21953553D01*
X28010015Y-21363568D01*
X27995049Y-21384167D01*
X27911084Y-21548956D01*
X27911083Y-21548959D01*
X27853933Y-21724852D01*
X27825000Y-21907526D01*
X27825000Y-22092473D01*
X27853933Y-22275147D01*
X27911083Y-22451040D01*
X27911084Y-22451043D01*
X27995050Y-22615834D01*
X28010015Y-22636430D01*
X28010016Y-22636431D01*
X28600000Y-22046447D01*
X28600000Y-22052661D01*
X28627259Y-22154394D01*
X28679920Y-22245606D01*
X28754394Y-22320080D01*
X28845606Y-22372741D01*
X28947339Y-22400000D01*
X28953553Y-22400000D01*
X28363568Y-22989983D01*
X28363568Y-22989984D01*
X28384165Y-23004949D01*
X28548956Y-23088915D01*
X28548959Y-23088916D01*
X28724852Y-23146066D01*
X28907527Y-23175000D01*
X29092473Y-23175000D01*
X29275147Y-23146066D01*
X29451040Y-23088916D01*
X29451043Y-23088915D01*
X29615836Y-23004947D01*
X29615845Y-23004942D01*
X29636430Y-22989984D01*
X29636431Y-22989983D01*
X29046448Y-22400000D01*
X29052661Y-22400000D01*
X29154394Y-22372741D01*
X29245606Y-22320080D01*
X29320080Y-22245606D01*
X29372741Y-22154394D01*
X29400000Y-22052661D01*
X29400000Y-22046447D01*
X29989983Y-22636430D01*
X29990276Y-22636408D01*
X30009729Y-22636408D01*
X30010015Y-22636430D01*
X30600000Y-22046445D01*
X30600000Y-22052661D01*
X30627259Y-22154394D01*
X30679920Y-22245606D01*
X30754394Y-22320080D01*
X30845606Y-22372741D01*
X30947339Y-22400000D01*
X30953553Y-22400000D01*
X30363568Y-22989983D01*
X30363568Y-22989984D01*
X30384165Y-23004949D01*
X30548956Y-23088915D01*
X30548959Y-23088916D01*
X30724852Y-23146066D01*
X30907527Y-23175000D01*
X31092473Y-23175000D01*
X31275147Y-23146066D01*
X31451040Y-23088916D01*
X31451043Y-23088915D01*
X31615836Y-23004947D01*
X31615845Y-23004942D01*
X31636430Y-22989984D01*
X31636431Y-22989983D01*
X31046448Y-22400000D01*
X31052661Y-22400000D01*
X31154394Y-22372741D01*
X31245606Y-22320080D01*
X31320080Y-22245606D01*
X31372741Y-22154394D01*
X31400000Y-22052661D01*
X31400000Y-22046448D01*
X31989983Y-22636431D01*
X31989984Y-22636430D01*
X32004942Y-22615845D01*
X32004947Y-22615836D01*
X32088915Y-22451043D01*
X32088916Y-22451040D01*
X32146066Y-22275147D01*
X32175000Y-22092473D01*
X32175000Y-21907526D01*
X32146066Y-21724852D01*
X32088916Y-21548959D01*
X32088915Y-21548956D01*
X32004949Y-21384165D01*
X31989983Y-21363568D01*
X31400000Y-21953551D01*
X31400000Y-21947339D01*
X31372741Y-21845606D01*
X31320080Y-21754394D01*
X31245606Y-21679920D01*
X31154394Y-21627259D01*
X31052661Y-21600000D01*
X31046447Y-21600000D01*
X31636431Y-21010016D01*
X31634448Y-20984828D01*
X31633414Y-20983486D01*
X31627440Y-20913872D01*
X31660050Y-20852079D01*
X31676077Y-20838192D01*
X31700641Y-20820346D01*
X31820346Y-20700641D01*
X31919850Y-20563685D01*
X31996705Y-20412849D01*
X32049018Y-20251847D01*
X32075500Y-20084649D01*
X32075500Y-19915350D01*
X32051071Y-19761116D01*
X32049018Y-19748153D01*
X32049014Y-19748141D01*
X32047929Y-19743618D01*
X32051420Y-19673836D01*
X32080820Y-19626992D01*
X33400500Y-18307314D01*
X33466392Y-18193186D01*
X33500500Y-18065893D01*
X33500500Y-17934108D01*
X33500500Y-11434108D01*
X33466392Y-11306814D01*
X33400500Y-11192686D01*
X33307314Y-11099500D01*
X31767314Y-9559500D01*
X31710191Y-9526520D01*
X31653187Y-9493608D01*
X31589539Y-9476554D01*
X31525892Y-9459500D01*
X31525891Y-9459500D01*
X29041519Y-9459500D01*
X28974480Y-9439815D01*
X28953838Y-9423181D01*
X28946545Y-9415888D01*
X28946541Y-9415885D01*
X28831817Y-9339228D01*
X28831807Y-9339223D01*
X28754852Y-9307347D01*
X28700449Y-9263506D01*
X28678384Y-9197211D01*
X28680688Y-9168594D01*
X28700500Y-9068995D01*
X28700500Y-8931004D01*
X28673581Y-8795677D01*
X28673580Y-8795676D01*
X28673580Y-8795672D01*
X28673578Y-8795667D01*
X28620778Y-8668195D01*
X28620771Y-8668182D01*
X28544114Y-8553458D01*
X28544111Y-8553454D01*
X28446545Y-8455888D01*
X28446541Y-8455885D01*
X28331817Y-8379228D01*
X28331804Y-8379221D01*
X28204332Y-8326421D01*
X28204322Y-8326418D01*
X28068995Y-8299500D01*
X28068993Y-8299500D01*
X27931007Y-8299500D01*
X27931005Y-8299500D01*
X27795677Y-8326418D01*
X27795667Y-8326421D01*
X27668195Y-8379221D01*
X27668182Y-8379228D01*
X27553458Y-8455885D01*
X27553454Y-8455888D01*
X27455888Y-8553454D01*
X27455885Y-8553458D01*
X27379228Y-8668182D01*
X27379221Y-8668195D01*
X27326421Y-8795667D01*
X27326418Y-8795677D01*
X27299500Y-8931004D01*
X27299500Y-8941324D01*
X27279815Y-9008363D01*
X27263181Y-9029005D01*
X27099502Y-9192683D01*
X27099500Y-9192686D01*
X27033608Y-9306812D01*
X27004382Y-9415888D01*
X26999500Y-9434108D01*
X22273706Y-9434108D01*
X22369514Y-9338300D01*
X24039632Y-7668182D01*
X25638819Y-6068995D01*
X27299499Y-6068995D01*
X27326418Y-6204322D01*
X27326421Y-6204332D01*
X27379221Y-6331804D01*
X27379228Y-6331817D01*
X27455885Y-6446541D01*
X27455888Y-6446545D01*
X27553454Y-6544111D01*
X27553458Y-6544114D01*
X27668182Y-6620771D01*
X27668195Y-6620778D01*
X27782640Y-6668182D01*
X27795672Y-6673580D01*
X27795676Y-6673580D01*
X27795677Y-6673581D01*
X27931004Y-6700500D01*
X27931007Y-6700500D01*
X28068995Y-6700500D01*
X28160041Y-6682389D01*
X28204328Y-6673580D01*
X28331811Y-6620775D01*
X28446542Y-6544114D01*
X28544114Y-6446542D01*
X28620775Y-6331811D01*
X28631154Y-6306755D01*
X28651068Y-6258676D01*
X28673580Y-6204328D01*
X28700500Y-6068993D01*
X28700500Y-6058676D01*
X28720185Y-5991637D01*
X28736819Y-5970995D01*
X29220995Y-5486819D01*
X29282318Y-5453334D01*
X29308676Y-5450500D01*
X29318995Y-5450500D01*
X29410041Y-5432389D01*
X29454328Y-5423580D01*
X29561411Y-5379225D01*
X29581804Y-5370778D01*
X29581804Y-5370777D01*
X29581811Y-5370775D01*
X29696542Y-5294114D01*
X29794114Y-5196542D01*
X29870775Y-5081811D01*
X29923580Y-4954328D01*
X29947949Y-4831817D01*
X29950500Y-4818995D01*
X29950500Y-4681004D01*
X29923581Y-4545677D01*
X29923580Y-4545676D01*
X29923580Y-4545672D01*
X29901633Y-4492686D01*
X29870778Y-4418195D01*
X29870771Y-4418182D01*
X29794114Y-4303458D01*
X29794111Y-4303454D01*
X29696545Y-4205888D01*
X29696541Y-4205885D01*
X29581817Y-4129228D01*
X29581804Y-4129221D01*
X29454332Y-4076421D01*
X29454322Y-4076418D01*
X29318995Y-4049500D01*
X29318993Y-4049500D01*
X29181007Y-4049500D01*
X29181005Y-4049500D01*
X29045677Y-4076418D01*
X29045667Y-4076421D01*
X28918195Y-4129221D01*
X28918182Y-4129228D01*
X28803458Y-4205885D01*
X28803454Y-4205888D01*
X28705888Y-4303454D01*
X28705885Y-4303458D01*
X28629228Y-4418182D01*
X28629221Y-4418195D01*
X28576421Y-4545667D01*
X28576418Y-4545677D01*
X28549500Y-4681004D01*
X28549500Y-4691324D01*
X28529815Y-4758363D01*
X28513181Y-4779005D01*
X28029005Y-5263181D01*
X27967682Y-5296666D01*
X27941324Y-5299500D01*
X27931005Y-5299500D01*
X27795677Y-5326418D01*
X27795667Y-5326421D01*
X27668195Y-5379221D01*
X27668182Y-5379228D01*
X27553458Y-5455885D01*
X27553454Y-5455888D01*
X27455888Y-5553454D01*
X27455885Y-5553458D01*
X27379228Y-5668182D01*
X27379221Y-5668195D01*
X27326421Y-5795667D01*
X27326418Y-5795677D01*
X27299500Y-5931004D01*
X27299500Y-5931007D01*
X27299500Y-6068993D01*
X27299500Y-6068995D01*
X27299499Y-6068995D01*
X25638819Y-6068995D01*
X28029040Y-3678773D01*
X28090361Y-3645290D01*
X28092528Y-3644839D01*
X28093004Y-3644744D01*
X28189744Y-3625501D01*
X28308127Y-3576465D01*
X28414669Y-3505276D01*
X28505276Y-3414669D01*
X28576465Y-3308127D01*
X28625501Y-3189744D01*
X28650500Y-3064069D01*
X28650500Y-2935931D01*
X28650500Y-2935928D01*
X28625502Y-2810261D01*
X28625501Y-2810260D01*
X28625501Y-2810256D01*
X28576465Y-2691873D01*
X28576464Y-2691872D01*
X28576461Y-2691866D01*
X28505276Y-2585331D01*
X28505273Y-2585327D01*
X28414672Y-2494726D01*
X28414668Y-2494723D01*
X28308133Y-2423538D01*
X28308124Y-2423533D01*
X28189744Y-2374499D01*
X28189738Y-2374497D01*
X28064071Y-2349500D01*
X28064069Y-2349500D01*
X27935931Y-2349500D01*
X27935929Y-2349500D01*
X27810261Y-2374497D01*
X27810255Y-2374499D01*
X27691875Y-2423533D01*
X27691866Y-2423538D01*
X27585331Y-2494723D01*
X27585327Y-2494726D01*
X27494726Y-2585327D01*
X27494723Y-2585331D01*
X27423538Y-2691866D01*
X27423533Y-2691875D01*
X27374499Y-2810255D01*
X27374497Y-2810260D01*
X27355160Y-2907473D01*
X27322774Y-2969383D01*
X27321224Y-2970961D01*
X20692686Y-9599500D01*
X20599502Y-9692683D01*
X20599500Y-9692686D01*
X20533608Y-9806812D01*
X20499500Y-9934108D01*
X20499500Y-18142059D01*
X20479815Y-18209098D01*
X20463181Y-18229740D01*
X20378213Y-18314707D01*
X20378210Y-18314711D01*
X20290609Y-18445814D01*
X20290602Y-18445827D01*
X20230264Y-18591498D01*
X20230261Y-18591510D01*
X20199500Y-18746153D01*
X17500500Y-18746153D01*
X17500500Y-9736895D01*
X17520185Y-9669856D01*
X17572989Y-9624101D01*
X17642147Y-9614157D01*
X17671952Y-9622333D01*
X17795672Y-9673580D01*
X17795676Y-9673580D01*
X17795677Y-9673581D01*
X17931004Y-9700500D01*
X17931007Y-9700500D01*
X18068995Y-9700500D01*
X18160041Y-9682389D01*
X18204328Y-9673580D01*
X18331811Y-9620775D01*
X18446542Y-9544114D01*
X18544114Y-9446542D01*
X18620775Y-9331811D01*
X18673580Y-9204328D01*
X18700500Y-9068993D01*
X18700500Y-8931007D01*
X18700500Y-8931004D01*
X18673581Y-8795677D01*
X18673580Y-8795676D01*
X18673580Y-8795672D01*
X18673578Y-8795667D01*
X18620778Y-8668195D01*
X18620771Y-8668182D01*
X18544114Y-8553458D01*
X18544111Y-8553454D01*
X18446545Y-8455888D01*
X18446541Y-8455885D01*
X18331817Y-8379228D01*
X18331804Y-8379221D01*
X18204332Y-8326421D01*
X18204322Y-8326418D01*
X18068995Y-8299500D01*
X18068993Y-8299500D01*
X17931007Y-8299500D01*
X17931002Y-8299500D01*
X17825277Y-8320530D01*
X17755685Y-8314303D01*
X17700508Y-8271440D01*
X17677264Y-8205550D01*
X17679469Y-8174721D01*
X17700500Y-8068995D01*
X17700500Y-7931004D01*
X17673581Y-7795677D01*
X17673580Y-7795676D01*
X17673580Y-7795672D01*
X17673578Y-7795667D01*
X17620778Y-7668195D01*
X17620771Y-7668182D01*
X17544114Y-7553458D01*
X17544111Y-7553454D01*
X17446545Y-7455888D01*
X17446541Y-7455885D01*
X17331817Y-7379228D01*
X17331807Y-7379223D01*
X17247501Y-7344302D01*
X17193098Y-7300461D01*
X17171033Y-7234166D01*
X17173337Y-7205549D01*
X17200500Y-7068995D01*
X17200500Y-6931004D01*
X17173581Y-6795677D01*
X17173580Y-6795676D01*
X17173580Y-6795672D01*
X17130921Y-6692683D01*
X17120778Y-6668195D01*
X17120771Y-6668182D01*
X17044114Y-6553458D01*
X17044111Y-6553454D01*
X16946545Y-6455888D01*
X16946541Y-6455885D01*
X16831817Y-6379228D01*
X16831804Y-6379221D01*
X16704332Y-6326421D01*
X16704322Y-6326418D01*
X16598992Y-6305466D01*
X16537081Y-6273081D01*
X16502507Y-6212364D01*
X16501567Y-6208040D01*
X16480615Y-6102713D01*
X16480615Y-6102711D01*
X16480614Y-6102706D01*
X16480612Y-6102701D01*
X16427812Y-5975229D01*
X16427805Y-5975216D01*
X16351148Y-5860492D01*
X16351145Y-5860488D01*
X16253579Y-5762922D01*
X16253575Y-5762919D01*
X16138851Y-5686262D01*
X16138838Y-5686255D01*
X16011366Y-5633455D01*
X16011356Y-5633452D01*
X15876029Y-5606534D01*
X15876027Y-5606534D01*
X15738041Y-5606534D01*
X15738039Y-5606534D01*
X15602711Y-5633452D01*
X15602701Y-5633455D01*
X15475229Y-5686255D01*
X15475216Y-5686262D01*
X15360492Y-5762919D01*
X15360488Y-5762922D01*
X15262922Y-5860488D01*
X15262919Y-5860492D01*
X15186262Y-5975216D01*
X15186255Y-5975229D01*
X15133455Y-6102701D01*
X15133452Y-6102711D01*
X15106534Y-6238038D01*
X15106534Y-6261346D01*
X15089921Y-6323346D01*
X15033609Y-6420879D01*
X15033609Y-6420880D01*
X14999500Y-6548177D01*
X14999500Y-9459481D01*
X14979815Y-9526520D01*
X14927011Y-9572275D01*
X14857853Y-9582219D01*
X14794297Y-9553194D01*
X14787819Y-9547162D01*
X14696545Y-9455888D01*
X14696541Y-9455885D01*
X14681560Y-9445875D01*
X14636755Y-9392263D01*
X14628048Y-9322938D01*
X14635890Y-9295321D01*
X14673578Y-9204332D01*
X14673580Y-9204328D01*
X14700500Y-9068993D01*
X14700500Y-8931007D01*
X14700500Y-8931004D01*
X14673581Y-8795677D01*
X14673580Y-8795676D01*
X14673580Y-8795672D01*
X14673578Y-8795667D01*
X14620778Y-8668195D01*
X14620771Y-8668182D01*
X14544114Y-8553458D01*
X14544111Y-8553454D01*
X14446545Y-8455888D01*
X14446541Y-8455885D01*
X14331817Y-8379228D01*
X14331804Y-8379221D01*
X14204332Y-8326421D01*
X14204322Y-8326418D01*
X14068995Y-8299500D01*
X14068993Y-8299500D01*
X13931007Y-8299500D01*
X13931005Y-8299500D01*
X13795677Y-8326418D01*
X13795667Y-8326421D01*
X13668195Y-8379221D01*
X13668182Y-8379228D01*
X13553458Y-8455885D01*
X13553454Y-8455888D01*
X13455888Y-8553454D01*
X13455885Y-8553458D01*
X13379228Y-8668182D01*
X13379221Y-8668195D01*
X13326421Y-8795667D01*
X13326418Y-8795677D01*
X13299500Y-8931004D01*
X13299500Y-8941324D01*
X13279815Y-9008363D01*
X13263181Y-9029005D01*
X12599502Y-9692683D01*
X12599500Y-9692686D01*
X12533608Y-9806812D01*
X12499500Y-9934108D01*
X12499500Y-10434310D01*
X12479815Y-10501349D01*
X12427011Y-10547104D01*
X12357853Y-10557048D01*
X12351310Y-10555928D01*
X12318993Y-10549500D01*
X12181007Y-10549500D01*
X12148690Y-10555928D01*
X12079099Y-10549699D01*
X12023922Y-10506836D01*
X12000678Y-10440946D01*
X12000500Y-10434310D01*
X12000500Y-7258676D01*
X12020185Y-7191637D01*
X12036819Y-7170995D01*
X13970995Y-5236819D01*
X14032318Y-5203334D01*
X14058676Y-5200500D01*
X14068995Y-5200500D01*
X14160041Y-5182389D01*
X14204328Y-5173580D01*
X14331811Y-5120775D01*
X14446542Y-5044114D01*
X14544114Y-4946542D01*
X14620775Y-4831811D01*
X14673580Y-4704328D01*
X14700500Y-4568993D01*
X14700500Y-4431007D01*
X14700500Y-4431004D01*
X14673581Y-4295677D01*
X14673580Y-4295676D01*
X14673580Y-4295672D01*
X14673578Y-4295667D01*
X14620778Y-4168195D01*
X14620771Y-4168182D01*
X14544114Y-4053458D01*
X14544111Y-4053454D01*
X14446545Y-3955888D01*
X14446541Y-3955885D01*
X14331817Y-3879228D01*
X14331804Y-3879221D01*
X14204332Y-3826421D01*
X14204322Y-3826418D01*
X14068995Y-3799500D01*
X14068993Y-3799500D01*
X13931007Y-3799500D01*
X13931005Y-3799500D01*
X13795677Y-3826418D01*
X13795667Y-3826421D01*
X13668195Y-3879221D01*
X13668182Y-3879228D01*
X13553458Y-3955885D01*
X13553454Y-3955888D01*
X13455888Y-4053454D01*
X13455885Y-4053458D01*
X13379228Y-4168182D01*
X13379221Y-4168195D01*
X13326421Y-4295667D01*
X13326418Y-4295677D01*
X13299500Y-4431004D01*
X13299500Y-4441324D01*
X13279815Y-4508363D01*
X13263181Y-4529005D01*
X11099502Y-6692683D01*
X11099500Y-6692686D01*
X11033608Y-6806812D01*
X10999500Y-6934108D01*
X10999500Y-28708481D01*
X10990855Y-28737921D01*
X10984332Y-28767908D01*
X10980577Y-28772923D01*
X10979815Y-28775520D01*
X10963181Y-28796162D01*
X10962681Y-28796662D01*
X10901358Y-28830147D01*
X10831666Y-28825163D01*
X10787319Y-28796662D01*
X10786819Y-28796162D01*
X10782596Y-28788429D01*
X10775733Y-28783291D01*
X10766987Y-28759843D01*
X10753334Y-28734839D01*
X10751581Y-28718538D01*
X10751316Y-28717827D01*
X10751442Y-28717245D01*
X10750500Y-28708481D01*
X10750500Y-6258676D01*
X10770185Y-6191637D01*
X10786819Y-6170995D01*
X12220995Y-4736819D01*
X12282318Y-4703334D01*
X12308676Y-4700500D01*
X12318995Y-4700500D01*
X12417005Y-4681004D01*
X12454328Y-4673580D01*
X12581811Y-4620775D01*
X12696542Y-4544114D01*
X12794114Y-4446542D01*
X12870775Y-4331811D01*
X12923580Y-4204328D01*
X12932389Y-4160041D01*
X12950500Y-4068995D01*
X12950500Y-3931004D01*
X12923581Y-3795677D01*
X12923580Y-3795676D01*
X12923580Y-3795672D01*
X12923578Y-3795667D01*
X12870778Y-3668195D01*
X12870771Y-3668182D01*
X12794114Y-3553458D01*
X12794111Y-3553454D01*
X12696545Y-3455888D01*
X12696541Y-3455885D01*
X12581817Y-3379228D01*
X12581804Y-3379221D01*
X12454332Y-3326421D01*
X12454322Y-3326418D01*
X12318995Y-3299500D01*
X12318993Y-3299500D01*
X12181007Y-3299500D01*
X12181005Y-3299500D01*
X12045677Y-3326418D01*
X12045667Y-3326421D01*
X11918195Y-3379221D01*
X11918182Y-3379228D01*
X11803458Y-3455885D01*
X11803454Y-3455888D01*
X11705888Y-3553454D01*
X11705885Y-3553458D01*
X11629228Y-3668182D01*
X11629223Y-3668192D01*
X11614561Y-3703590D01*
X11570720Y-3757994D01*
X11504425Y-3780058D01*
X11436726Y-3762778D01*
X11389116Y-3711641D01*
X11385439Y-3703590D01*
X11370776Y-3668192D01*
X11370775Y-3668189D01*
X11370773Y-3668186D01*
X11370771Y-3668182D01*
X11294114Y-3553458D01*
X11294111Y-3553454D01*
X11196545Y-3455888D01*
X11196541Y-3455885D01*
X11081817Y-3379228D01*
X11081804Y-3379221D01*
X10954332Y-3326421D01*
X10954322Y-3326418D01*
X10818995Y-3299500D01*
X10818993Y-3299500D01*
X10681007Y-3299500D01*
X10681005Y-3299500D01*
X10545677Y-3326418D01*
X10545667Y-3326421D01*
X10418195Y-3379221D01*
X10418182Y-3379228D01*
X10303458Y-3455885D01*
X10303454Y-3455888D01*
X10205888Y-3553454D01*
X10205885Y-3553458D01*
X10129228Y-3668182D01*
X10129221Y-3668195D01*
X10076421Y-3795667D01*
X10076418Y-3795677D01*
X10049500Y-3931004D01*
X10049500Y-3941324D01*
X10029815Y-4008363D01*
X10013181Y-4029005D01*
X7349502Y-6692683D01*
X7349500Y-6692686D01*
X7283608Y-6806812D01*
X7249500Y-6934108D01*
X7249500Y-28708481D01*
X7229815Y-28775520D01*
X7213181Y-28796162D01*
X7205888Y-28803454D01*
X7205885Y-28803458D01*
X7129228Y-28918182D01*
X7129221Y-28918195D01*
X7076421Y-29045667D01*
X7076418Y-29045677D01*
X7049500Y-29181004D01*
X7049500Y-29181007D01*
X7049500Y-29318993D01*
X7049500Y-29318995D01*
X7049499Y-29318995D01*
X7076418Y-29454322D01*
X7076421Y-29454332D01*
X7129221Y-29581804D01*
X7129228Y-29581817D01*
X7205885Y-29696541D01*
X7205888Y-29696545D01*
X7303454Y-29794111D01*
X7303458Y-29794114D01*
X7418182Y-29870771D01*
X7418195Y-29870778D01*
X7545667Y-29923578D01*
X7545672Y-29923580D01*
X7545676Y-29923580D01*
X7545677Y-29923581D01*
X7681004Y-29950500D01*
X7681007Y-29950500D01*
X7818995Y-29950500D01*
X7910041Y-29932389D01*
X7954328Y-29923580D01*
X8081811Y-29870775D01*
X8196542Y-29794114D01*
X8294114Y-29696542D01*
X8370775Y-29581811D01*
X8423580Y-29454328D01*
X8439260Y-29375499D01*
X8450500Y-29318995D01*
X8450500Y-29181004D01*
X8423581Y-29045677D01*
X8423580Y-29045676D01*
X8423580Y-29045672D01*
X8419913Y-29036819D01*
X8370778Y-28918195D01*
X8370771Y-28918182D01*
X8294114Y-28803458D01*
X8294111Y-28803454D01*
X8286819Y-28796162D01*
X8253334Y-28734839D01*
X8250500Y-28708481D01*
X8250500Y-7258676D01*
X8270185Y-7191637D01*
X8286819Y-7170995D01*
X9537819Y-5919995D01*
X9599142Y-5886510D01*
X9668834Y-5891494D01*
X9724767Y-5933366D01*
X9749184Y-5998830D01*
X9749500Y-6007676D01*
X9749500Y-28708481D01*
X9729815Y-28775520D01*
X9713181Y-28796162D01*
X9705888Y-28803454D01*
X9705885Y-28803458D01*
X9629228Y-28918182D01*
X9629221Y-28918195D01*
X9576421Y-29045667D01*
X9576418Y-29045677D01*
X9549500Y-29181004D01*
X9549500Y-29181007D01*
X9549500Y-29318993D01*
X9549500Y-29318995D01*
X9549499Y-29318995D01*
X9576418Y-29454322D01*
X9576421Y-29454332D01*
X9629221Y-29581804D01*
X9629228Y-29581817D01*
X9705885Y-29696541D01*
X9705888Y-29696545D01*
X9803454Y-29794111D01*
X9803458Y-29794114D01*
X9918182Y-29870771D01*
X9918195Y-29870778D01*
X10045667Y-29923578D01*
X10045672Y-29923580D01*
X10045676Y-29923580D01*
X10045677Y-29923581D01*
X10181004Y-29950500D01*
X10181007Y-29950500D01*
X10318995Y-29950500D01*
X10410041Y-29932389D01*
X10454328Y-29923580D01*
X10581811Y-29870775D01*
X10696542Y-29794114D01*
X10696545Y-29794111D01*
X10787319Y-29703338D01*
X10848642Y-29669853D01*
X10918334Y-29674837D01*
X10962681Y-29703338D01*
X11053454Y-29794111D01*
X11053458Y-29794114D01*
X11168182Y-29870771D01*
X11168195Y-29870778D01*
X11295667Y-29923578D01*
X11295672Y-29923580D01*
X11295676Y-29923580D01*
X11295677Y-29923581D01*
X11431004Y-29950500D01*
X11431007Y-29950500D01*
X11568995Y-29950500D01*
X11660041Y-29932389D01*
X11704328Y-29923580D01*
X11831811Y-29870775D01*
X11946542Y-29794114D01*
X12044114Y-29696542D01*
X12120775Y-29581811D01*
X12173580Y-29454328D01*
X12189260Y-29375499D01*
X12200500Y-29318995D01*
X12200500Y-29207676D01*
X12220185Y-29140637D01*
X12272989Y-29094882D01*
X12342147Y-29084938D01*
X12405703Y-29113963D01*
X12412181Y-29119995D01*
X16183181Y-32890995D01*
X16216666Y-32952318D01*
X16219500Y-32978676D01*
X16219500Y-35075516D01*
X16199815Y-35142555D01*
X16147011Y-35188310D01*
X16095113Y-35199515D01*
X15222552Y-35196793D01*
X15221795Y-35197206D01*
X15195621Y-35200000D01*
X626358Y-35200000D01*
X559319Y-35180315D01*
X513564Y-35127511D01*
X502358Y-35076000D01*
X502358Y-18273753D01*
X1150000Y-18273753D01*
X1150000Y-18486246D01*
X1183242Y-18696127D01*
X1183242Y-18696130D01*
X1248904Y-18898217D01*
X1345375Y-19087550D01*
X1384728Y-19141716D01*
X2017037Y-18509408D01*
X2034075Y-18572993D01*
X2099901Y-18687007D01*
X2192993Y-18780099D01*
X2307007Y-18845925D01*
X2370590Y-18862962D01*
X1738282Y-19495269D01*
X1738282Y-19495270D01*
X1792449Y-19534624D01*
X1911629Y-19595350D01*
X1962425Y-19643325D01*
X1979220Y-19711146D01*
X1956682Y-19777281D01*
X1911630Y-19816319D01*
X1844597Y-19850474D01*
X1764974Y-19908324D01*
X1685354Y-19966172D01*
X1685352Y-19966174D01*
X1685351Y-19966174D01*
X1546174Y-20105351D01*
X1546174Y-20105352D01*
X1546172Y-20105354D01*
X1496485Y-20173741D01*
X1430476Y-20264594D01*
X1341117Y-20439970D01*
X1280290Y-20627173D01*
X1249500Y-20821577D01*
X1249500Y-21018422D01*
X1280290Y-21212826D01*
X1341117Y-21400029D01*
X1417001Y-21548959D01*
X1430476Y-21575405D01*
X1546172Y-21734646D01*
X1685354Y-21873828D01*
X1844595Y-21989524D01*
X1967992Y-22052397D01*
X2021213Y-22079515D01*
X2072009Y-22127489D01*
X2088804Y-22195310D01*
X2066267Y-22261445D01*
X2021213Y-22300485D01*
X1844594Y-22390476D01*
X1831486Y-22400000D01*
X1685354Y-22506172D01*
X1685352Y-22506174D01*
X1685351Y-22506174D01*
X1546174Y-22645351D01*
X1546174Y-22645352D01*
X1546172Y-22645354D01*
X1496485Y-22713741D01*
X1430476Y-22804594D01*
X1341117Y-22979970D01*
X1280290Y-23167173D01*
X1249500Y-23361577D01*
X1249500Y-23558422D01*
X1280290Y-23752826D01*
X1341117Y-23940029D01*
X1430476Y-24115405D01*
X1546172Y-24274646D01*
X1685354Y-24413828D01*
X1838621Y-24525184D01*
X1881285Y-24580512D01*
X1887264Y-24650125D01*
X1854658Y-24711920D01*
X1793819Y-24746278D01*
X1765735Y-24749500D01*
X1618482Y-24749500D01*
X1537519Y-24762323D01*
X1524696Y-24764354D01*
X1411658Y-24821950D01*
X1411657Y-24821951D01*
X1411652Y-24821954D01*
X1321954Y-24911652D01*
X1321951Y-24911657D01*
X1264352Y-25024698D01*
X1249500Y-25118475D01*
X1249500Y-26881517D01*
X1260292Y-26949657D01*
X1264354Y-26975304D01*
X1321950Y-27088342D01*
X1321952Y-27088344D01*
X1321954Y-27088347D01*
X1411652Y-27178045D01*
X1411654Y-27178046D01*
X1411658Y-27178050D01*
X1524694Y-27235645D01*
X1524698Y-27235647D01*
X1618475Y-27250499D01*
X1618481Y-27250500D01*
X3381518Y-27250499D01*
X3475304Y-27235646D01*
X3588342Y-27178050D01*
X3678050Y-27088342D01*
X3735646Y-26975304D01*
X3735646Y-26975302D01*
X3735647Y-26975301D01*
X3750499Y-26881524D01*
X3750500Y-26881519D01*
X3750499Y-25118482D01*
X3735646Y-25024696D01*
X3678050Y-24911658D01*
X3678046Y-24911654D01*
X3678045Y-24911652D01*
X3588347Y-24821954D01*
X3588344Y-24821952D01*
X3588342Y-24821950D01*
X3511517Y-24782805D01*
X3475301Y-24764352D01*
X3381524Y-24749500D01*
X3234266Y-24749500D01*
X3167227Y-24729815D01*
X3121472Y-24677011D01*
X3111528Y-24607853D01*
X3140553Y-24544297D01*
X3161375Y-24525186D01*
X3314646Y-24413828D01*
X3453828Y-24274646D01*
X3569524Y-24115405D01*
X3658884Y-23940025D01*
X3719709Y-23752826D01*
X3750500Y-23558422D01*
X3750500Y-23361577D01*
X3719709Y-23167173D01*
X3691487Y-23080317D01*
X3658884Y-22979975D01*
X3658882Y-22979972D01*
X3658882Y-22979970D01*
X3569523Y-22804594D01*
X3453828Y-22645354D01*
X3314646Y-22506172D01*
X3168514Y-22400000D01*
X3155403Y-22390474D01*
X2978787Y-22300485D01*
X2927990Y-22252511D01*
X2911195Y-22184690D01*
X2933732Y-22118555D01*
X2978787Y-22079515D01*
X3155403Y-21989525D01*
X3155402Y-21989525D01*
X3155405Y-21989524D01*
X3314646Y-21873828D01*
X3453828Y-21734646D01*
X3569524Y-21575405D01*
X3658884Y-21400025D01*
X3719709Y-21212826D01*
X3750500Y-21018422D01*
X3750500Y-20821577D01*
X3719709Y-20627173D01*
X3658882Y-20439970D01*
X3569523Y-20264594D01*
X3560262Y-20251847D01*
X3453828Y-20105354D01*
X3314646Y-19966172D01*
X3155405Y-19850476D01*
X3088370Y-19816320D01*
X3037574Y-19768345D01*
X3020779Y-19700524D01*
X3043316Y-19634389D01*
X3088370Y-19595350D01*
X3207554Y-19534622D01*
X3261716Y-19495270D01*
X3261717Y-19495270D01*
X2629408Y-18862962D01*
X2692993Y-18845925D01*
X2807007Y-18780099D01*
X2900099Y-18687007D01*
X2965925Y-18572993D01*
X2982962Y-18509408D01*
X3615270Y-19141717D01*
X3615270Y-19141716D01*
X3654622Y-19087554D01*
X3751095Y-18898217D01*
X3816757Y-18696130D01*
X3816757Y-18696127D01*
X3850000Y-18486246D01*
X3850000Y-18273753D01*
X3816757Y-18063872D01*
X3816757Y-18063869D01*
X3751095Y-17861782D01*
X3654624Y-17672449D01*
X3615270Y-17618282D01*
X3615269Y-17618282D01*
X2982962Y-18250590D01*
X2965925Y-18187007D01*
X2900099Y-18072993D01*
X2807007Y-17979901D01*
X2692993Y-17914075D01*
X2629409Y-17897037D01*
X3261716Y-17264728D01*
X3207550Y-17225375D01*
X3018217Y-17128904D01*
X2816129Y-17063242D01*
X2606246Y-17030000D01*
X2393754Y-17030000D01*
X2183872Y-17063242D01*
X2183869Y-17063242D01*
X1981782Y-17128904D01*
X1792439Y-17225380D01*
X1738282Y-17264727D01*
X1738282Y-17264728D01*
X2370591Y-17897037D01*
X2307007Y-17914075D01*
X2192993Y-17979901D01*
X2099901Y-18072993D01*
X2034075Y-18187007D01*
X2017037Y-18250591D01*
X1384728Y-17618282D01*
X1384727Y-17618282D01*
X1345380Y-17672439D01*
X1248904Y-17861782D01*
X1183242Y-18063869D01*
X1183242Y-18063872D01*
X1150000Y-18273753D01*
X502358Y-18273753D01*
X502358Y-10277155D01*
X1825000Y-10277155D01*
X1825000Y-10750000D01*
X2684314Y-10750000D01*
X2679920Y-10754394D01*
X2627259Y-10845606D01*
X2600000Y-10947339D01*
X2600000Y-11052661D01*
X2627259Y-11154394D01*
X2679920Y-11245606D01*
X2684314Y-11250000D01*
X1825000Y-11250000D01*
X1825000Y-11722844D01*
X1831401Y-11782372D01*
X1831403Y-11782379D01*
X1881645Y-11917086D01*
X1881649Y-11917093D01*
X1967809Y-12032187D01*
X1967812Y-12032190D01*
X2053232Y-12096136D01*
X2095103Y-12152070D01*
X2100087Y-12221761D01*
X2079240Y-12268287D01*
X1995049Y-12384166D01*
X1911084Y-12548956D01*
X1911083Y-12548959D01*
X1853933Y-12724852D01*
X1825000Y-12907526D01*
X1825000Y-13092473D01*
X1853933Y-13275147D01*
X1911083Y-13451040D01*
X1911084Y-13451043D01*
X1995050Y-13615834D01*
X2010015Y-13636430D01*
X2600000Y-13046445D01*
X2600000Y-13052661D01*
X2627259Y-13154394D01*
X2679920Y-13245606D01*
X2754394Y-13320080D01*
X2845606Y-13372741D01*
X2947339Y-13400000D01*
X2953553Y-13400000D01*
X2363568Y-13989983D01*
X2365550Y-14015164D01*
X2366583Y-14016504D01*
X2372562Y-14086117D01*
X2339956Y-14147912D01*
X2323919Y-14161809D01*
X2299362Y-14179650D01*
X2179652Y-14299360D01*
X2179648Y-14299365D01*
X2080152Y-14436311D01*
X2003296Y-14587146D01*
X1950981Y-14748152D01*
X1924500Y-14915350D01*
X1924500Y-15084649D01*
X1950981Y-15251847D01*
X2003296Y-15412853D01*
X2080152Y-15563688D01*
X2179648Y-15700634D01*
X2179652Y-15700639D01*
X2299360Y-15820347D01*
X2299365Y-15820351D01*
X2418817Y-15907137D01*
X2436315Y-15919850D01*
X2532425Y-15968820D01*
X2587146Y-15996703D01*
X2587148Y-15996703D01*
X2587151Y-15996705D01*
X2673450Y-16024745D01*
X2748152Y-16049018D01*
X2915351Y-16075500D01*
X2915356Y-16075500D01*
X3084649Y-16075500D01*
X3251847Y-16049018D01*
X3412849Y-15996705D01*
X3563685Y-15919850D01*
X3700641Y-15820346D01*
X3820346Y-15700641D01*
X3828513Y-15689399D01*
X3899682Y-15591445D01*
X3955011Y-15548779D01*
X4024625Y-15542800D01*
X4086420Y-15575405D01*
X4100318Y-15591445D01*
X4179648Y-15700634D01*
X4179652Y-15700639D01*
X4299360Y-15820347D01*
X4299365Y-15820351D01*
X4418817Y-15907137D01*
X4436315Y-15919850D01*
X4532425Y-15968820D01*
X4587146Y-15996703D01*
X4587148Y-15996703D01*
X4587151Y-15996705D01*
X4673450Y-16024745D01*
X4748152Y-16049018D01*
X4915351Y-16075500D01*
X4915356Y-16075500D01*
X5084649Y-16075500D01*
X5251847Y-16049018D01*
X5412849Y-15996705D01*
X5563685Y-15919850D01*
X5700641Y-15820346D01*
X5820346Y-15700641D01*
X5919850Y-15563685D01*
X5996705Y-15412849D01*
X6049018Y-15251847D01*
X6054221Y-15218997D01*
X6075500Y-15084649D01*
X6075500Y-14915350D01*
X6049018Y-14748152D01*
X6005364Y-14613800D01*
X5996705Y-14587151D01*
X5996703Y-14587148D01*
X5996703Y-14587146D01*
X5968820Y-14532425D01*
X5919850Y-14436315D01*
X5856515Y-14349141D01*
X5820351Y-14299365D01*
X5820347Y-14299360D01*
X5700639Y-14179652D01*
X5700634Y-14179648D01*
X5591445Y-14100318D01*
X5548779Y-14044989D01*
X5542800Y-13975375D01*
X5575405Y-13913580D01*
X5591445Y-13899682D01*
X5700634Y-13820351D01*
X5700632Y-13820351D01*
X5700641Y-13820346D01*
X5820346Y-13700641D01*
X5919850Y-13563685D01*
X5996705Y-13412849D01*
X6049018Y-13251847D01*
X6053448Y-13223875D01*
X6075500Y-13084649D01*
X6075500Y-12915350D01*
X6049018Y-12748152D01*
X5996703Y-12587146D01*
X5968820Y-12532425D01*
X5919850Y-12436315D01*
X5881962Y-12384166D01*
X5820351Y-12299365D01*
X5820347Y-12299360D01*
X5700639Y-12179652D01*
X5676080Y-12161809D01*
X5633415Y-12106479D01*
X5627436Y-12036866D01*
X5633671Y-12025047D01*
X5636430Y-11989983D01*
X5046447Y-11400000D01*
X5052661Y-11400000D01*
X5154394Y-11372741D01*
X5245606Y-11320080D01*
X5320080Y-11245606D01*
X5372741Y-11154394D01*
X5400000Y-11052661D01*
X5400000Y-11046447D01*
X5989983Y-11636430D01*
X5989984Y-11636430D01*
X6004942Y-11615845D01*
X6004947Y-11615836D01*
X6088915Y-11451043D01*
X6088916Y-11451040D01*
X6146066Y-11275147D01*
X6175000Y-11092473D01*
X6175000Y-10907526D01*
X6146066Y-10724852D01*
X6088916Y-10548959D01*
X6088915Y-10548956D01*
X6004949Y-10384165D01*
X5989983Y-10363568D01*
X5400000Y-10953551D01*
X5400000Y-10947339D01*
X5372741Y-10845606D01*
X5320080Y-10754394D01*
X5245606Y-10679920D01*
X5154394Y-10627259D01*
X5052661Y-10600000D01*
X5046446Y-10600000D01*
X5636430Y-10010015D01*
X5615834Y-9995050D01*
X5451043Y-9911084D01*
X5451040Y-9911083D01*
X5275147Y-9853933D01*
X5092473Y-9825000D01*
X4907527Y-9825000D01*
X4724852Y-9853933D01*
X4548959Y-9911083D01*
X4548956Y-9911084D01*
X4384166Y-9995049D01*
X4268287Y-10079240D01*
X4202480Y-10102719D01*
X4134426Y-10086893D01*
X4096136Y-10053232D01*
X4032190Y-9967812D01*
X4032187Y-9967809D01*
X3917093Y-9881649D01*
X3917086Y-9881645D01*
X3782379Y-9831403D01*
X3782372Y-9831401D01*
X3722844Y-9825000D01*
X3250000Y-9825000D01*
X3250000Y-10684314D01*
X3245606Y-10679920D01*
X3154394Y-10627259D01*
X3052661Y-10600000D01*
X2947339Y-10600000D01*
X2845606Y-10627259D01*
X2754394Y-10679920D01*
X2750000Y-10684314D01*
X2750000Y-9825000D01*
X2277155Y-9825000D01*
X2217627Y-9831401D01*
X2217620Y-9831403D01*
X2082913Y-9881645D01*
X2082906Y-9881649D01*
X1967812Y-9967809D01*
X1967809Y-9967812D01*
X1881649Y-10082906D01*
X1881645Y-10082913D01*
X1831403Y-10217620D01*
X1831401Y-10217627D01*
X1825000Y-10277155D01*
X502358Y-10277155D01*
X502358Y-1615171D01*
X522043Y-1548132D01*
X574847Y-1502377D01*
X626358Y-1491171D01*
X34377358Y-1491171D01*
X34444397Y-1510856D01*
G37*
%TD.AperFunction*%
%TA.AperFunction,Conductor*%
G36*
X14918834Y-10424337D02*
G01*
X14974767Y-10466209D01*
X14999184Y-10531673D01*
X14999500Y-10540519D01*
X14999500Y-28742324D01*
X14979815Y-28809363D01*
X14927011Y-28855118D01*
X14857853Y-28865062D01*
X14794297Y-28836037D01*
X14787819Y-28830005D01*
X14036819Y-28079005D01*
X14003334Y-28017682D01*
X14000500Y-27991324D01*
X14000500Y-11008676D01*
X14020185Y-10941637D01*
X14036819Y-10920995D01*
X14220995Y-10736819D01*
X14282318Y-10703334D01*
X14308676Y-10700500D01*
X14318995Y-10700500D01*
X14422455Y-10679920D01*
X14454328Y-10673580D01*
X14552924Y-10632740D01*
X14581804Y-10620778D01*
X14581804Y-10620777D01*
X14581811Y-10620775D01*
X14696542Y-10544114D01*
X14739307Y-10501349D01*
X14787819Y-10452838D01*
X14849142Y-10419353D01*
X14918834Y-10424337D01*
G37*
%TD.AperFunction*%
%TD*%
%TA.AperFunction,Conductor*%
%TO.N,GND_ISO*%
G36*
X15192699Y-36220103D02*
G01*
X15238626Y-36272758D01*
X15250000Y-36324637D01*
X15250000Y-46876000D01*
X15230315Y-46943039D01*
X15177511Y-46988794D01*
X15126000Y-47000000D01*
X626358Y-47000000D01*
X559319Y-46980315D01*
X513564Y-46927511D01*
X502358Y-46876000D01*
X502358Y-44996530D01*
X1326241Y-44996530D01*
X1326241Y-45203469D01*
X1366609Y-45406412D01*
X1366611Y-45406420D01*
X1445799Y-45597596D01*
X1560765Y-45769657D01*
X1707083Y-45915975D01*
X1707086Y-45915977D01*
X1879143Y-46030941D01*
X2070321Y-46110130D01*
X2273271Y-46150499D01*
X2273275Y-46150500D01*
X2273276Y-46150500D01*
X2480207Y-46150500D01*
X2480208Y-46150499D01*
X2683161Y-46110130D01*
X2874339Y-46030941D01*
X3046396Y-45915977D01*
X3192718Y-45769655D01*
X3307682Y-45597598D01*
X3386871Y-45406420D01*
X3427241Y-45203465D01*
X3427241Y-44996535D01*
X3386871Y-44793580D01*
X3307682Y-44602402D01*
X3192718Y-44430345D01*
X3192716Y-44430342D01*
X3046398Y-44284024D01*
X2960367Y-44226541D01*
X2874339Y-44169059D01*
X2683161Y-44089870D01*
X2683153Y-44089868D01*
X2480210Y-44049500D01*
X2480206Y-44049500D01*
X2273276Y-44049500D01*
X2273271Y-44049500D01*
X2070328Y-44089868D01*
X2070320Y-44089870D01*
X1879144Y-44169058D01*
X1707083Y-44284024D01*
X1560765Y-44430342D01*
X1445799Y-44602403D01*
X1366611Y-44793579D01*
X1366609Y-44793587D01*
X1326241Y-44996530D01*
X502358Y-44996530D01*
X502358Y-36371954D01*
X522043Y-36304915D01*
X574847Y-36259160D01*
X625946Y-36247956D01*
X1331896Y-36245652D01*
X1398995Y-36265116D01*
X1444922Y-36317771D01*
X1455091Y-36386896D01*
X1426273Y-36450546D01*
X1401191Y-36472750D01*
X1382188Y-36485448D01*
X1337873Y-36551769D01*
X1337872Y-36551770D01*
X1326241Y-36610247D01*
X1326241Y-38349752D01*
X1337872Y-38408229D01*
X1337873Y-38408230D01*
X1382188Y-38474552D01*
X1448510Y-38518867D01*
X1448511Y-38518868D01*
X1506988Y-38530499D01*
X1506991Y-38530500D01*
X1810693Y-38530500D01*
X1877732Y-38550185D01*
X1923487Y-38602989D01*
X1933431Y-38672147D01*
X1904406Y-38735703D01*
X1862476Y-38765938D01*
X1862862Y-38766694D01*
X1669180Y-38865380D01*
X1615023Y-38904727D01*
X1615023Y-38904728D01*
X2247332Y-39537037D01*
X2183748Y-39554075D01*
X2069734Y-39619901D01*
X1976642Y-39712993D01*
X1910816Y-39827007D01*
X1893778Y-39890591D01*
X1261469Y-39258282D01*
X1261468Y-39258282D01*
X1222121Y-39312439D01*
X1125645Y-39501782D01*
X1059983Y-39703869D01*
X1059983Y-39703872D01*
X1026741Y-39913753D01*
X1026741Y-40126246D01*
X1059983Y-40336127D01*
X1059983Y-40336130D01*
X1125645Y-40538217D01*
X1222116Y-40727550D01*
X1261469Y-40781716D01*
X1893778Y-40149408D01*
X1910816Y-40212993D01*
X1976642Y-40327007D01*
X2069734Y-40420099D01*
X2183748Y-40485925D01*
X2247331Y-40502962D01*
X1615023Y-41135269D01*
X1615023Y-41135270D01*
X1669190Y-41174624D01*
X1858523Y-41271095D01*
X2034714Y-41328343D01*
X2092389Y-41367780D01*
X2119588Y-41432139D01*
X2107673Y-41500985D01*
X2060429Y-41552461D01*
X2043849Y-41560835D01*
X1879144Y-41629057D01*
X1707083Y-41744024D01*
X1560765Y-41890342D01*
X1445799Y-42062403D01*
X1366611Y-42253579D01*
X1366609Y-42253587D01*
X1326241Y-42456530D01*
X1326241Y-42663469D01*
X1366609Y-42866412D01*
X1366611Y-42866420D01*
X1445799Y-43057596D01*
X1560765Y-43229657D01*
X1707083Y-43375975D01*
X1707086Y-43375977D01*
X1879143Y-43490941D01*
X2070321Y-43570130D01*
X2273271Y-43610499D01*
X2273275Y-43610500D01*
X2273276Y-43610500D01*
X2480207Y-43610500D01*
X2480208Y-43610499D01*
X2683161Y-43570130D01*
X2874339Y-43490941D01*
X3046396Y-43375977D01*
X3192718Y-43229655D01*
X3307682Y-43057598D01*
X3386871Y-42866420D01*
X3427241Y-42663465D01*
X3427241Y-42456535D01*
X3386871Y-42253580D01*
X3307682Y-42062402D01*
X3192718Y-41890345D01*
X3192716Y-41890342D01*
X3046398Y-41744024D01*
X2960367Y-41686541D01*
X2874339Y-41629059D01*
X2874334Y-41629057D01*
X2812632Y-41603499D01*
X2709631Y-41560834D01*
X2655229Y-41516994D01*
X2633164Y-41450700D01*
X2650443Y-41383001D01*
X2701580Y-41335390D01*
X2718767Y-41328343D01*
X2894958Y-41271095D01*
X3084295Y-41174622D01*
X3138457Y-41135270D01*
X3138458Y-41135270D01*
X2506149Y-40502962D01*
X2569734Y-40485925D01*
X2683748Y-40420099D01*
X2776840Y-40327007D01*
X2842666Y-40212993D01*
X2859703Y-40149408D01*
X3492011Y-40781717D01*
X3492011Y-40781716D01*
X3531363Y-40727554D01*
X3627836Y-40538217D01*
X3693498Y-40336130D01*
X3693498Y-40336127D01*
X3726741Y-40126246D01*
X3726741Y-39913753D01*
X3693498Y-39703872D01*
X3693498Y-39703869D01*
X3627836Y-39501782D01*
X3531365Y-39312449D01*
X3492011Y-39258282D01*
X3492010Y-39258282D01*
X2859703Y-39890590D01*
X2842666Y-39827007D01*
X2776840Y-39712993D01*
X2683748Y-39619901D01*
X2569734Y-39554075D01*
X2506150Y-39537037D01*
X3138457Y-38904728D01*
X3084291Y-38865375D01*
X2890620Y-38766694D01*
X2891137Y-38765678D01*
X2840933Y-38725221D01*
X2818868Y-38658927D01*
X2836147Y-38591228D01*
X2887283Y-38543617D01*
X2942789Y-38530500D01*
X3246491Y-38530500D01*
X3246492Y-38530499D01*
X3261309Y-38527552D01*
X3304970Y-38518868D01*
X3304970Y-38518867D01*
X3304972Y-38518867D01*
X3371293Y-38474552D01*
X3415608Y-38408231D01*
X3415608Y-38408229D01*
X3415609Y-38408229D01*
X3427240Y-38349752D01*
X3427241Y-38349750D01*
X3427241Y-36610249D01*
X3427240Y-36610247D01*
X3415609Y-36551770D01*
X3415608Y-36551769D01*
X3371293Y-36485448D01*
X3342141Y-36465969D01*
X3297337Y-36412356D01*
X3288630Y-36343031D01*
X3318785Y-36280004D01*
X3378229Y-36243285D01*
X3410620Y-36238869D01*
X15125598Y-36200639D01*
X15192699Y-36220103D01*
G37*
%TD.AperFunction*%
%TD*%
M02*
