%TF.GenerationSoftware,KiCad,Pcbnew,9.0.6*%
%TF.CreationDate,2025-12-27T05:43:28+01:00*%
%TF.ProjectId,lsw5-esp32,6c737735-2d65-4737-9033-322e6b696361,rev?*%
%TF.SameCoordinates,Original*%
%TF.FileFunction,Copper,L2,Bot*%
%TF.FilePolarity,Positive*%
%FSLAX46Y46*%
G04 Gerber Fmt 4.6, Leading zero omitted, Abs format (unit mm)*
G04 Created by KiCad (PCBNEW 9.0.6) date 2025-12-27 05:43:28*
%MOMM*%
%LPD*%
G01*
G04 APERTURE LIST*
G04 Aperture macros list*
%AMRoundRect*
0 Rectangle with rounded corners*
0 $1 Rounding radius*
0 $2 $3 $4 $5 $6 $7 $8 $9 X,Y pos of 4 corners*
0 Add a 4 corners polygon primitive as box body*
4,1,4,$2,$3,$4,$5,$6,$7,$8,$9,$2,$3,0*
0 Add four circle primitives for the rounded corners*
1,1,$1+$1,$2,$3*
1,1,$1+$1,$4,$5*
1,1,$1+$1,$6,$7*
1,1,$1+$1,$8,$9*
0 Add four rect primitives between the rounded corners*
20,1,$1+$1,$2,$3,$4,$5,0*
20,1,$1+$1,$4,$5,$6,$7,0*
20,1,$1+$1,$6,$7,$8,$9,0*
20,1,$1+$1,$8,$9,$2,$3,0*%
G04 Aperture macros list end*
%TA.AperFunction,ComponentPad*%
%ADD10R,1.350000X1.350000*%
%TD*%
%TA.AperFunction,ComponentPad*%
%ADD11C,1.350000*%
%TD*%
%TA.AperFunction,ComponentPad*%
%ADD12O,2.100000X1.000000*%
%TD*%
%TA.AperFunction,ComponentPad*%
%ADD13O,1.800000X1.000000*%
%TD*%
%TA.AperFunction,ComponentPad*%
%ADD14R,1.700000X1.700000*%
%TD*%
%TA.AperFunction,ComponentPad*%
%ADD15C,1.700000*%
%TD*%
%TA.AperFunction,SMDPad,CuDef*%
%ADD16RoundRect,0.237500X-0.237500X0.300000X-0.237500X-0.300000X0.237500X-0.300000X0.237500X0.300000X0*%
%TD*%
%TA.AperFunction,SMDPad,CuDef*%
%ADD17RoundRect,0.237500X0.237500X-0.250000X0.237500X0.250000X-0.237500X0.250000X-0.237500X-0.250000X0*%
%TD*%
%TA.AperFunction,SMDPad,CuDef*%
%ADD18RoundRect,0.237500X0.250000X0.237500X-0.250000X0.237500X-0.250000X-0.237500X0.250000X-0.237500X0*%
%TD*%
%TA.AperFunction,SMDPad,CuDef*%
%ADD19RoundRect,0.237500X-0.250000X-0.237500X0.250000X-0.237500X0.250000X0.237500X-0.250000X0.237500X0*%
%TD*%
%TA.AperFunction,ViaPad*%
%ADD20C,0.600000*%
%TD*%
%TA.AperFunction,ViaPad*%
%ADD21C,0.800000*%
%TD*%
%TA.AperFunction,ViaPad*%
%ADD22C,0.500000*%
%TD*%
%TA.AperFunction,Conductor*%
%ADD23C,0.800000*%
%TD*%
%TA.AperFunction,Conductor*%
%ADD24C,0.200000*%
%TD*%
G04 APERTURE END LIST*
D10*
%TO.P,J4,1,Pin_1*%
%TO.N,/SIM1*%
X29000000Y-14000000D03*
D11*
%TO.P,J4,2,Pin_2*%
%TO.N,/unconnected-(J1-Pin_2-Pad2)*%
X31000000Y-14000000D03*
%TO.P,J4,3,Pin_3*%
%TO.N,/unconnected-(J1-Pin_3-Pad3)*%
X29000000Y-16000000D03*
%TO.P,J4,4,Pin_4*%
%TO.N,/SIM2*%
X31000000Y-16000000D03*
%TO.P,J4,5,Pin_5*%
%TO.N,/+3V3_IN*%
X29000000Y-18000000D03*
%TO.P,J4,6,Pin_6*%
X31000000Y-18000000D03*
%TO.P,J4,7,Pin_7*%
%TO.N,/TX*%
X29000000Y-20000000D03*
%TO.P,J4,8,Pin_8*%
%TO.N,/RX*%
X31000000Y-20000000D03*
%TO.P,J4,9,Pin_9*%
%TO.N,GND*%
X29000000Y-22000000D03*
%TO.P,J4,10,Pin_10*%
X31000000Y-22000000D03*
%TD*%
D12*
%TO.P,J3,SH1,SHELL_GND*%
%TO.N,GND*%
X28669145Y-34320000D03*
%TO.P,J3,SH2,SHELL_GND__1*%
X28669145Y-25680000D03*
D13*
%TO.P,J3,SH3,SHELL_GND__2*%
X32849145Y-34320000D03*
%TO.P,J3,SH4,SHELL_GND__3*%
X32849145Y-25680000D03*
%TD*%
D14*
%TO.P,J2,1,Pin_1*%
%TO.N,+3V3*%
X2500000Y-30000000D03*
D15*
%TO.P,J2,2,Pin_2*%
%TO.N,/PRG_TX*%
X2500000Y-27460000D03*
%TO.P,J2,3,Pin_3*%
%TO.N,/PRG_RX*%
X2500000Y-24920000D03*
%TO.P,J2,4,Pin_4*%
%TO.N,GND*%
X2500000Y-22380000D03*
%TD*%
D10*
%TO.P,J1,1,Pin_1*%
%TO.N,GND*%
X3000000Y-11000000D03*
D11*
%TO.P,J1,2,Pin_2*%
X5000000Y-11000000D03*
%TO.P,J1,3,Pin_3*%
X3000000Y-13000000D03*
%TO.P,J1,4,Pin_4*%
%TO.N,/SW_MB*%
X5000000Y-13000000D03*
%TO.P,J1,5,Pin_5*%
%TO.N,/unconnected-(J2-Pin_5-Pad5)*%
X3000000Y-15000000D03*
%TO.P,J1,6,Pin_6*%
%TO.N,/unconnected-(J2-Pin_6-Pad6)*%
X5000000Y-15000000D03*
%TD*%
D14*
%TO.P,J_EXP1,1,Pin_1*%
%TO.N,+3V3*%
X33500000Y-37500000D03*
D15*
%TO.P,J_EXP1,2,Pin_2*%
%TO.N,Net-(J_EXP1-Pin_2)*%
X33500000Y-40040000D03*
%TO.P,J_EXP1,3,Pin_3*%
%TO.N,Net-(J_EXP1-Pin_3)*%
X33500000Y-42580000D03*
%TO.P,J_EXP1,4,Pin_4*%
%TO.N,Net-(J_EXP1-Pin_4)*%
X33500000Y-45120000D03*
%TO.P,J_EXP1,5,Pin_5*%
%TO.N,Net-(J_EXP1-Pin_5)*%
X33500000Y-47660000D03*
%TO.P,J_EXP1,6,Pin_6*%
%TO.N,GND*%
X33500000Y-50200000D03*
%TD*%
D14*
%TO.P,J5,1,Pin_1*%
%TO.N,/Net-(J4-Pin_1)*%
X6500000Y-43500000D03*
D15*
%TO.P,J5,2,Pin_2*%
%TO.N,/Net-(J4-Pin_2)*%
X3960000Y-43500000D03*
%TO.P,J5,3,Pin_3*%
%TO.N,GND*%
X1420000Y-43500000D03*
%TD*%
D16*
%TO.P,C6,1*%
%TO.N,GND*%
X24000000Y-14000000D03*
%TO.P,C6,2*%
%TO.N,Net-(U1-EN)*%
X24000000Y-15725000D03*
%TD*%
D17*
%TO.P,R10,1*%
%TO.N,+3V3*%
X22500000Y-18825000D03*
%TO.P,R10,2*%
%TO.N,Net-(U1-EN)*%
X22500000Y-17000000D03*
%TD*%
D18*
%TO.P,R11,1*%
%TO.N,GND*%
X32761645Y-31500000D03*
%TO.P,R11,2*%
%TO.N,Net-(J3-CC1)*%
X30936645Y-31500000D03*
%TD*%
D19*
%TO.P,R12,1*%
%TO.N,Net-(J3-CC2)*%
X30849145Y-28500000D03*
%TO.P,R12,2*%
%TO.N,GND*%
X32674145Y-28500000D03*
%TD*%
D20*
%TO.N,GND*%
X18000000Y-26500000D03*
X2641871Y-46239021D03*
X13000000Y-15000000D03*
X20000000Y-36500000D03*
X6000000Y-22500000D03*
X15500000Y-35000000D03*
X31000000Y-33500000D03*
X6000000Y-12000000D03*
X9500000Y-47000000D03*
X30000000Y-7500000D03*
X24000000Y-9000000D03*
X28500000Y-44500000D03*
X4000000Y-14000000D03*
X31000000Y-37500000D03*
X32500000Y-7000000D03*
X18000000Y-51000000D03*
X6000000Y-25000000D03*
X7000000Y-38500000D03*
X2641871Y-45306954D03*
X4500000Y-5000000D03*
X20243220Y-20136975D03*
X30000000Y-36500000D03*
X21000000Y-7500000D03*
X13500000Y-31500000D03*
X13000000Y-42500000D03*
X22500000Y-13000000D03*
X30500000Y-34500000D03*
X2000000Y-7000000D03*
X29500000Y-40500000D03*
X5000000Y-40500000D03*
X26000000Y-33500000D03*
X23000000Y-10000000D03*
X9000000Y-42500000D03*
X19500000Y-41500000D03*
X13500000Y-11000000D03*
X13500000Y-19500000D03*
X22500000Y-20500000D03*
X20982020Y-20910101D03*
X30500000Y-41000000D03*
X2000000Y-39500000D03*
X13000000Y-7000000D03*
X13471340Y-9679534D03*
X19500000Y-8500000D03*
X6000000Y-20000000D03*
X29000000Y-11500000D03*
X2000000Y-36500000D03*
X30500000Y-8000000D03*
X4617852Y-47000000D03*
X6000000Y-21000000D03*
X32000000Y-9500000D03*
X14000000Y-17500000D03*
X16000000Y-32000000D03*
X33000000Y-10500000D03*
X29500000Y-7000000D03*
X30500000Y-47000000D03*
X24000000Y-41000000D03*
X7000000Y-39500000D03*
X19500000Y-26500000D03*
X21721150Y-20136975D03*
X27000000Y-37000000D03*
X29500000Y-38000000D03*
X31000000Y-25680000D03*
X16000000Y-33000000D03*
X10500000Y-47000000D03*
X5177092Y-46500000D03*
X13500000Y-42000000D03*
X31500000Y-6000000D03*
X19500000Y-20500000D03*
X19500000Y-16000000D03*
X21500000Y-37500000D03*
X13500000Y-30000000D03*
X21500000Y-52000000D03*
X34000000Y-8500000D03*
X22500000Y-51500000D03*
X26000000Y-42500000D03*
X25500000Y-29500000D03*
X29000000Y-6500000D03*
X33000000Y-7500000D03*
X20167705Y-20870546D03*
X8000000Y-29500000D03*
X20500000Y-47000000D03*
X23500000Y-20500000D03*
X5500000Y-33000000D03*
X1000000Y-40000000D03*
X11989577Y-6168401D03*
X16000000Y-39500000D03*
X32500000Y-10000000D03*
X12000000Y-4000000D03*
X19500000Y-46000000D03*
X31500000Y-9000000D03*
X29500000Y-45500000D03*
X2000000Y-38500000D03*
X19000000Y-45500000D03*
X23003685Y-21042007D03*
X5000000Y-39500000D03*
X22506811Y-31166875D03*
X23908912Y-18263896D03*
X24000000Y-27000000D03*
X30500000Y-33000000D03*
X34000000Y-32500000D03*
X11828516Y-8487682D03*
X5000000Y-31000000D03*
X2000000Y-37500000D03*
X21000000Y-31500000D03*
X5000000Y-41500000D03*
X29000000Y-46500000D03*
X20584274Y-44362161D03*
X13500000Y-4000000D03*
X5000000Y-7000000D03*
X1000000Y-38000000D03*
X13245854Y-22177877D03*
X31000000Y-8500000D03*
X34000000Y-31500000D03*
X2500000Y-19000000D03*
X25000000Y-41000000D03*
X5500000Y-6500000D03*
X1500000Y-6500000D03*
X26500000Y-35500000D03*
X13000000Y-8500000D03*
X21000000Y-36500000D03*
X19500000Y-17500000D03*
X5500000Y-32000000D03*
X7000000Y-40500000D03*
X2500000Y-7500000D03*
X23500000Y-5000000D03*
X18000000Y-45500000D03*
X3500000Y-7500000D03*
X24500000Y-26000000D03*
X20500000Y-37500000D03*
X16500000Y-40500000D03*
X24000000Y-10000000D03*
X11500000Y-47000000D03*
X5326223Y-45288313D03*
X2000000Y-5000000D03*
X22500000Y-15000000D03*
X20973030Y-20208894D03*
X19792017Y-40602826D03*
X31000000Y-11500000D03*
X14000000Y-43000000D03*
X2500000Y-36000000D03*
X32000000Y-32500000D03*
X33500000Y-8000000D03*
X30269572Y-26730428D03*
X12000000Y-42000000D03*
X2000000Y-18000000D03*
X26500000Y-30500000D03*
X8000000Y-31500000D03*
X13500000Y-13000000D03*
X27500000Y-38000000D03*
X13052581Y-16476313D03*
X15500000Y-4000000D03*
X5000000Y-38500000D03*
X31000000Y-35500000D03*
X2500000Y-40500000D03*
X26500000Y-29500000D03*
X21731937Y-20902909D03*
X30000000Y-11000000D03*
X4500000Y-7500000D03*
X4000000Y-33000000D03*
X23596765Y-19793418D03*
X27000000Y-51000000D03*
X23500000Y-11500000D03*
X7000000Y-41500000D03*
X34000000Y-30500000D03*
X33500000Y-33000000D03*
X17000000Y-41500000D03*
X22000000Y-32500000D03*
X31000000Y-5500000D03*
X32000000Y-6500000D03*
X12500000Y-47000000D03*
X22000000Y-6500000D03*
X18500000Y-16500000D03*
X1500000Y-23500000D03*
D21*
%TO.N,+3V3*%
X21000000Y-18825000D03*
D22*
X28000000Y-3000000D03*
D20*
%TO.N,Net-(U1-EN)*%
X24000000Y-17000000D03*
%TO.N,/Net-(D4-A)*%
X8000000Y-47500000D03*
X7000000Y-13000000D03*
%TO.N,Net-(D3-A)*%
X12000000Y-10500000D03*
X23500000Y-48500000D03*
%TO.N,/Net-(D2-A)*%
X7472998Y-10000000D03*
X16000000Y-47500000D03*
%TO.N,/TX*%
X28000000Y-9000000D03*
%TO.N,/RX*%
X28500000Y-9960000D03*
%TO.N,Net-(J3-CC1)*%
X29349145Y-31500000D03*
%TO.N,/USB_DM*%
X28000000Y-6000000D03*
X29250000Y-4750000D03*
%TO.N,Net-(J3-CC2)*%
X29349145Y-28500000D03*
%TO.N,/USB_DP*%
X34000000Y-29500000D03*
X31500000Y-27000000D03*
%TO.N,Net-(J_EXP1-Pin_4)*%
X16500000Y-7000000D03*
%TO.N,Net-(J_EXP1-Pin_3)*%
X17000000Y-8000000D03*
%TO.N,Net-(J_EXP1-Pin_5)*%
X15807034Y-6307034D03*
%TO.N,Net-(J_EXP1-Pin_2)*%
X18000000Y-9000000D03*
%TO.N,Net-(U1-IO37)*%
X10600000Y-7500000D03*
X11000000Y-37500000D03*
%TO.N,Net-(U1-IO36)*%
X10000000Y-6500000D03*
X10000000Y-37500000D03*
%TO.N,Net-(U1-IO35)*%
X15000000Y-6000000D03*
X13000000Y-36000000D03*
%TD*%
D23*
%TO.N,GND*%
X3000000Y-13000000D02*
X5000000Y-11000000D01*
D24*
X31000000Y-25680000D02*
X32849145Y-25680000D01*
X30269572Y-26730428D02*
X29219145Y-25680000D01*
X32674145Y-28500000D02*
X32674145Y-31412500D01*
X31263145Y-27724000D02*
X30269572Y-26730428D01*
X31898145Y-27724000D02*
X31263145Y-27724000D01*
X4000000Y-14000000D02*
X4000000Y-16000000D01*
X32674145Y-28500000D02*
X31898145Y-27724000D01*
X4000000Y-16000000D02*
X2000000Y-18000000D01*
X28669145Y-25680000D02*
X31000000Y-25680000D01*
%TO.N,+3V3*%
X21000000Y-10000000D02*
X21000000Y-18825000D01*
D23*
X21000000Y-18825000D02*
X22500000Y-18825000D01*
D24*
X28000000Y-3000000D02*
X21000000Y-10000000D01*
%TO.N,Net-(U1-EN)*%
X24000000Y-15725000D02*
X24000000Y-17000000D01*
X22500000Y-17000000D02*
X24000000Y-17000000D01*
%TO.N,/Net-(D4-A)*%
X7000000Y-13000000D02*
X7000000Y-34000000D01*
X8000000Y-35000000D02*
X8000000Y-47500000D01*
X7000000Y-34000000D02*
X8000000Y-35000000D01*
%TO.N,Net-(D3-A)*%
X18500000Y-43500000D02*
X23500000Y-48500000D01*
X12000000Y-37500000D02*
X16000000Y-37500000D01*
X16000000Y-37500000D02*
X18500000Y-40000000D01*
X12000000Y-10500000D02*
X12000000Y-37500000D01*
X18500000Y-40000000D02*
X18500000Y-43500000D01*
%TO.N,/Net-(D2-A)*%
X9000000Y-11527002D02*
X7472998Y-10000000D01*
X9500000Y-38500000D02*
X9000000Y-38000000D01*
X16000000Y-47500000D02*
X16000000Y-41000000D01*
X13500000Y-38500000D02*
X9500000Y-38500000D01*
X9000000Y-38000000D02*
X9000000Y-11527002D01*
X16000000Y-41000000D02*
X13500000Y-38500000D01*
%TO.N,/TX*%
X27500000Y-18500000D02*
X29000000Y-20000000D01*
X28000000Y-9000000D02*
X27500000Y-9500000D01*
X27500000Y-9500000D02*
X27500000Y-18500000D01*
%TO.N,/RX*%
X33000000Y-11500000D02*
X33000000Y-18000000D01*
X28500000Y-9960000D02*
X31460000Y-9960000D01*
X33000000Y-18000000D02*
X31000000Y-20000000D01*
X31460000Y-9960000D02*
X33000000Y-11500000D01*
%TO.N,Net-(J3-CC1)*%
X29349145Y-31500000D02*
X30936645Y-31500000D01*
%TO.N,/USB_DM*%
X29250000Y-4750000D02*
X28000000Y-6000000D01*
%TO.N,Net-(J3-CC2)*%
X29349145Y-28500000D02*
X30849145Y-28500000D01*
%TO.N,/USB_DP*%
X34000000Y-29500000D02*
X34000000Y-27500000D01*
X34000000Y-27500000D02*
X33500000Y-27000000D01*
X33500000Y-27000000D02*
X31500000Y-27000000D01*
%TO.N,Net-(J_EXP1-Pin_4)*%
X16000000Y-29500000D02*
X31620000Y-45120000D01*
X16000000Y-7500000D02*
X16500000Y-7000000D01*
X33500000Y-45120000D02*
X31620000Y-45120000D01*
X16000000Y-29500000D02*
X16000000Y-7500000D01*
%TO.N,Net-(J_EXP1-Pin_3)*%
X16500000Y-29500000D02*
X16500000Y-8500000D01*
X32080000Y-44000000D02*
X31000000Y-44000000D01*
X16500000Y-8500000D02*
X17000000Y-8000000D01*
X31000000Y-44000000D02*
X16500000Y-29500000D01*
X33500000Y-42580000D02*
X32080000Y-44000000D01*
%TO.N,Net-(J_EXP1-Pin_5)*%
X15500000Y-29660000D02*
X33500000Y-47660000D01*
X15807034Y-6307034D02*
X15500000Y-6614069D01*
X15500000Y-6614069D02*
X15500000Y-29660000D01*
%TO.N,Net-(J_EXP1-Pin_2)*%
X31040000Y-42500000D02*
X33500000Y-40040000D01*
X17028138Y-9000000D02*
X17000000Y-9028138D01*
X30500000Y-43000000D02*
X31000000Y-42500000D01*
X17000000Y-29500000D02*
X30500000Y-43000000D01*
X18000000Y-9000000D02*
X17028138Y-9000000D01*
X31000000Y-42500000D02*
X31040000Y-42500000D01*
X17000000Y-9028138D02*
X17000000Y-29500000D01*
%TO.N,Net-(U1-IO37)*%
X10600000Y-37100000D02*
X11000000Y-37500000D01*
X10600000Y-7500000D02*
X10600000Y-37100000D01*
%TO.N,Net-(U1-IO36)*%
X10000000Y-37500000D02*
X10000000Y-6500000D01*
%TO.N,Net-(U1-IO35)*%
X13000000Y-36000000D02*
X13000000Y-35000000D01*
X15000000Y-33000000D02*
X15000000Y-6000000D01*
X13000000Y-35000000D02*
X15000000Y-33000000D01*
%TD*%
%TA.AperFunction,Conductor*%
%TO.N,GND*%
G36*
X15805703Y-30815384D02*
G01*
X15812181Y-30821416D01*
X32166241Y-47175476D01*
X32199726Y-47236799D01*
X32196492Y-47301473D01*
X32182753Y-47343757D01*
X32149500Y-47553713D01*
X32149500Y-47766287D01*
X32182754Y-47976243D01*
X32229732Y-48120827D01*
X32248444Y-48178414D01*
X32344951Y-48367820D01*
X32469890Y-48539786D01*
X32620213Y-48690109D01*
X32792179Y-48815048D01*
X32792181Y-48815049D01*
X32792184Y-48815051D01*
X32801493Y-48819794D01*
X32852290Y-48867766D01*
X32869087Y-48935587D01*
X32846552Y-49001722D01*
X32801505Y-49040760D01*
X32792446Y-49045376D01*
X32792440Y-49045380D01*
X32738282Y-49084727D01*
X32738282Y-49084728D01*
X33370591Y-49717037D01*
X33307007Y-49734075D01*
X33192993Y-49799901D01*
X33099901Y-49892993D01*
X33034075Y-50007007D01*
X33017037Y-50070591D01*
X32384728Y-49438282D01*
X32384727Y-49438282D01*
X32345380Y-49492439D01*
X32248904Y-49681782D01*
X32183242Y-49883869D01*
X32183242Y-49883872D01*
X32150000Y-50093753D01*
X32150000Y-50306246D01*
X32183242Y-50516127D01*
X32183242Y-50516130D01*
X32248904Y-50718217D01*
X32345375Y-50907550D01*
X32384728Y-50961716D01*
X33017037Y-50329408D01*
X33034075Y-50392993D01*
X33099901Y-50507007D01*
X33192993Y-50600099D01*
X33307007Y-50665925D01*
X33370589Y-50682962D01*
X32738282Y-51315269D01*
X32738282Y-51315270D01*
X32792449Y-51354624D01*
X32981782Y-51451095D01*
X33183870Y-51516757D01*
X33393754Y-51550000D01*
X33606246Y-51550000D01*
X33816127Y-51516757D01*
X33816130Y-51516757D01*
X34018217Y-51451095D01*
X34207557Y-51354620D01*
X34304473Y-51284208D01*
X34370279Y-51260728D01*
X34438333Y-51276554D01*
X34487028Y-51326659D01*
X34501358Y-51384526D01*
X34501358Y-52366171D01*
X34481673Y-52433210D01*
X34428869Y-52478965D01*
X34377358Y-52490171D01*
X626358Y-52490171D01*
X559319Y-52470486D01*
X513564Y-52417682D01*
X502358Y-52366171D01*
X502358Y-44745349D01*
X522043Y-44678310D01*
X574847Y-44632555D01*
X644005Y-44622611D01*
X699244Y-44645031D01*
X712445Y-44654622D01*
X901782Y-44751095D01*
X1103870Y-44816757D01*
X1313754Y-44850000D01*
X1526246Y-44850000D01*
X1736127Y-44816757D01*
X1736130Y-44816757D01*
X1938217Y-44751095D01*
X2127554Y-44654622D01*
X2181716Y-44615270D01*
X2181717Y-44615270D01*
X1549409Y-43982962D01*
X1612993Y-43965925D01*
X1727007Y-43900099D01*
X1820099Y-43807007D01*
X1885925Y-43692993D01*
X1902962Y-43629408D01*
X2535270Y-44261717D01*
X2535270Y-44261716D01*
X2574622Y-44207555D01*
X2579232Y-44198507D01*
X2627205Y-44147709D01*
X2695025Y-44130912D01*
X2761161Y-44153447D01*
X2800204Y-44198504D01*
X2804949Y-44207817D01*
X2929890Y-44379786D01*
X3080213Y-44530109D01*
X3252179Y-44655048D01*
X3252181Y-44655049D01*
X3252184Y-44655051D01*
X3441588Y-44751557D01*
X3643757Y-44817246D01*
X3853713Y-44850500D01*
X3853714Y-44850500D01*
X4066286Y-44850500D01*
X4066287Y-44850500D01*
X4276243Y-44817246D01*
X4478412Y-44751557D01*
X4667816Y-44655051D01*
X4839792Y-44530104D01*
X4953329Y-44416566D01*
X5014648Y-44383084D01*
X5084340Y-44388068D01*
X5140274Y-44429939D01*
X5157189Y-44460917D01*
X5206202Y-44592328D01*
X5206206Y-44592335D01*
X5292452Y-44707544D01*
X5292455Y-44707547D01*
X5407664Y-44793793D01*
X5407671Y-44793797D01*
X5542517Y-44844091D01*
X5542516Y-44844091D01*
X5549444Y-44844835D01*
X5602127Y-44850500D01*
X7275500Y-44850499D01*
X7342539Y-44870184D01*
X7388294Y-44922987D01*
X7399500Y-44974499D01*
X7399500Y-46920234D01*
X7379815Y-46987273D01*
X7378602Y-46989125D01*
X7290609Y-47120814D01*
X7290602Y-47120827D01*
X7230264Y-47266498D01*
X7230261Y-47266510D01*
X7199500Y-47421153D01*
X7199500Y-47578846D01*
X7230261Y-47733489D01*
X7230264Y-47733501D01*
X7290602Y-47879172D01*
X7290609Y-47879185D01*
X7378210Y-48010288D01*
X7378213Y-48010292D01*
X7489707Y-48121786D01*
X7489711Y-48121789D01*
X7620814Y-48209390D01*
X7620827Y-48209397D01*
X7758683Y-48266498D01*
X7766503Y-48269737D01*
X7921153Y-48300499D01*
X7921156Y-48300500D01*
X7921158Y-48300500D01*
X8078844Y-48300500D01*
X8078845Y-48300499D01*
X8233497Y-48269737D01*
X8379179Y-48209394D01*
X8510289Y-48121789D01*
X8621789Y-48010289D01*
X8709394Y-47879179D01*
X8769737Y-47733497D01*
X8800500Y-47578842D01*
X8800500Y-47421158D01*
X8800500Y-47421155D01*
X8800499Y-47421153D01*
X8769738Y-47266510D01*
X8769737Y-47266503D01*
X8732033Y-47175476D01*
X8709397Y-47120827D01*
X8709390Y-47120814D01*
X8621398Y-46989125D01*
X8600520Y-46922447D01*
X8600500Y-46920234D01*
X8600500Y-38749098D01*
X8620185Y-38682059D01*
X8672989Y-38636304D01*
X8742147Y-38626360D01*
X8805703Y-38655385D01*
X8812181Y-38661417D01*
X9131284Y-38980520D01*
X9131286Y-38980521D01*
X9131290Y-38980524D01*
X9245865Y-39046673D01*
X9268216Y-39059577D01*
X9420943Y-39100501D01*
X9420945Y-39100501D01*
X9586654Y-39100501D01*
X9586670Y-39100500D01*
X13199903Y-39100500D01*
X13266942Y-39120185D01*
X13287584Y-39136819D01*
X15363181Y-41212416D01*
X15396666Y-41273739D01*
X15399500Y-41300097D01*
X15399500Y-46920234D01*
X15379815Y-46987273D01*
X15378602Y-46989125D01*
X15290609Y-47120814D01*
X15290602Y-47120827D01*
X15230264Y-47266498D01*
X15230261Y-47266510D01*
X15199500Y-47421153D01*
X15199500Y-47578846D01*
X15230261Y-47733489D01*
X15230264Y-47733501D01*
X15290602Y-47879172D01*
X15290609Y-47879185D01*
X15378210Y-48010288D01*
X15378213Y-48010292D01*
X15489707Y-48121786D01*
X15489711Y-48121789D01*
X15620814Y-48209390D01*
X15620827Y-48209397D01*
X15758683Y-48266498D01*
X15766503Y-48269737D01*
X15921153Y-48300499D01*
X15921156Y-48300500D01*
X15921158Y-48300500D01*
X16078844Y-48300500D01*
X16078845Y-48300499D01*
X16233497Y-48269737D01*
X16379179Y-48209394D01*
X16510289Y-48121789D01*
X16621789Y-48010289D01*
X16709394Y-47879179D01*
X16769737Y-47733497D01*
X16800500Y-47578842D01*
X16800500Y-47421158D01*
X16800500Y-47421155D01*
X16800499Y-47421153D01*
X16769738Y-47266510D01*
X16769737Y-47266503D01*
X16732033Y-47175476D01*
X16709397Y-47120827D01*
X16709390Y-47120814D01*
X16621398Y-46989125D01*
X16600520Y-46922447D01*
X16600500Y-46920234D01*
X16600500Y-41089059D01*
X16600501Y-41089046D01*
X16600501Y-40920945D01*
X16600501Y-40920943D01*
X16559577Y-40768215D01*
X16507365Y-40677782D01*
X16480520Y-40631284D01*
X16368716Y-40519480D01*
X16368713Y-40519478D01*
X14161416Y-38312181D01*
X14127931Y-38250858D01*
X14132915Y-38181166D01*
X14174787Y-38125233D01*
X14240251Y-38100816D01*
X14249097Y-38100500D01*
X15699903Y-38100500D01*
X15766942Y-38120185D01*
X15787584Y-38136819D01*
X17863181Y-40212416D01*
X17896666Y-40273739D01*
X17899500Y-40300097D01*
X17899500Y-43413330D01*
X17899499Y-43413348D01*
X17899499Y-43579054D01*
X17899498Y-43579054D01*
X17940424Y-43731789D01*
X17942310Y-43735054D01*
X17942314Y-43735060D01*
X18019477Y-43868712D01*
X18019481Y-43868717D01*
X18138349Y-43987585D01*
X18138355Y-43987590D01*
X22665425Y-48514660D01*
X22698910Y-48575983D01*
X22699361Y-48578149D01*
X22730261Y-48733491D01*
X22730264Y-48733501D01*
X22790602Y-48879172D01*
X22790609Y-48879185D01*
X22878210Y-49010288D01*
X22878213Y-49010292D01*
X22989707Y-49121786D01*
X22989711Y-49121789D01*
X23120814Y-49209390D01*
X23120827Y-49209397D01*
X23266498Y-49269735D01*
X23266503Y-49269737D01*
X23421153Y-49300499D01*
X23421156Y-49300500D01*
X23421158Y-49300500D01*
X23578844Y-49300500D01*
X23578845Y-49300499D01*
X23733497Y-49269737D01*
X23879179Y-49209394D01*
X24010289Y-49121789D01*
X24121789Y-49010289D01*
X24209394Y-48879179D01*
X24269737Y-48733497D01*
X24300500Y-48578842D01*
X24300500Y-48421158D01*
X24300500Y-48421155D01*
X24300499Y-48421153D01*
X24289890Y-48367820D01*
X24269737Y-48266503D01*
X24209794Y-48121786D01*
X24209397Y-48120827D01*
X24209390Y-48120814D01*
X24121789Y-47989711D01*
X24121786Y-47989707D01*
X24010292Y-47878213D01*
X24010288Y-47878210D01*
X23879185Y-47790609D01*
X23879172Y-47790602D01*
X23733501Y-47730264D01*
X23733491Y-47730261D01*
X23578149Y-47699361D01*
X23516238Y-47666976D01*
X23514660Y-47665425D01*
X19136819Y-43287584D01*
X19103334Y-43226261D01*
X19100500Y-43199903D01*
X19100500Y-40089059D01*
X19100501Y-40089046D01*
X19100501Y-39920945D01*
X19100501Y-39920943D01*
X19059577Y-39768215D01*
X19030639Y-39718095D01*
X18980520Y-39631284D01*
X18868716Y-39519480D01*
X18868715Y-39519479D01*
X18864385Y-39515149D01*
X18864374Y-39515139D01*
X16487590Y-37138355D01*
X16487588Y-37138352D01*
X16368717Y-37019481D01*
X16368716Y-37019480D01*
X16281904Y-36969360D01*
X16281904Y-36969359D01*
X16281900Y-36969358D01*
X16231785Y-36940423D01*
X16079057Y-36899499D01*
X15920943Y-36899499D01*
X15913347Y-36899499D01*
X15913331Y-36899500D01*
X13503439Y-36899500D01*
X13436400Y-36879815D01*
X13390645Y-36827011D01*
X13380701Y-36757853D01*
X13409726Y-36694297D01*
X13434548Y-36672398D01*
X13463981Y-36652730D01*
X13510289Y-36621789D01*
X13621789Y-36510289D01*
X13709394Y-36379179D01*
X13769737Y-36233497D01*
X13800500Y-36078842D01*
X13800500Y-35921158D01*
X13800500Y-35921155D01*
X13800499Y-35921153D01*
X13769738Y-35766510D01*
X13769737Y-35766503D01*
X13769735Y-35766498D01*
X13709397Y-35620827D01*
X13709390Y-35620814D01*
X13621398Y-35489125D01*
X13615747Y-35471078D01*
X13605523Y-35455169D01*
X13601071Y-35424207D01*
X13600520Y-35422447D01*
X13600500Y-35420234D01*
X13600500Y-35300096D01*
X13620185Y-35233057D01*
X13636814Y-35212420D01*
X15368713Y-33480521D01*
X15368716Y-33480520D01*
X15480520Y-33368716D01*
X15530639Y-33281904D01*
X15559577Y-33231785D01*
X15600500Y-33079057D01*
X15600500Y-32920943D01*
X15600500Y-30909097D01*
X15620185Y-30842058D01*
X15672989Y-30796303D01*
X15742147Y-30786359D01*
X15805703Y-30815384D01*
G37*
%TD.AperFunction*%
%TA.AperFunction,Conductor*%
G36*
X30086415Y-20745529D02*
G01*
X30100315Y-20761570D01*
X30103379Y-20765787D01*
X30234213Y-20896621D01*
X30234216Y-20896623D01*
X30308831Y-20950834D01*
X30323806Y-20970254D01*
X30953554Y-21600000D01*
X30947339Y-21600000D01*
X30845606Y-21627259D01*
X30754394Y-21679920D01*
X30679920Y-21754394D01*
X30627259Y-21845606D01*
X30600000Y-21947339D01*
X30600000Y-21953552D01*
X30010014Y-21363566D01*
X30009730Y-21363589D01*
X29990270Y-21363589D01*
X29989985Y-21363566D01*
X29400000Y-21953551D01*
X29400000Y-21947339D01*
X29372741Y-21845606D01*
X29320080Y-21754394D01*
X29245606Y-21679920D01*
X29154394Y-21627259D01*
X29052661Y-21600000D01*
X29046447Y-21600000D01*
X29660675Y-20985771D01*
X29691165Y-20950836D01*
X29765787Y-20896621D01*
X29896621Y-20765787D01*
X29899680Y-20761576D01*
X29955006Y-20718909D01*
X30024619Y-20712926D01*
X30086415Y-20745529D01*
G37*
%TD.AperFunction*%
%TA.AperFunction,Conductor*%
G36*
X31226942Y-10580185D02*
G01*
X31247584Y-10596819D01*
X32363181Y-11712416D01*
X32396666Y-11773739D01*
X32399500Y-11800097D01*
X32399500Y-13746199D01*
X32379815Y-13813238D01*
X32327011Y-13858993D01*
X32257853Y-13868937D01*
X32194297Y-13839912D01*
X32156523Y-13781134D01*
X32153027Y-13765597D01*
X32149954Y-13746199D01*
X32146555Y-13724736D01*
X32111171Y-13615834D01*
X32089380Y-13548767D01*
X32089379Y-13548764D01*
X32039587Y-13451043D01*
X32005378Y-13383904D01*
X31896621Y-13234213D01*
X31765787Y-13103379D01*
X31616096Y-12994622D01*
X31451235Y-12910620D01*
X31451232Y-12910619D01*
X31275265Y-12853445D01*
X31132972Y-12830908D01*
X31092514Y-12824500D01*
X30907486Y-12824500D01*
X30867028Y-12830908D01*
X30724734Y-12853445D01*
X30548767Y-12910619D01*
X30548764Y-12910620D01*
X30383900Y-12994624D01*
X30268392Y-13078545D01*
X30202586Y-13102025D01*
X30134532Y-13086199D01*
X30096241Y-13052539D01*
X30036562Y-12972819D01*
X30032546Y-12967454D01*
X30032544Y-12967453D01*
X30032544Y-12967452D01*
X29917335Y-12881206D01*
X29917328Y-12881202D01*
X29782482Y-12830908D01*
X29782483Y-12830908D01*
X29722883Y-12824501D01*
X29722881Y-12824500D01*
X29722873Y-12824500D01*
X29722864Y-12824500D01*
X28277129Y-12824500D01*
X28277120Y-12824501D01*
X28237752Y-12828733D01*
X28168993Y-12816325D01*
X28117857Y-12768714D01*
X28100500Y-12705443D01*
X28100500Y-10846555D01*
X28120185Y-10779516D01*
X28172989Y-10733761D01*
X28242147Y-10723817D01*
X28260411Y-10728840D01*
X28260676Y-10727969D01*
X28266492Y-10729732D01*
X28266503Y-10729737D01*
X28421153Y-10760499D01*
X28421156Y-10760500D01*
X28421158Y-10760500D01*
X28578844Y-10760500D01*
X28578845Y-10760499D01*
X28733497Y-10729737D01*
X28879179Y-10669394D01*
X28879185Y-10669390D01*
X29010875Y-10581398D01*
X29077553Y-10560520D01*
X29079766Y-10560500D01*
X31159903Y-10560500D01*
X31226942Y-10580185D01*
G37*
%TD.AperFunction*%
%TA.AperFunction,Conductor*%
G36*
X34444397Y-1510856D02*
G01*
X34490152Y-1563660D01*
X34501358Y-1615171D01*
X34501358Y-26852760D01*
X34481673Y-26919799D01*
X34428869Y-26965554D01*
X34359711Y-26975498D01*
X34296155Y-26946473D01*
X34289677Y-26940441D01*
X33933979Y-26584743D01*
X33900494Y-26523420D01*
X33905478Y-26453728D01*
X33933979Y-26409381D01*
X34025893Y-26317466D01*
X34025896Y-26317462D01*
X34135330Y-26153684D01*
X34135337Y-26153671D01*
X34210714Y-25971692D01*
X34210714Y-25971690D01*
X34219007Y-25930000D01*
X33416133Y-25930000D01*
X33433350Y-25920060D01*
X33489205Y-25864205D01*
X33528701Y-25795796D01*
X33549145Y-25719496D01*
X33549145Y-25640504D01*
X33528701Y-25564204D01*
X33489205Y-25495795D01*
X33433350Y-25439940D01*
X33416133Y-25430000D01*
X34219007Y-25430000D01*
X34210714Y-25388309D01*
X34210714Y-25388307D01*
X34135337Y-25206328D01*
X34135330Y-25206315D01*
X34025896Y-25042537D01*
X34025893Y-25042533D01*
X33886611Y-24903251D01*
X33886607Y-24903248D01*
X33722829Y-24793814D01*
X33722816Y-24793807D01*
X33540838Y-24718430D01*
X33540826Y-24718427D01*
X33347640Y-24680000D01*
X33099145Y-24680000D01*
X33099145Y-25380000D01*
X32599145Y-25380000D01*
X32599145Y-24680000D01*
X32350649Y-24680000D01*
X32157463Y-24718427D01*
X32157451Y-24718430D01*
X31975473Y-24793807D01*
X31975460Y-24793814D01*
X31811682Y-24903248D01*
X31811678Y-24903251D01*
X31672396Y-25042533D01*
X31672393Y-25042537D01*
X31562959Y-25206315D01*
X31562952Y-25206328D01*
X31487575Y-25388307D01*
X31487575Y-25388309D01*
X31479283Y-25430000D01*
X32282157Y-25430000D01*
X32264940Y-25439940D01*
X32209085Y-25495795D01*
X32169589Y-25564204D01*
X32149145Y-25640504D01*
X32149145Y-25719496D01*
X32169589Y-25795796D01*
X32209085Y-25864205D01*
X32264940Y-25920060D01*
X32282157Y-25930000D01*
X31479283Y-25930000D01*
X31487575Y-25971690D01*
X31487575Y-25971692D01*
X31511876Y-26030360D01*
X31519345Y-26099829D01*
X31488069Y-26162308D01*
X31427980Y-26197960D01*
X31421507Y-26199429D01*
X31266508Y-26230261D01*
X31266498Y-26230264D01*
X31120827Y-26290602D01*
X31120814Y-26290609D01*
X30989711Y-26378210D01*
X30989707Y-26378213D01*
X30878213Y-26489707D01*
X30878210Y-26489711D01*
X30790609Y-26620814D01*
X30790602Y-26620827D01*
X30730264Y-26766498D01*
X30730261Y-26766510D01*
X30699500Y-26921153D01*
X30699500Y-27078846D01*
X30730261Y-27233489D01*
X30730264Y-27233501D01*
X30779782Y-27353048D01*
X30787251Y-27422517D01*
X30755976Y-27484996D01*
X30695887Y-27520648D01*
X30665222Y-27524500D01*
X30549976Y-27524500D01*
X30549957Y-27524501D01*
X30448892Y-27534825D01*
X30285129Y-27589092D01*
X30285126Y-27589093D01*
X30138293Y-27679661D01*
X30016305Y-27801649D01*
X30004587Y-27820647D01*
X29952638Y-27867370D01*
X29883675Y-27878590D01*
X29830159Y-27858649D01*
X29728330Y-27790609D01*
X29728317Y-27790602D01*
X29582646Y-27730264D01*
X29582633Y-27730260D01*
X29567788Y-27727307D01*
X29505878Y-27694919D01*
X29471307Y-27634202D01*
X29475050Y-27564432D01*
X29504300Y-27518014D01*
X29589650Y-27432665D01*
X29658833Y-27312836D01*
X29694645Y-27179183D01*
X29694645Y-27040817D01*
X29658833Y-26907164D01*
X29589650Y-26787335D01*
X29589648Y-26787333D01*
X29584704Y-26780890D01*
X29587330Y-26778874D01*
X29561233Y-26731080D01*
X29566217Y-26661388D01*
X29608089Y-26605455D01*
X29634949Y-26590160D01*
X29692819Y-26566190D01*
X29692829Y-26566185D01*
X29856607Y-26456751D01*
X29856611Y-26456748D01*
X29995893Y-26317466D01*
X29995896Y-26317462D01*
X30105330Y-26153684D01*
X30105337Y-26153671D01*
X30180714Y-25971692D01*
X30180714Y-25971690D01*
X30189007Y-25930000D01*
X29386133Y-25930000D01*
X29403350Y-25920060D01*
X29459205Y-25864205D01*
X29498701Y-25795796D01*
X29519145Y-25719496D01*
X29519145Y-25640504D01*
X29498701Y-25564204D01*
X29459205Y-25495795D01*
X29403350Y-25439940D01*
X29386133Y-25430000D01*
X30189007Y-25430000D01*
X30180714Y-25388309D01*
X30180714Y-25388307D01*
X30105337Y-25206328D01*
X30105330Y-25206315D01*
X29995896Y-25042537D01*
X29995893Y-25042533D01*
X29856611Y-24903251D01*
X29856607Y-24903248D01*
X29692829Y-24793814D01*
X29692816Y-24793807D01*
X29510838Y-24718430D01*
X29510826Y-24718427D01*
X29317640Y-24680000D01*
X28919145Y-24680000D01*
X28919145Y-25380000D01*
X28419145Y-25380000D01*
X28419145Y-24680000D01*
X28020649Y-24680000D01*
X27827463Y-24718427D01*
X27827451Y-24718430D01*
X27645473Y-24793807D01*
X27645460Y-24793814D01*
X27481682Y-24903248D01*
X27481678Y-24903251D01*
X27342396Y-25042533D01*
X27342393Y-25042537D01*
X27232959Y-25206315D01*
X27232952Y-25206328D01*
X27157575Y-25388307D01*
X27157575Y-25388309D01*
X27149283Y-25430000D01*
X27952157Y-25430000D01*
X27934940Y-25439940D01*
X27879085Y-25495795D01*
X27839589Y-25564204D01*
X27819145Y-25640504D01*
X27819145Y-25719496D01*
X27839589Y-25795796D01*
X27879085Y-25864205D01*
X27934940Y-25920060D01*
X27952157Y-25930000D01*
X27149283Y-25930000D01*
X27157575Y-25971690D01*
X27157575Y-25971692D01*
X27232952Y-26153671D01*
X27232959Y-26153684D01*
X27342393Y-26317462D01*
X27342396Y-26317466D01*
X27481678Y-26456748D01*
X27481682Y-26456751D01*
X27645460Y-26566185D01*
X27645473Y-26566192D01*
X27827451Y-26641569D01*
X27827463Y-26641572D01*
X28020649Y-26679999D01*
X28020653Y-26680000D01*
X28419145Y-26680000D01*
X28419145Y-25980000D01*
X28919145Y-25980000D01*
X28919145Y-26575950D01*
X28899460Y-26642989D01*
X28857146Y-26683337D01*
X28846480Y-26689494D01*
X28748641Y-26787333D01*
X28748637Y-26787338D01*
X28679458Y-26907161D01*
X28679457Y-26907164D01*
X28643645Y-27040817D01*
X28643645Y-27179183D01*
X28658200Y-27233501D01*
X28679457Y-27312835D01*
X28679458Y-27312838D01*
X28748637Y-27432661D01*
X28748639Y-27432664D01*
X28748640Y-27432665D01*
X28846480Y-27530505D01*
X28846481Y-27530506D01*
X28846483Y-27530507D01*
X28948860Y-27589614D01*
X28997075Y-27640181D01*
X29010299Y-27708788D01*
X28984331Y-27773652D01*
X28955751Y-27800103D01*
X28838856Y-27878210D01*
X28838852Y-27878213D01*
X28727358Y-27989707D01*
X28727355Y-27989711D01*
X28639754Y-28120814D01*
X28639747Y-28120827D01*
X28579409Y-28266498D01*
X28579406Y-28266510D01*
X28548645Y-28421153D01*
X28548645Y-28578846D01*
X28579406Y-28733489D01*
X28579409Y-28733501D01*
X28639747Y-28879172D01*
X28639754Y-28879185D01*
X28727355Y-29010288D01*
X28727358Y-29010292D01*
X28838852Y-29121786D01*
X28838856Y-29121789D01*
X28969959Y-29209390D01*
X28969972Y-29209397D01*
X29071052Y-29251265D01*
X29115648Y-29269737D01*
X29270298Y-29300499D01*
X29270301Y-29300500D01*
X29270303Y-29300500D01*
X29427989Y-29300500D01*
X29427990Y-29300499D01*
X29582642Y-29269737D01*
X29728324Y-29209394D01*
X29742528Y-29199903D01*
X29830159Y-29141350D01*
X29896836Y-29120472D01*
X29964216Y-29138956D01*
X30004588Y-29179354D01*
X30016305Y-29198350D01*
X30138295Y-29320340D01*
X30285129Y-29410908D01*
X30448892Y-29465174D01*
X30549968Y-29475500D01*
X31148321Y-29475499D01*
X31148329Y-29475498D01*
X31148332Y-29475498D01*
X31203675Y-29469844D01*
X31249398Y-29465174D01*
X31413161Y-29410908D01*
X31559995Y-29320340D01*
X31674320Y-29206014D01*
X31735639Y-29172532D01*
X31805331Y-29177516D01*
X31849679Y-29206017D01*
X31963606Y-29319944D01*
X31963610Y-29319947D01*
X32110333Y-29410448D01*
X32110344Y-29410453D01*
X32273992Y-29464680D01*
X32374996Y-29474999D01*
X32424144Y-29474998D01*
X32424145Y-29474998D01*
X32424145Y-28624000D01*
X32443830Y-28556961D01*
X32496634Y-28511206D01*
X32548145Y-28500000D01*
X32800145Y-28500000D01*
X32867184Y-28519685D01*
X32912939Y-28572489D01*
X32924145Y-28624000D01*
X32924145Y-29474999D01*
X32973285Y-29474999D01*
X32973297Y-29474998D01*
X33063313Y-29465802D01*
X33132006Y-29478571D01*
X33182891Y-29526451D01*
X33197994Y-29572930D01*
X33198311Y-29572868D01*
X33198842Y-29575539D01*
X33199319Y-29577006D01*
X33199500Y-29578847D01*
X33230261Y-29733489D01*
X33230264Y-29733501D01*
X33290602Y-29879172D01*
X33290609Y-29879185D01*
X33378210Y-30010288D01*
X33378213Y-30010292D01*
X33489707Y-30121786D01*
X33489711Y-30121789D01*
X33620814Y-30209390D01*
X33620827Y-30209397D01*
X33727566Y-30253609D01*
X33766503Y-30269737D01*
X33921153Y-30300499D01*
X33921156Y-30300500D01*
X33921158Y-30300500D01*
X34078844Y-30300500D01*
X34078845Y-30300499D01*
X34233497Y-30269737D01*
X34329907Y-30229802D01*
X34399374Y-30222334D01*
X34461854Y-30253609D01*
X34497506Y-30313698D01*
X34501358Y-30344364D01*
X34501358Y-36025500D01*
X34481673Y-36092539D01*
X34428869Y-36138294D01*
X34377358Y-36149500D01*
X32602129Y-36149500D01*
X32602123Y-36149501D01*
X32542516Y-36155908D01*
X32407671Y-36206202D01*
X32407664Y-36206206D01*
X32292455Y-36292452D01*
X32292452Y-36292455D01*
X32206206Y-36407664D01*
X32206202Y-36407671D01*
X32155908Y-36542517D01*
X32149501Y-36602116D01*
X32149500Y-36602135D01*
X32149500Y-38397870D01*
X32149501Y-38397876D01*
X32155908Y-38457483D01*
X32206202Y-38592328D01*
X32206206Y-38592335D01*
X32292452Y-38707544D01*
X32292455Y-38707547D01*
X32407664Y-38793793D01*
X32407671Y-38793797D01*
X32539082Y-38842810D01*
X32595016Y-38884681D01*
X32619433Y-38950145D01*
X32604582Y-39018418D01*
X32583431Y-39046673D01*
X32469889Y-39160215D01*
X32344951Y-39332179D01*
X32248444Y-39521585D01*
X32182753Y-39723760D01*
X32149500Y-39933713D01*
X32149500Y-40146286D01*
X32182754Y-40356244D01*
X32182754Y-40356247D01*
X32196491Y-40398523D01*
X32198486Y-40468364D01*
X32166241Y-40524522D01*
X30737469Y-41953294D01*
X30723093Y-41965625D01*
X30717639Y-41969622D01*
X30631284Y-42019480D01*
X30580964Y-42069799D01*
X30573304Y-42075414D01*
X30549017Y-42084194D01*
X30526356Y-42096568D01*
X30516700Y-42095877D01*
X30507596Y-42099169D01*
X30482418Y-42093425D01*
X30456664Y-42091583D01*
X30446934Y-42085330D01*
X30439477Y-42083629D01*
X30431292Y-42075277D01*
X30412318Y-42063083D01*
X22419235Y-34070000D01*
X27149283Y-34070000D01*
X27952157Y-34070000D01*
X27934940Y-34079940D01*
X27879085Y-34135795D01*
X27839589Y-34204204D01*
X27819145Y-34280504D01*
X27819145Y-34359496D01*
X27839589Y-34435796D01*
X27879085Y-34504205D01*
X27934940Y-34560060D01*
X27952157Y-34570000D01*
X27149283Y-34570000D01*
X27157575Y-34611690D01*
X27157575Y-34611692D01*
X27232952Y-34793671D01*
X27232959Y-34793684D01*
X27342393Y-34957462D01*
X27342396Y-34957466D01*
X27481678Y-35096748D01*
X27481682Y-35096751D01*
X27645460Y-35206185D01*
X27645473Y-35206192D01*
X27827451Y-35281569D01*
X27827463Y-35281572D01*
X28020649Y-35319999D01*
X28020653Y-35320000D01*
X28419145Y-35320000D01*
X28419145Y-34620000D01*
X28919145Y-34620000D01*
X28919145Y-35320000D01*
X29317637Y-35320000D01*
X29317640Y-35319999D01*
X29510826Y-35281572D01*
X29510838Y-35281569D01*
X29692816Y-35206192D01*
X29692829Y-35206185D01*
X29856607Y-35096751D01*
X29856611Y-35096748D01*
X29995893Y-34957466D01*
X29995896Y-34957462D01*
X30105330Y-34793684D01*
X30105337Y-34793671D01*
X30180714Y-34611692D01*
X30180714Y-34611690D01*
X30189007Y-34570000D01*
X29386133Y-34570000D01*
X29403350Y-34560060D01*
X29459205Y-34504205D01*
X29498701Y-34435796D01*
X29519145Y-34359496D01*
X29519145Y-34280504D01*
X29498701Y-34204204D01*
X29459205Y-34135795D01*
X29403350Y-34079940D01*
X29386133Y-34070000D01*
X30189007Y-34070000D01*
X31479283Y-34070000D01*
X32282157Y-34070000D01*
X32264940Y-34079940D01*
X32209085Y-34135795D01*
X32169589Y-34204204D01*
X32149145Y-34280504D01*
X32149145Y-34359496D01*
X32169589Y-34435796D01*
X32209085Y-34504205D01*
X32264940Y-34560060D01*
X32282157Y-34570000D01*
X31479283Y-34570000D01*
X31487575Y-34611690D01*
X31487575Y-34611692D01*
X31562952Y-34793671D01*
X31562959Y-34793684D01*
X31672393Y-34957462D01*
X31672396Y-34957466D01*
X31811678Y-35096748D01*
X31811682Y-35096751D01*
X31975460Y-35206185D01*
X31975473Y-35206192D01*
X32157451Y-35281569D01*
X32157463Y-35281572D01*
X32350649Y-35319999D01*
X32350653Y-35320000D01*
X32599145Y-35320000D01*
X32599145Y-34620000D01*
X33099145Y-34620000D01*
X33099145Y-35320000D01*
X33347637Y-35320000D01*
X33347640Y-35319999D01*
X33540826Y-35281572D01*
X33540838Y-35281569D01*
X33722816Y-35206192D01*
X33722829Y-35206185D01*
X33886607Y-35096751D01*
X33886611Y-35096748D01*
X34025893Y-34957466D01*
X34025896Y-34957462D01*
X34135330Y-34793684D01*
X34135337Y-34793671D01*
X34210714Y-34611692D01*
X34210714Y-34611690D01*
X34219007Y-34570000D01*
X33416133Y-34570000D01*
X33433350Y-34560060D01*
X33489205Y-34504205D01*
X33528701Y-34435796D01*
X33549145Y-34359496D01*
X33549145Y-34280504D01*
X33528701Y-34204204D01*
X33489205Y-34135795D01*
X33433350Y-34079940D01*
X33416133Y-34070000D01*
X34219007Y-34070000D01*
X34210714Y-34028309D01*
X34210714Y-34028307D01*
X34135337Y-33846328D01*
X34135330Y-33846315D01*
X34025896Y-33682537D01*
X34025893Y-33682533D01*
X33886611Y-33543251D01*
X33886607Y-33543248D01*
X33722829Y-33433814D01*
X33722816Y-33433807D01*
X33540838Y-33358430D01*
X33540826Y-33358427D01*
X33347640Y-33320000D01*
X33099145Y-33320000D01*
X33099145Y-34020000D01*
X32599145Y-34020000D01*
X32599145Y-33320000D01*
X32350649Y-33320000D01*
X32157463Y-33358427D01*
X32157451Y-33358430D01*
X31975473Y-33433807D01*
X31975460Y-33433814D01*
X31811682Y-33543248D01*
X31811678Y-33543251D01*
X31672396Y-33682533D01*
X31672393Y-33682537D01*
X31562959Y-33846315D01*
X31562952Y-33846328D01*
X31487575Y-34028307D01*
X31487575Y-34028309D01*
X31479283Y-34070000D01*
X30189007Y-34070000D01*
X30180714Y-34028309D01*
X30180714Y-34028307D01*
X30105337Y-33846328D01*
X30105330Y-33846315D01*
X29995896Y-33682537D01*
X29995893Y-33682533D01*
X29856611Y-33543251D01*
X29856607Y-33543248D01*
X29692829Y-33433814D01*
X29692817Y-33433807D01*
X29634947Y-33409838D01*
X29580543Y-33365998D01*
X29558478Y-33299704D01*
X29575757Y-33232004D01*
X29585378Y-33219627D01*
X29584704Y-33219110D01*
X29589645Y-33212669D01*
X29589650Y-33212665D01*
X29658833Y-33092836D01*
X29694645Y-32959183D01*
X29694645Y-32820817D01*
X29658833Y-32687164D01*
X29589650Y-32567335D01*
X29504304Y-32481989D01*
X29470819Y-32420666D01*
X29475803Y-32350974D01*
X29517675Y-32295041D01*
X29567794Y-32272691D01*
X29574802Y-32271296D01*
X29582642Y-32269737D01*
X29728324Y-32209394D01*
X29742539Y-32199896D01*
X29860020Y-32121398D01*
X29878066Y-32115747D01*
X29893976Y-32105523D01*
X29924937Y-32101071D01*
X29926698Y-32100520D01*
X29928911Y-32100500D01*
X29974244Y-32100500D01*
X30041283Y-32120185D01*
X30079783Y-32159404D01*
X30103612Y-32198038D01*
X30103805Y-32198350D01*
X30225795Y-32320340D01*
X30372629Y-32410908D01*
X30536392Y-32465174D01*
X30637468Y-32475500D01*
X31235821Y-32475499D01*
X31235829Y-32475498D01*
X31235832Y-32475498D01*
X31294627Y-32469492D01*
X31336898Y-32465174D01*
X31500661Y-32410908D01*
X31647495Y-32320340D01*
X31761820Y-32206014D01*
X31823139Y-32172532D01*
X31892831Y-32177516D01*
X31937179Y-32206017D01*
X32051106Y-32319944D01*
X32051110Y-32319947D01*
X32197833Y-32410448D01*
X32197844Y-32410453D01*
X32361492Y-32464680D01*
X32462496Y-32474999D01*
X33011645Y-32474999D01*
X33060785Y-32474999D01*
X33060799Y-32474998D01*
X33161797Y-32464680D01*
X33325445Y-32410453D01*
X33325456Y-32410448D01*
X33472179Y-32319947D01*
X33472183Y-32319944D01*
X33594089Y-32198038D01*
X33594092Y-32198034D01*
X33684593Y-32051311D01*
X33684598Y-32051300D01*
X33738825Y-31887652D01*
X33749144Y-31786654D01*
X33749145Y-31786641D01*
X33749145Y-31750000D01*
X33011645Y-31750000D01*
X33011645Y-32474999D01*
X32462496Y-32474999D01*
X32511644Y-32474998D01*
X32511645Y-32474998D01*
X32511645Y-31250000D01*
X33011645Y-31250000D01*
X33749144Y-31250000D01*
X33749144Y-31213360D01*
X33749143Y-31213345D01*
X33738825Y-31112347D01*
X33684598Y-30948699D01*
X33684593Y-30948688D01*
X33594092Y-30801965D01*
X33594089Y-30801961D01*
X33472183Y-30680055D01*
X33472179Y-30680052D01*
X33325456Y-30589551D01*
X33325445Y-30589546D01*
X33161797Y-30535319D01*
X33060799Y-30525000D01*
X33011645Y-30525000D01*
X33011645Y-31250000D01*
X32511645Y-31250000D01*
X32511645Y-30525000D01*
X32511644Y-30524999D01*
X32462506Y-30525000D01*
X32462488Y-30525001D01*
X32361492Y-30535319D01*
X32197844Y-30589546D01*
X32197833Y-30589551D01*
X32051110Y-30680052D01*
X31937179Y-30793983D01*
X31875856Y-30827467D01*
X31806164Y-30822483D01*
X31761817Y-30793982D01*
X31647496Y-30679661D01*
X31647495Y-30679660D01*
X31534129Y-30609735D01*
X31500663Y-30589093D01*
X31500658Y-30589091D01*
X31499214Y-30588612D01*
X31336898Y-30534826D01*
X31336896Y-30534825D01*
X31235823Y-30524500D01*
X30637475Y-30524500D01*
X30637457Y-30524501D01*
X30536392Y-30534825D01*
X30372629Y-30589092D01*
X30372626Y-30589093D01*
X30225793Y-30679661D01*
X30103804Y-30801650D01*
X30079783Y-30840596D01*
X30072196Y-30847419D01*
X30067957Y-30856703D01*
X30046656Y-30870391D01*
X30027835Y-30887321D01*
X30016199Y-30889965D01*
X30009179Y-30894477D01*
X29974244Y-30899500D01*
X29928911Y-30899500D01*
X29861872Y-30879815D01*
X29860020Y-30878602D01*
X29728330Y-30790609D01*
X29728317Y-30790602D01*
X29582646Y-30730264D01*
X29582634Y-30730261D01*
X29427990Y-30699500D01*
X29427987Y-30699500D01*
X29270303Y-30699500D01*
X29270300Y-30699500D01*
X29115655Y-30730261D01*
X29115643Y-30730264D01*
X28969972Y-30790602D01*
X28969959Y-30790609D01*
X28838856Y-30878210D01*
X28838852Y-30878213D01*
X28727358Y-30989707D01*
X28727355Y-30989711D01*
X28639754Y-31120814D01*
X28639747Y-31120827D01*
X28579409Y-31266498D01*
X28579406Y-31266510D01*
X28548645Y-31421153D01*
X28548645Y-31578846D01*
X28579406Y-31733489D01*
X28579409Y-31733501D01*
X28639747Y-31879172D01*
X28639754Y-31879185D01*
X28727355Y-32010288D01*
X28727358Y-32010292D01*
X28838852Y-32121786D01*
X28838856Y-32121789D01*
X28955751Y-32199896D01*
X29000556Y-32253508D01*
X29009263Y-32322833D01*
X28979109Y-32385860D01*
X28948860Y-32410385D01*
X28846483Y-32469492D01*
X28846478Y-32469496D01*
X28748641Y-32567333D01*
X28748637Y-32567338D01*
X28679458Y-32687161D01*
X28679457Y-32687164D01*
X28643645Y-32820817D01*
X28643645Y-32959183D01*
X28675765Y-33079055D01*
X28679457Y-33092835D01*
X28679458Y-33092838D01*
X28748637Y-33212661D01*
X28748639Y-33212664D01*
X28748640Y-33212665D01*
X28846480Y-33310505D01*
X28846481Y-33310506D01*
X28846483Y-33310507D01*
X28857141Y-33316660D01*
X28905359Y-33367225D01*
X28919145Y-33424049D01*
X28919145Y-34020000D01*
X28419145Y-34020000D01*
X28419145Y-33320000D01*
X28020649Y-33320000D01*
X27827463Y-33358427D01*
X27827451Y-33358430D01*
X27645473Y-33433807D01*
X27645460Y-33433814D01*
X27481682Y-33543248D01*
X27481678Y-33543251D01*
X27342396Y-33682533D01*
X27342393Y-33682537D01*
X27232959Y-33846315D01*
X27232952Y-33846328D01*
X27157575Y-34028307D01*
X27157575Y-34028309D01*
X27149283Y-34070000D01*
X22419235Y-34070000D01*
X17636819Y-29287584D01*
X17603334Y-29226261D01*
X17600500Y-29199903D01*
X17600500Y-18736305D01*
X20099500Y-18736305D01*
X20099500Y-18913695D01*
X20134103Y-19087658D01*
X20134106Y-19087667D01*
X20201983Y-19251540D01*
X20201990Y-19251553D01*
X20300535Y-19399034D01*
X20300538Y-19399038D01*
X20425961Y-19524461D01*
X20425965Y-19524464D01*
X20573446Y-19623009D01*
X20573459Y-19623016D01*
X20696363Y-19673923D01*
X20737334Y-19690894D01*
X20737336Y-19690894D01*
X20737341Y-19690896D01*
X20911304Y-19725499D01*
X20911307Y-19725500D01*
X20911309Y-19725500D01*
X21876178Y-19725500D01*
X21941273Y-19743960D01*
X21948484Y-19748408D01*
X22112247Y-19802674D01*
X22213323Y-19813000D01*
X22786676Y-19812999D01*
X22786684Y-19812998D01*
X22786687Y-19812998D01*
X22842030Y-19807344D01*
X22887753Y-19802674D01*
X23051516Y-19748408D01*
X23198350Y-19657840D01*
X23320340Y-19535850D01*
X23410908Y-19389016D01*
X23465174Y-19225253D01*
X23475500Y-19124177D01*
X23475499Y-18579054D01*
X26899498Y-18579054D01*
X26936972Y-18718909D01*
X26940423Y-18731785D01*
X26943033Y-18736305D01*
X26943034Y-18736309D01*
X26943035Y-18736309D01*
X27019477Y-18868712D01*
X27019481Y-18868717D01*
X27138349Y-18987585D01*
X27138355Y-18987590D01*
X27811784Y-19661019D01*
X27845269Y-19722342D01*
X27846576Y-19768097D01*
X27824500Y-19907485D01*
X27824500Y-20092513D01*
X27853445Y-20275265D01*
X27910619Y-20451232D01*
X27910620Y-20451235D01*
X27994622Y-20616096D01*
X28103379Y-20765787D01*
X28234213Y-20896621D01*
X28234216Y-20896623D01*
X28308831Y-20950834D01*
X28323806Y-20970254D01*
X28953554Y-21600000D01*
X28947339Y-21600000D01*
X28845606Y-21627259D01*
X28754394Y-21679920D01*
X28679920Y-21754394D01*
X28627259Y-21845606D01*
X28600000Y-21947339D01*
X28600000Y-21953553D01*
X28010015Y-21363568D01*
X27995049Y-21384167D01*
X27911084Y-21548956D01*
X27911083Y-21548959D01*
X27853933Y-21724852D01*
X27825000Y-21907526D01*
X27825000Y-22092473D01*
X27853933Y-22275147D01*
X27911083Y-22451040D01*
X27911084Y-22451043D01*
X27995050Y-22615834D01*
X28010015Y-22636430D01*
X28010016Y-22636431D01*
X28600000Y-22046447D01*
X28600000Y-22052661D01*
X28627259Y-22154394D01*
X28679920Y-22245606D01*
X28754394Y-22320080D01*
X28845606Y-22372741D01*
X28947339Y-22400000D01*
X28953553Y-22400000D01*
X28363568Y-22989983D01*
X28363568Y-22989984D01*
X28384165Y-23004949D01*
X28548956Y-23088915D01*
X28548959Y-23088916D01*
X28724852Y-23146066D01*
X28907527Y-23175000D01*
X29092473Y-23175000D01*
X29275147Y-23146066D01*
X29451040Y-23088916D01*
X29451043Y-23088915D01*
X29615836Y-23004947D01*
X29615845Y-23004942D01*
X29636430Y-22989984D01*
X29636431Y-22989983D01*
X29046448Y-22400000D01*
X29052661Y-22400000D01*
X29154394Y-22372741D01*
X29245606Y-22320080D01*
X29320080Y-22245606D01*
X29372741Y-22154394D01*
X29400000Y-22052661D01*
X29400000Y-22046447D01*
X29989983Y-22636430D01*
X29990276Y-22636408D01*
X30009729Y-22636408D01*
X30010015Y-22636430D01*
X30600000Y-22046445D01*
X30600000Y-22052661D01*
X30627259Y-22154394D01*
X30679920Y-22245606D01*
X30754394Y-22320080D01*
X30845606Y-22372741D01*
X30947339Y-22400000D01*
X30953553Y-22400000D01*
X30363568Y-22989983D01*
X30363568Y-22989984D01*
X30384165Y-23004949D01*
X30548956Y-23088915D01*
X30548959Y-23088916D01*
X30724852Y-23146066D01*
X30907527Y-23175000D01*
X31092473Y-23175000D01*
X31275147Y-23146066D01*
X31451040Y-23088916D01*
X31451043Y-23088915D01*
X31615836Y-23004947D01*
X31615845Y-23004942D01*
X31636430Y-22989984D01*
X31636431Y-22989983D01*
X31046448Y-22400000D01*
X31052661Y-22400000D01*
X31154394Y-22372741D01*
X31245606Y-22320080D01*
X31320080Y-22245606D01*
X31372741Y-22154394D01*
X31400000Y-22052661D01*
X31400000Y-22046448D01*
X31989983Y-22636431D01*
X31989984Y-22636430D01*
X32004942Y-22615845D01*
X32004947Y-22615836D01*
X32088915Y-22451043D01*
X32088916Y-22451040D01*
X32146066Y-22275147D01*
X32175000Y-22092473D01*
X32175000Y-21907526D01*
X32146066Y-21724852D01*
X32088916Y-21548959D01*
X32088915Y-21548956D01*
X32004949Y-21384165D01*
X31989983Y-21363568D01*
X31400000Y-21953551D01*
X31400000Y-21947339D01*
X31372741Y-21845606D01*
X31320080Y-21754394D01*
X31245606Y-21679920D01*
X31154394Y-21627259D01*
X31052661Y-21600000D01*
X31046447Y-21600000D01*
X31660675Y-20985771D01*
X31691165Y-20950836D01*
X31765787Y-20896621D01*
X31896621Y-20765787D01*
X32005378Y-20616096D01*
X32089379Y-20451235D01*
X32146555Y-20275264D01*
X32175500Y-20092514D01*
X32175500Y-19907486D01*
X32153422Y-19768095D01*
X32162376Y-19698805D01*
X32188211Y-19661022D01*
X33358506Y-18490728D01*
X33358511Y-18490724D01*
X33368714Y-18480520D01*
X33368716Y-18480520D01*
X33480520Y-18368716D01*
X33484408Y-18361980D01*
X33538544Y-18268216D01*
X33538545Y-18268214D01*
X33559574Y-18231790D01*
X33559573Y-18231790D01*
X33559577Y-18231785D01*
X33600500Y-18079057D01*
X33600500Y-17920943D01*
X33600500Y-11589059D01*
X33600501Y-11589046D01*
X33600501Y-11420945D01*
X33600501Y-11420943D01*
X33559577Y-11268215D01*
X33496109Y-11158286D01*
X33480520Y-11131284D01*
X33368716Y-11019480D01*
X33368713Y-11019478D01*
X31947590Y-9598355D01*
X31947588Y-9598352D01*
X31828717Y-9479481D01*
X31828716Y-9479480D01*
X31727326Y-9420943D01*
X31727325Y-9420942D01*
X31691783Y-9400422D01*
X31635881Y-9385443D01*
X31539057Y-9359499D01*
X31380943Y-9359499D01*
X31373347Y-9359499D01*
X31373331Y-9359500D01*
X29079766Y-9359500D01*
X29062814Y-9354574D01*
X29045502Y-9354672D01*
X29015950Y-9340957D01*
X29013316Y-9340192D01*
X29010452Y-9338374D01*
X29010289Y-9338211D01*
X28879179Y-9250606D01*
X28859016Y-9242254D01*
X28849944Y-9236496D01*
X28833713Y-9217977D01*
X28814537Y-9202524D01*
X28811088Y-9192162D01*
X28803892Y-9183951D01*
X28800250Y-9159597D01*
X28792473Y-9136229D01*
X28793971Y-9117610D01*
X28793559Y-9114849D01*
X28794332Y-9113129D01*
X28794777Y-9107610D01*
X28800500Y-9078844D01*
X28800500Y-9078842D01*
X28800500Y-8921158D01*
X28800500Y-8921155D01*
X28800499Y-8921153D01*
X28769738Y-8766510D01*
X28769738Y-8766508D01*
X28769737Y-8766503D01*
X28769735Y-8766498D01*
X28709397Y-8620827D01*
X28709390Y-8620814D01*
X28621789Y-8489711D01*
X28621786Y-8489707D01*
X28510292Y-8378213D01*
X28510288Y-8378210D01*
X28379185Y-8290609D01*
X28379172Y-8290602D01*
X28233501Y-8230264D01*
X28233489Y-8230261D01*
X28078845Y-8199500D01*
X28078842Y-8199500D01*
X27921158Y-8199500D01*
X27921155Y-8199500D01*
X27766510Y-8230261D01*
X27766498Y-8230264D01*
X27620827Y-8290602D01*
X27620814Y-8290609D01*
X27489711Y-8378210D01*
X27489707Y-8378213D01*
X27378213Y-8489707D01*
X27378210Y-8489711D01*
X27290609Y-8620814D01*
X27290602Y-8620827D01*
X27230264Y-8766498D01*
X27230261Y-8766508D01*
X27199362Y-8921847D01*
X27190597Y-8938602D01*
X27186578Y-8957081D01*
X27167834Y-8982118D01*
X27166977Y-8983758D01*
X27165427Y-8985335D01*
X27124224Y-9026538D01*
X27124212Y-9026552D01*
X27019480Y-9131284D01*
X26985429Y-9190263D01*
X26940423Y-9268215D01*
X26899499Y-9420943D01*
X26899499Y-9579057D01*
X26899499Y-9579059D01*
X26899500Y-9589053D01*
X26899500Y-18413330D01*
X26899499Y-18413348D01*
X26899499Y-18579054D01*
X26899498Y-18579054D01*
X23475499Y-18579054D01*
X23475499Y-18525824D01*
X23471914Y-18490732D01*
X23465174Y-18424747D01*
X23446607Y-18368716D01*
X23410908Y-18260984D01*
X23320340Y-18114150D01*
X23206371Y-18000181D01*
X23203674Y-17995243D01*
X23198991Y-17992121D01*
X23187111Y-17964909D01*
X23172886Y-17938858D01*
X23173287Y-17933245D01*
X23171036Y-17928088D01*
X23175751Y-17898782D01*
X23177870Y-17869166D01*
X23181478Y-17863199D01*
X23182137Y-17859106D01*
X23194714Y-17841310D01*
X23201713Y-17829738D01*
X23203968Y-17827221D01*
X23320340Y-17710850D01*
X23346978Y-17667662D01*
X23354363Y-17659423D01*
X23375034Y-17646622D01*
X23393109Y-17630365D01*
X23404205Y-17628558D01*
X23413766Y-17622639D01*
X23438075Y-17623046D01*
X23462071Y-17619141D01*
X23474176Y-17623651D01*
X23483626Y-17623810D01*
X23495062Y-17631433D01*
X23515593Y-17639083D01*
X23620814Y-17709390D01*
X23620827Y-17709397D01*
X23759755Y-17766942D01*
X23766503Y-17769737D01*
X23921153Y-17800499D01*
X23921156Y-17800500D01*
X23921158Y-17800500D01*
X24078844Y-17800500D01*
X24078845Y-17800499D01*
X24233497Y-17769737D01*
X24379179Y-17709394D01*
X24510289Y-17621789D01*
X24621789Y-17510289D01*
X24709394Y-17379179D01*
X24769737Y-17233497D01*
X24800500Y-17078842D01*
X24800500Y-16921158D01*
X24800500Y-16921155D01*
X24800499Y-16921153D01*
X24769738Y-16766510D01*
X24769737Y-16766503D01*
X24734062Y-16680376D01*
X24726594Y-16610911D01*
X24757869Y-16548432D01*
X24760902Y-16545286D01*
X24820340Y-16485850D01*
X24910908Y-16339016D01*
X24965174Y-16175253D01*
X24975500Y-16074177D01*
X24975499Y-15375824D01*
X24965174Y-15274747D01*
X24910908Y-15110984D01*
X24820340Y-14964150D01*
X24806017Y-14949827D01*
X24772532Y-14888504D01*
X24777516Y-14818812D01*
X24806021Y-14774460D01*
X24819947Y-14760535D01*
X24910448Y-14613811D01*
X24910453Y-14613800D01*
X24964680Y-14450152D01*
X24974999Y-14349154D01*
X24975000Y-14349141D01*
X24975000Y-14250000D01*
X23025001Y-14250000D01*
X23025001Y-14349154D01*
X23035319Y-14450152D01*
X23089546Y-14613800D01*
X23089551Y-14613811D01*
X23180052Y-14760534D01*
X23180055Y-14760538D01*
X23193982Y-14774465D01*
X23227467Y-14835788D01*
X23222483Y-14905480D01*
X23193984Y-14949825D01*
X23179661Y-14964148D01*
X23089093Y-15110981D01*
X23089091Y-15110986D01*
X23069116Y-15171267D01*
X23034826Y-15274747D01*
X23034826Y-15274748D01*
X23034825Y-15274748D01*
X23024500Y-15375815D01*
X23024500Y-15898982D01*
X23004815Y-15966021D01*
X22952011Y-16011776D01*
X22887898Y-16022340D01*
X22786679Y-16012000D01*
X22213330Y-16012000D01*
X22213312Y-16012001D01*
X22112247Y-16022325D01*
X21948484Y-16076592D01*
X21948481Y-16076593D01*
X21801647Y-16167162D01*
X21801411Y-16167349D01*
X21801218Y-16167426D01*
X21795503Y-16170952D01*
X21794900Y-16169975D01*
X21736615Y-16193490D01*
X21667973Y-16180449D01*
X21617278Y-16132368D01*
X21600500Y-16070083D01*
X21600500Y-13650845D01*
X23025000Y-13650845D01*
X23025000Y-13750000D01*
X23750000Y-13750000D01*
X24250000Y-13750000D01*
X24974999Y-13750000D01*
X24974999Y-13650860D01*
X24974998Y-13650845D01*
X24964680Y-13549847D01*
X24910453Y-13386199D01*
X24910448Y-13386188D01*
X24819947Y-13239465D01*
X24819944Y-13239461D01*
X24698038Y-13117555D01*
X24698034Y-13117552D01*
X24551311Y-13027051D01*
X24551300Y-13027046D01*
X24387652Y-12972819D01*
X24286654Y-12962500D01*
X24250000Y-12962500D01*
X24250000Y-13750000D01*
X23750000Y-13750000D01*
X23750000Y-12962500D01*
X23713361Y-12962500D01*
X23713343Y-12962501D01*
X23612347Y-12972819D01*
X23448699Y-13027046D01*
X23448688Y-13027051D01*
X23301965Y-13117552D01*
X23301961Y-13117555D01*
X23180055Y-13239461D01*
X23180052Y-13239465D01*
X23089551Y-13386188D01*
X23089546Y-13386199D01*
X23035319Y-13549847D01*
X23025000Y-13650845D01*
X21600500Y-13650845D01*
X21600500Y-10300096D01*
X21620185Y-10233057D01*
X21636814Y-10212420D01*
X25928080Y-5921153D01*
X27199500Y-5921153D01*
X27199500Y-6078846D01*
X27230261Y-6233489D01*
X27230264Y-6233501D01*
X27290602Y-6379172D01*
X27290609Y-6379185D01*
X27378210Y-6510288D01*
X27378213Y-6510292D01*
X27489707Y-6621786D01*
X27489711Y-6621789D01*
X27620814Y-6709390D01*
X27620827Y-6709397D01*
X27758683Y-6766498D01*
X27766503Y-6769737D01*
X27921153Y-6800499D01*
X27921156Y-6800500D01*
X27921158Y-6800500D01*
X28078844Y-6800500D01*
X28078845Y-6800499D01*
X28233497Y-6769737D01*
X28379179Y-6709394D01*
X28510289Y-6621789D01*
X28621789Y-6510289D01*
X28709394Y-6379179D01*
X28769737Y-6233497D01*
X28792151Y-6120814D01*
X28800638Y-6078150D01*
X28833023Y-6016239D01*
X28834518Y-6014716D01*
X29264662Y-5584572D01*
X29325983Y-5551089D01*
X29328150Y-5550638D01*
X29395212Y-5537298D01*
X29483497Y-5519737D01*
X29629179Y-5459394D01*
X29760289Y-5371789D01*
X29871789Y-5260289D01*
X29959394Y-5129179D01*
X30019737Y-4983497D01*
X30050500Y-4828842D01*
X30050500Y-4671158D01*
X30050500Y-4671155D01*
X30050499Y-4671153D01*
X30019738Y-4516510D01*
X30019738Y-4516508D01*
X30019737Y-4516503D01*
X30019735Y-4516498D01*
X29959397Y-4370827D01*
X29959390Y-4370814D01*
X29871789Y-4239711D01*
X29871786Y-4239707D01*
X29760292Y-4128213D01*
X29760288Y-4128210D01*
X29629185Y-4040609D01*
X29629172Y-4040602D01*
X29483501Y-3980264D01*
X29483489Y-3980261D01*
X29328845Y-3949500D01*
X29328842Y-3949500D01*
X29171158Y-3949500D01*
X29171155Y-3949500D01*
X29016510Y-3980261D01*
X29016498Y-3980264D01*
X28870827Y-4040602D01*
X28870814Y-4040609D01*
X28739711Y-4128210D01*
X28739707Y-4128213D01*
X28628213Y-4239707D01*
X28628210Y-4239711D01*
X28540609Y-4370814D01*
X28540602Y-4370827D01*
X28480264Y-4516498D01*
X28480261Y-4516508D01*
X28449361Y-4671850D01*
X28416976Y-4733761D01*
X28415425Y-4735339D01*
X27985339Y-5165425D01*
X27924016Y-5198910D01*
X27921850Y-5199361D01*
X27766508Y-5230261D01*
X27766498Y-5230264D01*
X27620827Y-5290602D01*
X27620814Y-5290609D01*
X27489711Y-5378210D01*
X27489707Y-5378213D01*
X27378213Y-5489707D01*
X27378210Y-5489711D01*
X27290609Y-5620814D01*
X27290602Y-5620827D01*
X27230264Y-5766498D01*
X27230261Y-5766510D01*
X27199500Y-5921153D01*
X25928080Y-5921153D01*
X28078301Y-3770932D01*
X28139622Y-3737449D01*
X28141644Y-3737027D01*
X28218913Y-3721658D01*
X28355495Y-3665084D01*
X28478416Y-3582951D01*
X28582951Y-3478416D01*
X28665084Y-3355495D01*
X28721658Y-3218913D01*
X28750500Y-3073918D01*
X28750500Y-2926082D01*
X28750500Y-2926079D01*
X28721659Y-2781092D01*
X28721658Y-2781091D01*
X28721658Y-2781087D01*
X28721656Y-2781082D01*
X28665087Y-2644511D01*
X28665080Y-2644498D01*
X28582951Y-2521584D01*
X28582948Y-2521580D01*
X28478419Y-2417051D01*
X28478415Y-2417048D01*
X28355501Y-2334919D01*
X28355488Y-2334912D01*
X28218917Y-2278343D01*
X28218907Y-2278340D01*
X28073920Y-2249500D01*
X28073918Y-2249500D01*
X27926082Y-2249500D01*
X27926080Y-2249500D01*
X27781092Y-2278340D01*
X27781082Y-2278343D01*
X27644511Y-2334912D01*
X27644498Y-2334919D01*
X27521584Y-2417048D01*
X27521580Y-2417051D01*
X27417051Y-2521580D01*
X27417048Y-2521584D01*
X27334919Y-2644498D01*
X27334912Y-2644511D01*
X27278342Y-2781084D01*
X27278340Y-2781092D01*
X27263000Y-2858210D01*
X27230615Y-2920121D01*
X27229064Y-2921699D01*
X20631286Y-9519478D01*
X20519481Y-9631282D01*
X20519479Y-9631284D01*
X20491797Y-9679232D01*
X20480096Y-9699500D01*
X20440423Y-9768215D01*
X20399499Y-9920943D01*
X20399499Y-9920945D01*
X20399499Y-10089046D01*
X20399500Y-10089059D01*
X20399500Y-18100638D01*
X20379815Y-18167677D01*
X20363181Y-18188319D01*
X20300538Y-18250961D01*
X20300535Y-18250965D01*
X20201990Y-18398446D01*
X20201983Y-18398459D01*
X20134106Y-18562332D01*
X20134103Y-18562341D01*
X20099500Y-18736305D01*
X17600500Y-18736305D01*
X17600500Y-9886555D01*
X17620185Y-9819516D01*
X17672989Y-9773761D01*
X17742147Y-9763817D01*
X17760411Y-9768840D01*
X17760676Y-9767969D01*
X17766492Y-9769732D01*
X17766503Y-9769737D01*
X17921153Y-9800499D01*
X17921156Y-9800500D01*
X17921158Y-9800500D01*
X18078844Y-9800500D01*
X18078845Y-9800499D01*
X18233497Y-9769737D01*
X18379179Y-9709394D01*
X18510289Y-9621789D01*
X18621789Y-9510289D01*
X18709394Y-9379179D01*
X18769737Y-9233497D01*
X18800500Y-9078842D01*
X18800500Y-8921158D01*
X18800500Y-8921155D01*
X18800499Y-8921153D01*
X18769738Y-8766510D01*
X18769738Y-8766508D01*
X18769737Y-8766503D01*
X18769735Y-8766498D01*
X18709397Y-8620827D01*
X18709390Y-8620814D01*
X18621789Y-8489711D01*
X18621786Y-8489707D01*
X18510292Y-8378213D01*
X18510288Y-8378210D01*
X18379185Y-8290609D01*
X18379172Y-8290602D01*
X18233501Y-8230264D01*
X18233489Y-8230261D01*
X18078845Y-8199500D01*
X18078842Y-8199500D01*
X17924500Y-8199500D01*
X17857461Y-8179815D01*
X17811706Y-8127011D01*
X17800500Y-8075500D01*
X17800500Y-7921155D01*
X17800499Y-7921153D01*
X17769738Y-7766510D01*
X17769737Y-7766503D01*
X17756062Y-7733489D01*
X17709397Y-7620827D01*
X17709390Y-7620814D01*
X17621789Y-7489711D01*
X17621786Y-7489707D01*
X17510292Y-7378213D01*
X17510288Y-7378210D01*
X17379185Y-7290609D01*
X17379179Y-7290606D01*
X17361589Y-7283320D01*
X17307186Y-7239478D01*
X17285122Y-7173184D01*
X17287425Y-7144571D01*
X17297225Y-7095304D01*
X17300500Y-7078843D01*
X17300500Y-6921155D01*
X17300499Y-6921153D01*
X17269738Y-6766510D01*
X17269737Y-6766503D01*
X17246080Y-6709390D01*
X17209397Y-6620827D01*
X17209390Y-6620814D01*
X17121789Y-6489711D01*
X17121786Y-6489707D01*
X17010292Y-6378213D01*
X17010288Y-6378210D01*
X16879185Y-6290609D01*
X16879172Y-6290602D01*
X16733501Y-6230264D01*
X16733492Y-6230261D01*
X16684033Y-6220423D01*
X16622122Y-6188037D01*
X16587549Y-6127321D01*
X16586617Y-6123041D01*
X16576771Y-6073537D01*
X16552384Y-6014660D01*
X16516431Y-5927861D01*
X16516424Y-5927848D01*
X16428823Y-5796745D01*
X16428820Y-5796741D01*
X16317326Y-5685247D01*
X16317322Y-5685244D01*
X16186219Y-5597643D01*
X16186206Y-5597636D01*
X16040535Y-5537298D01*
X16040523Y-5537295D01*
X15885879Y-5506534D01*
X15885876Y-5506534D01*
X15728192Y-5506534D01*
X15728188Y-5506534D01*
X15718475Y-5508466D01*
X15648884Y-5502236D01*
X15606608Y-5474530D01*
X15510289Y-5378211D01*
X15510288Y-5378210D01*
X15510287Y-5378209D01*
X15379185Y-5290609D01*
X15379172Y-5290602D01*
X15233501Y-5230264D01*
X15233489Y-5230261D01*
X15078845Y-5199500D01*
X15078842Y-5199500D01*
X14921158Y-5199500D01*
X14921155Y-5199500D01*
X14766510Y-5230261D01*
X14766498Y-5230264D01*
X14620827Y-5290602D01*
X14620814Y-5290609D01*
X14489711Y-5378210D01*
X14489707Y-5378213D01*
X14378213Y-5489707D01*
X14378210Y-5489711D01*
X14290609Y-5620814D01*
X14290602Y-5620827D01*
X14230264Y-5766498D01*
X14230261Y-5766510D01*
X14199500Y-5921153D01*
X14199500Y-6078846D01*
X14230261Y-6233489D01*
X14230264Y-6233501D01*
X14290602Y-6379172D01*
X14290609Y-6379185D01*
X14378602Y-6510874D01*
X14399480Y-6577551D01*
X14399500Y-6579765D01*
X14399500Y-32699902D01*
X14379815Y-32766941D01*
X14363181Y-32787583D01*
X12812181Y-34338583D01*
X12750858Y-34372068D01*
X12681166Y-34367084D01*
X12625233Y-34325212D01*
X12600816Y-34259748D01*
X12600500Y-34250902D01*
X12600500Y-11079765D01*
X12620185Y-11012726D01*
X12621398Y-11010874D01*
X12628665Y-10999999D01*
X12709394Y-10879179D01*
X12769737Y-10733497D01*
X12800500Y-10578842D01*
X12800500Y-10421158D01*
X12800500Y-10421155D01*
X12800499Y-10421153D01*
X12799500Y-10416130D01*
X12769737Y-10266503D01*
X12747333Y-10212415D01*
X12709397Y-10120827D01*
X12709390Y-10120814D01*
X12621789Y-9989711D01*
X12621786Y-9989707D01*
X12510292Y-9878213D01*
X12510288Y-9878210D01*
X12379185Y-9790609D01*
X12379172Y-9790602D01*
X12233501Y-9730264D01*
X12233489Y-9730261D01*
X12078845Y-9699500D01*
X12078842Y-9699500D01*
X11921158Y-9699500D01*
X11921155Y-9699500D01*
X11766510Y-9730261D01*
X11766498Y-9730264D01*
X11620827Y-9790602D01*
X11620814Y-9790609D01*
X11489711Y-9878210D01*
X11489707Y-9878213D01*
X11412181Y-9955740D01*
X11350858Y-9989225D01*
X11281166Y-9984241D01*
X11225233Y-9942369D01*
X11200816Y-9876905D01*
X11200500Y-9868059D01*
X11200500Y-8079765D01*
X11220185Y-8012726D01*
X11221398Y-8010874D01*
X11281347Y-7921155D01*
X11309394Y-7879179D01*
X11369737Y-7733497D01*
X11400500Y-7578842D01*
X11400500Y-7421158D01*
X11400500Y-7421155D01*
X11400499Y-7421153D01*
X11369738Y-7266510D01*
X11369737Y-7266503D01*
X11356066Y-7233497D01*
X11309397Y-7120827D01*
X11309390Y-7120814D01*
X11221789Y-6989711D01*
X11221786Y-6989707D01*
X11110292Y-6878213D01*
X11110288Y-6878210D01*
X10979185Y-6790609D01*
X10979176Y-6790604D01*
X10869202Y-6745052D01*
X10814799Y-6701211D01*
X10792734Y-6634917D01*
X10795037Y-6606303D01*
X10800500Y-6578842D01*
X10800500Y-6421158D01*
X10800500Y-6421155D01*
X10800499Y-6421153D01*
X10774531Y-6290606D01*
X10769737Y-6266503D01*
X10756062Y-6233489D01*
X10709397Y-6120827D01*
X10709390Y-6120814D01*
X10621789Y-5989711D01*
X10621786Y-5989707D01*
X10510292Y-5878213D01*
X10510288Y-5878210D01*
X10379185Y-5790609D01*
X10379172Y-5790602D01*
X10233501Y-5730264D01*
X10233489Y-5730261D01*
X10078845Y-5699500D01*
X10078842Y-5699500D01*
X9921158Y-5699500D01*
X9921155Y-5699500D01*
X9766510Y-5730261D01*
X9766498Y-5730264D01*
X9620827Y-5790602D01*
X9620814Y-5790609D01*
X9489711Y-5878210D01*
X9489707Y-5878213D01*
X9378213Y-5989707D01*
X9378210Y-5989711D01*
X9290609Y-6120814D01*
X9290602Y-6120827D01*
X9230264Y-6266498D01*
X9230261Y-6266510D01*
X9199500Y-6421153D01*
X9199500Y-6578846D01*
X9230261Y-6733489D01*
X9230264Y-6733501D01*
X9290602Y-6879172D01*
X9290609Y-6879185D01*
X9378602Y-7010874D01*
X9399480Y-7077551D01*
X9399500Y-7079765D01*
X9399500Y-10777905D01*
X9379815Y-10844944D01*
X9327011Y-10890699D01*
X9257853Y-10900643D01*
X9194297Y-10871618D01*
X9187819Y-10865586D01*
X8307572Y-9985339D01*
X8274087Y-9924016D01*
X8273636Y-9921849D01*
X8247529Y-9790606D01*
X8242735Y-9766503D01*
X8242733Y-9766498D01*
X8182395Y-9620827D01*
X8182388Y-9620814D01*
X8094787Y-9489711D01*
X8094784Y-9489707D01*
X7983290Y-9378213D01*
X7983286Y-9378210D01*
X7852183Y-9290609D01*
X7852170Y-9290602D01*
X7706499Y-9230264D01*
X7706487Y-9230261D01*
X7551843Y-9199500D01*
X7551840Y-9199500D01*
X7394156Y-9199500D01*
X7394153Y-9199500D01*
X7239508Y-9230261D01*
X7239496Y-9230264D01*
X7093825Y-9290602D01*
X7093812Y-9290609D01*
X6962709Y-9378210D01*
X6962705Y-9378213D01*
X6851211Y-9489707D01*
X6851208Y-9489711D01*
X6763607Y-9620814D01*
X6763600Y-9620827D01*
X6703262Y-9766498D01*
X6703259Y-9766510D01*
X6672498Y-9921153D01*
X6672498Y-10078846D01*
X6703259Y-10233489D01*
X6703262Y-10233501D01*
X6763600Y-10379172D01*
X6763607Y-10379185D01*
X6851208Y-10510288D01*
X6851211Y-10510292D01*
X6962705Y-10621786D01*
X6962709Y-10621789D01*
X7093812Y-10709390D01*
X7093825Y-10709397D01*
X7239496Y-10769735D01*
X7239501Y-10769737D01*
X7304145Y-10782595D01*
X7394847Y-10800638D01*
X7456758Y-10833023D01*
X7458337Y-10834574D01*
X8363181Y-11739418D01*
X8396666Y-11800741D01*
X8399500Y-11827099D01*
X8399500Y-34250902D01*
X8379815Y-34317941D01*
X8327011Y-34363696D01*
X8257853Y-34373640D01*
X8194297Y-34344615D01*
X8187819Y-34338583D01*
X7636819Y-33787583D01*
X7603334Y-33726260D01*
X7600500Y-33699902D01*
X7600500Y-13579765D01*
X7620185Y-13512726D01*
X7621398Y-13510874D01*
X7709390Y-13379185D01*
X7709390Y-13379184D01*
X7709394Y-13379179D01*
X7769737Y-13233497D01*
X7800500Y-13078842D01*
X7800500Y-12921158D01*
X7800500Y-12921155D01*
X7800499Y-12921153D01*
X7792553Y-12881206D01*
X7769737Y-12766503D01*
X7752437Y-12724736D01*
X7709397Y-12620827D01*
X7709390Y-12620814D01*
X7621789Y-12489711D01*
X7621786Y-12489707D01*
X7510292Y-12378213D01*
X7510288Y-12378210D01*
X7379185Y-12290609D01*
X7379172Y-12290602D01*
X7233501Y-12230264D01*
X7233489Y-12230261D01*
X7078845Y-12199500D01*
X7078842Y-12199500D01*
X6921158Y-12199500D01*
X6921155Y-12199500D01*
X6766510Y-12230261D01*
X6766498Y-12230264D01*
X6620827Y-12290602D01*
X6620814Y-12290609D01*
X6489711Y-12378210D01*
X6489707Y-12378213D01*
X6378213Y-12489707D01*
X6378210Y-12489711D01*
X6313000Y-12587304D01*
X6259387Y-12632109D01*
X6190062Y-12640816D01*
X6127035Y-12610661D01*
X6091965Y-12556725D01*
X6089379Y-12548765D01*
X6089378Y-12548764D01*
X6089379Y-12548764D01*
X6005377Y-12383903D01*
X6001243Y-12378213D01*
X5896621Y-12234213D01*
X5765787Y-12103379D01*
X5755818Y-12096136D01*
X5691165Y-12049162D01*
X5676190Y-12029742D01*
X5046447Y-11400000D01*
X5052661Y-11400000D01*
X5154394Y-11372741D01*
X5245606Y-11320080D01*
X5320080Y-11245606D01*
X5372741Y-11154394D01*
X5400000Y-11052661D01*
X5400000Y-11046447D01*
X5989983Y-11636430D01*
X5989984Y-11636430D01*
X6004942Y-11615845D01*
X6004947Y-11615836D01*
X6088915Y-11451043D01*
X6088916Y-11451040D01*
X6146066Y-11275147D01*
X6175000Y-11092473D01*
X6175000Y-10907526D01*
X6146066Y-10724852D01*
X6088916Y-10548959D01*
X6088915Y-10548956D01*
X6004949Y-10384165D01*
X5989983Y-10363568D01*
X5400000Y-10953551D01*
X5400000Y-10947339D01*
X5372741Y-10845606D01*
X5320080Y-10754394D01*
X5245606Y-10679920D01*
X5154394Y-10627259D01*
X5052661Y-10600000D01*
X5046446Y-10600000D01*
X5636430Y-10010015D01*
X5615834Y-9995050D01*
X5451043Y-9911084D01*
X5451040Y-9911083D01*
X5275147Y-9853933D01*
X5092473Y-9825000D01*
X4907527Y-9825000D01*
X4724852Y-9853933D01*
X4548959Y-9911083D01*
X4548956Y-9911084D01*
X4384166Y-9995049D01*
X4268287Y-10079240D01*
X4202480Y-10102719D01*
X4134426Y-10086893D01*
X4096136Y-10053232D01*
X4032190Y-9967812D01*
X4032187Y-9967809D01*
X3917093Y-9881649D01*
X3917086Y-9881645D01*
X3782379Y-9831403D01*
X3782372Y-9831401D01*
X3722844Y-9825000D01*
X3250000Y-9825000D01*
X3250000Y-10684314D01*
X3245606Y-10679920D01*
X3154394Y-10627259D01*
X3052661Y-10600000D01*
X2947339Y-10600000D01*
X2845606Y-10627259D01*
X2754394Y-10679920D01*
X2750000Y-10684314D01*
X2750000Y-9825000D01*
X2277155Y-9825000D01*
X2217627Y-9831401D01*
X2217620Y-9831403D01*
X2082913Y-9881645D01*
X2082906Y-9881649D01*
X1967812Y-9967809D01*
X1967809Y-9967812D01*
X1881649Y-10082906D01*
X1881645Y-10082913D01*
X1831403Y-10217620D01*
X1831401Y-10217627D01*
X1825000Y-10277155D01*
X1825000Y-10750000D01*
X2684314Y-10750000D01*
X2679920Y-10754394D01*
X2627259Y-10845606D01*
X2600000Y-10947339D01*
X2600000Y-11052661D01*
X2627259Y-11154394D01*
X2679920Y-11245606D01*
X2684314Y-11250000D01*
X1825000Y-11250000D01*
X1825000Y-11722844D01*
X1831401Y-11782372D01*
X1831403Y-11782379D01*
X1881645Y-11917086D01*
X1881649Y-11917093D01*
X1967809Y-12032187D01*
X1967812Y-12032190D01*
X2053232Y-12096136D01*
X2095103Y-12152070D01*
X2100087Y-12221761D01*
X2079240Y-12268287D01*
X1995049Y-12384166D01*
X1911084Y-12548956D01*
X1911083Y-12548959D01*
X1853933Y-12724852D01*
X1825000Y-12907526D01*
X1825000Y-13092473D01*
X1853933Y-13275147D01*
X1911083Y-13451040D01*
X1911084Y-13451043D01*
X1995050Y-13615834D01*
X2010015Y-13636430D01*
X2600000Y-13046445D01*
X2600000Y-13052661D01*
X2627259Y-13154394D01*
X2679920Y-13245606D01*
X2754394Y-13320080D01*
X2845606Y-13372741D01*
X2947339Y-13400000D01*
X2953553Y-13400000D01*
X2339355Y-14014196D01*
X2308833Y-14049163D01*
X2234213Y-14103378D01*
X2103381Y-14234210D01*
X2103381Y-14234211D01*
X2103379Y-14234213D01*
X2073554Y-14275264D01*
X1994622Y-14383903D01*
X1910620Y-14548764D01*
X1910619Y-14548767D01*
X1853445Y-14724734D01*
X1838644Y-14818183D01*
X1824500Y-14907486D01*
X1824500Y-15092514D01*
X1827426Y-15110986D01*
X1853445Y-15275265D01*
X1910619Y-15451232D01*
X1910620Y-15451235D01*
X1960315Y-15548765D01*
X1994622Y-15616096D01*
X2103379Y-15765787D01*
X2234213Y-15896621D01*
X2383904Y-16005378D01*
X2417194Y-16022340D01*
X2548764Y-16089379D01*
X2548767Y-16089380D01*
X2636750Y-16117967D01*
X2724736Y-16146555D01*
X2907486Y-16175500D01*
X2907487Y-16175500D01*
X3092513Y-16175500D01*
X3092514Y-16175500D01*
X3275264Y-16146555D01*
X3451235Y-16089379D01*
X3616096Y-16005378D01*
X3765787Y-15896621D01*
X3896621Y-15765787D01*
X3899680Y-15761576D01*
X3955006Y-15718909D01*
X4024619Y-15712926D01*
X4086415Y-15745529D01*
X4100315Y-15761570D01*
X4103379Y-15765787D01*
X4234213Y-15896621D01*
X4383904Y-16005378D01*
X4417194Y-16022340D01*
X4548764Y-16089379D01*
X4548767Y-16089380D01*
X4636750Y-16117967D01*
X4724736Y-16146555D01*
X4907486Y-16175500D01*
X4907487Y-16175500D01*
X5092513Y-16175500D01*
X5092514Y-16175500D01*
X5275264Y-16146555D01*
X5451235Y-16089379D01*
X5616096Y-16005378D01*
X5765787Y-15896621D01*
X5896621Y-15765787D01*
X6005378Y-15616096D01*
X6089379Y-15451235D01*
X6146555Y-15275264D01*
X6153027Y-15234402D01*
X6182956Y-15171267D01*
X6242268Y-15134336D01*
X6312130Y-15135334D01*
X6370363Y-15173944D01*
X6398477Y-15237907D01*
X6399500Y-15253800D01*
X6399500Y-33913330D01*
X6399499Y-33913348D01*
X6399499Y-34079054D01*
X6399498Y-34079054D01*
X6440423Y-34231785D01*
X6469358Y-34281900D01*
X6469359Y-34281904D01*
X6469360Y-34281904D01*
X6519479Y-34368714D01*
X6519481Y-34368717D01*
X6638349Y-34487585D01*
X6638355Y-34487590D01*
X7363181Y-35212416D01*
X7396666Y-35273739D01*
X7399500Y-35300097D01*
X7399500Y-42025500D01*
X7379815Y-42092539D01*
X7327011Y-42138294D01*
X7275500Y-42149500D01*
X5602129Y-42149500D01*
X5602123Y-42149501D01*
X5542516Y-42155908D01*
X5407671Y-42206202D01*
X5407664Y-42206206D01*
X5292455Y-42292452D01*
X5292452Y-42292455D01*
X5206206Y-42407664D01*
X5206203Y-42407669D01*
X5157189Y-42539083D01*
X5115317Y-42595016D01*
X5049853Y-42619433D01*
X4981580Y-42604581D01*
X4953326Y-42583430D01*
X4839786Y-42469890D01*
X4667820Y-42344951D01*
X4478414Y-42248444D01*
X4478413Y-42248443D01*
X4478412Y-42248443D01*
X4276243Y-42182754D01*
X4276241Y-42182753D01*
X4276240Y-42182753D01*
X4114957Y-42157208D01*
X4066287Y-42149500D01*
X3853713Y-42149500D01*
X3805042Y-42157208D01*
X3643760Y-42182753D01*
X3441585Y-42248444D01*
X3252179Y-42344951D01*
X3080213Y-42469890D01*
X2929890Y-42620213D01*
X2804949Y-42792182D01*
X2800202Y-42801499D01*
X2752227Y-42852293D01*
X2684405Y-42869087D01*
X2618271Y-42846548D01*
X2579234Y-42801495D01*
X2574626Y-42792452D01*
X2535270Y-42738282D01*
X2535269Y-42738282D01*
X1902962Y-43370590D01*
X1885925Y-43307007D01*
X1820099Y-43192993D01*
X1727007Y-43099901D01*
X1612993Y-43034075D01*
X1549407Y-43017036D01*
X2181716Y-42384728D01*
X2127550Y-42345375D01*
X1938217Y-42248904D01*
X1736129Y-42183242D01*
X1526246Y-42150000D01*
X1313754Y-42150000D01*
X1103872Y-42183242D01*
X1103869Y-42183242D01*
X901782Y-42248904D01*
X712440Y-42345379D01*
X699240Y-42354970D01*
X633433Y-42378448D01*
X565380Y-42362621D01*
X516686Y-42312513D01*
X502358Y-42254650D01*
X502358Y-24813713D01*
X1149500Y-24813713D01*
X1149500Y-25026287D01*
X1182754Y-25236243D01*
X1236106Y-25400444D01*
X1248444Y-25438414D01*
X1344951Y-25627820D01*
X1469890Y-25799786D01*
X1620213Y-25950109D01*
X1792182Y-26075050D01*
X1800946Y-26079516D01*
X1851742Y-26127491D01*
X1868536Y-26195312D01*
X1845998Y-26261447D01*
X1800946Y-26300484D01*
X1792182Y-26304949D01*
X1620213Y-26429890D01*
X1469890Y-26580213D01*
X1344951Y-26752179D01*
X1248444Y-26941585D01*
X1182753Y-27143760D01*
X1149500Y-27353713D01*
X1149500Y-27566286D01*
X1182343Y-27773652D01*
X1182754Y-27776243D01*
X1215886Y-27878213D01*
X1248444Y-27978414D01*
X1344951Y-28167820D01*
X1469890Y-28339786D01*
X1583430Y-28453326D01*
X1616915Y-28514649D01*
X1611931Y-28584341D01*
X1570059Y-28640274D01*
X1539083Y-28657189D01*
X1407669Y-28706203D01*
X1407664Y-28706206D01*
X1292455Y-28792452D01*
X1292452Y-28792455D01*
X1206206Y-28907664D01*
X1206202Y-28907671D01*
X1155908Y-29042517D01*
X1154941Y-29051516D01*
X1149501Y-29102123D01*
X1149500Y-29102135D01*
X1149500Y-30897870D01*
X1149501Y-30897876D01*
X1155908Y-30957483D01*
X1206202Y-31092328D01*
X1206206Y-31092335D01*
X1292452Y-31207544D01*
X1292455Y-31207547D01*
X1407664Y-31293793D01*
X1407671Y-31293797D01*
X1542517Y-31344091D01*
X1542516Y-31344091D01*
X1549444Y-31344835D01*
X1602127Y-31350500D01*
X3397872Y-31350499D01*
X3457483Y-31344091D01*
X3592331Y-31293796D01*
X3707546Y-31207546D01*
X3793796Y-31092331D01*
X3844091Y-30957483D01*
X3850500Y-30897873D01*
X3850499Y-29102128D01*
X3844091Y-29042517D01*
X3832070Y-29010288D01*
X3793797Y-28907671D01*
X3793793Y-28907664D01*
X3707547Y-28792455D01*
X3707544Y-28792452D01*
X3592335Y-28706206D01*
X3592328Y-28706202D01*
X3460917Y-28657189D01*
X3404983Y-28615318D01*
X3380566Y-28549853D01*
X3395418Y-28481580D01*
X3416563Y-28453332D01*
X3530104Y-28339792D01*
X3655051Y-28167816D01*
X3751557Y-27978412D01*
X3817246Y-27776243D01*
X3850500Y-27566287D01*
X3850500Y-27353713D01*
X3817246Y-27143757D01*
X3751557Y-26941588D01*
X3655051Y-26752184D01*
X3655049Y-26752181D01*
X3655048Y-26752179D01*
X3530109Y-26580213D01*
X3379786Y-26429890D01*
X3207820Y-26304951D01*
X3207115Y-26304591D01*
X3199054Y-26300485D01*
X3148259Y-26252512D01*
X3131463Y-26184692D01*
X3153999Y-26118556D01*
X3199054Y-26079515D01*
X3207816Y-26075051D01*
X3229789Y-26059086D01*
X3379786Y-25950109D01*
X3379788Y-25950106D01*
X3379792Y-25950104D01*
X3530104Y-25799792D01*
X3530106Y-25799788D01*
X3530109Y-25799786D01*
X3655048Y-25627820D01*
X3655047Y-25627820D01*
X3655051Y-25627816D01*
X3751557Y-25438412D01*
X3817246Y-25236243D01*
X3850500Y-25026287D01*
X3850500Y-24813713D01*
X3817246Y-24603757D01*
X3751557Y-24401588D01*
X3655051Y-24212184D01*
X3655049Y-24212181D01*
X3655048Y-24212179D01*
X3530109Y-24040213D01*
X3379786Y-23889890D01*
X3207817Y-23764949D01*
X3198504Y-23760204D01*
X3147707Y-23712230D01*
X3130912Y-23644409D01*
X3153449Y-23578274D01*
X3198507Y-23539232D01*
X3207555Y-23534622D01*
X3261716Y-23495270D01*
X3261717Y-23495270D01*
X2629408Y-22862962D01*
X2692993Y-22845925D01*
X2807007Y-22780099D01*
X2900099Y-22687007D01*
X2965925Y-22572993D01*
X2982962Y-22509408D01*
X3615270Y-23141717D01*
X3615270Y-23141716D01*
X3654622Y-23087554D01*
X3751095Y-22898217D01*
X3816757Y-22696130D01*
X3816757Y-22696127D01*
X3850000Y-22486246D01*
X3850000Y-22273753D01*
X3816757Y-22063872D01*
X3816757Y-22063869D01*
X3751095Y-21861782D01*
X3654624Y-21672449D01*
X3615270Y-21618282D01*
X3615269Y-21618282D01*
X2982962Y-22250590D01*
X2965925Y-22187007D01*
X2900099Y-22072993D01*
X2807007Y-21979901D01*
X2692993Y-21914075D01*
X2629409Y-21897037D01*
X3261716Y-21264728D01*
X3207550Y-21225375D01*
X3018217Y-21128904D01*
X2816129Y-21063242D01*
X2606246Y-21030000D01*
X2393754Y-21030000D01*
X2183872Y-21063242D01*
X2183869Y-21063242D01*
X1981782Y-21128904D01*
X1792439Y-21225380D01*
X1738282Y-21264727D01*
X1738282Y-21264728D01*
X2370591Y-21897037D01*
X2307007Y-21914075D01*
X2192993Y-21979901D01*
X2099901Y-22072993D01*
X2034075Y-22187007D01*
X2017037Y-22250591D01*
X1384728Y-21618282D01*
X1384727Y-21618282D01*
X1345380Y-21672439D01*
X1248904Y-21861782D01*
X1183242Y-22063869D01*
X1183242Y-22063872D01*
X1150000Y-22273753D01*
X1150000Y-22486246D01*
X1183242Y-22696127D01*
X1183242Y-22696130D01*
X1248904Y-22898217D01*
X1345375Y-23087550D01*
X1384728Y-23141716D01*
X2017037Y-22509408D01*
X2034075Y-22572993D01*
X2099901Y-22687007D01*
X2192993Y-22780099D01*
X2307007Y-22845925D01*
X2370590Y-22862962D01*
X1738282Y-23495269D01*
X1738282Y-23495270D01*
X1792452Y-23534626D01*
X1792451Y-23534626D01*
X1801495Y-23539234D01*
X1852292Y-23587208D01*
X1869087Y-23655029D01*
X1846550Y-23721164D01*
X1801499Y-23760202D01*
X1792182Y-23764949D01*
X1620213Y-23889890D01*
X1469890Y-24040213D01*
X1344951Y-24212179D01*
X1248444Y-24401585D01*
X1182753Y-24603760D01*
X1170678Y-24680000D01*
X1149500Y-24813713D01*
X502358Y-24813713D01*
X502358Y-1615171D01*
X522043Y-1548132D01*
X574847Y-1502377D01*
X626358Y-1491171D01*
X34377358Y-1491171D01*
X34444397Y-1510856D01*
G37*
%TD.AperFunction*%
%TA.AperFunction,Conductor*%
G36*
X4014238Y-13660686D02*
G01*
X4049162Y-13691165D01*
X4089147Y-13746199D01*
X4103379Y-13765787D01*
X4234213Y-13896621D01*
X4238421Y-13899678D01*
X4238432Y-13899686D01*
X4281094Y-13955019D01*
X4287069Y-14024633D01*
X4254459Y-14086426D01*
X4253221Y-14087681D01*
X4246317Y-14094584D01*
X4234213Y-14103379D01*
X4103379Y-14234213D01*
X4094584Y-14246317D01*
X4087681Y-14253221D01*
X4065237Y-14265476D01*
X4044981Y-14281094D01*
X4035079Y-14281943D01*
X4026358Y-14286706D01*
X4000849Y-14284881D01*
X3975367Y-14287069D01*
X3966578Y-14282430D01*
X3956666Y-14281722D01*
X3936193Y-14266395D01*
X3913574Y-14254459D01*
X3901250Y-14240237D01*
X3900733Y-14239850D01*
X3900595Y-14239481D01*
X3899686Y-14238432D01*
X3896621Y-14234213D01*
X3765787Y-14103379D01*
X3765786Y-14103378D01*
X3691165Y-14049162D01*
X3676190Y-14029742D01*
X3046448Y-13400000D01*
X3052661Y-13400000D01*
X3154394Y-13372741D01*
X3245606Y-13320080D01*
X3320080Y-13245606D01*
X3372741Y-13154394D01*
X3400000Y-13052661D01*
X3400000Y-13046447D01*
X4014238Y-13660686D01*
G37*
%TD.AperFunction*%
%TD*%
M02*
