%TF.GenerationSoftware,KiCad,Pcbnew,9.0.7*%
%TF.CreationDate,2026-01-12T04:18:20+01:00*%
%TF.ProjectId,lsw5-esp32,6c737735-2d65-4737-9033-322e6b696361,p1*%
%TF.SameCoordinates,Original*%
%TF.FileFunction,Soldermask,Top*%
%TF.FilePolarity,Negative*%
%FSLAX46Y46*%
G04 Gerber Fmt 4.6, Leading zero omitted, Abs format (unit mm)*
G04 Created by KiCad (PCBNEW 9.0.7) date 2026-01-12 04:18:20*
%MOMM*%
%LPD*%
G01*
G04 APERTURE LIST*
G04 Aperture macros list*
%AMRoundRect*
0 Rectangle with rounded corners*
0 $1 Rounding radius*
0 $2 $3 $4 $5 $6 $7 $8 $9 X,Y pos of 4 corners*
0 Add a 4 corners polygon primitive as box body*
4,1,4,$2,$3,$4,$5,$6,$7,$8,$9,$2,$3,0*
0 Add four circle primitives for the rounded corners*
1,1,$1+$1,$2,$3*
1,1,$1+$1,$4,$5*
1,1,$1+$1,$6,$7*
1,1,$1+$1,$8,$9*
0 Add four rect primitives between the rounded corners*
20,1,$1+$1,$2,$3,$4,$5,0*
20,1,$1+$1,$4,$5,$6,$7,0*
20,1,$1+$1,$6,$7,$8,$9,0*
20,1,$1+$1,$8,$9,$2,$3,0*%
G04 Aperture macros list end*
%ADD10C,0.010000*%
%ADD11RoundRect,0.237500X0.300000X0.237500X-0.300000X0.237500X-0.300000X-0.237500X0.300000X-0.237500X0*%
%ADD12RoundRect,0.237500X-0.250000X-0.237500X0.250000X-0.237500X0.250000X0.237500X-0.250000X0.237500X0*%
%ADD13RoundRect,0.250000X0.337500X0.475000X-0.337500X0.475000X-0.337500X-0.475000X0.337500X-0.475000X0*%
%ADD14RoundRect,0.102000X0.750000X0.450000X-0.750000X0.450000X-0.750000X-0.450000X0.750000X-0.450000X0*%
%ADD15RoundRect,0.102000X0.450000X0.750000X-0.450000X0.750000X-0.450000X-0.750000X0.450000X-0.750000X0*%
%ADD16RoundRect,0.102000X0.450000X0.450000X-0.450000X0.450000X-0.450000X-0.450000X0.450000X-0.450000X0*%
%ADD17R,1.350000X1.350000*%
%ADD18C,1.350000*%
%ADD19RoundRect,0.237500X0.287500X0.237500X-0.287500X0.237500X-0.287500X-0.237500X0.287500X-0.237500X0*%
%ADD20C,0.650000*%
%ADD21O,2.304000X1.204000*%
%ADD22O,2.004000X1.204000*%
%ADD23RoundRect,0.237500X-0.237500X0.300000X-0.237500X-0.300000X0.237500X-0.300000X0.237500X0.300000X0*%
%ADD24R,1.700000X1.700000*%
%ADD25C,1.700000*%
%ADD26RoundRect,0.150000X-0.150000X0.587500X-0.150000X-0.587500X0.150000X-0.587500X0.150000X0.587500X0*%
%ADD27RoundRect,0.237500X0.237500X-0.250000X0.237500X0.250000X-0.237500X0.250000X-0.237500X-0.250000X0*%
%ADD28RoundRect,0.237500X-0.300000X-0.237500X0.300000X-0.237500X0.300000X0.237500X-0.300000X0.237500X0*%
%ADD29RoundRect,0.150000X0.587500X0.150000X-0.587500X0.150000X-0.587500X-0.150000X0.587500X-0.150000X0*%
%ADD30RoundRect,0.237500X0.250000X0.237500X-0.250000X0.237500X-0.250000X-0.237500X0.250000X-0.237500X0*%
%ADD31RoundRect,0.237500X-0.237500X0.250000X-0.237500X-0.250000X0.237500X-0.250000X0.237500X0.250000X0*%
%ADD32RoundRect,0.375000X0.625000X0.375000X-0.625000X0.375000X-0.625000X-0.375000X0.625000X-0.375000X0*%
%ADD33RoundRect,0.500000X0.500000X1.400000X-0.500000X1.400000X-0.500000X-1.400000X0.500000X-1.400000X0*%
%ADD34RoundRect,0.102000X-0.605000X-0.365000X0.605000X-0.365000X0.605000X0.365000X-0.605000X0.365000X0*%
%ADD35RoundRect,0.100500X-0.301500X1.031500X-0.301500X-1.031500X0.301500X-1.031500X0.301500X1.031500X0*%
G04 APERTURE END LIST*
D10*
%TO.C,J3*%
X28719145Y-27150000D02*
X27469145Y-27150000D01*
X27469145Y-26450000D01*
X28719145Y-26450000D01*
X28719145Y-27150000D01*
G36*
X28719145Y-27150000D02*
G01*
X27469145Y-27150000D01*
X27469145Y-26450000D01*
X28719145Y-26450000D01*
X28719145Y-27150000D01*
G37*
X28719145Y-27950000D02*
X27469145Y-27950000D01*
X27469145Y-27250000D01*
X28719145Y-27250000D01*
X28719145Y-27950000D01*
G36*
X28719145Y-27950000D02*
G01*
X27469145Y-27950000D01*
X27469145Y-27250000D01*
X28719145Y-27250000D01*
X28719145Y-27950000D01*
G37*
X28719145Y-28450000D02*
X27469145Y-28450000D01*
X27469145Y-28050000D01*
X28719145Y-28050000D01*
X28719145Y-28450000D01*
G36*
X28719145Y-28450000D02*
G01*
X27469145Y-28450000D01*
X27469145Y-28050000D01*
X28719145Y-28050000D01*
X28719145Y-28450000D01*
G37*
X28719145Y-28950000D02*
X27469145Y-28950000D01*
X27469145Y-28550000D01*
X28719145Y-28550000D01*
X28719145Y-28950000D01*
G36*
X28719145Y-28950000D02*
G01*
X27469145Y-28950000D01*
X27469145Y-28550000D01*
X28719145Y-28550000D01*
X28719145Y-28950000D01*
G37*
X28719145Y-29450000D02*
X27469145Y-29450000D01*
X27469145Y-29050000D01*
X28719145Y-29050000D01*
X28719145Y-29450000D01*
G36*
X28719145Y-29450000D02*
G01*
X27469145Y-29450000D01*
X27469145Y-29050000D01*
X28719145Y-29050000D01*
X28719145Y-29450000D01*
G37*
X28719145Y-29950000D02*
X27469145Y-29950000D01*
X27469145Y-29550000D01*
X28719145Y-29550000D01*
X28719145Y-29950000D01*
G36*
X28719145Y-29950000D02*
G01*
X27469145Y-29950000D01*
X27469145Y-29550000D01*
X28719145Y-29550000D01*
X28719145Y-29950000D01*
G37*
X28719145Y-30450000D02*
X27469145Y-30450000D01*
X27469145Y-30050000D01*
X28719145Y-30050000D01*
X28719145Y-30450000D01*
G36*
X28719145Y-30450000D02*
G01*
X27469145Y-30450000D01*
X27469145Y-30050000D01*
X28719145Y-30050000D01*
X28719145Y-30450000D01*
G37*
X28719145Y-30950000D02*
X27469145Y-30950000D01*
X27469145Y-30550000D01*
X28719145Y-30550000D01*
X28719145Y-30950000D01*
G36*
X28719145Y-30950000D02*
G01*
X27469145Y-30950000D01*
X27469145Y-30550000D01*
X28719145Y-30550000D01*
X28719145Y-30950000D01*
G37*
X28719145Y-31450000D02*
X27469145Y-31450000D01*
X27469145Y-31050000D01*
X28719145Y-31050000D01*
X28719145Y-31450000D01*
G36*
X28719145Y-31450000D02*
G01*
X27469145Y-31450000D01*
X27469145Y-31050000D01*
X28719145Y-31050000D01*
X28719145Y-31450000D01*
G37*
X28719145Y-31950000D02*
X27469145Y-31950000D01*
X27469145Y-31550000D01*
X28719145Y-31550000D01*
X28719145Y-31950000D01*
G36*
X28719145Y-31950000D02*
G01*
X27469145Y-31950000D01*
X27469145Y-31550000D01*
X28719145Y-31550000D01*
X28719145Y-31950000D01*
G37*
X28719145Y-32750000D02*
X27469145Y-32750000D01*
X27469145Y-32050000D01*
X28719145Y-32050000D01*
X28719145Y-32750000D01*
G36*
X28719145Y-32750000D02*
G01*
X27469145Y-32750000D01*
X27469145Y-32050000D01*
X28719145Y-32050000D01*
X28719145Y-32750000D01*
G37*
X28719145Y-33550000D02*
X27469145Y-33550000D01*
X27469145Y-32850000D01*
X28719145Y-32850000D01*
X28719145Y-33550000D01*
G36*
X28719145Y-33550000D02*
G01*
X27469145Y-33550000D01*
X27469145Y-32850000D01*
X28719145Y-32850000D01*
X28719145Y-33550000D01*
G37*
%TD*%
D11*
%TO.C,C7*%
X14209241Y-42320000D03*
X12484241Y-42320000D03*
%TD*%
D12*
%TO.C,R3*%
X8737500Y-42370000D03*
X10562500Y-42370000D03*
%TD*%
D13*
%TO.C,C4*%
X18575000Y-28000000D03*
X16500000Y-28000000D03*
%TD*%
D14*
%TO.C,U1*%
X26150000Y-20120000D03*
X26150000Y-18850000D03*
X26150000Y-17580000D03*
X26150000Y-16310000D03*
X26150000Y-15040000D03*
X26150000Y-13770000D03*
X26150000Y-12500000D03*
X26150000Y-11230000D03*
X26150000Y-9960000D03*
X26150000Y-8690000D03*
X26150000Y-7420000D03*
X26150000Y-6150000D03*
X26150000Y-4880000D03*
X26150000Y-3610000D03*
D15*
X24385000Y-2360000D03*
X23115000Y-2360000D03*
X21845000Y-2360000D03*
X20575000Y-2360000D03*
X19305000Y-2360000D03*
X18035000Y-2360000D03*
X16765000Y-2360000D03*
X15495000Y-2360000D03*
X14225000Y-2360000D03*
X12955000Y-2360000D03*
X11685000Y-2360000D03*
X10415000Y-2360000D03*
D14*
X8650000Y-3610000D03*
X8650000Y-4880000D03*
X8650000Y-6150000D03*
X8650000Y-7420000D03*
X8650000Y-8690000D03*
X8650000Y-9960000D03*
X8650000Y-11230000D03*
X8650000Y-12500000D03*
X8650000Y-13770000D03*
X8650000Y-15040000D03*
X8650000Y-16310000D03*
X8650000Y-17580000D03*
X8650000Y-18850000D03*
X8650000Y-20120000D03*
D16*
X20300000Y-13800000D03*
X18900000Y-13800000D03*
X17500000Y-13800000D03*
X20300000Y-12400000D03*
X18900000Y-12400000D03*
X17500000Y-12400000D03*
X20300000Y-11000000D03*
X18900000Y-11000000D03*
X17500000Y-11000000D03*
%TD*%
D17*
%TO.C,J4*%
X29000000Y-14000000D03*
D18*
X31000000Y-14000000D03*
X29000000Y-16000000D03*
X31000000Y-16000000D03*
X29000000Y-18000000D03*
X31000000Y-18000000D03*
X29000000Y-20000000D03*
X31000000Y-20000000D03*
X29000000Y-22000000D03*
X31000000Y-22000000D03*
%TD*%
D19*
%TO.C,D2*%
X10048754Y-49507225D03*
X8298754Y-49507225D03*
%TD*%
%TO.C,D4*%
X17909368Y-49507225D03*
X16159368Y-49507225D03*
%TD*%
D20*
%TO.C,J3*%
X29169145Y-32890000D03*
X29169145Y-27110000D03*
D21*
X28669145Y-34320000D03*
X28669145Y-25680000D03*
D22*
X32849145Y-34320000D03*
X32849145Y-25680000D03*
%TD*%
D23*
%TO.C,C5*%
X15750000Y-31887500D03*
X15750000Y-33612500D03*
%TD*%
D24*
%TO.C,J6*%
X2376741Y-37480000D03*
D25*
X2376741Y-40020000D03*
X2376741Y-42560000D03*
X2376741Y-45100000D03*
%TD*%
D26*
%TO.C,D5*%
X10596741Y-44112500D03*
X8696741Y-44112500D03*
X9646741Y-45987500D03*
%TD*%
D27*
%TO.C,R5*%
X20500000Y-29662500D03*
X20500000Y-27837500D03*
%TD*%
D23*
%TO.C,C3*%
X26149690Y-25870152D03*
X26149690Y-27595152D03*
%TD*%
D19*
%TO.C,D3*%
X25909368Y-49507225D03*
X24159368Y-49507225D03*
%TD*%
D12*
%TO.C,R7*%
X12136254Y-49507225D03*
X13961254Y-49507225D03*
%TD*%
D28*
%TO.C,C1*%
X23757500Y-22320000D03*
X25482500Y-22320000D03*
%TD*%
D29*
%TO.C,Q1*%
X22437500Y-26350000D03*
X22437500Y-24450000D03*
X20562500Y-25400000D03*
%TD*%
D12*
%TO.C,R1*%
X4801484Y-2756761D03*
X6626484Y-2756761D03*
%TD*%
%TO.C,R8*%
X20136254Y-49507225D03*
X21961254Y-49507225D03*
%TD*%
D30*
%TO.C,R13*%
X7199241Y-45350000D03*
X5374241Y-45350000D03*
%TD*%
D13*
%TO.C,C8*%
X14418886Y-44080000D03*
X12343886Y-44080000D03*
%TD*%
D31*
%TO.C,R4*%
X22480000Y-27837500D03*
X22480000Y-29662500D03*
%TD*%
D24*
%TO.C,J2*%
X2500000Y-26000000D03*
D25*
X2500000Y-23460000D03*
X2500000Y-20920000D03*
X2500000Y-18380000D03*
%TD*%
D13*
%TO.C,C2*%
X22087500Y-22560000D03*
X20012500Y-22560000D03*
%TD*%
D17*
%TO.C,J1*%
X3000000Y-11000000D03*
D18*
X5000000Y-11000000D03*
X3000000Y-13000000D03*
X5000000Y-13000000D03*
X3000000Y-15000000D03*
X5000000Y-15000000D03*
%TD*%
D32*
%TO.C,U2*%
X25900000Y-36550000D03*
X25900000Y-34250000D03*
D33*
X19600000Y-34250000D03*
D32*
X25900000Y-31950000D03*
%TD*%
D12*
%TO.C,R9*%
X28136254Y-49507225D03*
X29961254Y-49507225D03*
%TD*%
D24*
%TO.C,J_EXP1*%
X33500000Y-37500000D03*
D25*
X33500000Y-40040000D03*
X33500000Y-42580000D03*
X33500000Y-45120000D03*
X33500000Y-47660000D03*
X33500000Y-50200000D03*
%TD*%
D30*
%TO.C,R2*%
X29912500Y-2000000D03*
X28087500Y-2000000D03*
%TD*%
%TO.C,R6*%
X7239241Y-42370000D03*
X5414241Y-42370000D03*
%TD*%
D34*
%TO.C,D1*%
X14780000Y-28000000D03*
X11420000Y-28000000D03*
%TD*%
D35*
%TO.C,U3*%
X14045000Y-31037500D03*
X12775000Y-31037500D03*
X11505000Y-31037500D03*
X10235000Y-31037500D03*
X8965000Y-31037500D03*
X7695000Y-31037500D03*
X6425000Y-31037500D03*
X5155000Y-31037500D03*
X5155000Y-40317500D03*
X6425000Y-40317500D03*
X7695000Y-40317500D03*
X8965000Y-40317500D03*
X10235000Y-40317500D03*
X11505000Y-40317500D03*
X12775000Y-40317500D03*
X14045000Y-40317500D03*
%TD*%
M02*
