%TF.GenerationSoftware,KiCad,Pcbnew,9.0.7*%
%TF.CreationDate,2026-01-12T04:18:20+01:00*%
%TF.ProjectId,lsw5-esp32,6c737735-2d65-4737-9033-322e6b696361,p1*%
%TF.SameCoordinates,Original*%
%TF.FileFunction,Legend,Top*%
%TF.FilePolarity,Positive*%
%FSLAX46Y46*%
G04 Gerber Fmt 4.6, Leading zero omitted, Abs format (unit mm)*
G04 Created by KiCad (PCBNEW 9.0.7) date 2026-01-12 04:18:20*
%MOMM*%
%LPD*%
G01*
G04 APERTURE LIST*
%ADD10C,0.000000*%
%ADD11C,0.200000*%
%ADD12C,0.300000*%
%ADD13C,0.150000*%
%ADD14C,0.120000*%
%ADD15C,0.127000*%
G04 APERTURE END LIST*
D10*
G36*
X27281012Y-38708363D02*
G01*
X27296382Y-38708794D01*
X27311165Y-38709649D01*
X27325343Y-38710932D01*
X27338894Y-38712649D01*
X27351800Y-38714801D01*
X27358004Y-38716042D01*
X27364039Y-38717393D01*
X27373922Y-38719841D01*
X27383176Y-38722379D01*
X27391873Y-38725050D01*
X27400082Y-38727898D01*
X27407874Y-38730963D01*
X27415318Y-38734288D01*
X27422485Y-38737916D01*
X27429444Y-38741890D01*
X27436265Y-38746251D01*
X27443019Y-38751042D01*
X27449776Y-38756305D01*
X27456605Y-38762082D01*
X27463577Y-38768417D01*
X27470761Y-38775351D01*
X27478228Y-38782927D01*
X27486047Y-38791187D01*
X27499784Y-38807453D01*
X27513569Y-38826712D01*
X27527339Y-38848792D01*
X27541032Y-38873521D01*
X27554585Y-38900726D01*
X27567936Y-38930236D01*
X27581021Y-38961877D01*
X27593779Y-38995477D01*
X27606146Y-39030865D01*
X27618061Y-39067868D01*
X27629459Y-39106314D01*
X27640280Y-39146030D01*
X27650459Y-39186844D01*
X27659935Y-39228584D01*
X27668645Y-39271078D01*
X27676526Y-39314153D01*
X27695952Y-39434960D01*
X27712226Y-39552860D01*
X27725303Y-39667237D01*
X27735135Y-39777481D01*
X27741674Y-39882977D01*
X27744875Y-39983113D01*
X27744689Y-40077275D01*
X27741070Y-40164850D01*
X27732224Y-40285463D01*
X27721384Y-40401310D01*
X27708661Y-40511655D01*
X27694168Y-40615762D01*
X27678015Y-40712895D01*
X27660314Y-40802317D01*
X27641177Y-40883293D01*
X27631105Y-40920384D01*
X27620716Y-40955086D01*
X27580000Y-41083215D01*
X27563892Y-41132019D01*
X27548288Y-41177236D01*
X27531445Y-41223807D01*
X27511617Y-41276673D01*
X27456023Y-41421053D01*
X27439053Y-41466057D01*
X27432236Y-41485509D01*
X27426495Y-41503355D01*
X27421802Y-41519916D01*
X27418129Y-41535512D01*
X27415451Y-41550465D01*
X27413738Y-41565093D01*
X27412964Y-41579719D01*
X27413101Y-41594662D01*
X27414123Y-41610244D01*
X27416000Y-41626784D01*
X27418707Y-41644603D01*
X27422216Y-41664022D01*
X27431528Y-41708942D01*
X27462268Y-41855302D01*
X27488417Y-41990362D01*
X27499688Y-42053207D01*
X27509712Y-42112689D01*
X27518457Y-42168629D01*
X27525889Y-42220849D01*
X27533607Y-42276077D01*
X27541024Y-42325363D01*
X27544355Y-42346099D01*
X27547294Y-42363333D01*
X27549735Y-42376395D01*
X27551572Y-42384611D01*
X27552796Y-42389069D01*
X27553941Y-42393000D01*
X27555041Y-42396432D01*
X27556131Y-42399392D01*
X27556683Y-42400704D01*
X27557246Y-42401909D01*
X27557824Y-42403010D01*
X27558421Y-42404011D01*
X27559042Y-42404915D01*
X27559691Y-42405726D01*
X27560372Y-42406447D01*
X27561090Y-42407082D01*
X27561849Y-42407634D01*
X27562654Y-42408107D01*
X27563508Y-42408505D01*
X27564417Y-42408830D01*
X27565384Y-42409086D01*
X27566414Y-42409278D01*
X27567511Y-42409408D01*
X27568680Y-42409479D01*
X27569925Y-42409497D01*
X27571250Y-42409463D01*
X27574158Y-42409255D01*
X27577440Y-42408886D01*
X27581131Y-42408383D01*
X27587040Y-42407203D01*
X27595317Y-42405064D01*
X27605585Y-42402089D01*
X27617465Y-42398396D01*
X27630577Y-42394108D01*
X27644544Y-42389344D01*
X27658987Y-42384227D01*
X27673528Y-42378876D01*
X27779713Y-42341574D01*
X27893712Y-42306196D01*
X28013105Y-42273295D01*
X28135469Y-42243426D01*
X28258385Y-42217142D01*
X28379432Y-42194999D01*
X28496189Y-42177550D01*
X28606236Y-42165349D01*
X28719372Y-42156598D01*
X28830988Y-42150580D01*
X28941522Y-42147299D01*
X29051413Y-42146755D01*
X29161099Y-42148952D01*
X29271019Y-42153893D01*
X29381611Y-42161579D01*
X29493314Y-42172015D01*
X29578833Y-42182485D01*
X29667363Y-42196058D01*
X29756541Y-42212207D01*
X29844002Y-42230409D01*
X29927382Y-42250139D01*
X30004318Y-42270872D01*
X30072445Y-42292082D01*
X30102466Y-42302703D01*
X30129399Y-42313246D01*
X30135651Y-42315954D01*
X30141483Y-42318705D01*
X30146852Y-42321457D01*
X30151712Y-42324165D01*
X30156019Y-42326786D01*
X30159729Y-42329278D01*
X30161346Y-42330461D01*
X30162798Y-42331596D01*
X30164078Y-42332677D01*
X30165181Y-42333699D01*
X30166102Y-42334655D01*
X30166835Y-42335541D01*
X30167374Y-42336352D01*
X30167714Y-42337081D01*
X30167850Y-42337724D01*
X30167839Y-42338011D01*
X30167775Y-42338274D01*
X30167658Y-42338514D01*
X30167485Y-42338728D01*
X30166974Y-42339078D01*
X30166236Y-42339321D01*
X30165265Y-42339450D01*
X30164057Y-42339459D01*
X30162605Y-42339345D01*
X30160905Y-42339100D01*
X30158950Y-42338721D01*
X30156735Y-42338200D01*
X30154255Y-42337534D01*
X30116783Y-42328556D01*
X30063198Y-42317961D01*
X29997423Y-42306362D01*
X29923381Y-42294370D01*
X29766193Y-42271651D01*
X29690893Y-42262148D01*
X29623021Y-42254697D01*
X29564027Y-42250787D01*
X29482180Y-42247984D01*
X29384875Y-42246291D01*
X29279506Y-42245710D01*
X29173467Y-42246243D01*
X29074155Y-42247891D01*
X28988963Y-42250659D01*
X28925287Y-42254547D01*
X28821643Y-42264816D01*
X28711552Y-42277533D01*
X28611176Y-42290708D01*
X28569682Y-42296844D01*
X28536680Y-42302348D01*
X28485664Y-42311522D01*
X28442628Y-42319091D01*
X28418754Y-42323783D01*
X28385554Y-42331149D01*
X28300099Y-42351680D01*
X28204105Y-42376252D01*
X28115413Y-42400430D01*
X28075750Y-42412171D01*
X28032926Y-42425675D01*
X27988050Y-42440548D01*
X27942232Y-42456401D01*
X27896580Y-42472840D01*
X27852204Y-42489475D01*
X27810212Y-42505914D01*
X27771713Y-42521766D01*
X27749544Y-42531721D01*
X27723125Y-42544450D01*
X27694391Y-42558926D01*
X27665276Y-42574121D01*
X27637716Y-42589008D01*
X27613646Y-42602561D01*
X27595000Y-42613752D01*
X27588316Y-42618140D01*
X27583714Y-42621553D01*
X27561338Y-42640053D01*
X27558960Y-42753793D01*
X27558601Y-42777339D01*
X27558523Y-42799295D01*
X27558714Y-42819240D01*
X27559156Y-42836754D01*
X27559836Y-42851417D01*
X27560260Y-42857548D01*
X27560738Y-42862808D01*
X27561267Y-42867146D01*
X27561846Y-42870508D01*
X27562473Y-42872842D01*
X27562804Y-42873607D01*
X27563147Y-42874096D01*
X27564366Y-42874774D01*
X27566490Y-42875293D01*
X27569495Y-42875655D01*
X27573357Y-42875860D01*
X27583554Y-42875810D01*
X27596888Y-42875156D01*
X27613164Y-42873911D01*
X27632189Y-42872087D01*
X27653770Y-42869699D01*
X27677714Y-42866758D01*
X27747721Y-42858472D01*
X27816090Y-42851806D01*
X27883340Y-42846737D01*
X27949993Y-42843243D01*
X28016569Y-42841303D01*
X28083588Y-42840895D01*
X28151571Y-42841998D01*
X28221039Y-42844589D01*
X28317029Y-42849728D01*
X28405474Y-42855836D01*
X28488822Y-42863212D01*
X28569521Y-42872157D01*
X28650020Y-42882973D01*
X28732766Y-42895959D01*
X28820209Y-42911418D01*
X28914795Y-42929648D01*
X28965090Y-42939969D01*
X29018214Y-42951402D01*
X29123844Y-42975451D01*
X29171797Y-42986991D01*
X29213472Y-42997489D01*
X29246593Y-43006408D01*
X29268883Y-43013209D01*
X29279848Y-43016751D01*
X29296739Y-43021924D01*
X29317247Y-43028036D01*
X29339059Y-43034396D01*
X29387779Y-43048680D01*
X29432878Y-43062463D01*
X29476093Y-43076351D01*
X29519162Y-43090948D01*
X29563822Y-43106856D01*
X29611810Y-43124681D01*
X29724721Y-43168496D01*
X29770641Y-43187504D01*
X29823266Y-43210721D01*
X29880071Y-43236920D01*
X29938531Y-43264873D01*
X29996122Y-43293353D01*
X30050321Y-43321131D01*
X30098602Y-43346980D01*
X30138441Y-43369673D01*
X30159974Y-43382444D01*
X30179722Y-43394068D01*
X30195495Y-43403261D01*
X30205105Y-43408740D01*
X30211861Y-43412555D01*
X30218927Y-43416711D01*
X30226199Y-43421137D01*
X30233575Y-43425759D01*
X30248227Y-43435306D01*
X30262060Y-43444773D01*
X30268413Y-43449296D01*
X30274252Y-43453582D01*
X30279475Y-43457560D01*
X30283978Y-43461157D01*
X30287661Y-43464300D01*
X30290418Y-43466918D01*
X30292148Y-43468937D01*
X30292595Y-43469701D01*
X30292747Y-43470287D01*
X30292522Y-43471762D01*
X30291854Y-43472987D01*
X30290755Y-43473964D01*
X30289236Y-43474699D01*
X30284985Y-43475456D01*
X30279195Y-43475290D01*
X30271957Y-43474231D01*
X30263365Y-43472312D01*
X30253511Y-43469563D01*
X30242487Y-43466017D01*
X30230386Y-43461705D01*
X30217301Y-43456658D01*
X30188547Y-43444487D01*
X30156967Y-43429757D01*
X30123300Y-43412720D01*
X30102422Y-43402508D01*
X30069619Y-43387338D01*
X29982955Y-43348603D01*
X29892748Y-43309473D01*
X29855515Y-43293810D01*
X29828435Y-43282908D01*
X29766481Y-43259560D01*
X29706242Y-43237874D01*
X29645532Y-43217165D01*
X29582164Y-43196749D01*
X29513953Y-43175941D01*
X29438712Y-43154056D01*
X29258392Y-43104315D01*
X29194228Y-43088836D01*
X29116461Y-43073025D01*
X29028475Y-43057384D01*
X28933651Y-43042417D01*
X28835372Y-43028627D01*
X28737020Y-43016519D01*
X28641978Y-43006595D01*
X28553629Y-42999360D01*
X28500047Y-42996463D01*
X28438311Y-42994395D01*
X28371387Y-42993155D01*
X28302243Y-42992742D01*
X28233845Y-42993157D01*
X28169162Y-42994398D01*
X28111160Y-42996466D01*
X28062806Y-42999360D01*
X28001179Y-43005245D01*
X27931200Y-43013727D01*
X27856999Y-43024127D01*
X27782705Y-43035763D01*
X27712447Y-43047955D01*
X27650354Y-43060023D01*
X27600555Y-43071284D01*
X27581555Y-43076401D01*
X27567178Y-43081060D01*
X27562232Y-43082916D01*
X27557865Y-43084636D01*
X27554034Y-43086280D01*
X27550695Y-43087908D01*
X27547805Y-43089579D01*
X27546515Y-43090450D01*
X27545321Y-43091355D01*
X27544217Y-43092300D01*
X27543199Y-43093294D01*
X27542261Y-43094343D01*
X27541397Y-43095456D01*
X27540602Y-43096640D01*
X27539871Y-43097902D01*
X27539198Y-43099249D01*
X27538577Y-43100690D01*
X27538004Y-43102232D01*
X27537473Y-43103882D01*
X27536515Y-43107537D01*
X27535660Y-43111714D01*
X27534864Y-43116475D01*
X27533278Y-43127982D01*
X27530137Y-43149907D01*
X27525015Y-43182937D01*
X27511677Y-43264408D01*
X27505097Y-43304405D01*
X27499707Y-43339120D01*
X27497633Y-43353336D01*
X27496065Y-43364837D01*
X27495074Y-43373160D01*
X27494728Y-43377838D01*
X27494830Y-43379713D01*
X27495152Y-43381459D01*
X27495715Y-43383089D01*
X27496541Y-43384613D01*
X27497653Y-43386044D01*
X27499072Y-43387392D01*
X27500821Y-43388668D01*
X27502922Y-43389884D01*
X27505396Y-43391052D01*
X27508266Y-43392183D01*
X27511554Y-43393287D01*
X27515282Y-43394377D01*
X27519473Y-43395464D01*
X27524147Y-43396559D01*
X27535035Y-43398818D01*
X27607036Y-43413542D01*
X27679747Y-43429773D01*
X27752327Y-43447285D01*
X27823933Y-43465852D01*
X27893723Y-43485247D01*
X27960857Y-43505246D01*
X28024492Y-43525621D01*
X28083787Y-43546148D01*
X28145898Y-43568422D01*
X28168802Y-43576527D01*
X28181973Y-43581081D01*
X28192930Y-43585044D01*
X28209804Y-43591544D01*
X28230293Y-43599685D01*
X28252098Y-43608573D01*
X28262771Y-43612938D01*
X28272939Y-43617012D01*
X28282363Y-43620705D01*
X28290807Y-43623928D01*
X28298033Y-43626590D01*
X28303803Y-43628605D01*
X28307880Y-43629880D01*
X28309210Y-43630214D01*
X28310027Y-43630329D01*
X28313895Y-43631209D01*
X28321264Y-43633725D01*
X28345055Y-43643033D01*
X28418678Y-43674308D01*
X28507648Y-43714005D01*
X28588718Y-43751975D01*
X28669273Y-43792030D01*
X28753204Y-43835298D01*
X28832019Y-43877329D01*
X28866855Y-43896489D01*
X28897226Y-43913671D01*
X28951461Y-43945929D01*
X29012279Y-43983874D01*
X29077548Y-44026064D01*
X29145138Y-44071062D01*
X29212915Y-44117428D01*
X29278749Y-44163722D01*
X29340508Y-44208507D01*
X29396059Y-44250342D01*
X29426710Y-44274599D01*
X29460433Y-44302405D01*
X29534311Y-44366019D01*
X29612117Y-44435904D01*
X29688279Y-44506779D01*
X29757219Y-44573363D01*
X29813365Y-44630373D01*
X29834897Y-44653639D01*
X29851140Y-44672531D01*
X29861397Y-44686389D01*
X29864063Y-44691224D01*
X29864971Y-44694553D01*
X29864956Y-44696060D01*
X29864911Y-44697527D01*
X29864839Y-44698948D01*
X29864741Y-44700316D01*
X29864617Y-44701625D01*
X29864470Y-44702868D01*
X29864301Y-44704037D01*
X29864111Y-44705128D01*
X29863902Y-44706133D01*
X29863675Y-44707045D01*
X29863432Y-44707858D01*
X29863174Y-44708566D01*
X29862902Y-44709162D01*
X29862762Y-44709416D01*
X29862618Y-44709639D01*
X29862472Y-44709831D01*
X29862324Y-44709991D01*
X29862173Y-44710117D01*
X29862021Y-44710211D01*
X29862002Y-44710213D01*
X29861985Y-44710215D01*
X29861968Y-44710219D01*
X29861951Y-44710222D01*
X29861936Y-44710226D01*
X29861921Y-44710230D01*
X29861907Y-44710234D01*
X29861894Y-44710238D01*
X29861870Y-44710246D01*
X29861850Y-44710253D01*
X29861833Y-44710259D01*
X29861827Y-44710261D01*
X29861821Y-44710262D01*
X29861811Y-44710263D01*
X29861802Y-44710264D01*
X29861793Y-44710265D01*
X29861785Y-44710266D01*
X29861776Y-44710267D01*
X29861768Y-44710269D01*
X29861751Y-44710272D01*
X29861736Y-44710276D01*
X29861721Y-44710281D01*
X29861707Y-44710285D01*
X29861694Y-44710290D01*
X29861650Y-44710307D01*
X29861641Y-44710310D01*
X29861633Y-44710312D01*
X29861627Y-44710314D01*
X29861624Y-44710314D01*
X29861621Y-44710314D01*
X29856351Y-44707085D01*
X29843307Y-44697487D01*
X29794583Y-44659727D01*
X29716824Y-44598117D01*
X29611404Y-44513737D01*
X29523176Y-44443961D01*
X29439728Y-44380337D01*
X29359262Y-44321654D01*
X29279979Y-44266700D01*
X29200083Y-44214260D01*
X29117774Y-44163125D01*
X29031257Y-44112080D01*
X28938732Y-44059915D01*
X28878127Y-44027036D01*
X28816823Y-43994945D01*
X28756073Y-43964240D01*
X28697129Y-43935518D01*
X28641241Y-43909379D01*
X28589663Y-43886420D01*
X28543647Y-43867239D01*
X28504443Y-43852434D01*
X28487766Y-43846424D01*
X28465684Y-43838245D01*
X28441071Y-43828971D01*
X28416800Y-43819671D01*
X28326220Y-43785666D01*
X28236834Y-43754224D01*
X28148464Y-43725293D01*
X28060928Y-43698821D01*
X27974049Y-43674756D01*
X27887646Y-43653046D01*
X27801540Y-43633638D01*
X27715551Y-43616479D01*
X27547241Y-43584750D01*
X27525906Y-43580716D01*
X27504102Y-43576739D01*
X27484386Y-43573279D01*
X27469313Y-43570798D01*
X27440426Y-43566353D01*
X27428333Y-43603612D01*
X27402319Y-43679516D01*
X27372918Y-43757632D01*
X27340646Y-43836819D01*
X27306020Y-43915937D01*
X27269555Y-43993844D01*
X27231768Y-44069401D01*
X27193176Y-44141466D01*
X27154293Y-44208898D01*
X27132433Y-44244394D01*
X27104924Y-44287692D01*
X27042140Y-44383848D01*
X26984298Y-44469669D01*
X26962967Y-44500048D01*
X26949757Y-44517458D01*
X26929161Y-44543017D01*
X26888107Y-44594611D01*
X26867160Y-44620180D01*
X26842949Y-44648254D01*
X26786444Y-44710254D01*
X26721998Y-44777285D01*
X26653019Y-44846018D01*
X26582915Y-44913126D01*
X26515092Y-44975282D01*
X26452958Y-45029159D01*
X26425089Y-45051953D01*
X26399920Y-45071429D01*
X26371496Y-45092886D01*
X26329536Y-45124759D01*
X26265838Y-45171686D01*
X26199777Y-45216925D01*
X26128591Y-45262053D01*
X26049515Y-45308644D01*
X25959785Y-45358276D01*
X25856638Y-45412523D01*
X25737311Y-45472962D01*
X25599038Y-45541168D01*
X25584868Y-45548538D01*
X25571622Y-45556352D01*
X25559299Y-45564614D01*
X25547898Y-45573328D01*
X25537415Y-45582494D01*
X25527850Y-45592117D01*
X25519200Y-45602200D01*
X25511462Y-45612744D01*
X25504636Y-45623753D01*
X25498720Y-45635231D01*
X25493710Y-45647178D01*
X25489605Y-45659600D01*
X25486404Y-45672498D01*
X25484103Y-45685875D01*
X25482702Y-45699734D01*
X25482198Y-45714078D01*
X25482324Y-45724141D01*
X25482812Y-45733273D01*
X25483708Y-45741522D01*
X25484324Y-45745330D01*
X25485058Y-45748936D01*
X25485917Y-45752346D01*
X25486907Y-45755565D01*
X25488032Y-45758600D01*
X25489298Y-45761458D01*
X25490712Y-45764143D01*
X25492279Y-45766662D01*
X25494004Y-45769022D01*
X25495894Y-45771228D01*
X25497953Y-45773286D01*
X25500187Y-45775203D01*
X25502603Y-45776985D01*
X25505205Y-45778637D01*
X25507999Y-45780166D01*
X25510992Y-45781579D01*
X25514188Y-45782880D01*
X25517593Y-45784077D01*
X25521213Y-45785175D01*
X25525054Y-45786180D01*
X25533420Y-45787938D01*
X25542735Y-45789398D01*
X25553046Y-45790610D01*
X25617716Y-45792487D01*
X25760735Y-45794223D01*
X26197297Y-45796501D01*
X26420342Y-45796698D01*
X26599457Y-45796020D01*
X26741094Y-45794201D01*
X26799874Y-45792782D01*
X26851702Y-45790977D01*
X26897386Y-45788756D01*
X26937731Y-45786083D01*
X26973544Y-45782926D01*
X27005632Y-45779253D01*
X27034799Y-45775029D01*
X27061854Y-45770222D01*
X27087601Y-45764799D01*
X27112848Y-45758726D01*
X27127844Y-45754806D01*
X27141694Y-45750919D01*
X27154526Y-45746990D01*
X27166471Y-45742945D01*
X27177659Y-45738707D01*
X27188219Y-45734204D01*
X27198282Y-45729359D01*
X27207978Y-45724098D01*
X27217437Y-45718346D01*
X27226788Y-45712029D01*
X27236162Y-45705071D01*
X27245690Y-45697399D01*
X27255500Y-45688936D01*
X27265723Y-45679608D01*
X27276488Y-45669341D01*
X27287927Y-45658060D01*
X27302180Y-45643431D01*
X27308585Y-45636504D01*
X27314598Y-45629705D01*
X27320285Y-45622936D01*
X27325714Y-45616100D01*
X27330951Y-45609097D01*
X27336064Y-45601831D01*
X27341118Y-45594203D01*
X27346180Y-45586116D01*
X27351319Y-45577472D01*
X27356599Y-45568172D01*
X27367854Y-45547215D01*
X27380479Y-45522461D01*
X27389630Y-45503609D01*
X27399045Y-45483118D01*
X27408455Y-45461642D01*
X27417591Y-45439840D01*
X27426183Y-45418365D01*
X27433962Y-45397875D01*
X27440659Y-45379025D01*
X27446005Y-45362472D01*
X27454503Y-45335165D01*
X27462746Y-45310795D01*
X27470934Y-45289198D01*
X27479270Y-45270212D01*
X27483557Y-45261648D01*
X27487956Y-45253677D01*
X27492493Y-45246277D01*
X27497194Y-45239428D01*
X27502083Y-45233111D01*
X27507185Y-45227306D01*
X27512526Y-45221991D01*
X27518132Y-45217147D01*
X27524027Y-45212753D01*
X27530236Y-45208790D01*
X27536785Y-45205236D01*
X27543700Y-45202072D01*
X27551004Y-45199278D01*
X27558725Y-45196833D01*
X27566886Y-45194717D01*
X27575513Y-45192909D01*
X27594266Y-45190139D01*
X27615187Y-45188362D01*
X27638477Y-45187414D01*
X27664338Y-45187134D01*
X27690002Y-45187862D01*
X27713138Y-45190127D01*
X27723777Y-45191873D01*
X27733809Y-45194048D01*
X27743241Y-45196667D01*
X27752082Y-45199745D01*
X27760339Y-45203296D01*
X27768020Y-45207337D01*
X27775134Y-45211881D01*
X27781690Y-45216943D01*
X27787694Y-45222539D01*
X27793155Y-45228684D01*
X27798082Y-45235392D01*
X27802482Y-45242678D01*
X27806363Y-45250558D01*
X27809735Y-45259046D01*
X27812604Y-45268158D01*
X27814978Y-45277907D01*
X27816867Y-45288309D01*
X27818278Y-45299380D01*
X27819699Y-45323585D01*
X27819306Y-45350641D01*
X27817165Y-45380669D01*
X27813339Y-45413787D01*
X27807895Y-45450115D01*
X27791427Y-45560404D01*
X27768001Y-45727101D01*
X27743957Y-45898966D01*
X27725988Y-46021657D01*
X27706133Y-46152511D01*
X27690668Y-46261232D01*
X27684902Y-46304959D01*
X27680616Y-46340353D01*
X27677939Y-46366481D01*
X27676999Y-46382409D01*
X27676901Y-46384817D01*
X27676627Y-46387748D01*
X27675584Y-46395020D01*
X27673942Y-46403901D01*
X27671773Y-46414067D01*
X27669149Y-46425195D01*
X27666143Y-46436961D01*
X27662827Y-46449041D01*
X27659273Y-46461113D01*
X27656527Y-46469954D01*
X27653888Y-46478075D01*
X27651309Y-46485557D01*
X27648747Y-46492480D01*
X27646156Y-46498922D01*
X27643490Y-46504965D01*
X27640704Y-46510689D01*
X27637754Y-46516172D01*
X27634594Y-46521496D01*
X27631178Y-46526740D01*
X27627462Y-46531984D01*
X27623400Y-46537308D01*
X27618947Y-46542792D01*
X27614058Y-46548516D01*
X27608688Y-46554560D01*
X27602791Y-46561004D01*
X27593673Y-46570453D01*
X27584257Y-46579430D01*
X27574552Y-46587930D01*
X27564567Y-46595948D01*
X27554312Y-46603480D01*
X27543795Y-46610521D01*
X27533026Y-46617065D01*
X27522015Y-46623108D01*
X27510770Y-46628646D01*
X27499302Y-46633672D01*
X27487619Y-46638183D01*
X27475732Y-46642173D01*
X27463648Y-46645638D01*
X27451378Y-46648573D01*
X27438931Y-46650973D01*
X27426316Y-46652833D01*
X27011339Y-46659324D01*
X26171650Y-46663373D01*
X25339550Y-46663817D01*
X24947345Y-46659498D01*
X24940894Y-46657707D01*
X24934576Y-46655620D01*
X24922352Y-46650575D01*
X24910702Y-46644406D01*
X24899656Y-46637154D01*
X24889241Y-46628862D01*
X24879487Y-46619572D01*
X24870422Y-46609324D01*
X24862076Y-46598162D01*
X24854477Y-46586127D01*
X24847653Y-46573261D01*
X24841634Y-46559606D01*
X24836448Y-46545203D01*
X24832124Y-46530095D01*
X24828692Y-46514323D01*
X24826178Y-46497929D01*
X24824614Y-46480956D01*
X24824226Y-46469522D01*
X24824310Y-46455815D01*
X24824832Y-46440350D01*
X24825758Y-46423645D01*
X24827055Y-46406216D01*
X24828688Y-46388582D01*
X24830625Y-46371258D01*
X24832831Y-46354762D01*
X24849968Y-46228166D01*
X24875309Y-46032146D01*
X24900573Y-45835119D01*
X24917528Y-45706068D01*
X24942023Y-45522410D01*
X24947189Y-45485116D01*
X24952555Y-45450639D01*
X24958065Y-45419230D01*
X24963666Y-45391143D01*
X24966484Y-45378423D01*
X24969304Y-45366628D01*
X24972120Y-45355790D01*
X24974925Y-45345940D01*
X24977712Y-45337109D01*
X24980474Y-45329329D01*
X24983204Y-45322632D01*
X24985897Y-45317048D01*
X24991060Y-45308077D01*
X24996919Y-45299250D01*
X25003474Y-45290565D01*
X25010727Y-45282023D01*
X25018677Y-45273622D01*
X25027327Y-45265363D01*
X25036676Y-45257244D01*
X25046726Y-45249264D01*
X25057477Y-45241424D01*
X25068931Y-45233723D01*
X25081088Y-45226159D01*
X25093949Y-45218733D01*
X25107515Y-45211444D01*
X25121786Y-45204290D01*
X25136764Y-45197273D01*
X25152450Y-45190390D01*
X25183497Y-45175887D01*
X25219962Y-45156604D01*
X25260774Y-45133211D01*
X25304863Y-45106374D01*
X25351159Y-45076762D01*
X25398591Y-45045041D01*
X25446089Y-45011881D01*
X25492584Y-44977948D01*
X25505463Y-44967936D01*
X25520290Y-44955734D01*
X25554585Y-44925914D01*
X25593068Y-44890796D01*
X25633339Y-44852690D01*
X25672998Y-44813905D01*
X25709645Y-44776750D01*
X25740878Y-44743535D01*
X25753715Y-44729127D01*
X25764299Y-44716569D01*
X25786208Y-44689796D01*
X25811789Y-44658846D01*
X25828535Y-44637518D01*
X25847137Y-44611714D01*
X25888592Y-44549036D01*
X25933517Y-44475530D01*
X25979279Y-44395914D01*
X26023240Y-44314906D01*
X26062767Y-44237225D01*
X26095222Y-44167589D01*
X26107975Y-44137261D01*
X26117972Y-44110715D01*
X26156988Y-43998525D01*
X26178926Y-43932119D01*
X26199928Y-43861828D01*
X26219866Y-43788188D01*
X26238616Y-43711738D01*
X26256050Y-43633015D01*
X26272044Y-43552557D01*
X26286469Y-43470902D01*
X26299202Y-43388588D01*
X26316484Y-43243681D01*
X26328371Y-43089340D01*
X26334893Y-42928628D01*
X26336076Y-42764608D01*
X26331949Y-42600345D01*
X26322540Y-42438901D01*
X26307877Y-42283341D01*
X26287988Y-42136727D01*
X26269605Y-42031858D01*
X26247662Y-41924573D01*
X26222739Y-41817011D01*
X26195418Y-41711310D01*
X26166281Y-41609609D01*
X26135910Y-41514048D01*
X26104885Y-41426766D01*
X26089310Y-41386898D01*
X26073789Y-41349901D01*
X26034566Y-41260139D01*
X26021437Y-41231166D01*
X26006766Y-41200605D01*
X25973444Y-41135785D01*
X25935888Y-41067813D01*
X25895386Y-40998819D01*
X25853225Y-40930936D01*
X25810694Y-40866294D01*
X25769082Y-40807025D01*
X25749022Y-40780071D01*
X25729675Y-40755261D01*
X25715373Y-40737939D01*
X25698698Y-40718682D01*
X25659456Y-40675577D01*
X25614400Y-40628379D01*
X25565983Y-40579520D01*
X25516656Y-40531431D01*
X25468871Y-40486545D01*
X25425079Y-40447293D01*
X25405446Y-40430540D01*
X25387732Y-40416108D01*
X25339066Y-40378680D01*
X25290099Y-40343133D01*
X25240819Y-40309461D01*
X25191217Y-40277661D01*
X25141281Y-40247726D01*
X25091001Y-40219653D01*
X25040365Y-40193436D01*
X24989364Y-40169070D01*
X24937986Y-40146551D01*
X24886221Y-40125874D01*
X24834059Y-40107034D01*
X24781487Y-40090025D01*
X24728497Y-40074844D01*
X24675076Y-40061485D01*
X24621215Y-40049943D01*
X24566903Y-40040214D01*
X24495331Y-40030200D01*
X24419530Y-40022451D01*
X24341492Y-40017014D01*
X24263208Y-40013939D01*
X24186670Y-40013273D01*
X24113870Y-40015064D01*
X24046801Y-40019360D01*
X24016038Y-40022463D01*
X23987455Y-40026210D01*
X23926687Y-40035410D01*
X23875468Y-40043656D01*
X23831209Y-40051504D01*
X23791322Y-40059508D01*
X23753217Y-40068224D01*
X23714305Y-40078205D01*
X23671997Y-40090009D01*
X23623704Y-40104189D01*
X23579059Y-40118114D01*
X23534747Y-40133153D01*
X23490788Y-40149296D01*
X23447205Y-40166532D01*
X23404018Y-40184849D01*
X23361247Y-40204236D01*
X23318914Y-40224683D01*
X23277039Y-40246178D01*
X23235644Y-40268711D01*
X23194750Y-40292270D01*
X23154376Y-40316844D01*
X23114544Y-40342422D01*
X23075276Y-40368993D01*
X23036591Y-40396547D01*
X22998512Y-40425071D01*
X22961057Y-40454555D01*
X22927322Y-40483302D01*
X22887408Y-40519784D01*
X22843590Y-40561710D01*
X22798139Y-40606787D01*
X22753329Y-40652724D01*
X22711433Y-40697230D01*
X22674722Y-40738012D01*
X22645469Y-40772779D01*
X22621995Y-40802959D01*
X22598307Y-40834974D01*
X22550710Y-40903768D01*
X22503524Y-40977683D01*
X22457593Y-41055241D01*
X22413762Y-41134963D01*
X22372876Y-41215370D01*
X22335780Y-41294985D01*
X22303320Y-41372329D01*
X22267938Y-41467902D01*
X22235587Y-41567744D01*
X22206084Y-41672661D01*
X22179250Y-41783456D01*
X22154901Y-41900935D01*
X22132858Y-42025902D01*
X22112938Y-42159163D01*
X22094960Y-42301523D01*
X22091554Y-42340410D01*
X22087691Y-42399640D01*
X22083845Y-42471164D01*
X22080491Y-42546934D01*
X22076994Y-42718062D01*
X22080231Y-42885142D01*
X22084425Y-42967553D01*
X22090362Y-43049419D01*
X22098063Y-43130895D01*
X22107546Y-43212138D01*
X22118832Y-43293302D01*
X22131941Y-43374544D01*
X22146893Y-43456018D01*
X22163707Y-43537881D01*
X22203004Y-43703396D01*
X22249989Y-43872331D01*
X22266396Y-43926636D01*
X22281436Y-43974195D01*
X22296031Y-44017447D01*
X22311107Y-44058833D01*
X22327586Y-44100789D01*
X22346393Y-44145757D01*
X22368451Y-44196173D01*
X22394684Y-44254478D01*
X22413119Y-44292317D01*
X22436768Y-44336573D01*
X22464342Y-44385134D01*
X22494558Y-44435885D01*
X22526129Y-44486715D01*
X22557770Y-44535509D01*
X22588194Y-44580155D01*
X22616117Y-44618539D01*
X22636176Y-44644433D01*
X22657055Y-44670398D01*
X22678671Y-44696351D01*
X22700942Y-44722208D01*
X22723785Y-44747885D01*
X22747116Y-44773298D01*
X22794912Y-44823000D01*
X22819212Y-44847121D01*
X22843669Y-44870644D01*
X22868200Y-44893486D01*
X22892722Y-44915561D01*
X22917153Y-44936788D01*
X22941409Y-44957082D01*
X22965408Y-44976359D01*
X22989066Y-44994537D01*
X23015210Y-45014040D01*
X23038655Y-45031281D01*
X23059897Y-45046605D01*
X23079430Y-45060355D01*
X23097747Y-45072872D01*
X23115343Y-45084502D01*
X23132712Y-45095586D01*
X23150348Y-45106468D01*
X23172968Y-45120371D01*
X23193081Y-45133028D01*
X23201512Y-45138452D01*
X23208493Y-45143038D01*
X23213751Y-45146612D01*
X23217011Y-45148998D01*
X23220769Y-45151572D01*
X23227457Y-45155686D01*
X23248126Y-45167683D01*
X23276026Y-45183295D01*
X23308168Y-45200830D01*
X23323775Y-45209374D01*
X23338113Y-45217515D01*
X23351263Y-45225329D01*
X23363306Y-45232889D01*
X23374325Y-45240270D01*
X23384402Y-45247547D01*
X23393618Y-45254792D01*
X23402056Y-45262082D01*
X23409798Y-45269490D01*
X23416924Y-45277090D01*
X23423518Y-45284957D01*
X23429661Y-45293166D01*
X23435435Y-45301790D01*
X23440922Y-45310904D01*
X23446204Y-45320583D01*
X23451363Y-45330900D01*
X23457771Y-45345145D01*
X23463379Y-45359957D01*
X23468436Y-45376461D01*
X23473193Y-45395782D01*
X23477898Y-45419047D01*
X23482802Y-45447380D01*
X23488153Y-45481908D01*
X23494203Y-45523756D01*
X23507159Y-45613676D01*
X23522315Y-45716613D01*
X23537331Y-45821592D01*
X23544397Y-45873561D01*
X23549962Y-45916446D01*
X23570524Y-46070203D01*
X23609855Y-46345774D01*
X23613991Y-46375737D01*
X23617383Y-46403328D01*
X23620014Y-46428690D01*
X23621868Y-46451965D01*
X23622929Y-46473294D01*
X23623179Y-46492821D01*
X23622995Y-46501953D01*
X23622602Y-46510687D01*
X23621998Y-46519041D01*
X23621181Y-46527033D01*
X23620150Y-46534682D01*
X23618901Y-46542003D01*
X23617433Y-46549016D01*
X23615743Y-46555738D01*
X23613830Y-46562187D01*
X23611692Y-46568381D01*
X23609326Y-46574337D01*
X23606731Y-46580073D01*
X23603904Y-46585607D01*
X23600843Y-46590956D01*
X23597547Y-46596139D01*
X23594012Y-46601173D01*
X23590238Y-46606076D01*
X23586221Y-46610865D01*
X23581961Y-46615560D01*
X23577454Y-46620176D01*
X23571195Y-46626136D01*
X23564918Y-46631629D01*
X23558572Y-46636673D01*
X23552110Y-46641285D01*
X23545482Y-46645485D01*
X23538642Y-46649292D01*
X23531540Y-46652722D01*
X23524128Y-46655795D01*
X23516357Y-46658530D01*
X23508179Y-46660944D01*
X23499545Y-46663056D01*
X23490408Y-46664885D01*
X23480718Y-46666449D01*
X23470427Y-46667766D01*
X23459487Y-46668854D01*
X23447849Y-46669733D01*
X23063166Y-46673422D01*
X22221206Y-46676916D01*
X21803883Y-46678111D01*
X21636525Y-46678487D01*
X21493850Y-46678637D01*
X21373718Y-46678503D01*
X21273990Y-46678027D01*
X21192526Y-46677150D01*
X21157975Y-46676543D01*
X21127187Y-46675813D01*
X21099896Y-46674954D01*
X21075833Y-46673959D01*
X21054732Y-46672819D01*
X21036324Y-46671528D01*
X21020343Y-46670079D01*
X21006521Y-46668463D01*
X20994591Y-46666674D01*
X20984285Y-46664705D01*
X20975335Y-46662547D01*
X20967475Y-46660194D01*
X20960436Y-46657639D01*
X20953952Y-46654874D01*
X20947755Y-46651892D01*
X20941577Y-46648685D01*
X20928210Y-46641569D01*
X20915747Y-46634770D01*
X20903862Y-46627664D01*
X20892543Y-46620236D01*
X20881778Y-46612474D01*
X20871554Y-46604362D01*
X20861859Y-46595887D01*
X20852680Y-46587036D01*
X20844006Y-46577795D01*
X20835823Y-46568149D01*
X20828119Y-46558085D01*
X20820882Y-46547588D01*
X20814100Y-46536646D01*
X20807759Y-46525245D01*
X20801849Y-46513369D01*
X20796355Y-46501006D01*
X20791267Y-46488142D01*
X20780882Y-46450506D01*
X20767463Y-46385889D01*
X20732697Y-46183069D01*
X20689311Y-45894402D01*
X20639649Y-45534609D01*
X20634583Y-45495039D01*
X20630453Y-45459096D01*
X20627291Y-45426574D01*
X20626084Y-45411534D01*
X20625130Y-45397272D01*
X20624434Y-45383765D01*
X20624001Y-45370986D01*
X20623833Y-45358910D01*
X20623936Y-45347512D01*
X20624313Y-45336765D01*
X20624969Y-45326646D01*
X20625906Y-45317128D01*
X20627130Y-45308186D01*
X20628645Y-45299795D01*
X20630453Y-45291928D01*
X20632561Y-45284561D01*
X20634970Y-45277669D01*
X20637687Y-45271225D01*
X20640713Y-45265204D01*
X20644055Y-45259582D01*
X20647715Y-45254332D01*
X20651697Y-45249429D01*
X20656006Y-45244847D01*
X20660646Y-45240562D01*
X20665621Y-45236548D01*
X20670935Y-45232779D01*
X20676591Y-45229230D01*
X20682594Y-45225876D01*
X20688948Y-45222690D01*
X20695610Y-45219896D01*
X20703343Y-45217316D01*
X20712019Y-45214958D01*
X20721512Y-45212835D01*
X20731692Y-45210955D01*
X20742434Y-45209330D01*
X20753610Y-45207970D01*
X20765092Y-45206885D01*
X20776754Y-45206086D01*
X20788468Y-45205582D01*
X20800106Y-45205385D01*
X20811542Y-45205505D01*
X20822647Y-45205952D01*
X20833295Y-45206736D01*
X20843359Y-45207868D01*
X20852710Y-45209358D01*
X20862550Y-45211489D01*
X20871679Y-45214207D01*
X20880259Y-45217743D01*
X20888448Y-45222328D01*
X20896407Y-45228192D01*
X20904295Y-45235567D01*
X20912272Y-45244682D01*
X20920497Y-45255770D01*
X20929130Y-45269059D01*
X20938332Y-45284782D01*
X20948260Y-45303169D01*
X20959076Y-45324451D01*
X20984009Y-45376623D01*
X21014406Y-45443142D01*
X21027923Y-45472356D01*
X21041242Y-45499647D01*
X21054435Y-45525103D01*
X21067574Y-45548813D01*
X21080732Y-45570864D01*
X21093980Y-45591347D01*
X21107390Y-45610349D01*
X21121035Y-45627958D01*
X21134985Y-45644263D01*
X21149314Y-45659353D01*
X21164093Y-45673317D01*
X21179394Y-45686241D01*
X21195290Y-45698216D01*
X21211851Y-45709330D01*
X21229150Y-45719670D01*
X21247260Y-45729326D01*
X21274709Y-45741939D01*
X21305209Y-45753644D01*
X21338768Y-45764442D01*
X21375391Y-45774335D01*
X21415086Y-45783322D01*
X21457859Y-45791406D01*
X21552668Y-45804864D01*
X21659874Y-45814716D01*
X21779529Y-45820970D01*
X21911690Y-45823630D01*
X22056410Y-45822706D01*
X22612603Y-45813868D01*
X22733091Y-45812154D01*
X22781213Y-45811327D01*
X22822043Y-45810366D01*
X22839909Y-45809800D01*
X22856175Y-45809157D01*
X22870914Y-45808424D01*
X22884201Y-45807585D01*
X22896110Y-45806627D01*
X22906714Y-45805535D01*
X22916088Y-45804294D01*
X22924307Y-45802891D01*
X22931443Y-45801311D01*
X22937572Y-45799539D01*
X22942767Y-45797562D01*
X22945037Y-45796491D01*
X22947102Y-45795364D01*
X22948970Y-45794178D01*
X22950652Y-45792932D01*
X22952155Y-45791623D01*
X22953490Y-45790251D01*
X22954665Y-45788812D01*
X22955691Y-45787306D01*
X22956575Y-45785731D01*
X22957328Y-45784084D01*
X22958477Y-45780570D01*
X22959210Y-45776749D01*
X22959602Y-45772608D01*
X22959728Y-45768131D01*
X22959042Y-45746586D01*
X22958521Y-45736279D01*
X22957512Y-45725976D01*
X22956031Y-45715718D01*
X22954094Y-45705546D01*
X22951720Y-45695502D01*
X22948924Y-45685627D01*
X22945723Y-45675962D01*
X22942135Y-45666548D01*
X22938175Y-45657427D01*
X22933861Y-45648641D01*
X22929209Y-45640229D01*
X22924237Y-45632235D01*
X22918960Y-45624698D01*
X22913396Y-45617661D01*
X22907562Y-45611165D01*
X22901474Y-45605250D01*
X22891674Y-45597975D01*
X22875021Y-45587535D01*
X22852060Y-45574226D01*
X22823331Y-45558342D01*
X22750742Y-45520020D01*
X22661592Y-45474923D01*
X22576608Y-45432497D01*
X22502273Y-45395036D01*
X22446593Y-45366604D01*
X22417576Y-45351261D01*
X22383960Y-45332224D01*
X22347451Y-45311780D01*
X22319250Y-45295260D01*
X22283222Y-45272894D01*
X22241755Y-45246272D01*
X22197240Y-45216982D01*
X22152064Y-45186612D01*
X22108616Y-45156753D01*
X22069286Y-45128992D01*
X22036463Y-45104919D01*
X21996185Y-45074047D01*
X21956386Y-45042549D01*
X21917115Y-45010474D01*
X21878424Y-44977871D01*
X21840362Y-44944788D01*
X21802980Y-44911275D01*
X21766329Y-44877381D01*
X21730460Y-44843154D01*
X21695422Y-44808644D01*
X21661266Y-44773899D01*
X21628043Y-44738969D01*
X21595803Y-44703902D01*
X21564596Y-44668747D01*
X21534475Y-44633554D01*
X21505487Y-44598371D01*
X21477685Y-44563247D01*
X21453724Y-44531173D01*
X21425523Y-44491520D01*
X21394567Y-44446529D01*
X21362339Y-44398440D01*
X21330321Y-44349494D01*
X21299997Y-44301929D01*
X21272849Y-44257988D01*
X21250361Y-44219909D01*
X21212706Y-44151030D01*
X21174806Y-44076103D01*
X21137649Y-43997434D01*
X21102220Y-43917327D01*
X21069505Y-43838087D01*
X21040491Y-43762021D01*
X21016163Y-43691432D01*
X21006065Y-43658913D01*
X20997508Y-43628627D01*
X20995942Y-43622902D01*
X20994394Y-43617545D01*
X20992862Y-43612556D01*
X20991348Y-43607936D01*
X20989850Y-43603684D01*
X20988370Y-43599801D01*
X20986907Y-43596286D01*
X20986181Y-43594668D01*
X20985461Y-43593141D01*
X20984744Y-43591707D01*
X20984032Y-43590366D01*
X20983324Y-43589116D01*
X20982620Y-43587959D01*
X20981921Y-43586895D01*
X20981226Y-43585923D01*
X20980535Y-43585043D01*
X20979848Y-43584256D01*
X20979166Y-43583562D01*
X20978488Y-43582959D01*
X20977815Y-43582450D01*
X20977146Y-43582033D01*
X20976481Y-43581709D01*
X20975820Y-43581477D01*
X20975164Y-43581338D01*
X20974512Y-43581292D01*
X20954127Y-43584334D01*
X20910476Y-43592483D01*
X20781894Y-43618244D01*
X20645803Y-43646859D01*
X20559240Y-43666609D01*
X20495275Y-43684581D01*
X20423817Y-43706261D01*
X20347004Y-43730915D01*
X20266973Y-43757809D01*
X20185862Y-43786210D01*
X20105807Y-43815382D01*
X20028946Y-43844593D01*
X19957416Y-43873108D01*
X19875898Y-43908047D01*
X19790249Y-43947630D01*
X19702008Y-43991038D01*
X19612715Y-44037448D01*
X19523909Y-44086040D01*
X19437128Y-44135994D01*
X19353914Y-44186489D01*
X19275804Y-44236704D01*
X19203909Y-44285446D01*
X19128866Y-44338224D01*
X19052474Y-44393675D01*
X18976529Y-44450436D01*
X18902832Y-44507141D01*
X18833180Y-44562429D01*
X18769371Y-44614933D01*
X18713203Y-44663292D01*
X18705621Y-44669969D01*
X18698694Y-44675981D01*
X18692393Y-44681345D01*
X18686691Y-44686081D01*
X18681559Y-44690205D01*
X18679198Y-44692044D01*
X18676969Y-44693737D01*
X18674868Y-44695286D01*
X18672891Y-44696693D01*
X18671036Y-44697961D01*
X18669299Y-44699093D01*
X18667675Y-44700089D01*
X18666163Y-44700953D01*
X18664757Y-44701687D01*
X18663454Y-44702293D01*
X18662252Y-44702773D01*
X18661146Y-44703129D01*
X18660132Y-44703364D01*
X18659208Y-44703480D01*
X18658370Y-44703480D01*
X18657613Y-44703365D01*
X18656936Y-44703138D01*
X18656333Y-44702800D01*
X18655802Y-44702355D01*
X18655339Y-44701805D01*
X18654940Y-44701151D01*
X18654602Y-44700396D01*
X18654189Y-44696177D01*
X18655702Y-44690545D01*
X18659197Y-44683439D01*
X18664733Y-44674800D01*
X18672367Y-44664565D01*
X18682156Y-44652674D01*
X18708432Y-44623680D01*
X18744021Y-44587333D01*
X18789385Y-44543145D01*
X18844984Y-44490630D01*
X18911279Y-44429302D01*
X18961255Y-44384339D01*
X19012045Y-44340484D01*
X19064054Y-44297420D01*
X19117687Y-44254831D01*
X19173350Y-44212403D01*
X19231448Y-44169817D01*
X19292388Y-44126760D01*
X19356574Y-44082915D01*
X19390081Y-44060795D01*
X19429018Y-44035746D01*
X19512212Y-43983623D01*
X19550982Y-43959932D01*
X19584211Y-43940076D01*
X19609154Y-43925747D01*
X19617662Y-43921183D01*
X19623070Y-43918635D01*
X19624837Y-43917834D01*
X19627177Y-43916607D01*
X19629989Y-43915014D01*
X19633174Y-43913117D01*
X19636629Y-43910977D01*
X19640256Y-43908653D01*
X19643951Y-43906207D01*
X19647616Y-43903700D01*
X19689782Y-43877765D01*
X19752541Y-43843496D01*
X19830030Y-43803722D01*
X19916384Y-43761272D01*
X20005739Y-43718974D01*
X20092229Y-43679659D01*
X20169992Y-43646154D01*
X20233162Y-43621289D01*
X20256922Y-43612463D01*
X20285330Y-43601623D01*
X20314823Y-43590138D01*
X20341837Y-43579379D01*
X20364828Y-43570391D01*
X20391154Y-43560660D01*
X20453036Y-43539222D01*
X20525943Y-43515577D01*
X20608333Y-43490237D01*
X20653702Y-43476488D01*
X20688948Y-43465639D01*
X20708284Y-43460155D01*
X20740192Y-43451703D01*
X20780236Y-43441434D01*
X20823978Y-43430499D01*
X20841370Y-43426191D01*
X20856781Y-43422323D01*
X20870330Y-43418850D01*
X20882134Y-43415724D01*
X20887419Y-43414277D01*
X20892313Y-43412899D01*
X20896830Y-43411585D01*
X20900985Y-43410329D01*
X20904792Y-43409125D01*
X20908268Y-43407967D01*
X20911426Y-43406849D01*
X20914282Y-43405766D01*
X20916849Y-43404712D01*
X20919144Y-43403680D01*
X20921180Y-43402666D01*
X20922973Y-43401663D01*
X20924538Y-43400665D01*
X20925888Y-43399667D01*
X20927040Y-43398663D01*
X20928007Y-43397646D01*
X20928806Y-43396612D01*
X20929449Y-43395554D01*
X20929953Y-43394467D01*
X20930333Y-43393344D01*
X20930602Y-43392180D01*
X20930776Y-43390969D01*
X20930869Y-43389706D01*
X20930897Y-43388383D01*
X20930483Y-43383027D01*
X20929295Y-43373779D01*
X20924933Y-43345629D01*
X20918475Y-43307979D01*
X20910588Y-43264877D01*
X20902298Y-43219770D01*
X20894743Y-43176665D01*
X20888754Y-43140446D01*
X20886607Y-43126445D01*
X20885163Y-43115997D01*
X20884310Y-43109369D01*
X20883480Y-43103456D01*
X20882644Y-43098205D01*
X20881774Y-43093563D01*
X20881316Y-43091453D01*
X20880840Y-43089476D01*
X20880340Y-43087624D01*
X20879814Y-43085890D01*
X20879257Y-43084268D01*
X20878667Y-43082752D01*
X20878039Y-43081334D01*
X20877370Y-43080008D01*
X20876656Y-43078767D01*
X20875894Y-43077605D01*
X20875080Y-43076514D01*
X20874211Y-43075489D01*
X20873283Y-43074521D01*
X20872291Y-43073606D01*
X20871234Y-43072735D01*
X20870106Y-43071903D01*
X20868905Y-43071102D01*
X20867627Y-43070326D01*
X20866268Y-43069569D01*
X20864825Y-43068823D01*
X20861671Y-43067338D01*
X20858137Y-43065819D01*
X20842814Y-43061028D01*
X20817234Y-43054856D01*
X20783252Y-43047651D01*
X20742721Y-43039764D01*
X20649435Y-43023333D01*
X20600388Y-43015488D01*
X20552212Y-43008355D01*
X20491895Y-43002582D01*
X20409062Y-42998482D01*
X20310626Y-42996050D01*
X20203502Y-42995283D01*
X20094605Y-42996175D01*
X19990848Y-42998722D01*
X19899147Y-43002920D01*
X19826416Y-43008765D01*
X19726549Y-43020430D01*
X19631124Y-43033103D01*
X19539852Y-43046835D01*
X19452446Y-43061679D01*
X19368617Y-43077685D01*
X19288076Y-43094907D01*
X19210537Y-43113395D01*
X19135709Y-43133202D01*
X19037524Y-43160539D01*
X19007266Y-43169204D01*
X18972793Y-43179473D01*
X18899638Y-43202143D01*
X18834939Y-43223196D01*
X18811035Y-43231443D01*
X18795575Y-43237279D01*
X18763014Y-43250221D01*
X18704418Y-43273090D01*
X18669316Y-43287111D01*
X18630764Y-43303162D01*
X18593433Y-43319267D01*
X18561998Y-43333448D01*
X18536440Y-43345269D01*
X18515116Y-43354947D01*
X18506740Y-43358671D01*
X18500258Y-43361485D01*
X18495950Y-43363265D01*
X18494698Y-43363728D01*
X18494095Y-43363886D01*
X18492671Y-43364303D01*
X18489597Y-43365498D01*
X18479265Y-43369886D01*
X18464630Y-43376377D01*
X18447224Y-43384298D01*
X18386547Y-43412050D01*
X18360555Y-43423790D01*
X18337289Y-43434172D01*
X18316621Y-43443245D01*
X18298424Y-43451061D01*
X18282568Y-43457668D01*
X18268926Y-43463117D01*
X18257369Y-43467458D01*
X18252332Y-43469229D01*
X18247769Y-43470741D01*
X18243663Y-43472001D01*
X18239998Y-43473016D01*
X18236758Y-43473790D01*
X18233927Y-43474332D01*
X18231490Y-43474646D01*
X18229429Y-43474739D01*
X18227730Y-43474618D01*
X18226375Y-43474288D01*
X18225349Y-43473756D01*
X18224636Y-43473029D01*
X18224220Y-43472111D01*
X18224085Y-43471011D01*
X18224433Y-43469948D01*
X18225454Y-43468503D01*
X18229398Y-43464543D01*
X18235673Y-43459287D01*
X18244035Y-43452896D01*
X18266044Y-43437336D01*
X18293473Y-43419128D01*
X18324369Y-43399538D01*
X18356779Y-43379831D01*
X18388753Y-43361272D01*
X18418337Y-43345127D01*
X18500346Y-43302971D01*
X18582082Y-43262277D01*
X18654344Y-43227544D01*
X18684047Y-43213820D01*
X18707932Y-43203275D01*
X18750226Y-43185154D01*
X18778057Y-43173044D01*
X18781722Y-43171433D01*
X18785418Y-43169852D01*
X18789044Y-43168343D01*
X18792499Y-43166945D01*
X18795684Y-43165699D01*
X18798496Y-43164645D01*
X18800836Y-43163825D01*
X18802603Y-43163277D01*
X18809995Y-43160763D01*
X18822652Y-43155986D01*
X18856768Y-43142467D01*
X18890970Y-43128372D01*
X18903735Y-43122874D01*
X18911279Y-43119352D01*
X18920894Y-43115535D01*
X18940945Y-43108515D01*
X19006023Y-43086927D01*
X19093854Y-43058711D01*
X19191778Y-43027989D01*
X19254234Y-43009951D01*
X19329148Y-42990482D01*
X19413244Y-42970295D01*
X19503249Y-42950099D01*
X19595886Y-42930605D01*
X19687883Y-42912525D01*
X19775964Y-42896570D01*
X19856854Y-42883450D01*
X19905706Y-42876586D01*
X19958912Y-42870004D01*
X20015539Y-42863790D01*
X20074652Y-42858028D01*
X20196602Y-42848208D01*
X20257571Y-42844321D01*
X20317291Y-42841230D01*
X20372858Y-42840066D01*
X20440593Y-42840759D01*
X20516005Y-42843066D01*
X20594608Y-42846744D01*
X20671913Y-42851547D01*
X20743432Y-42857232D01*
X20804677Y-42863555D01*
X20851160Y-42870272D01*
X20854691Y-42870894D01*
X20857816Y-42871392D01*
X20860554Y-42871752D01*
X20862928Y-42871961D01*
X20863983Y-42872004D01*
X20864956Y-42872006D01*
X20865847Y-42871962D01*
X20866660Y-42871873D01*
X20867396Y-42871736D01*
X20868060Y-42871550D01*
X20868652Y-42871312D01*
X20869177Y-42871022D01*
X20869636Y-42870678D01*
X20870031Y-42870278D01*
X20870366Y-42869820D01*
X20870643Y-42869303D01*
X20870865Y-42868725D01*
X20871034Y-42868084D01*
X20871153Y-42867379D01*
X20871224Y-42866609D01*
X20871250Y-42865770D01*
X20871233Y-42864862D01*
X20871082Y-42862833D01*
X20870792Y-42860506D01*
X20870384Y-42857870D01*
X20869806Y-42852128D01*
X20869201Y-42842038D01*
X20867981Y-42811056D01*
X20866864Y-42769400D01*
X20865991Y-42721547D01*
X20865438Y-42691147D01*
X20864697Y-42665328D01*
X20864247Y-42654046D01*
X20863742Y-42643802D01*
X20863176Y-42634559D01*
X20862549Y-42626280D01*
X20861857Y-42618930D01*
X20861096Y-42612473D01*
X20860264Y-42606871D01*
X20859358Y-42602090D01*
X20858374Y-42598093D01*
X20857311Y-42594844D01*
X20856748Y-42593489D01*
X20856164Y-42592306D01*
X20855559Y-42591293D01*
X20854932Y-42590444D01*
X20851437Y-42586656D01*
X20847054Y-42582677D01*
X20841689Y-42578461D01*
X20835248Y-42573959D01*
X20818764Y-42563906D01*
X20796852Y-42552137D01*
X20768760Y-42538266D01*
X20733739Y-42521912D01*
X20691038Y-42502690D01*
X20639906Y-42480219D01*
X20625738Y-42474679D01*
X20602407Y-42466249D01*
X20538648Y-42444231D01*
X20469410Y-42421203D01*
X20415476Y-42404202D01*
X20328043Y-42379578D01*
X20238362Y-42356752D01*
X20146586Y-42335754D01*
X20052867Y-42316613D01*
X19957359Y-42299357D01*
X19860213Y-42284017D01*
X19761583Y-42270621D01*
X19661620Y-42259198D01*
X19595175Y-42253809D01*
X19512407Y-42249403D01*
X19418815Y-42246067D01*
X19319899Y-42243886D01*
X19221158Y-42242948D01*
X19128094Y-42243338D01*
X19046204Y-42245143D01*
X18980990Y-42248449D01*
X18926622Y-42252965D01*
X18866742Y-42258776D01*
X18739623Y-42273157D01*
X18676973Y-42281166D01*
X18617988Y-42289344D01*
X18564962Y-42297412D01*
X18520191Y-42305087D01*
X18402885Y-42326687D01*
X18385855Y-42329878D01*
X18370590Y-42332895D01*
X18358761Y-42335392D01*
X18354656Y-42336337D01*
X18352036Y-42337023D01*
X18351586Y-42337149D01*
X18351142Y-42337259D01*
X18350705Y-42337353D01*
X18350274Y-42337429D01*
X18349850Y-42337489D01*
X18349434Y-42337533D01*
X18349027Y-42337562D01*
X18348629Y-42337574D01*
X18348240Y-42337571D01*
X18347861Y-42337553D01*
X18347494Y-42337519D01*
X18347137Y-42337471D01*
X18346792Y-42337408D01*
X18346460Y-42337331D01*
X18346141Y-42337239D01*
X18345835Y-42337134D01*
X18345543Y-42337015D01*
X18345266Y-42336882D01*
X18345005Y-42336735D01*
X18344759Y-42336576D01*
X18344530Y-42336404D01*
X18344317Y-42336219D01*
X18344122Y-42336021D01*
X18343945Y-42335811D01*
X18343787Y-42335589D01*
X18343648Y-42335356D01*
X18343529Y-42335110D01*
X18343430Y-42334853D01*
X18343353Y-42334585D01*
X18343296Y-42334306D01*
X18343262Y-42334016D01*
X18343251Y-42333716D01*
X18344017Y-42331305D01*
X18346278Y-42328620D01*
X18355055Y-42322496D01*
X18369125Y-42315468D01*
X18388034Y-42307663D01*
X18438541Y-42290232D01*
X18502929Y-42271216D01*
X18577548Y-42251628D01*
X18658752Y-42232480D01*
X18742893Y-42214788D01*
X18826322Y-42199563D01*
X18959024Y-42179942D01*
X19094693Y-42164789D01*
X19232688Y-42154123D01*
X19372369Y-42147960D01*
X19513096Y-42146320D01*
X19654227Y-42149221D01*
X19795123Y-42156679D01*
X19935143Y-42168712D01*
X20035499Y-42181229D01*
X20148281Y-42199039D01*
X20268382Y-42221040D01*
X20390700Y-42246132D01*
X20510131Y-42273211D01*
X20621569Y-42301178D01*
X20719911Y-42328931D01*
X20800052Y-42355368D01*
X20815356Y-42360917D01*
X20829703Y-42366006D01*
X20842774Y-42370528D01*
X20854250Y-42374378D01*
X20863813Y-42377450D01*
X20871142Y-42379640D01*
X20873869Y-42380370D01*
X20875919Y-42380841D01*
X20877251Y-42381037D01*
X20877635Y-42381029D01*
X20877825Y-42380948D01*
X20878360Y-42379197D01*
X20879207Y-42375072D01*
X20881664Y-42360778D01*
X20884849Y-42340213D01*
X20888418Y-42315525D01*
X20897956Y-42250281D01*
X20908483Y-42183333D01*
X20919651Y-42116590D01*
X20931111Y-42051959D01*
X20942515Y-41991348D01*
X20953515Y-41936665D01*
X20963763Y-41889817D01*
X20972909Y-41852711D01*
X20981022Y-41820989D01*
X20988751Y-41787945D01*
X20995882Y-41754736D01*
X21002200Y-41722522D01*
X21007488Y-41692461D01*
X21011532Y-41665711D01*
X21014116Y-41643432D01*
X21014794Y-41634331D01*
X21015026Y-41626782D01*
X21014174Y-41607447D01*
X21010885Y-41585140D01*
X21004060Y-41556386D01*
X20992601Y-41517707D01*
X20975409Y-41465626D01*
X20951385Y-41396666D01*
X20878445Y-41194199D01*
X20860573Y-41142834D01*
X20841309Y-41083684D01*
X20821524Y-41019765D01*
X20802091Y-40954091D01*
X20783882Y-40889680D01*
X20767770Y-40829546D01*
X20754628Y-40776706D01*
X20745326Y-40734175D01*
X20729710Y-40647856D01*
X20716241Y-40560274D01*
X20704917Y-40471629D01*
X20695738Y-40382124D01*
X20688703Y-40291959D01*
X20683810Y-40201336D01*
X20681059Y-40110455D01*
X20680448Y-40019518D01*
X20681534Y-39955086D01*
X20967926Y-39955086D01*
X20968241Y-40056603D01*
X20971553Y-40158764D01*
X20977831Y-40261145D01*
X20987043Y-40363325D01*
X20999156Y-40464881D01*
X21014140Y-40565391D01*
X21031961Y-40664432D01*
X21052589Y-40761582D01*
X21075990Y-40856419D01*
X21102134Y-40948521D01*
X21130987Y-41037464D01*
X21137365Y-41055775D01*
X21143235Y-41072375D01*
X21148639Y-41087355D01*
X21153619Y-41100803D01*
X21158218Y-41112811D01*
X21162477Y-41123466D01*
X21166438Y-41132860D01*
X21170143Y-41141082D01*
X21173635Y-41148222D01*
X21175314Y-41151414D01*
X21176956Y-41154369D01*
X21178565Y-41157099D01*
X21180147Y-41159614D01*
X21181707Y-41161926D01*
X21183251Y-41164046D01*
X21184783Y-41165985D01*
X21186310Y-41167755D01*
X21187835Y-41169366D01*
X21189365Y-41170830D01*
X21190905Y-41172158D01*
X21192459Y-41173362D01*
X21194034Y-41174452D01*
X21195634Y-41175440D01*
X21196910Y-41176169D01*
X21198201Y-41176880D01*
X21199497Y-41177568D01*
X21200791Y-41178230D01*
X21202073Y-41178862D01*
X21203334Y-41179460D01*
X21204567Y-41180022D01*
X21205761Y-41180542D01*
X21206909Y-41181018D01*
X21208001Y-41181444D01*
X21209029Y-41181819D01*
X21209983Y-41182138D01*
X21210856Y-41182397D01*
X21211638Y-41182592D01*
X21212320Y-41182721D01*
X21212894Y-41182778D01*
X21214250Y-41182686D01*
X21215780Y-41182311D01*
X21219324Y-41180747D01*
X21223452Y-41178168D01*
X21228094Y-41174655D01*
X21233174Y-41170288D01*
X21238621Y-41165150D01*
X21244361Y-41159321D01*
X21250321Y-41152882D01*
X21256429Y-41145914D01*
X21262611Y-41138498D01*
X21268795Y-41130716D01*
X21274907Y-41122648D01*
X21280874Y-41114375D01*
X21286624Y-41105979D01*
X21292083Y-41097540D01*
X21297179Y-41089140D01*
X21320963Y-41048315D01*
X21341989Y-41011720D01*
X21360380Y-40978996D01*
X21376257Y-40949785D01*
X21389743Y-40923730D01*
X21400958Y-40900472D01*
X21405752Y-40889781D01*
X21410024Y-40879654D01*
X21413790Y-40870048D01*
X21417065Y-40860918D01*
X21419863Y-40852219D01*
X21422200Y-40843906D01*
X21424092Y-40835934D01*
X21425553Y-40828259D01*
X21426599Y-40820836D01*
X21427245Y-40813620D01*
X21427506Y-40806566D01*
X21427397Y-40799630D01*
X21426935Y-40792767D01*
X21426133Y-40785933D01*
X21425007Y-40779082D01*
X21423572Y-40772169D01*
X21419838Y-40757981D01*
X21415053Y-40743012D01*
X21406330Y-40715373D01*
X21396253Y-40680109D01*
X21385360Y-40639389D01*
X21374188Y-40595385D01*
X21363277Y-40550268D01*
X21353164Y-40506210D01*
X21344388Y-40465382D01*
X21337486Y-40429956D01*
X21331713Y-40393948D01*
X21326984Y-40355827D01*
X21323284Y-40315916D01*
X21320603Y-40274537D01*
X21318926Y-40232010D01*
X21318242Y-40188657D01*
X21318537Y-40144801D01*
X21319799Y-40100762D01*
X21322015Y-40056863D01*
X21325172Y-40013424D01*
X21329258Y-39970768D01*
X21334260Y-39929217D01*
X21340164Y-39889091D01*
X21346959Y-39850713D01*
X21354632Y-39814404D01*
X21363170Y-39780486D01*
X21367054Y-39766749D01*
X21371047Y-39753394D01*
X21375132Y-39740456D01*
X21379295Y-39727971D01*
X21383519Y-39715974D01*
X21387791Y-39704500D01*
X21392094Y-39693585D01*
X21396414Y-39683265D01*
X21400735Y-39673573D01*
X21405041Y-39664547D01*
X21409319Y-39656221D01*
X21413551Y-39648631D01*
X21417724Y-39641812D01*
X21421821Y-39635800D01*
X21425828Y-39630629D01*
X21429729Y-39626336D01*
X21437527Y-39619309D01*
X21446082Y-39613073D01*
X21455402Y-39607626D01*
X21465492Y-39602969D01*
X21476360Y-39599100D01*
X21488013Y-39596019D01*
X21500458Y-39593725D01*
X21513702Y-39592218D01*
X21527751Y-39591497D01*
X21542614Y-39591561D01*
X21558296Y-39592410D01*
X21574805Y-39594043D01*
X21592148Y-39596460D01*
X21610332Y-39599659D01*
X21629364Y-39603641D01*
X21649250Y-39608404D01*
X21671637Y-39614847D01*
X21696263Y-39623339D01*
X21722886Y-39633744D01*
X21751260Y-39645926D01*
X21781145Y-39659750D01*
X21812295Y-39675081D01*
X21877422Y-39709721D01*
X21944694Y-39748762D01*
X22012164Y-39791122D01*
X22077888Y-39835716D01*
X22109486Y-39858513D01*
X22139918Y-39881462D01*
X22166579Y-39901966D01*
X22190514Y-39920174D01*
X22211946Y-39936201D01*
X22231099Y-39950167D01*
X22248197Y-39962189D01*
X22263463Y-39972385D01*
X22270479Y-39976835D01*
X22277120Y-39980872D01*
X22283416Y-39984512D01*
X22289393Y-39987768D01*
X22295080Y-39990657D01*
X22300505Y-39993192D01*
X22305695Y-39995388D01*
X22310679Y-39997260D01*
X22315484Y-39998822D01*
X22320139Y-40000090D01*
X22324671Y-40001078D01*
X22329108Y-40001801D01*
X22333479Y-40002273D01*
X22337811Y-40002510D01*
X22342133Y-40002525D01*
X22346471Y-40002334D01*
X22350855Y-40001952D01*
X22355311Y-40001392D01*
X22364556Y-39999801D01*
X22367286Y-39999038D01*
X22371012Y-39997643D01*
X22381187Y-39993099D01*
X22394561Y-39986449D01*
X22410614Y-39977974D01*
X22428825Y-39967955D01*
X22448676Y-39956671D01*
X22469646Y-39944404D01*
X22491215Y-39931433D01*
X22539773Y-39901762D01*
X22559803Y-39889452D01*
X22577238Y-39878662D01*
X22592255Y-39869271D01*
X22605034Y-39861157D01*
X22610639Y-39857541D01*
X22615752Y-39854198D01*
X22620394Y-39851114D01*
X22624587Y-39848273D01*
X22628354Y-39845659D01*
X22631718Y-39843258D01*
X22634700Y-39841054D01*
X22637322Y-39839033D01*
X22639608Y-39837178D01*
X22641579Y-39835475D01*
X22643257Y-39833908D01*
X22644666Y-39832463D01*
X22645826Y-39831123D01*
X22646761Y-39829874D01*
X22647493Y-39828700D01*
X22648043Y-39827587D01*
X22648435Y-39826518D01*
X22648690Y-39825479D01*
X22648831Y-39824455D01*
X22648879Y-39823429D01*
X22648084Y-39819512D01*
X22645687Y-39814408D01*
X22636389Y-39800904D01*
X22634194Y-39798315D01*
X25790651Y-39798315D01*
X25791394Y-39801469D01*
X25793650Y-39805344D01*
X25797434Y-39809952D01*
X25802762Y-39815301D01*
X25809648Y-39821404D01*
X25818108Y-39828270D01*
X25839810Y-39844336D01*
X25867988Y-39863582D01*
X25902766Y-39886094D01*
X25944263Y-39911955D01*
X25992602Y-39941252D01*
X26025950Y-39961213D01*
X26039446Y-39969213D01*
X26051091Y-39975999D01*
X26061085Y-39981651D01*
X26065525Y-39984077D01*
X26069628Y-39986249D01*
X26073418Y-39988178D01*
X26076920Y-39989874D01*
X26080161Y-39991346D01*
X26083163Y-39992605D01*
X26085954Y-39993660D01*
X26088557Y-39994522D01*
X26090998Y-39995201D01*
X26093302Y-39995706D01*
X26095493Y-39996048D01*
X26097598Y-39996237D01*
X26099641Y-39996282D01*
X26101646Y-39996194D01*
X26103640Y-39995983D01*
X26105646Y-39995659D01*
X26107691Y-39995231D01*
X26109799Y-39994710D01*
X26114305Y-39993429D01*
X26119365Y-39991894D01*
X26122603Y-39990617D01*
X26127035Y-39988403D01*
X26139170Y-39981374D01*
X26155147Y-39971232D01*
X26174346Y-39958401D01*
X26196145Y-39943302D01*
X26219923Y-39926361D01*
X26245059Y-39908001D01*
X26270932Y-39888645D01*
X26323883Y-39848843D01*
X26369915Y-39814967D01*
X26410620Y-39785959D01*
X26447592Y-39760762D01*
X26482426Y-39738317D01*
X26516715Y-39717568D01*
X26552053Y-39697457D01*
X26590033Y-39676927D01*
X26622838Y-39659845D01*
X26651859Y-39645446D01*
X26678183Y-39633302D01*
X26690673Y-39627942D01*
X26702896Y-39622986D01*
X26714988Y-39618379D01*
X26727086Y-39614070D01*
X26739324Y-39610004D01*
X26751839Y-39606128D01*
X26778243Y-39598731D01*
X26807384Y-39591454D01*
X26828379Y-39586797D01*
X26848266Y-39583105D01*
X26857799Y-39581622D01*
X26867061Y-39580382D01*
X26876053Y-39579384D01*
X26884777Y-39578630D01*
X26893235Y-39578119D01*
X26901429Y-39577852D01*
X26909361Y-39577830D01*
X26917032Y-39578052D01*
X26924443Y-39578519D01*
X26931598Y-39579231D01*
X26938497Y-39580190D01*
X26945143Y-39581394D01*
X26951536Y-39582845D01*
X26957680Y-39584543D01*
X26963576Y-39586488D01*
X26969224Y-39588681D01*
X26974629Y-39591122D01*
X26979790Y-39593811D01*
X26984710Y-39596750D01*
X26989391Y-39599937D01*
X26993834Y-39603374D01*
X26998041Y-39607060D01*
X27002014Y-39610997D01*
X27005755Y-39615185D01*
X27009265Y-39619623D01*
X27012547Y-39624313D01*
X27015601Y-39629255D01*
X27018431Y-39634449D01*
X27022173Y-39642366D01*
X27026181Y-39651936D01*
X27034802Y-39675363D01*
X27043918Y-39703387D01*
X27053148Y-39734666D01*
X27062114Y-39767858D01*
X27070439Y-39801621D01*
X27077742Y-39834614D01*
X27083647Y-39865494D01*
X27085867Y-39879559D01*
X27088287Y-39897059D01*
X27093412Y-39939578D01*
X27098396Y-39987482D01*
X27102612Y-40035199D01*
X27106498Y-40100094D01*
X27107327Y-40131336D01*
X27107371Y-40162141D01*
X27106596Y-40192782D01*
X27104968Y-40223534D01*
X27102455Y-40254671D01*
X27099024Y-40286466D01*
X27094642Y-40319194D01*
X27089275Y-40353129D01*
X27075457Y-40425717D01*
X27057305Y-40506423D01*
X27034554Y-40597439D01*
X27027860Y-40623725D01*
X27021954Y-40648003D01*
X27016826Y-40670426D01*
X27012466Y-40691145D01*
X27008864Y-40710310D01*
X27006008Y-40728073D01*
X27003888Y-40744585D01*
X27002494Y-40759998D01*
X27001815Y-40774463D01*
X27001841Y-40788130D01*
X27002561Y-40801152D01*
X27003965Y-40813679D01*
X27006042Y-40825863D01*
X27008782Y-40837855D01*
X27012175Y-40849806D01*
X27016209Y-40861867D01*
X27020552Y-40872771D01*
X27026535Y-40885928D01*
X27042620Y-40917671D01*
X27062872Y-40954431D01*
X27085695Y-40993545D01*
X27109496Y-41032348D01*
X27132681Y-41068176D01*
X27153655Y-41098364D01*
X27162815Y-41110511D01*
X27170825Y-41120250D01*
X27177005Y-41127045D01*
X27180033Y-41130170D01*
X27183020Y-41133113D01*
X27185966Y-41135874D01*
X27188873Y-41138453D01*
X27191739Y-41140851D01*
X27194567Y-41143068D01*
X27197355Y-41145102D01*
X27200105Y-41146956D01*
X27202817Y-41148629D01*
X27205491Y-41150120D01*
X27208128Y-41151431D01*
X27210728Y-41152561D01*
X27213291Y-41153510D01*
X27215818Y-41154279D01*
X27218309Y-41154867D01*
X27220765Y-41155275D01*
X27223186Y-41155502D01*
X27225572Y-41155550D01*
X27227924Y-41155417D01*
X27230242Y-41155104D01*
X27232526Y-41154612D01*
X27234778Y-41153940D01*
X27236997Y-41153089D01*
X27239183Y-41152057D01*
X27241338Y-41150847D01*
X27243461Y-41149457D01*
X27245553Y-41147889D01*
X27247615Y-41146141D01*
X27249646Y-41144214D01*
X27251647Y-41142109D01*
X27260628Y-41128419D01*
X27270893Y-41106212D01*
X27282231Y-41076367D01*
X27294430Y-41039766D01*
X27320568Y-40949815D01*
X27347616Y-40843405D01*
X27373886Y-40727583D01*
X27397686Y-40609393D01*
X27417327Y-40495881D01*
X27431119Y-40394092D01*
X27438396Y-40318389D01*
X27444196Y-40237838D01*
X27448476Y-40154345D01*
X27451192Y-40069817D01*
X27452300Y-39986157D01*
X27451757Y-39905273D01*
X27449517Y-39829070D01*
X27445537Y-39759454D01*
X27439669Y-39689519D01*
X27432584Y-39622333D01*
X27424172Y-39557245D01*
X27414326Y-39493606D01*
X27402936Y-39430764D01*
X27389893Y-39368070D01*
X27375088Y-39304872D01*
X27358411Y-39240519D01*
X27349748Y-39209750D01*
X27341067Y-39181386D01*
X27332333Y-39155378D01*
X27323509Y-39131673D01*
X27319053Y-39120668D01*
X27314561Y-39110220D01*
X27310029Y-39100321D01*
X27305453Y-39090967D01*
X27300828Y-39082150D01*
X27296150Y-39073863D01*
X27291413Y-39066101D01*
X27286615Y-39058857D01*
X27281750Y-39052124D01*
X27276813Y-39045896D01*
X27271801Y-39040167D01*
X27266710Y-39034930D01*
X27261533Y-39030179D01*
X27256268Y-39025907D01*
X27250909Y-39022107D01*
X27245453Y-39018775D01*
X27239895Y-39015902D01*
X27234229Y-39013482D01*
X27228453Y-39011510D01*
X27222561Y-39009979D01*
X27216549Y-39008881D01*
X27210413Y-39008212D01*
X27204148Y-39007964D01*
X27197749Y-39008130D01*
X27197748Y-39008130D01*
X27176740Y-39010292D01*
X27152069Y-39014513D01*
X27124027Y-39020685D01*
X27092910Y-39028703D01*
X27022623Y-39049847D01*
X26943557Y-39077093D01*
X26858064Y-39109587D01*
X26768493Y-39146476D01*
X26677194Y-39186908D01*
X26586519Y-39230029D01*
X26516182Y-39265086D01*
X26454686Y-39296611D01*
X26400271Y-39325621D01*
X26351175Y-39353129D01*
X26305636Y-39380153D01*
X26261892Y-39407706D01*
X26218183Y-39436805D01*
X26172746Y-39468464D01*
X26140649Y-39491619D01*
X26107885Y-39515957D01*
X26074832Y-39541151D01*
X26041868Y-39566876D01*
X26009371Y-39592806D01*
X25977717Y-39618615D01*
X25947285Y-39643976D01*
X25918451Y-39668564D01*
X25891594Y-39692053D01*
X25867091Y-39714117D01*
X25845320Y-39734429D01*
X25826658Y-39752665D01*
X25811482Y-39768497D01*
X25800171Y-39781600D01*
X25796082Y-39787026D01*
X25793101Y-39791648D01*
X25791275Y-39795424D01*
X25790651Y-39798315D01*
X22634194Y-39798315D01*
X22621586Y-39783438D01*
X22601876Y-39762533D01*
X22550138Y-39712492D01*
X22485969Y-39654957D01*
X22414165Y-39594102D01*
X22339521Y-39534103D01*
X22266833Y-39479136D01*
X22232721Y-39454844D01*
X22200897Y-39433376D01*
X22149554Y-39400834D01*
X22096077Y-39368764D01*
X22040840Y-39337363D01*
X21984217Y-39306827D01*
X21926583Y-39277353D01*
X21868313Y-39249137D01*
X21809782Y-39222376D01*
X21751363Y-39197266D01*
X21671677Y-39165375D01*
X21589776Y-39134856D01*
X21508521Y-39106595D01*
X21430772Y-39081479D01*
X21359392Y-39060394D01*
X21297240Y-39044228D01*
X21270519Y-39038266D01*
X21247178Y-39033866D01*
X21227575Y-39031139D01*
X21212068Y-39030196D01*
X21205876Y-39030220D01*
X21200309Y-39030326D01*
X21195296Y-39030542D01*
X21190768Y-39030900D01*
X21188664Y-39031141D01*
X21186655Y-39031428D01*
X21184732Y-39031764D01*
X21182886Y-39032155D01*
X21181108Y-39032603D01*
X21179391Y-39033112D01*
X21177724Y-39033685D01*
X21176100Y-39034327D01*
X21174509Y-39035041D01*
X21172943Y-39035831D01*
X21171393Y-39036700D01*
X21169850Y-39037653D01*
X21168306Y-39038692D01*
X21166751Y-39039822D01*
X21165178Y-39041046D01*
X21163576Y-39042368D01*
X21160255Y-39045321D01*
X21156717Y-39048710D01*
X21152893Y-39052564D01*
X21148712Y-39056913D01*
X21139960Y-39067287D01*
X21131135Y-39080055D01*
X21122258Y-39095148D01*
X21113354Y-39112498D01*
X21104443Y-39132037D01*
X21095549Y-39153697D01*
X21077900Y-39203106D01*
X21060586Y-39260180D01*
X21043785Y-39324372D01*
X21027677Y-39395136D01*
X21012442Y-39471927D01*
X20997287Y-39563894D01*
X20985290Y-39658615D01*
X20976419Y-39755669D01*
X20970642Y-39854634D01*
X20967926Y-39955086D01*
X20681534Y-39955086D01*
X20681978Y-39928727D01*
X20685646Y-39838282D01*
X20691451Y-39748385D01*
X20699394Y-39659237D01*
X20709471Y-39571039D01*
X20721684Y-39483992D01*
X20736030Y-39398298D01*
X20752509Y-39314158D01*
X20762792Y-39267210D01*
X20773596Y-39221441D01*
X20784862Y-39177013D01*
X20796530Y-39134087D01*
X20808538Y-39092827D01*
X20820826Y-39053393D01*
X20833335Y-39015948D01*
X20846005Y-38980653D01*
X20858773Y-38947672D01*
X20871582Y-38917166D01*
X20884369Y-38889296D01*
X20897075Y-38864225D01*
X20909640Y-38842115D01*
X20922003Y-38823129D01*
X20934104Y-38807427D01*
X20940037Y-38800858D01*
X20945883Y-38795172D01*
X20958290Y-38784720D01*
X20971481Y-38775059D01*
X20985422Y-38766197D01*
X21000077Y-38758143D01*
X21015414Y-38750906D01*
X21031397Y-38744493D01*
X21047991Y-38738914D01*
X21065163Y-38734176D01*
X21082878Y-38730288D01*
X21101102Y-38727258D01*
X21119800Y-38725095D01*
X21138937Y-38723808D01*
X21158481Y-38723404D01*
X21178395Y-38723892D01*
X21198646Y-38725281D01*
X21219199Y-38727579D01*
X21251590Y-38732919D01*
X21293090Y-38741338D01*
X21341265Y-38752223D01*
X21393683Y-38764966D01*
X21447910Y-38778956D01*
X21501512Y-38793582D01*
X21552056Y-38808234D01*
X21597109Y-38822302D01*
X21657433Y-38842879D01*
X21718371Y-38865329D01*
X21779775Y-38889573D01*
X21841495Y-38915530D01*
X21903382Y-38943123D01*
X21965288Y-38972271D01*
X22027063Y-39002895D01*
X22088558Y-39034915D01*
X22149625Y-39068253D01*
X22210113Y-39102828D01*
X22269874Y-39138562D01*
X22328759Y-39175376D01*
X22386618Y-39213188D01*
X22443303Y-39251922D01*
X22498665Y-39291496D01*
X22552554Y-39331832D01*
X22585774Y-39357369D01*
X22613255Y-39378802D01*
X22637215Y-39398013D01*
X22659872Y-39416885D01*
X22683441Y-39437302D01*
X22710139Y-39461146D01*
X22781791Y-39526652D01*
X22803648Y-39546592D01*
X22823808Y-39564622D01*
X22842438Y-39580846D01*
X22859708Y-39595368D01*
X22875787Y-39608292D01*
X22890844Y-39619721D01*
X22905049Y-39629760D01*
X22918569Y-39638513D01*
X22931574Y-39646084D01*
X22944234Y-39652576D01*
X22956717Y-39658094D01*
X22969192Y-39662741D01*
X22981829Y-39666622D01*
X22994796Y-39669840D01*
X23008262Y-39672500D01*
X23022397Y-39674705D01*
X23044807Y-39677158D01*
X23055780Y-39677792D01*
X23066814Y-39677999D01*
X23078074Y-39677753D01*
X23089720Y-39677030D01*
X23101917Y-39675805D01*
X23114827Y-39674054D01*
X23128613Y-39671751D01*
X23143438Y-39668872D01*
X23176854Y-39661287D01*
X23216378Y-39651101D01*
X23263312Y-39638118D01*
X23352557Y-39613875D01*
X23442323Y-39591468D01*
X23532173Y-39570981D01*
X23621668Y-39552502D01*
X23710371Y-39536113D01*
X23797845Y-39521901D01*
X23883651Y-39509951D01*
X23967352Y-39500348D01*
X24040254Y-39494356D01*
X24119694Y-39490372D01*
X24203195Y-39488372D01*
X24288282Y-39488327D01*
X24372478Y-39490211D01*
X24453307Y-39493997D01*
X24528294Y-39499659D01*
X24594962Y-39507170D01*
X24725210Y-39525856D01*
X24785387Y-39535183D01*
X24841913Y-39544440D01*
X24894523Y-39553582D01*
X24942951Y-39562566D01*
X24986933Y-39571346D01*
X25026202Y-39579878D01*
X25134929Y-39604425D01*
X25164966Y-39611410D01*
X25200094Y-39619989D01*
X25235945Y-39629080D01*
X25268151Y-39637601D01*
X25286113Y-39642268D01*
X25303274Y-39646257D01*
X25319787Y-39649592D01*
X25335806Y-39652294D01*
X25351484Y-39654387D01*
X25366976Y-39655894D01*
X25382435Y-39656836D01*
X25398014Y-39657238D01*
X25414369Y-39657117D01*
X25429679Y-39656374D01*
X25444162Y-39654888D01*
X25458033Y-39652535D01*
X25471511Y-39649195D01*
X25484811Y-39644745D01*
X25498151Y-39639062D01*
X25511747Y-39632025D01*
X25525817Y-39623512D01*
X25540577Y-39613401D01*
X25556244Y-39601570D01*
X25573035Y-39587896D01*
X25591167Y-39572258D01*
X25610856Y-39554534D01*
X25632320Y-39534601D01*
X25655776Y-39512337D01*
X25677857Y-39491472D01*
X25701048Y-39470045D01*
X25724653Y-39448665D01*
X25747981Y-39427942D01*
X25770339Y-39408487D01*
X25791032Y-39390908D01*
X25809369Y-39375815D01*
X25824655Y-39363819D01*
X25943821Y-39273437D01*
X25970456Y-39253950D01*
X26006963Y-39228263D01*
X26095679Y-39167654D01*
X26182143Y-39110340D01*
X26215836Y-39088772D01*
X26238531Y-39075051D01*
X26248637Y-39069311D01*
X26258625Y-39063537D01*
X26267338Y-39058404D01*
X26273620Y-39054587D01*
X26310337Y-39033066D01*
X26357143Y-39007963D01*
X26412060Y-38980213D01*
X26473113Y-38950749D01*
X26538326Y-38920507D01*
X26605725Y-38890420D01*
X26673332Y-38861421D01*
X26739173Y-38834446D01*
X26810297Y-38807411D01*
X26880339Y-38783416D01*
X26948775Y-38762557D01*
X26982227Y-38753335D01*
X27015080Y-38744935D01*
X27047269Y-38737368D01*
X27078729Y-38730646D01*
X27109394Y-38724783D01*
X27139198Y-38719790D01*
X27168076Y-38715680D01*
X27195962Y-38712465D01*
X27222790Y-38710157D01*
X27248496Y-38708769D01*
X27248594Y-38708763D01*
X27265076Y-38708355D01*
X27281012Y-38708363D01*
G37*
D11*
X6869673Y-25200552D02*
X6869673Y-26200552D01*
X6869673Y-25248171D02*
X6964911Y-25200552D01*
X6964911Y-25200552D02*
X7155387Y-25200552D01*
X7155387Y-25200552D02*
X7250625Y-25248171D01*
X7250625Y-25248171D02*
X7298244Y-25295790D01*
X7298244Y-25295790D02*
X7345863Y-25391028D01*
X7345863Y-25391028D02*
X7345863Y-25676742D01*
X7345863Y-25676742D02*
X7298244Y-25771980D01*
X7298244Y-25771980D02*
X7250625Y-25819600D01*
X7250625Y-25819600D02*
X7155387Y-25867219D01*
X7155387Y-25867219D02*
X6964911Y-25867219D01*
X6964911Y-25867219D02*
X6869673Y-25819600D01*
X8298244Y-25867219D02*
X7726816Y-25867219D01*
X8012530Y-25867219D02*
X8012530Y-24867219D01*
X8012530Y-24867219D02*
X7917292Y-25010076D01*
X7917292Y-25010076D02*
X7822054Y-25105314D01*
X7822054Y-25105314D02*
X7726816Y-25152933D01*
D12*
X2054510Y-50265114D02*
X2268796Y-50336542D01*
X2268796Y-50336542D02*
X2340225Y-50407971D01*
X2340225Y-50407971D02*
X2411653Y-50550828D01*
X2411653Y-50550828D02*
X2411653Y-50765114D01*
X2411653Y-50765114D02*
X2340225Y-50907971D01*
X2340225Y-50907971D02*
X2268796Y-50979400D01*
X2268796Y-50979400D02*
X2125939Y-51050828D01*
X2125939Y-51050828D02*
X1554510Y-51050828D01*
X1554510Y-51050828D02*
X1554510Y-49550828D01*
X1554510Y-49550828D02*
X2054510Y-49550828D01*
X2054510Y-49550828D02*
X2197368Y-49622257D01*
X2197368Y-49622257D02*
X2268796Y-49693685D01*
X2268796Y-49693685D02*
X2340225Y-49836542D01*
X2340225Y-49836542D02*
X2340225Y-49979400D01*
X2340225Y-49979400D02*
X2268796Y-50122257D01*
X2268796Y-50122257D02*
X2197368Y-50193685D01*
X2197368Y-50193685D02*
X2054510Y-50265114D01*
X2054510Y-50265114D02*
X1554510Y-50265114D01*
X3054510Y-50479400D02*
X4197368Y-50479400D01*
D11*
X14068743Y-15279571D02*
X14592552Y-15279571D01*
X14592552Y-15279571D02*
X14068743Y-15946238D01*
X14068743Y-15946238D02*
X14592552Y-15946238D01*
X15402076Y-15946238D02*
X15402076Y-15422428D01*
X15402076Y-15422428D02*
X15354457Y-15327190D01*
X15354457Y-15327190D02*
X15259219Y-15279571D01*
X15259219Y-15279571D02*
X15068743Y-15279571D01*
X15068743Y-15279571D02*
X14973505Y-15327190D01*
X15402076Y-15898619D02*
X15306838Y-15946238D01*
X15306838Y-15946238D02*
X15068743Y-15946238D01*
X15068743Y-15946238D02*
X14973505Y-15898619D01*
X14973505Y-15898619D02*
X14925886Y-15803380D01*
X14925886Y-15803380D02*
X14925886Y-15708142D01*
X14925886Y-15708142D02*
X14973505Y-15612904D01*
X14973505Y-15612904D02*
X15068743Y-15565285D01*
X15068743Y-15565285D02*
X15306838Y-15565285D01*
X15306838Y-15565285D02*
X15402076Y-15517666D01*
X15783029Y-15279571D02*
X16306838Y-15279571D01*
X16306838Y-15279571D02*
X15783029Y-15946238D01*
X15783029Y-15946238D02*
X16306838Y-15946238D01*
X16068743Y-14946238D02*
X16021124Y-14993857D01*
X16021124Y-14993857D02*
X16068743Y-15041476D01*
X16068743Y-15041476D02*
X16116362Y-14993857D01*
X16116362Y-14993857D02*
X16068743Y-14946238D01*
X16068743Y-14946238D02*
X16068743Y-15041476D01*
X16830648Y-15946238D02*
X16735410Y-15898619D01*
X16735410Y-15898619D02*
X16687791Y-15850999D01*
X16687791Y-15850999D02*
X16640172Y-15755761D01*
X16640172Y-15755761D02*
X16640172Y-15470047D01*
X16640172Y-15470047D02*
X16687791Y-15374809D01*
X16687791Y-15374809D02*
X16735410Y-15327190D01*
X16735410Y-15327190D02*
X16830648Y-15279571D01*
X16830648Y-15279571D02*
X16973505Y-15279571D01*
X16973505Y-15279571D02*
X17068743Y-15327190D01*
X17068743Y-15327190D02*
X17116362Y-15374809D01*
X17116362Y-15374809D02*
X17163981Y-15470047D01*
X17163981Y-15470047D02*
X17163981Y-15755761D01*
X17163981Y-15755761D02*
X17116362Y-15850999D01*
X17116362Y-15850999D02*
X17068743Y-15898619D01*
X17068743Y-15898619D02*
X16973505Y-15946238D01*
X16973505Y-15946238D02*
X16830648Y-15946238D01*
X17021124Y-14898619D02*
X16878267Y-15041476D01*
X17735410Y-15946238D02*
X17640172Y-15898619D01*
X17640172Y-15898619D02*
X17592553Y-15803380D01*
X17592553Y-15803380D02*
X17592553Y-14946238D01*
X17449696Y-15470047D02*
X17735410Y-15279571D01*
X18544934Y-15898619D02*
X18449696Y-15946238D01*
X18449696Y-15946238D02*
X18259220Y-15946238D01*
X18259220Y-15946238D02*
X18163982Y-15898619D01*
X18163982Y-15898619D02*
X18116363Y-15850999D01*
X18116363Y-15850999D02*
X18068744Y-15755761D01*
X18068744Y-15755761D02*
X18068744Y-15470047D01*
X18068744Y-15470047D02*
X18116363Y-15374809D01*
X18116363Y-15374809D02*
X18163982Y-15327190D01*
X18163982Y-15327190D02*
X18259220Y-15279571D01*
X18259220Y-15279571D02*
X18449696Y-15279571D01*
X18449696Y-15279571D02*
X18544934Y-15327190D01*
X18449696Y-14898619D02*
X18306839Y-15041476D01*
X14997314Y-16889515D02*
X14997314Y-17699039D01*
X14997314Y-17699039D02*
X14949695Y-17794277D01*
X14949695Y-17794277D02*
X14902076Y-17841896D01*
X14902076Y-17841896D02*
X14806838Y-17889515D01*
X14806838Y-17889515D02*
X14663981Y-17889515D01*
X14663981Y-17889515D02*
X14568743Y-17841896D01*
X14997314Y-17508563D02*
X14902076Y-17556182D01*
X14902076Y-17556182D02*
X14711600Y-17556182D01*
X14711600Y-17556182D02*
X14616362Y-17508563D01*
X14616362Y-17508563D02*
X14568743Y-17460943D01*
X14568743Y-17460943D02*
X14521124Y-17365705D01*
X14521124Y-17365705D02*
X14521124Y-17079991D01*
X14521124Y-17079991D02*
X14568743Y-16984753D01*
X14568743Y-16984753D02*
X14616362Y-16937134D01*
X14616362Y-16937134D02*
X14711600Y-16889515D01*
X14711600Y-16889515D02*
X14902076Y-16889515D01*
X14902076Y-16889515D02*
X14997314Y-16937134D01*
X15854457Y-17508563D02*
X15759219Y-17556182D01*
X15759219Y-17556182D02*
X15568743Y-17556182D01*
X15568743Y-17556182D02*
X15473505Y-17508563D01*
X15473505Y-17508563D02*
X15425886Y-17413324D01*
X15425886Y-17413324D02*
X15425886Y-17032372D01*
X15425886Y-17032372D02*
X15473505Y-16937134D01*
X15473505Y-16937134D02*
X15568743Y-16889515D01*
X15568743Y-16889515D02*
X15759219Y-16889515D01*
X15759219Y-16889515D02*
X15854457Y-16937134D01*
X15854457Y-16937134D02*
X15902076Y-17032372D01*
X15902076Y-17032372D02*
X15902076Y-17127610D01*
X15902076Y-17127610D02*
X15425886Y-17222848D01*
X15663981Y-17556182D02*
X15568743Y-17651420D01*
X15568743Y-17651420D02*
X15521124Y-17746658D01*
X15521124Y-17746658D02*
X15568743Y-17841896D01*
X15568743Y-17841896D02*
X15663981Y-17889515D01*
X15663981Y-17889515D02*
X15759219Y-17889515D01*
X16283029Y-17508563D02*
X16378267Y-17556182D01*
X16378267Y-17556182D02*
X16568743Y-17556182D01*
X16568743Y-17556182D02*
X16663981Y-17508563D01*
X16663981Y-17508563D02*
X16711600Y-17413324D01*
X16711600Y-17413324D02*
X16711600Y-17365705D01*
X16711600Y-17365705D02*
X16663981Y-17270467D01*
X16663981Y-17270467D02*
X16568743Y-17222848D01*
X16568743Y-17222848D02*
X16425886Y-17222848D01*
X16425886Y-17222848D02*
X16330648Y-17175229D01*
X16330648Y-17175229D02*
X16283029Y-17079991D01*
X16283029Y-17079991D02*
X16283029Y-17032372D01*
X16283029Y-17032372D02*
X16330648Y-16937134D01*
X16330648Y-16937134D02*
X16425886Y-16889515D01*
X16425886Y-16889515D02*
X16568743Y-16889515D01*
X16568743Y-16889515D02*
X16663981Y-16937134D01*
X16568743Y-16508563D02*
X16425886Y-16651420D01*
X17283029Y-17556182D02*
X17187791Y-17508563D01*
X17187791Y-17508563D02*
X17140172Y-17413324D01*
X17140172Y-17413324D02*
X17140172Y-16556182D01*
X18092553Y-17556182D02*
X18092553Y-17032372D01*
X18092553Y-17032372D02*
X18044934Y-16937134D01*
X18044934Y-16937134D02*
X17949696Y-16889515D01*
X17949696Y-16889515D02*
X17759220Y-16889515D01*
X17759220Y-16889515D02*
X17663982Y-16937134D01*
X18092553Y-17508563D02*
X17997315Y-17556182D01*
X17997315Y-17556182D02*
X17759220Y-17556182D01*
X17759220Y-17556182D02*
X17663982Y-17508563D01*
X17663982Y-17508563D02*
X17616363Y-17413324D01*
X17616363Y-17413324D02*
X17616363Y-17318086D01*
X17616363Y-17318086D02*
X17663982Y-17222848D01*
X17663982Y-17222848D02*
X17759220Y-17175229D01*
X17759220Y-17175229D02*
X17997315Y-17175229D01*
X17997315Y-17175229D02*
X18092553Y-17127610D01*
X18092553Y-17556182D02*
X17997315Y-17651420D01*
X17997315Y-17651420D02*
X17949696Y-17746658D01*
X17949696Y-17746658D02*
X17997315Y-17841896D01*
X17997315Y-17841896D02*
X18092553Y-17889515D01*
X18092553Y-17889515D02*
X18187791Y-17889515D01*
X15021124Y-18499459D02*
X15021124Y-19356602D01*
X15021124Y-19356602D02*
X14973505Y-19451840D01*
X14973505Y-19451840D02*
X14878267Y-19499459D01*
X14878267Y-19499459D02*
X14830648Y-19499459D01*
X15021124Y-18166126D02*
X14973505Y-18213745D01*
X14973505Y-18213745D02*
X15021124Y-18261364D01*
X15021124Y-18261364D02*
X15068743Y-18213745D01*
X15068743Y-18213745D02*
X15021124Y-18166126D01*
X15021124Y-18166126D02*
X15021124Y-18261364D01*
X15925885Y-19166126D02*
X15925885Y-18642316D01*
X15925885Y-18642316D02*
X15878266Y-18547078D01*
X15878266Y-18547078D02*
X15783028Y-18499459D01*
X15783028Y-18499459D02*
X15592552Y-18499459D01*
X15592552Y-18499459D02*
X15497314Y-18547078D01*
X15925885Y-19118507D02*
X15830647Y-19166126D01*
X15830647Y-19166126D02*
X15592552Y-19166126D01*
X15592552Y-19166126D02*
X15497314Y-19118507D01*
X15497314Y-19118507D02*
X15449695Y-19023268D01*
X15449695Y-19023268D02*
X15449695Y-18928030D01*
X15449695Y-18928030D02*
X15497314Y-18832792D01*
X15497314Y-18832792D02*
X15592552Y-18785173D01*
X15592552Y-18785173D02*
X15830647Y-18785173D01*
X15830647Y-18785173D02*
X15925885Y-18737554D01*
X16306838Y-18499459D02*
X16830647Y-18499459D01*
X16830647Y-18499459D02*
X16306838Y-19166126D01*
X16306838Y-19166126D02*
X16830647Y-19166126D01*
X16687790Y-18118507D02*
X16544933Y-18261364D01*
X17211600Y-18499459D02*
X17211600Y-19166126D01*
X17211600Y-18594697D02*
X17259219Y-18547078D01*
X17259219Y-18547078D02*
X17354457Y-18499459D01*
X17354457Y-18499459D02*
X17497314Y-18499459D01*
X17497314Y-18499459D02*
X17592552Y-18547078D01*
X17592552Y-18547078D02*
X17640171Y-18642316D01*
X17640171Y-18642316D02*
X17640171Y-19166126D01*
X17497314Y-18118507D02*
X17354457Y-18261364D01*
D12*
X1868796Y-32439442D02*
X1154510Y-32439442D01*
X1154510Y-32439442D02*
X1083082Y-33153728D01*
X1083082Y-33153728D02*
X1154510Y-33082299D01*
X1154510Y-33082299D02*
X1297368Y-33010871D01*
X1297368Y-33010871D02*
X1654510Y-33010871D01*
X1654510Y-33010871D02*
X1797368Y-33082299D01*
X1797368Y-33082299D02*
X1868796Y-33153728D01*
X1868796Y-33153728D02*
X1940225Y-33296585D01*
X1940225Y-33296585D02*
X1940225Y-33653728D01*
X1940225Y-33653728D02*
X1868796Y-33796585D01*
X1868796Y-33796585D02*
X1797368Y-33868014D01*
X1797368Y-33868014D02*
X1654510Y-33939442D01*
X1654510Y-33939442D02*
X1297368Y-33939442D01*
X1297368Y-33939442D02*
X1154510Y-33868014D01*
X1154510Y-33868014D02*
X1083082Y-33796585D01*
X2368796Y-32439442D02*
X2868796Y-33939442D01*
X2868796Y-33939442D02*
X3368796Y-32439442D01*
D11*
X21320802Y-47298810D02*
X21416041Y-47251191D01*
X21416041Y-47251191D02*
X21606517Y-47251191D01*
X21606517Y-47251191D02*
X21701755Y-47298810D01*
X21701755Y-47298810D02*
X21796993Y-47394048D01*
X21796993Y-47394048D02*
X21844612Y-47489286D01*
X21844612Y-47489286D02*
X21844612Y-47679762D01*
X21844612Y-47679762D02*
X21796993Y-47775000D01*
X21796993Y-47775000D02*
X21701755Y-47870238D01*
X21701755Y-47870238D02*
X21606517Y-47917857D01*
X21606517Y-47917857D02*
X21416041Y-47917857D01*
X21416041Y-47917857D02*
X21320802Y-47870238D01*
X21511279Y-46917857D02*
X21749374Y-46965476D01*
X21749374Y-46965476D02*
X21987469Y-47108334D01*
X21987469Y-47108334D02*
X22130326Y-47346429D01*
X22130326Y-47346429D02*
X22177945Y-47584524D01*
X22177945Y-47584524D02*
X22130326Y-47822619D01*
X22130326Y-47822619D02*
X21987469Y-48060715D01*
X21987469Y-48060715D02*
X21749374Y-48203572D01*
X21749374Y-48203572D02*
X21511279Y-48251191D01*
X21511279Y-48251191D02*
X21273183Y-48203572D01*
X21273183Y-48203572D02*
X21035088Y-48060715D01*
X21035088Y-48060715D02*
X20892231Y-47822619D01*
X20892231Y-47822619D02*
X20844612Y-47584524D01*
X20844612Y-47584524D02*
X20892231Y-47346429D01*
X20892231Y-47346429D02*
X21035088Y-47108334D01*
X21035088Y-47108334D02*
X21273183Y-46965476D01*
X21273183Y-46965476D02*
X21511279Y-46917857D01*
D12*
X1361653Y-30372257D02*
X1247368Y-30300828D01*
X1247368Y-30300828D02*
X1075939Y-30300828D01*
X1075939Y-30300828D02*
X904510Y-30372257D01*
X904510Y-30372257D02*
X790225Y-30515114D01*
X790225Y-30515114D02*
X733082Y-30657971D01*
X733082Y-30657971D02*
X675939Y-30943685D01*
X675939Y-30943685D02*
X675939Y-31157971D01*
X675939Y-31157971D02*
X733082Y-31443685D01*
X733082Y-31443685D02*
X790225Y-31586542D01*
X790225Y-31586542D02*
X904510Y-31729400D01*
X904510Y-31729400D02*
X1075939Y-31800828D01*
X1075939Y-31800828D02*
X1190225Y-31800828D01*
X1190225Y-31800828D02*
X1361653Y-31729400D01*
X1361653Y-31729400D02*
X1418796Y-31657971D01*
X1418796Y-31657971D02*
X1418796Y-31157971D01*
X1418796Y-31157971D02*
X1190225Y-31157971D01*
X1933082Y-31800828D02*
X1933082Y-30300828D01*
X1933082Y-30300828D02*
X2618796Y-31800828D01*
X2618796Y-31800828D02*
X2618796Y-30300828D01*
X3190225Y-31800828D02*
X3190225Y-30300828D01*
X3190225Y-30300828D02*
X3475939Y-30300828D01*
X3475939Y-30300828D02*
X3647368Y-30372257D01*
X3647368Y-30372257D02*
X3761653Y-30515114D01*
X3761653Y-30515114D02*
X3818796Y-30657971D01*
X3818796Y-30657971D02*
X3875939Y-30943685D01*
X3875939Y-30943685D02*
X3875939Y-31157971D01*
X3875939Y-31157971D02*
X3818796Y-31443685D01*
X3818796Y-31443685D02*
X3761653Y-31586542D01*
X3761653Y-31586542D02*
X3647368Y-31729400D01*
X3647368Y-31729400D02*
X3475939Y-31800828D01*
X3475939Y-31800828D02*
X3190225Y-31800828D01*
D11*
X22594734Y-48076867D02*
X22594734Y-47076867D01*
X22594734Y-47076867D02*
X22928067Y-47791152D01*
X22928067Y-47791152D02*
X23261400Y-47076867D01*
X23261400Y-47076867D02*
X23261400Y-48076867D01*
X23737591Y-48076867D02*
X23737591Y-47076867D01*
X23737591Y-47076867D02*
X24070924Y-47791152D01*
X24070924Y-47791152D02*
X24404257Y-47076867D01*
X24404257Y-47076867D02*
X24404257Y-48076867D01*
X24785210Y-47076867D02*
X25451876Y-48076867D01*
X25451876Y-47076867D02*
X24785210Y-48076867D01*
X25737591Y-47076867D02*
X26404257Y-48076867D01*
X26404257Y-47076867D02*
X25737591Y-48076867D01*
X26642353Y-47076867D02*
X26975686Y-48076867D01*
X26975686Y-48076867D02*
X27309019Y-47076867D01*
X27642353Y-48076867D02*
X27642353Y-47076867D01*
D12*
X1483082Y-48122257D02*
X2197368Y-48122257D01*
X1340225Y-48550828D02*
X1840225Y-47050828D01*
X1840225Y-47050828D02*
X2340225Y-48550828D01*
X2840224Y-47979400D02*
X3983082Y-47979400D01*
X3411653Y-48550828D02*
X3411653Y-47407971D01*
D11*
X6046951Y-24367218D02*
X5570761Y-24367218D01*
X5570761Y-24367218D02*
X5570761Y-23367218D01*
X6332666Y-24319599D02*
X6475523Y-24367218D01*
X6475523Y-24367218D02*
X6713618Y-24367218D01*
X6713618Y-24367218D02*
X6808856Y-24319599D01*
X6808856Y-24319599D02*
X6856475Y-24271979D01*
X6856475Y-24271979D02*
X6904094Y-24176741D01*
X6904094Y-24176741D02*
X6904094Y-24081503D01*
X6904094Y-24081503D02*
X6856475Y-23986265D01*
X6856475Y-23986265D02*
X6808856Y-23938646D01*
X6808856Y-23938646D02*
X6713618Y-23891027D01*
X6713618Y-23891027D02*
X6523142Y-23843408D01*
X6523142Y-23843408D02*
X6427904Y-23795789D01*
X6427904Y-23795789D02*
X6380285Y-23748170D01*
X6380285Y-23748170D02*
X6332666Y-23652932D01*
X6332666Y-23652932D02*
X6332666Y-23557694D01*
X6332666Y-23557694D02*
X6380285Y-23462456D01*
X6380285Y-23462456D02*
X6427904Y-23414837D01*
X6427904Y-23414837D02*
X6523142Y-23367218D01*
X6523142Y-23367218D02*
X6761237Y-23367218D01*
X6761237Y-23367218D02*
X6904094Y-23414837D01*
X7237428Y-23367218D02*
X7475523Y-24367218D01*
X7475523Y-24367218D02*
X7665999Y-23652932D01*
X7665999Y-23652932D02*
X7856475Y-24367218D01*
X7856475Y-24367218D02*
X8094571Y-23367218D01*
X8951713Y-23367218D02*
X8475523Y-23367218D01*
X8475523Y-23367218D02*
X8427904Y-23843408D01*
X8427904Y-23843408D02*
X8475523Y-23795789D01*
X8475523Y-23795789D02*
X8570761Y-23748170D01*
X8570761Y-23748170D02*
X8808856Y-23748170D01*
X8808856Y-23748170D02*
X8904094Y-23795789D01*
X8904094Y-23795789D02*
X8951713Y-23843408D01*
X8951713Y-23843408D02*
X8999332Y-23938646D01*
X8999332Y-23938646D02*
X8999332Y-24176741D01*
X8999332Y-24176741D02*
X8951713Y-24271979D01*
X8951713Y-24271979D02*
X8904094Y-24319599D01*
X8904094Y-24319599D02*
X8808856Y-24367218D01*
X8808856Y-24367218D02*
X8570761Y-24367218D01*
X8570761Y-24367218D02*
X8475523Y-24319599D01*
X8475523Y-24319599D02*
X8427904Y-24271979D01*
X9427904Y-23986265D02*
X10189809Y-23986265D01*
X10665999Y-23843408D02*
X10999332Y-23843408D01*
X11142189Y-24367218D02*
X10665999Y-24367218D01*
X10665999Y-24367218D02*
X10665999Y-23367218D01*
X10665999Y-23367218D02*
X11142189Y-23367218D01*
X11523142Y-24319599D02*
X11665999Y-24367218D01*
X11665999Y-24367218D02*
X11904094Y-24367218D01*
X11904094Y-24367218D02*
X11999332Y-24319599D01*
X11999332Y-24319599D02*
X12046951Y-24271979D01*
X12046951Y-24271979D02*
X12094570Y-24176741D01*
X12094570Y-24176741D02*
X12094570Y-24081503D01*
X12094570Y-24081503D02*
X12046951Y-23986265D01*
X12046951Y-23986265D02*
X11999332Y-23938646D01*
X11999332Y-23938646D02*
X11904094Y-23891027D01*
X11904094Y-23891027D02*
X11713618Y-23843408D01*
X11713618Y-23843408D02*
X11618380Y-23795789D01*
X11618380Y-23795789D02*
X11570761Y-23748170D01*
X11570761Y-23748170D02*
X11523142Y-23652932D01*
X11523142Y-23652932D02*
X11523142Y-23557694D01*
X11523142Y-23557694D02*
X11570761Y-23462456D01*
X11570761Y-23462456D02*
X11618380Y-23414837D01*
X11618380Y-23414837D02*
X11713618Y-23367218D01*
X11713618Y-23367218D02*
X11951713Y-23367218D01*
X11951713Y-23367218D02*
X12094570Y-23414837D01*
X12523142Y-24367218D02*
X12523142Y-23367218D01*
X12523142Y-23367218D02*
X12904094Y-23367218D01*
X12904094Y-23367218D02*
X12999332Y-23414837D01*
X12999332Y-23414837D02*
X13046951Y-23462456D01*
X13046951Y-23462456D02*
X13094570Y-23557694D01*
X13094570Y-23557694D02*
X13094570Y-23700551D01*
X13094570Y-23700551D02*
X13046951Y-23795789D01*
X13046951Y-23795789D02*
X12999332Y-23843408D01*
X12999332Y-23843408D02*
X12904094Y-23891027D01*
X12904094Y-23891027D02*
X12523142Y-23891027D01*
X13427904Y-23367218D02*
X14046951Y-23367218D01*
X14046951Y-23367218D02*
X13713618Y-23748170D01*
X13713618Y-23748170D02*
X13856475Y-23748170D01*
X13856475Y-23748170D02*
X13951713Y-23795789D01*
X13951713Y-23795789D02*
X13999332Y-23843408D01*
X13999332Y-23843408D02*
X14046951Y-23938646D01*
X14046951Y-23938646D02*
X14046951Y-24176741D01*
X14046951Y-24176741D02*
X13999332Y-24271979D01*
X13999332Y-24271979D02*
X13951713Y-24319599D01*
X13951713Y-24319599D02*
X13856475Y-24367218D01*
X13856475Y-24367218D02*
X13570761Y-24367218D01*
X13570761Y-24367218D02*
X13475523Y-24319599D01*
X13475523Y-24319599D02*
X13427904Y-24271979D01*
X14427904Y-23462456D02*
X14475523Y-23414837D01*
X14475523Y-23414837D02*
X14570761Y-23367218D01*
X14570761Y-23367218D02*
X14808856Y-23367218D01*
X14808856Y-23367218D02*
X14904094Y-23414837D01*
X14904094Y-23414837D02*
X14951713Y-23462456D01*
X14951713Y-23462456D02*
X14999332Y-23557694D01*
X14999332Y-23557694D02*
X14999332Y-23652932D01*
X14999332Y-23652932D02*
X14951713Y-23795789D01*
X14951713Y-23795789D02*
X14380285Y-24367218D01*
X14380285Y-24367218D02*
X14999332Y-24367218D01*
D13*
X15930074Y-42679580D02*
X15882455Y-42727200D01*
X15882455Y-42727200D02*
X15739598Y-42774819D01*
X15739598Y-42774819D02*
X15644360Y-42774819D01*
X15644360Y-42774819D02*
X15501503Y-42727200D01*
X15501503Y-42727200D02*
X15406265Y-42631961D01*
X15406265Y-42631961D02*
X15358646Y-42536723D01*
X15358646Y-42536723D02*
X15311027Y-42346247D01*
X15311027Y-42346247D02*
X15311027Y-42203390D01*
X15311027Y-42203390D02*
X15358646Y-42012914D01*
X15358646Y-42012914D02*
X15406265Y-41917676D01*
X15406265Y-41917676D02*
X15501503Y-41822438D01*
X15501503Y-41822438D02*
X15644360Y-41774819D01*
X15644360Y-41774819D02*
X15739598Y-41774819D01*
X15739598Y-41774819D02*
X15882455Y-41822438D01*
X15882455Y-41822438D02*
X15930074Y-41870057D01*
X16263408Y-41774819D02*
X16930074Y-41774819D01*
X16930074Y-41774819D02*
X16501503Y-42774819D01*
X12083333Y-46704819D02*
X11750000Y-46228628D01*
X11511905Y-46704819D02*
X11511905Y-45704819D01*
X11511905Y-45704819D02*
X11892857Y-45704819D01*
X11892857Y-45704819D02*
X11988095Y-45752438D01*
X11988095Y-45752438D02*
X12035714Y-45800057D01*
X12035714Y-45800057D02*
X12083333Y-45895295D01*
X12083333Y-45895295D02*
X12083333Y-46038152D01*
X12083333Y-46038152D02*
X12035714Y-46133390D01*
X12035714Y-46133390D02*
X11988095Y-46181009D01*
X11988095Y-46181009D02*
X11892857Y-46228628D01*
X11892857Y-46228628D02*
X11511905Y-46228628D01*
X12416667Y-45704819D02*
X13035714Y-45704819D01*
X13035714Y-45704819D02*
X12702381Y-46085771D01*
X12702381Y-46085771D02*
X12845238Y-46085771D01*
X12845238Y-46085771D02*
X12940476Y-46133390D01*
X12940476Y-46133390D02*
X12988095Y-46181009D01*
X12988095Y-46181009D02*
X13035714Y-46276247D01*
X13035714Y-46276247D02*
X13035714Y-46514342D01*
X13035714Y-46514342D02*
X12988095Y-46609580D01*
X12988095Y-46609580D02*
X12940476Y-46657200D01*
X12940476Y-46657200D02*
X12845238Y-46704819D01*
X12845238Y-46704819D02*
X12559524Y-46704819D01*
X12559524Y-46704819D02*
X12464286Y-46657200D01*
X12464286Y-46657200D02*
X12416667Y-46609580D01*
X17370833Y-30039580D02*
X17323214Y-30087200D01*
X17323214Y-30087200D02*
X17180357Y-30134819D01*
X17180357Y-30134819D02*
X17085119Y-30134819D01*
X17085119Y-30134819D02*
X16942262Y-30087200D01*
X16942262Y-30087200D02*
X16847024Y-29991961D01*
X16847024Y-29991961D02*
X16799405Y-29896723D01*
X16799405Y-29896723D02*
X16751786Y-29706247D01*
X16751786Y-29706247D02*
X16751786Y-29563390D01*
X16751786Y-29563390D02*
X16799405Y-29372914D01*
X16799405Y-29372914D02*
X16847024Y-29277676D01*
X16847024Y-29277676D02*
X16942262Y-29182438D01*
X16942262Y-29182438D02*
X17085119Y-29134819D01*
X17085119Y-29134819D02*
X17180357Y-29134819D01*
X17180357Y-29134819D02*
X17323214Y-29182438D01*
X17323214Y-29182438D02*
X17370833Y-29230057D01*
X18227976Y-29468152D02*
X18227976Y-30134819D01*
X17989881Y-29087200D02*
X17751786Y-29801485D01*
X17751786Y-29801485D02*
X18370833Y-29801485D01*
X8238095Y-21454819D02*
X8238095Y-22264342D01*
X8238095Y-22264342D02*
X8285714Y-22359580D01*
X8285714Y-22359580D02*
X8333333Y-22407200D01*
X8333333Y-22407200D02*
X8428571Y-22454819D01*
X8428571Y-22454819D02*
X8619047Y-22454819D01*
X8619047Y-22454819D02*
X8714285Y-22407200D01*
X8714285Y-22407200D02*
X8761904Y-22359580D01*
X8761904Y-22359580D02*
X8809523Y-22264342D01*
X8809523Y-22264342D02*
X8809523Y-21454819D01*
X9809523Y-22454819D02*
X9238095Y-22454819D01*
X9523809Y-22454819D02*
X9523809Y-21454819D01*
X9523809Y-21454819D02*
X9428571Y-21597676D01*
X9428571Y-21597676D02*
X9333333Y-21692914D01*
X9333333Y-21692914D02*
X9238095Y-21740533D01*
X29666666Y-11344819D02*
X29666666Y-12059104D01*
X29666666Y-12059104D02*
X29619047Y-12201961D01*
X29619047Y-12201961D02*
X29523809Y-12297200D01*
X29523809Y-12297200D02*
X29380952Y-12344819D01*
X29380952Y-12344819D02*
X29285714Y-12344819D01*
X30571428Y-11678152D02*
X30571428Y-12344819D01*
X30333333Y-11297200D02*
X30095238Y-12011485D01*
X30095238Y-12011485D02*
X30714285Y-12011485D01*
X8388039Y-51359580D02*
X8340420Y-51407200D01*
X8340420Y-51407200D02*
X8197563Y-51454819D01*
X8197563Y-51454819D02*
X8102325Y-51454819D01*
X8102325Y-51454819D02*
X7959468Y-51407200D01*
X7959468Y-51407200D02*
X7864230Y-51311961D01*
X7864230Y-51311961D02*
X7816611Y-51216723D01*
X7816611Y-51216723D02*
X7768992Y-51026247D01*
X7768992Y-51026247D02*
X7768992Y-50883390D01*
X7768992Y-50883390D02*
X7816611Y-50692914D01*
X7816611Y-50692914D02*
X7864230Y-50597676D01*
X7864230Y-50597676D02*
X7959468Y-50502438D01*
X7959468Y-50502438D02*
X8102325Y-50454819D01*
X8102325Y-50454819D02*
X8197563Y-50454819D01*
X8197563Y-50454819D02*
X8340420Y-50502438D01*
X8340420Y-50502438D02*
X8388039Y-50550057D01*
X9007087Y-50454819D02*
X9197563Y-50454819D01*
X9197563Y-50454819D02*
X9292801Y-50502438D01*
X9292801Y-50502438D02*
X9388039Y-50597676D01*
X9388039Y-50597676D02*
X9435658Y-50788152D01*
X9435658Y-50788152D02*
X9435658Y-51121485D01*
X9435658Y-51121485D02*
X9388039Y-51311961D01*
X9388039Y-51311961D02*
X9292801Y-51407200D01*
X9292801Y-51407200D02*
X9197563Y-51454819D01*
X9197563Y-51454819D02*
X9007087Y-51454819D01*
X9007087Y-51454819D02*
X8911849Y-51407200D01*
X8911849Y-51407200D02*
X8816611Y-51311961D01*
X8816611Y-51311961D02*
X8768992Y-51121485D01*
X8768992Y-51121485D02*
X8768992Y-50788152D01*
X8768992Y-50788152D02*
X8816611Y-50597676D01*
X8816611Y-50597676D02*
X8911849Y-50502438D01*
X8911849Y-50502438D02*
X9007087Y-50454819D01*
X9864230Y-51454819D02*
X9864230Y-50454819D01*
X9864230Y-50454819D02*
X10197563Y-51169104D01*
X10197563Y-51169104D02*
X10530896Y-50454819D01*
X10530896Y-50454819D02*
X10530896Y-51454819D01*
X15915320Y-51454819D02*
X15915320Y-50454819D01*
X15915320Y-50454819D02*
X16486748Y-51454819D01*
X16486748Y-51454819D02*
X16486748Y-50454819D01*
X16962939Y-50931009D02*
X17296272Y-50931009D01*
X17439129Y-51454819D02*
X16962939Y-51454819D01*
X16962939Y-51454819D02*
X16962939Y-50454819D01*
X16962939Y-50454819D02*
X17439129Y-50454819D01*
X17724844Y-50454819D02*
X18296272Y-50454819D01*
X18010558Y-51454819D02*
X18010558Y-50454819D01*
X28454819Y-36333333D02*
X29169104Y-36333333D01*
X29169104Y-36333333D02*
X29311961Y-36380952D01*
X29311961Y-36380952D02*
X29407200Y-36476190D01*
X29407200Y-36476190D02*
X29454819Y-36619047D01*
X29454819Y-36619047D02*
X29454819Y-36714285D01*
X28454819Y-35952380D02*
X28454819Y-35333333D01*
X28454819Y-35333333D02*
X28835771Y-35666666D01*
X28835771Y-35666666D02*
X28835771Y-35523809D01*
X28835771Y-35523809D02*
X28883390Y-35428571D01*
X28883390Y-35428571D02*
X28931009Y-35380952D01*
X28931009Y-35380952D02*
X29026247Y-35333333D01*
X29026247Y-35333333D02*
X29264342Y-35333333D01*
X29264342Y-35333333D02*
X29359580Y-35380952D01*
X29359580Y-35380952D02*
X29407200Y-35428571D01*
X29407200Y-35428571D02*
X29454819Y-35523809D01*
X29454819Y-35523809D02*
X29454819Y-35809523D01*
X29454819Y-35809523D02*
X29407200Y-35904761D01*
X29407200Y-35904761D02*
X29359580Y-35952380D01*
X16359580Y-35666666D02*
X16407200Y-35714285D01*
X16407200Y-35714285D02*
X16454819Y-35857142D01*
X16454819Y-35857142D02*
X16454819Y-35952380D01*
X16454819Y-35952380D02*
X16407200Y-36095237D01*
X16407200Y-36095237D02*
X16311961Y-36190475D01*
X16311961Y-36190475D02*
X16216723Y-36238094D01*
X16216723Y-36238094D02*
X16026247Y-36285713D01*
X16026247Y-36285713D02*
X15883390Y-36285713D01*
X15883390Y-36285713D02*
X15692914Y-36238094D01*
X15692914Y-36238094D02*
X15597676Y-36190475D01*
X15597676Y-36190475D02*
X15502438Y-36095237D01*
X15502438Y-36095237D02*
X15454819Y-35952380D01*
X15454819Y-35952380D02*
X15454819Y-35857142D01*
X15454819Y-35857142D02*
X15502438Y-35714285D01*
X15502438Y-35714285D02*
X15550057Y-35666666D01*
X15454819Y-34761904D02*
X15454819Y-35238094D01*
X15454819Y-35238094D02*
X15931009Y-35285713D01*
X15931009Y-35285713D02*
X15883390Y-35238094D01*
X15883390Y-35238094D02*
X15835771Y-35142856D01*
X15835771Y-35142856D02*
X15835771Y-34904761D01*
X15835771Y-34904761D02*
X15883390Y-34809523D01*
X15883390Y-34809523D02*
X15931009Y-34761904D01*
X15931009Y-34761904D02*
X16026247Y-34714285D01*
X16026247Y-34714285D02*
X16264342Y-34714285D01*
X16264342Y-34714285D02*
X16359580Y-34761904D01*
X16359580Y-34761904D02*
X16407200Y-34809523D01*
X16407200Y-34809523D02*
X16454819Y-34904761D01*
X16454819Y-34904761D02*
X16454819Y-35142856D01*
X16454819Y-35142856D02*
X16407200Y-35238094D01*
X16407200Y-35238094D02*
X16359580Y-35285713D01*
X2043407Y-34554819D02*
X2043407Y-35269104D01*
X2043407Y-35269104D02*
X1995788Y-35411961D01*
X1995788Y-35411961D02*
X1900550Y-35507200D01*
X1900550Y-35507200D02*
X1757693Y-35554819D01*
X1757693Y-35554819D02*
X1662455Y-35554819D01*
X2948169Y-34554819D02*
X2757693Y-34554819D01*
X2757693Y-34554819D02*
X2662455Y-34602438D01*
X2662455Y-34602438D02*
X2614836Y-34650057D01*
X2614836Y-34650057D02*
X2519598Y-34792914D01*
X2519598Y-34792914D02*
X2471979Y-34983390D01*
X2471979Y-34983390D02*
X2471979Y-35364342D01*
X2471979Y-35364342D02*
X2519598Y-35459580D01*
X2519598Y-35459580D02*
X2567217Y-35507200D01*
X2567217Y-35507200D02*
X2662455Y-35554819D01*
X2662455Y-35554819D02*
X2852931Y-35554819D01*
X2852931Y-35554819D02*
X2948169Y-35507200D01*
X2948169Y-35507200D02*
X2995788Y-35459580D01*
X2995788Y-35459580D02*
X3043407Y-35364342D01*
X3043407Y-35364342D02*
X3043407Y-35126247D01*
X3043407Y-35126247D02*
X2995788Y-35031009D01*
X2995788Y-35031009D02*
X2948169Y-34983390D01*
X2948169Y-34983390D02*
X2852931Y-34935771D01*
X2852931Y-34935771D02*
X2662455Y-34935771D01*
X2662455Y-34935771D02*
X2567217Y-34983390D01*
X2567217Y-34983390D02*
X2519598Y-35031009D01*
X2519598Y-35031009D02*
X2471979Y-35126247D01*
X11511905Y-47954819D02*
X11511905Y-46954819D01*
X11511905Y-46954819D02*
X11750000Y-46954819D01*
X11750000Y-46954819D02*
X11892857Y-47002438D01*
X11892857Y-47002438D02*
X11988095Y-47097676D01*
X11988095Y-47097676D02*
X12035714Y-47192914D01*
X12035714Y-47192914D02*
X12083333Y-47383390D01*
X12083333Y-47383390D02*
X12083333Y-47526247D01*
X12083333Y-47526247D02*
X12035714Y-47716723D01*
X12035714Y-47716723D02*
X11988095Y-47811961D01*
X11988095Y-47811961D02*
X11892857Y-47907200D01*
X11892857Y-47907200D02*
X11750000Y-47954819D01*
X11750000Y-47954819D02*
X11511905Y-47954819D01*
X12988095Y-46954819D02*
X12511905Y-46954819D01*
X12511905Y-46954819D02*
X12464286Y-47431009D01*
X12464286Y-47431009D02*
X12511905Y-47383390D01*
X12511905Y-47383390D02*
X12607143Y-47335771D01*
X12607143Y-47335771D02*
X12845238Y-47335771D01*
X12845238Y-47335771D02*
X12940476Y-47383390D01*
X12940476Y-47383390D02*
X12988095Y-47431009D01*
X12988095Y-47431009D02*
X13035714Y-47526247D01*
X13035714Y-47526247D02*
X13035714Y-47764342D01*
X13035714Y-47764342D02*
X12988095Y-47859580D01*
X12988095Y-47859580D02*
X12940476Y-47907200D01*
X12940476Y-47907200D02*
X12845238Y-47954819D01*
X12845238Y-47954819D02*
X12607143Y-47954819D01*
X12607143Y-47954819D02*
X12511905Y-47907200D01*
X12511905Y-47907200D02*
X12464286Y-47859580D01*
X19635949Y-30030146D02*
X19159758Y-30363479D01*
X19635949Y-30601574D02*
X18635949Y-30601574D01*
X18635949Y-30601574D02*
X18635949Y-30220622D01*
X18635949Y-30220622D02*
X18683568Y-30125384D01*
X18683568Y-30125384D02*
X18731187Y-30077765D01*
X18731187Y-30077765D02*
X18826425Y-30030146D01*
X18826425Y-30030146D02*
X18969282Y-30030146D01*
X18969282Y-30030146D02*
X19064520Y-30077765D01*
X19064520Y-30077765D02*
X19112139Y-30125384D01*
X19112139Y-30125384D02*
X19159758Y-30220622D01*
X19159758Y-30220622D02*
X19159758Y-30601574D01*
X18635949Y-29125384D02*
X18635949Y-29601574D01*
X18635949Y-29601574D02*
X19112139Y-29649193D01*
X19112139Y-29649193D02*
X19064520Y-29601574D01*
X19064520Y-29601574D02*
X19016901Y-29506336D01*
X19016901Y-29506336D02*
X19016901Y-29268241D01*
X19016901Y-29268241D02*
X19064520Y-29173003D01*
X19064520Y-29173003D02*
X19112139Y-29125384D01*
X19112139Y-29125384D02*
X19207377Y-29077765D01*
X19207377Y-29077765D02*
X19445472Y-29077765D01*
X19445472Y-29077765D02*
X19540710Y-29125384D01*
X19540710Y-29125384D02*
X19588330Y-29173003D01*
X19588330Y-29173003D02*
X19635949Y-29268241D01*
X19635949Y-29268241D02*
X19635949Y-29506336D01*
X19635949Y-29506336D02*
X19588330Y-29601574D01*
X19588330Y-29601574D02*
X19540710Y-29649193D01*
X24952357Y-26080691D02*
X24999977Y-26128310D01*
X24999977Y-26128310D02*
X25047596Y-26271167D01*
X25047596Y-26271167D02*
X25047596Y-26366405D01*
X25047596Y-26366405D02*
X24999977Y-26509262D01*
X24999977Y-26509262D02*
X24904738Y-26604500D01*
X24904738Y-26604500D02*
X24809500Y-26652119D01*
X24809500Y-26652119D02*
X24619024Y-26699738D01*
X24619024Y-26699738D02*
X24476167Y-26699738D01*
X24476167Y-26699738D02*
X24285691Y-26652119D01*
X24285691Y-26652119D02*
X24190453Y-26604500D01*
X24190453Y-26604500D02*
X24095215Y-26509262D01*
X24095215Y-26509262D02*
X24047596Y-26366405D01*
X24047596Y-26366405D02*
X24047596Y-26271167D01*
X24047596Y-26271167D02*
X24095215Y-26128310D01*
X24095215Y-26128310D02*
X24142834Y-26080691D01*
X24047596Y-25747357D02*
X24047596Y-25128310D01*
X24047596Y-25128310D02*
X24428548Y-25461643D01*
X24428548Y-25461643D02*
X24428548Y-25318786D01*
X24428548Y-25318786D02*
X24476167Y-25223548D01*
X24476167Y-25223548D02*
X24523786Y-25175929D01*
X24523786Y-25175929D02*
X24619024Y-25128310D01*
X24619024Y-25128310D02*
X24857119Y-25128310D01*
X24857119Y-25128310D02*
X24952357Y-25175929D01*
X24952357Y-25175929D02*
X24999977Y-25223548D01*
X24999977Y-25223548D02*
X25047596Y-25318786D01*
X25047596Y-25318786D02*
X25047596Y-25604500D01*
X25047596Y-25604500D02*
X24999977Y-25699738D01*
X24999977Y-25699738D02*
X24952357Y-25747357D01*
X24415320Y-51454819D02*
X24081987Y-50978628D01*
X23843892Y-51454819D02*
X23843892Y-50454819D01*
X23843892Y-50454819D02*
X24224844Y-50454819D01*
X24224844Y-50454819D02*
X24320082Y-50502438D01*
X24320082Y-50502438D02*
X24367701Y-50550057D01*
X24367701Y-50550057D02*
X24415320Y-50645295D01*
X24415320Y-50645295D02*
X24415320Y-50788152D01*
X24415320Y-50788152D02*
X24367701Y-50883390D01*
X24367701Y-50883390D02*
X24320082Y-50931009D01*
X24320082Y-50931009D02*
X24224844Y-50978628D01*
X24224844Y-50978628D02*
X23843892Y-50978628D01*
X24843892Y-51454819D02*
X24843892Y-50454819D01*
X24843892Y-50454819D02*
X25081987Y-50454819D01*
X25081987Y-50454819D02*
X25224844Y-50502438D01*
X25224844Y-50502438D02*
X25320082Y-50597676D01*
X25320082Y-50597676D02*
X25367701Y-50692914D01*
X25367701Y-50692914D02*
X25415320Y-50883390D01*
X25415320Y-50883390D02*
X25415320Y-51026247D01*
X25415320Y-51026247D02*
X25367701Y-51216723D01*
X25367701Y-51216723D02*
X25320082Y-51311961D01*
X25320082Y-51311961D02*
X25224844Y-51407200D01*
X25224844Y-51407200D02*
X25081987Y-51454819D01*
X25081987Y-51454819D02*
X24843892Y-51454819D01*
X26034368Y-50978628D02*
X26034368Y-51454819D01*
X25701035Y-50454819D02*
X26034368Y-50978628D01*
X26034368Y-50978628D02*
X26367701Y-50454819D01*
X12882087Y-51454819D02*
X12548754Y-50978628D01*
X12310659Y-51454819D02*
X12310659Y-50454819D01*
X12310659Y-50454819D02*
X12691611Y-50454819D01*
X12691611Y-50454819D02*
X12786849Y-50502438D01*
X12786849Y-50502438D02*
X12834468Y-50550057D01*
X12834468Y-50550057D02*
X12882087Y-50645295D01*
X12882087Y-50645295D02*
X12882087Y-50788152D01*
X12882087Y-50788152D02*
X12834468Y-50883390D01*
X12834468Y-50883390D02*
X12786849Y-50931009D01*
X12786849Y-50931009D02*
X12691611Y-50978628D01*
X12691611Y-50978628D02*
X12310659Y-50978628D01*
X13215421Y-50454819D02*
X13882087Y-50454819D01*
X13882087Y-50454819D02*
X13453516Y-51454819D01*
X24427288Y-24156284D02*
X24379669Y-24203904D01*
X24379669Y-24203904D02*
X24236812Y-24251523D01*
X24236812Y-24251523D02*
X24141574Y-24251523D01*
X24141574Y-24251523D02*
X23998717Y-24203904D01*
X23998717Y-24203904D02*
X23903479Y-24108665D01*
X23903479Y-24108665D02*
X23855860Y-24013427D01*
X23855860Y-24013427D02*
X23808241Y-23822951D01*
X23808241Y-23822951D02*
X23808241Y-23680094D01*
X23808241Y-23680094D02*
X23855860Y-23489618D01*
X23855860Y-23489618D02*
X23903479Y-23394380D01*
X23903479Y-23394380D02*
X23998717Y-23299142D01*
X23998717Y-23299142D02*
X24141574Y-23251523D01*
X24141574Y-23251523D02*
X24236812Y-23251523D01*
X24236812Y-23251523D02*
X24379669Y-23299142D01*
X24379669Y-23299142D02*
X24427288Y-23346761D01*
X25379669Y-24251523D02*
X24808241Y-24251523D01*
X25093955Y-24251523D02*
X25093955Y-23251523D01*
X25093955Y-23251523D02*
X24998717Y-23394380D01*
X24998717Y-23394380D02*
X24903479Y-23489618D01*
X24903479Y-23489618D02*
X24808241Y-23537237D01*
X18494761Y-26070057D02*
X18399523Y-26022438D01*
X18399523Y-26022438D02*
X18304285Y-25927200D01*
X18304285Y-25927200D02*
X18161428Y-25784342D01*
X18161428Y-25784342D02*
X18066190Y-25736723D01*
X18066190Y-25736723D02*
X17970952Y-25736723D01*
X18018571Y-25974819D02*
X17923333Y-25927200D01*
X17923333Y-25927200D02*
X17828095Y-25831961D01*
X17828095Y-25831961D02*
X17780476Y-25641485D01*
X17780476Y-25641485D02*
X17780476Y-25308152D01*
X17780476Y-25308152D02*
X17828095Y-25117676D01*
X17828095Y-25117676D02*
X17923333Y-25022438D01*
X17923333Y-25022438D02*
X18018571Y-24974819D01*
X18018571Y-24974819D02*
X18209047Y-24974819D01*
X18209047Y-24974819D02*
X18304285Y-25022438D01*
X18304285Y-25022438D02*
X18399523Y-25117676D01*
X18399523Y-25117676D02*
X18447142Y-25308152D01*
X18447142Y-25308152D02*
X18447142Y-25641485D01*
X18447142Y-25641485D02*
X18399523Y-25831961D01*
X18399523Y-25831961D02*
X18304285Y-25927200D01*
X18304285Y-25927200D02*
X18209047Y-25974819D01*
X18209047Y-25974819D02*
X18018571Y-25974819D01*
X19399523Y-25974819D02*
X18828095Y-25974819D01*
X19113809Y-25974819D02*
X19113809Y-24974819D01*
X19113809Y-24974819D02*
X19018571Y-25117676D01*
X19018571Y-25117676D02*
X18923333Y-25212914D01*
X18923333Y-25212914D02*
X18828095Y-25260533D01*
X5451751Y-4604709D02*
X5118418Y-4128518D01*
X4880323Y-4604709D02*
X4880323Y-3604709D01*
X4880323Y-3604709D02*
X5261275Y-3604709D01*
X5261275Y-3604709D02*
X5356513Y-3652328D01*
X5356513Y-3652328D02*
X5404132Y-3699947D01*
X5404132Y-3699947D02*
X5451751Y-3795185D01*
X5451751Y-3795185D02*
X5451751Y-3938042D01*
X5451751Y-3938042D02*
X5404132Y-4033280D01*
X5404132Y-4033280D02*
X5356513Y-4080899D01*
X5356513Y-4080899D02*
X5261275Y-4128518D01*
X5261275Y-4128518D02*
X4880323Y-4128518D01*
X6404132Y-4604709D02*
X5832704Y-4604709D01*
X6118418Y-4604709D02*
X6118418Y-3604709D01*
X6118418Y-3604709D02*
X6023180Y-3747566D01*
X6023180Y-3747566D02*
X5927942Y-3842804D01*
X5927942Y-3842804D02*
X5832704Y-3890423D01*
X20882087Y-51454819D02*
X20548754Y-50978628D01*
X20310659Y-51454819D02*
X20310659Y-50454819D01*
X20310659Y-50454819D02*
X20691611Y-50454819D01*
X20691611Y-50454819D02*
X20786849Y-50502438D01*
X20786849Y-50502438D02*
X20834468Y-50550057D01*
X20834468Y-50550057D02*
X20882087Y-50645295D01*
X20882087Y-50645295D02*
X20882087Y-50788152D01*
X20882087Y-50788152D02*
X20834468Y-50883390D01*
X20834468Y-50883390D02*
X20786849Y-50931009D01*
X20786849Y-50931009D02*
X20691611Y-50978628D01*
X20691611Y-50978628D02*
X20310659Y-50978628D01*
X21453516Y-50883390D02*
X21358278Y-50835771D01*
X21358278Y-50835771D02*
X21310659Y-50788152D01*
X21310659Y-50788152D02*
X21263040Y-50692914D01*
X21263040Y-50692914D02*
X21263040Y-50645295D01*
X21263040Y-50645295D02*
X21310659Y-50550057D01*
X21310659Y-50550057D02*
X21358278Y-50502438D01*
X21358278Y-50502438D02*
X21453516Y-50454819D01*
X21453516Y-50454819D02*
X21643992Y-50454819D01*
X21643992Y-50454819D02*
X21739230Y-50502438D01*
X21739230Y-50502438D02*
X21786849Y-50550057D01*
X21786849Y-50550057D02*
X21834468Y-50645295D01*
X21834468Y-50645295D02*
X21834468Y-50692914D01*
X21834468Y-50692914D02*
X21786849Y-50788152D01*
X21786849Y-50788152D02*
X21739230Y-50835771D01*
X21739230Y-50835771D02*
X21643992Y-50883390D01*
X21643992Y-50883390D02*
X21453516Y-50883390D01*
X21453516Y-50883390D02*
X21358278Y-50931009D01*
X21358278Y-50931009D02*
X21310659Y-50978628D01*
X21310659Y-50978628D02*
X21263040Y-51073866D01*
X21263040Y-51073866D02*
X21263040Y-51264342D01*
X21263040Y-51264342D02*
X21310659Y-51359580D01*
X21310659Y-51359580D02*
X21358278Y-51407200D01*
X21358278Y-51407200D02*
X21453516Y-51454819D01*
X21453516Y-51454819D02*
X21643992Y-51454819D01*
X21643992Y-51454819D02*
X21739230Y-51407200D01*
X21739230Y-51407200D02*
X21786849Y-51359580D01*
X21786849Y-51359580D02*
X21834468Y-51264342D01*
X21834468Y-51264342D02*
X21834468Y-51073866D01*
X21834468Y-51073866D02*
X21786849Y-50978628D01*
X21786849Y-50978628D02*
X21739230Y-50931009D01*
X21739230Y-50931009D02*
X21643992Y-50883390D01*
X5643883Y-47234819D02*
X5310550Y-46758628D01*
X5072455Y-47234819D02*
X5072455Y-46234819D01*
X5072455Y-46234819D02*
X5453407Y-46234819D01*
X5453407Y-46234819D02*
X5548645Y-46282438D01*
X5548645Y-46282438D02*
X5596264Y-46330057D01*
X5596264Y-46330057D02*
X5643883Y-46425295D01*
X5643883Y-46425295D02*
X5643883Y-46568152D01*
X5643883Y-46568152D02*
X5596264Y-46663390D01*
X5596264Y-46663390D02*
X5548645Y-46711009D01*
X5548645Y-46711009D02*
X5453407Y-46758628D01*
X5453407Y-46758628D02*
X5072455Y-46758628D01*
X6596264Y-47234819D02*
X6024836Y-47234819D01*
X6310550Y-47234819D02*
X6310550Y-46234819D01*
X6310550Y-46234819D02*
X6215312Y-46377676D01*
X6215312Y-46377676D02*
X6120074Y-46472914D01*
X6120074Y-46472914D02*
X6024836Y-46520533D01*
X6929598Y-46234819D02*
X7548645Y-46234819D01*
X7548645Y-46234819D02*
X7215312Y-46615771D01*
X7215312Y-46615771D02*
X7358169Y-46615771D01*
X7358169Y-46615771D02*
X7453407Y-46663390D01*
X7453407Y-46663390D02*
X7501026Y-46711009D01*
X7501026Y-46711009D02*
X7548645Y-46806247D01*
X7548645Y-46806247D02*
X7548645Y-47044342D01*
X7548645Y-47044342D02*
X7501026Y-47139580D01*
X7501026Y-47139580D02*
X7453407Y-47187200D01*
X7453407Y-47187200D02*
X7358169Y-47234819D01*
X7358169Y-47234819D02*
X7072455Y-47234819D01*
X7072455Y-47234819D02*
X6977217Y-47187200D01*
X6977217Y-47187200D02*
X6929598Y-47139580D01*
X16214719Y-44439580D02*
X16167100Y-44487200D01*
X16167100Y-44487200D02*
X16024243Y-44534819D01*
X16024243Y-44534819D02*
X15929005Y-44534819D01*
X15929005Y-44534819D02*
X15786148Y-44487200D01*
X15786148Y-44487200D02*
X15690910Y-44391961D01*
X15690910Y-44391961D02*
X15643291Y-44296723D01*
X15643291Y-44296723D02*
X15595672Y-44106247D01*
X15595672Y-44106247D02*
X15595672Y-43963390D01*
X15595672Y-43963390D02*
X15643291Y-43772914D01*
X15643291Y-43772914D02*
X15690910Y-43677676D01*
X15690910Y-43677676D02*
X15786148Y-43582438D01*
X15786148Y-43582438D02*
X15929005Y-43534819D01*
X15929005Y-43534819D02*
X16024243Y-43534819D01*
X16024243Y-43534819D02*
X16167100Y-43582438D01*
X16167100Y-43582438D02*
X16214719Y-43630057D01*
X16786148Y-43963390D02*
X16690910Y-43915771D01*
X16690910Y-43915771D02*
X16643291Y-43868152D01*
X16643291Y-43868152D02*
X16595672Y-43772914D01*
X16595672Y-43772914D02*
X16595672Y-43725295D01*
X16595672Y-43725295D02*
X16643291Y-43630057D01*
X16643291Y-43630057D02*
X16690910Y-43582438D01*
X16690910Y-43582438D02*
X16786148Y-43534819D01*
X16786148Y-43534819D02*
X16976624Y-43534819D01*
X16976624Y-43534819D02*
X17071862Y-43582438D01*
X17071862Y-43582438D02*
X17119481Y-43630057D01*
X17119481Y-43630057D02*
X17167100Y-43725295D01*
X17167100Y-43725295D02*
X17167100Y-43772914D01*
X17167100Y-43772914D02*
X17119481Y-43868152D01*
X17119481Y-43868152D02*
X17071862Y-43915771D01*
X17071862Y-43915771D02*
X16976624Y-43963390D01*
X16976624Y-43963390D02*
X16786148Y-43963390D01*
X16786148Y-43963390D02*
X16690910Y-44011009D01*
X16690910Y-44011009D02*
X16643291Y-44058628D01*
X16643291Y-44058628D02*
X16595672Y-44153866D01*
X16595672Y-44153866D02*
X16595672Y-44344342D01*
X16595672Y-44344342D02*
X16643291Y-44439580D01*
X16643291Y-44439580D02*
X16690910Y-44487200D01*
X16690910Y-44487200D02*
X16786148Y-44534819D01*
X16786148Y-44534819D02*
X16976624Y-44534819D01*
X16976624Y-44534819D02*
X17071862Y-44487200D01*
X17071862Y-44487200D02*
X17119481Y-44439580D01*
X17119481Y-44439580D02*
X17167100Y-44344342D01*
X17167100Y-44344342D02*
X17167100Y-44153866D01*
X17167100Y-44153866D02*
X17119481Y-44058628D01*
X17119481Y-44058628D02*
X17071862Y-44011009D01*
X17071862Y-44011009D02*
X16976624Y-43963390D01*
X24204819Y-29416666D02*
X23728628Y-29749999D01*
X24204819Y-29988094D02*
X23204819Y-29988094D01*
X23204819Y-29988094D02*
X23204819Y-29607142D01*
X23204819Y-29607142D02*
X23252438Y-29511904D01*
X23252438Y-29511904D02*
X23300057Y-29464285D01*
X23300057Y-29464285D02*
X23395295Y-29416666D01*
X23395295Y-29416666D02*
X23538152Y-29416666D01*
X23538152Y-29416666D02*
X23633390Y-29464285D01*
X23633390Y-29464285D02*
X23681009Y-29511904D01*
X23681009Y-29511904D02*
X23728628Y-29607142D01*
X23728628Y-29607142D02*
X23728628Y-29988094D01*
X23538152Y-28559523D02*
X24204819Y-28559523D01*
X23157200Y-28797618D02*
X23871485Y-29035713D01*
X23871485Y-29035713D02*
X23871485Y-28416666D01*
X2166666Y-27834819D02*
X2166666Y-28549104D01*
X2166666Y-28549104D02*
X2119047Y-28691961D01*
X2119047Y-28691961D02*
X2023809Y-28787200D01*
X2023809Y-28787200D02*
X1880952Y-28834819D01*
X1880952Y-28834819D02*
X1785714Y-28834819D01*
X2595238Y-27930057D02*
X2642857Y-27882438D01*
X2642857Y-27882438D02*
X2738095Y-27834819D01*
X2738095Y-27834819D02*
X2976190Y-27834819D01*
X2976190Y-27834819D02*
X3071428Y-27882438D01*
X3071428Y-27882438D02*
X3119047Y-27930057D01*
X3119047Y-27930057D02*
X3166666Y-28025295D01*
X3166666Y-28025295D02*
X3166666Y-28120533D01*
X3166666Y-28120533D02*
X3119047Y-28263390D01*
X3119047Y-28263390D02*
X2547619Y-28834819D01*
X2547619Y-28834819D02*
X3166666Y-28834819D01*
X17673333Y-23049580D02*
X17625714Y-23097200D01*
X17625714Y-23097200D02*
X17482857Y-23144819D01*
X17482857Y-23144819D02*
X17387619Y-23144819D01*
X17387619Y-23144819D02*
X17244762Y-23097200D01*
X17244762Y-23097200D02*
X17149524Y-23001961D01*
X17149524Y-23001961D02*
X17101905Y-22906723D01*
X17101905Y-22906723D02*
X17054286Y-22716247D01*
X17054286Y-22716247D02*
X17054286Y-22573390D01*
X17054286Y-22573390D02*
X17101905Y-22382914D01*
X17101905Y-22382914D02*
X17149524Y-22287676D01*
X17149524Y-22287676D02*
X17244762Y-22192438D01*
X17244762Y-22192438D02*
X17387619Y-22144819D01*
X17387619Y-22144819D02*
X17482857Y-22144819D01*
X17482857Y-22144819D02*
X17625714Y-22192438D01*
X17625714Y-22192438D02*
X17673333Y-22240057D01*
X18054286Y-22240057D02*
X18101905Y-22192438D01*
X18101905Y-22192438D02*
X18197143Y-22144819D01*
X18197143Y-22144819D02*
X18435238Y-22144819D01*
X18435238Y-22144819D02*
X18530476Y-22192438D01*
X18530476Y-22192438D02*
X18578095Y-22240057D01*
X18578095Y-22240057D02*
X18625714Y-22335295D01*
X18625714Y-22335295D02*
X18625714Y-22430533D01*
X18625714Y-22430533D02*
X18578095Y-22573390D01*
X18578095Y-22573390D02*
X18006667Y-23144819D01*
X18006667Y-23144819D02*
X18625714Y-23144819D01*
X3666666Y-8344819D02*
X3666666Y-9059104D01*
X3666666Y-9059104D02*
X3619047Y-9201961D01*
X3619047Y-9201961D02*
X3523809Y-9297200D01*
X3523809Y-9297200D02*
X3380952Y-9344819D01*
X3380952Y-9344819D02*
X3285714Y-9344819D01*
X4666666Y-9344819D02*
X4095238Y-9344819D01*
X4380952Y-9344819D02*
X4380952Y-8344819D01*
X4380952Y-8344819D02*
X4285714Y-8487676D01*
X4285714Y-8487676D02*
X4190476Y-8582914D01*
X4190476Y-8582914D02*
X4095238Y-8630533D01*
X18988095Y-36704819D02*
X18988095Y-37514342D01*
X18988095Y-37514342D02*
X19035714Y-37609580D01*
X19035714Y-37609580D02*
X19083333Y-37657200D01*
X19083333Y-37657200D02*
X19178571Y-37704819D01*
X19178571Y-37704819D02*
X19369047Y-37704819D01*
X19369047Y-37704819D02*
X19464285Y-37657200D01*
X19464285Y-37657200D02*
X19511904Y-37609580D01*
X19511904Y-37609580D02*
X19559523Y-37514342D01*
X19559523Y-37514342D02*
X19559523Y-36704819D01*
X19988095Y-36800057D02*
X20035714Y-36752438D01*
X20035714Y-36752438D02*
X20130952Y-36704819D01*
X20130952Y-36704819D02*
X20369047Y-36704819D01*
X20369047Y-36704819D02*
X20464285Y-36752438D01*
X20464285Y-36752438D02*
X20511904Y-36800057D01*
X20511904Y-36800057D02*
X20559523Y-36895295D01*
X20559523Y-36895295D02*
X20559523Y-36990533D01*
X20559523Y-36990533D02*
X20511904Y-37133390D01*
X20511904Y-37133390D02*
X19940476Y-37704819D01*
X19940476Y-37704819D02*
X20559523Y-37704819D01*
X28882087Y-51454819D02*
X28548754Y-50978628D01*
X28310659Y-51454819D02*
X28310659Y-50454819D01*
X28310659Y-50454819D02*
X28691611Y-50454819D01*
X28691611Y-50454819D02*
X28786849Y-50502438D01*
X28786849Y-50502438D02*
X28834468Y-50550057D01*
X28834468Y-50550057D02*
X28882087Y-50645295D01*
X28882087Y-50645295D02*
X28882087Y-50788152D01*
X28882087Y-50788152D02*
X28834468Y-50883390D01*
X28834468Y-50883390D02*
X28786849Y-50931009D01*
X28786849Y-50931009D02*
X28691611Y-50978628D01*
X28691611Y-50978628D02*
X28310659Y-50978628D01*
X29358278Y-51454819D02*
X29548754Y-51454819D01*
X29548754Y-51454819D02*
X29643992Y-51407200D01*
X29643992Y-51407200D02*
X29691611Y-51359580D01*
X29691611Y-51359580D02*
X29786849Y-51216723D01*
X29786849Y-51216723D02*
X29834468Y-51026247D01*
X29834468Y-51026247D02*
X29834468Y-50645295D01*
X29834468Y-50645295D02*
X29786849Y-50550057D01*
X29786849Y-50550057D02*
X29739230Y-50502438D01*
X29739230Y-50502438D02*
X29643992Y-50454819D01*
X29643992Y-50454819D02*
X29453516Y-50454819D01*
X29453516Y-50454819D02*
X29358278Y-50502438D01*
X29358278Y-50502438D02*
X29310659Y-50550057D01*
X29310659Y-50550057D02*
X29263040Y-50645295D01*
X29263040Y-50645295D02*
X29263040Y-50883390D01*
X29263040Y-50883390D02*
X29310659Y-50978628D01*
X29310659Y-50978628D02*
X29358278Y-51026247D01*
X29358278Y-51026247D02*
X29453516Y-51073866D01*
X29453516Y-51073866D02*
X29643992Y-51073866D01*
X29643992Y-51073866D02*
X29739230Y-51026247D01*
X29739230Y-51026247D02*
X29786849Y-50978628D01*
X29786849Y-50978628D02*
X29834468Y-50883390D01*
X30454819Y-46142857D02*
X31169104Y-46142857D01*
X31169104Y-46142857D02*
X31311961Y-46190476D01*
X31311961Y-46190476D02*
X31407200Y-46285714D01*
X31407200Y-46285714D02*
X31454819Y-46428571D01*
X31454819Y-46428571D02*
X31454819Y-46523809D01*
X31550057Y-45904762D02*
X31550057Y-45142857D01*
X30931009Y-44904761D02*
X30931009Y-44571428D01*
X31454819Y-44428571D02*
X31454819Y-44904761D01*
X31454819Y-44904761D02*
X30454819Y-44904761D01*
X30454819Y-44904761D02*
X30454819Y-44428571D01*
X30454819Y-44095237D02*
X31454819Y-43428571D01*
X30454819Y-43428571D02*
X31454819Y-44095237D01*
X31454819Y-43047618D02*
X30454819Y-43047618D01*
X30454819Y-43047618D02*
X30454819Y-42666666D01*
X30454819Y-42666666D02*
X30502438Y-42571428D01*
X30502438Y-42571428D02*
X30550057Y-42523809D01*
X30550057Y-42523809D02*
X30645295Y-42476190D01*
X30645295Y-42476190D02*
X30788152Y-42476190D01*
X30788152Y-42476190D02*
X30883390Y-42523809D01*
X30883390Y-42523809D02*
X30931009Y-42571428D01*
X30931009Y-42571428D02*
X30978628Y-42666666D01*
X30978628Y-42666666D02*
X30978628Y-43047618D01*
X31454819Y-41523809D02*
X31454819Y-42095237D01*
X31454819Y-41809523D02*
X30454819Y-41809523D01*
X30454819Y-41809523D02*
X30597676Y-41904761D01*
X30597676Y-41904761D02*
X30692914Y-41999999D01*
X30692914Y-41999999D02*
X30740533Y-42095237D01*
X28991379Y-3878829D02*
X28658046Y-3402638D01*
X28419951Y-3878829D02*
X28419951Y-2878829D01*
X28419951Y-2878829D02*
X28800903Y-2878829D01*
X28800903Y-2878829D02*
X28896141Y-2926448D01*
X28896141Y-2926448D02*
X28943760Y-2974067D01*
X28943760Y-2974067D02*
X28991379Y-3069305D01*
X28991379Y-3069305D02*
X28991379Y-3212162D01*
X28991379Y-3212162D02*
X28943760Y-3307400D01*
X28943760Y-3307400D02*
X28896141Y-3355019D01*
X28896141Y-3355019D02*
X28800903Y-3402638D01*
X28800903Y-3402638D02*
X28419951Y-3402638D01*
X29372332Y-2974067D02*
X29419951Y-2926448D01*
X29419951Y-2926448D02*
X29515189Y-2878829D01*
X29515189Y-2878829D02*
X29753284Y-2878829D01*
X29753284Y-2878829D02*
X29848522Y-2926448D01*
X29848522Y-2926448D02*
X29896141Y-2974067D01*
X29896141Y-2974067D02*
X29943760Y-3069305D01*
X29943760Y-3069305D02*
X29943760Y-3164543D01*
X29943760Y-3164543D02*
X29896141Y-3307400D01*
X29896141Y-3307400D02*
X29324713Y-3878829D01*
X29324713Y-3878829D02*
X29943760Y-3878829D01*
X6083333Y-44254819D02*
X5750000Y-43778628D01*
X5511905Y-44254819D02*
X5511905Y-43254819D01*
X5511905Y-43254819D02*
X5892857Y-43254819D01*
X5892857Y-43254819D02*
X5988095Y-43302438D01*
X5988095Y-43302438D02*
X6035714Y-43350057D01*
X6035714Y-43350057D02*
X6083333Y-43445295D01*
X6083333Y-43445295D02*
X6083333Y-43588152D01*
X6083333Y-43588152D02*
X6035714Y-43683390D01*
X6035714Y-43683390D02*
X5988095Y-43731009D01*
X5988095Y-43731009D02*
X5892857Y-43778628D01*
X5892857Y-43778628D02*
X5511905Y-43778628D01*
X6940476Y-43254819D02*
X6750000Y-43254819D01*
X6750000Y-43254819D02*
X6654762Y-43302438D01*
X6654762Y-43302438D02*
X6607143Y-43350057D01*
X6607143Y-43350057D02*
X6511905Y-43492914D01*
X6511905Y-43492914D02*
X6464286Y-43683390D01*
X6464286Y-43683390D02*
X6464286Y-44064342D01*
X6464286Y-44064342D02*
X6511905Y-44159580D01*
X6511905Y-44159580D02*
X6559524Y-44207200D01*
X6559524Y-44207200D02*
X6654762Y-44254819D01*
X6654762Y-44254819D02*
X6845238Y-44254819D01*
X6845238Y-44254819D02*
X6940476Y-44207200D01*
X6940476Y-44207200D02*
X6988095Y-44159580D01*
X6988095Y-44159580D02*
X7035714Y-44064342D01*
X7035714Y-44064342D02*
X7035714Y-43826247D01*
X7035714Y-43826247D02*
X6988095Y-43731009D01*
X6988095Y-43731009D02*
X6940476Y-43683390D01*
X6940476Y-43683390D02*
X6845238Y-43635771D01*
X6845238Y-43635771D02*
X6654762Y-43635771D01*
X6654762Y-43635771D02*
X6559524Y-43683390D01*
X6559524Y-43683390D02*
X6511905Y-43731009D01*
X6511905Y-43731009D02*
X6464286Y-43826247D01*
X12361905Y-26897421D02*
X12361905Y-25897421D01*
X12361905Y-25897421D02*
X12600000Y-25897421D01*
X12600000Y-25897421D02*
X12742857Y-25945040D01*
X12742857Y-25945040D02*
X12838095Y-26040278D01*
X12838095Y-26040278D02*
X12885714Y-26135516D01*
X12885714Y-26135516D02*
X12933333Y-26325992D01*
X12933333Y-26325992D02*
X12933333Y-26468849D01*
X12933333Y-26468849D02*
X12885714Y-26659325D01*
X12885714Y-26659325D02*
X12838095Y-26754563D01*
X12838095Y-26754563D02*
X12742857Y-26849802D01*
X12742857Y-26849802D02*
X12600000Y-26897421D01*
X12600000Y-26897421D02*
X12361905Y-26897421D01*
X13885714Y-26897421D02*
X13314286Y-26897421D01*
X13600000Y-26897421D02*
X13600000Y-25897421D01*
X13600000Y-25897421D02*
X13504762Y-26040278D01*
X13504762Y-26040278D02*
X13409524Y-26135516D01*
X13409524Y-26135516D02*
X13314286Y-26183135D01*
X14954819Y-39511904D02*
X15764342Y-39511904D01*
X15764342Y-39511904D02*
X15859580Y-39464285D01*
X15859580Y-39464285D02*
X15907200Y-39416666D01*
X15907200Y-39416666D02*
X15954819Y-39321428D01*
X15954819Y-39321428D02*
X15954819Y-39130952D01*
X15954819Y-39130952D02*
X15907200Y-39035714D01*
X15907200Y-39035714D02*
X15859580Y-38988095D01*
X15859580Y-38988095D02*
X15764342Y-38940476D01*
X15764342Y-38940476D02*
X14954819Y-38940476D01*
X14954819Y-38559523D02*
X14954819Y-37940476D01*
X14954819Y-37940476D02*
X15335771Y-38273809D01*
X15335771Y-38273809D02*
X15335771Y-38130952D01*
X15335771Y-38130952D02*
X15383390Y-38035714D01*
X15383390Y-38035714D02*
X15431009Y-37988095D01*
X15431009Y-37988095D02*
X15526247Y-37940476D01*
X15526247Y-37940476D02*
X15764342Y-37940476D01*
X15764342Y-37940476D02*
X15859580Y-37988095D01*
X15859580Y-37988095D02*
X15907200Y-38035714D01*
X15907200Y-38035714D02*
X15954819Y-38130952D01*
X15954819Y-38130952D02*
X15954819Y-38416666D01*
X15954819Y-38416666D02*
X15907200Y-38511904D01*
X15907200Y-38511904D02*
X15859580Y-38559523D01*
D14*
%TO.C,C7*%
X13493008Y-41810000D02*
X13200474Y-41810000D01*
X13493008Y-42830000D02*
X13200474Y-42830000D01*
%TO.C,R3*%
X9395276Y-41847500D02*
X9904724Y-41847500D01*
X9395276Y-42892500D02*
X9904724Y-42892500D01*
%TO.C,C4*%
X17798752Y-27265000D02*
X17276248Y-27265000D01*
X17798752Y-28735000D02*
X17276248Y-28735000D01*
D15*
%TO.C,U1*%
X8400000Y-2110000D02*
X8400000Y-2840000D01*
X8400000Y-2110000D02*
X9645000Y-2110000D01*
X8400000Y-21310000D02*
X8400000Y-20890000D01*
X25155000Y-2110000D02*
X26400000Y-2110000D01*
X26400000Y-2110000D02*
X26400000Y-2840000D01*
X26400000Y-20890000D02*
X26400000Y-21310000D01*
X26400000Y-21310000D02*
X8400000Y-21310000D01*
D11*
X28000000Y-20120000D02*
G75*
G02*
X27800000Y-20120000I-100000J0D01*
G01*
X27800000Y-20120000D02*
G75*
G02*
X28000000Y-20120000I100000J0D01*
G01*
D14*
%TO.C,J4*%
X27890000Y-12890000D02*
X29000000Y-12890000D01*
X27890000Y-14000000D02*
X27890000Y-12890000D01*
X27890000Y-15000000D02*
X27890000Y-23110000D01*
X27890000Y-15000000D02*
X30000000Y-15000000D01*
X27890000Y-23110000D02*
X32110000Y-23110000D01*
X30000000Y-12890000D02*
X32110000Y-12890000D01*
X30000000Y-15000000D02*
X30000000Y-12890000D01*
X32110000Y-12890000D02*
X32110000Y-23110000D01*
%TO.C,D2*%
X8373754Y-50242225D02*
X10833754Y-50242225D01*
X10833754Y-48772225D02*
X8373754Y-48772225D01*
X10833754Y-50242225D02*
X10833754Y-48772225D01*
%TO.C,D4*%
X16234368Y-50242225D02*
X18694368Y-50242225D01*
X18694368Y-48772225D02*
X16234368Y-48772225D01*
X18694368Y-50242225D02*
X18694368Y-48772225D01*
D11*
%TO.C,J3*%
X30199145Y-25530000D02*
X31449145Y-25530000D01*
X30199145Y-34470000D02*
X31449145Y-34470000D01*
X34169145Y-34470000D02*
X35449145Y-34470000D01*
X35449145Y-25530000D02*
X34169145Y-25530000D01*
X26949145Y-33250000D02*
G75*
G02*
X26749145Y-33250000I-100000J0D01*
G01*
X26749145Y-33250000D02*
G75*
G02*
X26949145Y-33250000I100000J0D01*
G01*
D14*
%TO.C,C5*%
X15240000Y-32603733D02*
X15240000Y-32896267D01*
X16260000Y-32603733D02*
X16260000Y-32896267D01*
%TO.C,J6*%
X996741Y-36100000D02*
X2376741Y-36100000D01*
X996741Y-37480000D02*
X996741Y-36100000D01*
X996741Y-38750000D02*
X996741Y-46480000D01*
X996741Y-38750000D02*
X3756741Y-38750000D01*
X996741Y-46480000D02*
X3756741Y-46480000D01*
X3756741Y-38750000D02*
X3756741Y-46480000D01*
%TO.C,D5*%
X8086741Y-44290000D02*
X8136741Y-44290000D01*
X8086741Y-45810000D02*
X8086741Y-44290000D01*
X9086741Y-45810000D02*
X8086741Y-45810000D01*
X9256741Y-44290000D02*
X10036741Y-44290000D01*
X11156741Y-44290000D02*
X11206741Y-44290000D01*
X11206741Y-44290000D02*
X11206741Y-45810000D01*
X11206741Y-45810000D02*
X10206741Y-45810000D01*
X10026741Y-43750000D02*
X9696741Y-43990000D01*
X9696741Y-43510000D01*
X10026741Y-43750000D01*
G36*
X10026741Y-43750000D02*
G01*
X9696741Y-43990000D01*
X9696741Y-43510000D01*
X10026741Y-43750000D01*
G37*
%TO.C,R5*%
X19977500Y-29004724D02*
X19977500Y-28495276D01*
X21022500Y-29004724D02*
X21022500Y-28495276D01*
%TO.C,C3*%
X25639690Y-26586385D02*
X25639690Y-26878919D01*
X26659690Y-26586385D02*
X26659690Y-26878919D01*
%TO.C,D3*%
X24234368Y-50242225D02*
X26694368Y-50242225D01*
X26694368Y-48772225D02*
X24234368Y-48772225D01*
X26694368Y-50242225D02*
X26694368Y-48772225D01*
%TO.C,R7*%
X12794030Y-48984725D02*
X13303478Y-48984725D01*
X12794030Y-50029725D02*
X13303478Y-50029725D01*
%TO.C,C1*%
X24473733Y-21810000D02*
X24766267Y-21810000D01*
X24473733Y-22830000D02*
X24766267Y-22830000D01*
%TO.C,Q1*%
X20740000Y-23840000D02*
X22260000Y-23840000D01*
X20740000Y-24840000D02*
X20740000Y-23840000D01*
X20740000Y-26960000D02*
X20740000Y-25960000D01*
X22260000Y-23840000D02*
X22260000Y-23890000D01*
X22260000Y-25010000D02*
X22260000Y-25790000D01*
X22260000Y-26910000D02*
X22260000Y-26960000D01*
X22260000Y-26960000D02*
X20740000Y-26960000D01*
X22800000Y-25780000D02*
X22560000Y-25450000D01*
X23040000Y-25450000D01*
X22800000Y-25780000D01*
G36*
X22800000Y-25780000D02*
G01*
X22560000Y-25450000D01*
X23040000Y-25450000D01*
X22800000Y-25780000D01*
G37*
%TO.C,R1*%
X5459260Y-2234261D02*
X5968708Y-2234261D01*
X5459260Y-3279261D02*
X5968708Y-3279261D01*
%TO.C,R8*%
X20794030Y-48984725D02*
X21303478Y-48984725D01*
X20794030Y-50029725D02*
X21303478Y-50029725D01*
%TO.C,R13*%
X6541465Y-44827500D02*
X6032017Y-44827500D01*
X6541465Y-45872500D02*
X6032017Y-45872500D01*
%TO.C,C8*%
X13642638Y-43345000D02*
X13120134Y-43345000D01*
X13642638Y-44815000D02*
X13120134Y-44815000D01*
%TO.C,R4*%
X21957500Y-28495276D02*
X21957500Y-29004724D01*
X23002500Y-28495276D02*
X23002500Y-29004724D01*
%TO.C,J2*%
X1120000Y-24730000D02*
X1120000Y-17000000D01*
X3880000Y-17000000D02*
X1120000Y-17000000D01*
X3880000Y-24730000D02*
X1120000Y-24730000D01*
X3880000Y-24730000D02*
X3880000Y-17000000D01*
X3880000Y-26000000D02*
X3880000Y-27380000D01*
X3880000Y-27380000D02*
X2500000Y-27380000D01*
%TO.C,C2*%
X21311252Y-21825000D02*
X20788748Y-21825000D01*
X21311252Y-23295000D02*
X20788748Y-23295000D01*
%TO.C,J1*%
X1890000Y-9890000D02*
X3000000Y-9890000D01*
X1890000Y-11000000D02*
X1890000Y-9890000D01*
X1890000Y-12000000D02*
X1890000Y-16110000D01*
X1890000Y-12000000D02*
X4000000Y-12000000D01*
X1890000Y-16110000D02*
X6110000Y-16110000D01*
X4000000Y-9890000D02*
X6110000Y-9890000D01*
X4000000Y-12000000D02*
X4000000Y-9890000D01*
X6110000Y-9890000D02*
X6110000Y-16110000D01*
%TO.C,U2*%
X20840000Y-30840000D02*
X20840000Y-32100000D01*
X20840000Y-37660000D02*
X20840000Y-36400000D01*
X24600000Y-30840000D02*
X20840000Y-30840000D01*
X24600000Y-37660000D02*
X20840000Y-37660000D01*
X26120000Y-37890000D02*
X25640000Y-37890000D01*
X25880000Y-37560000D01*
X26120000Y-37890000D01*
G36*
X26120000Y-37890000D02*
G01*
X25640000Y-37890000D01*
X25880000Y-37560000D01*
X26120000Y-37890000D01*
G37*
%TO.C,R9*%
X28794030Y-48984725D02*
X29303478Y-48984725D01*
X28794030Y-50029725D02*
X29303478Y-50029725D01*
%TO.C,J_EXP1*%
X32230000Y-36230000D02*
X33500000Y-36230000D01*
X32230000Y-37500000D02*
X32230000Y-36230000D01*
X34577358Y-39610000D02*
X34890000Y-39610000D01*
X34577358Y-40470000D02*
X34890000Y-40470000D01*
X34577358Y-42150000D02*
X34890000Y-42150000D01*
X34577358Y-43010000D02*
X34890000Y-43010000D01*
X34577358Y-44690000D02*
X34890000Y-44690000D01*
X34577358Y-45550000D02*
X34890000Y-45550000D01*
X34577358Y-47230000D02*
X34890000Y-47230000D01*
X34577358Y-48090000D02*
X34890000Y-48090000D01*
X34577358Y-49770000D02*
X34890000Y-49770000D01*
X34577358Y-50630000D02*
X34890000Y-50630000D01*
X34660000Y-37070000D02*
X34890000Y-37070000D01*
X34660000Y-37930000D02*
X34890000Y-37930000D01*
X34890000Y-38770000D02*
X37650000Y-38770000D01*
X34890000Y-41310000D02*
X37650000Y-41310000D01*
X34890000Y-43850000D02*
X37650000Y-43850000D01*
X34890000Y-46390000D02*
X37650000Y-46390000D01*
X34890000Y-48930000D02*
X37650000Y-48930000D01*
X37650000Y-39610000D02*
X43650000Y-39610000D01*
X37650000Y-42150000D02*
X43650000Y-42150000D01*
X37650000Y-44690000D02*
X43650000Y-44690000D01*
X37650000Y-47230000D02*
X43650000Y-47230000D01*
X37650000Y-49770000D02*
X43650000Y-49770000D01*
X43650000Y-39610000D02*
X43650000Y-40470000D01*
X43650000Y-40470000D02*
X37650000Y-40470000D01*
X43650000Y-42150000D02*
X43650000Y-43010000D01*
X43650000Y-43010000D02*
X37650000Y-43010000D01*
X43650000Y-44690000D02*
X43650000Y-45550000D01*
X43650000Y-45550000D02*
X37650000Y-45550000D01*
X43650000Y-47230000D02*
X43650000Y-48090000D01*
X43650000Y-48090000D02*
X37650000Y-48090000D01*
X43650000Y-49770000D02*
X43650000Y-50630000D01*
X43650000Y-50630000D02*
X37650000Y-50630000D01*
X34890000Y-36120000D02*
X37650000Y-36120000D01*
X37650000Y-51580000D01*
X34890000Y-51580000D01*
X34890000Y-36120000D01*
X37650000Y-37070000D02*
X43650000Y-37070000D01*
X43650000Y-37930000D01*
X37650000Y-37930000D01*
X37650000Y-37070000D01*
G36*
X37650000Y-37070000D02*
G01*
X43650000Y-37070000D01*
X43650000Y-37930000D01*
X37650000Y-37930000D01*
X37650000Y-37070000D01*
G37*
%TO.C,R2*%
X29254724Y-1477500D02*
X28745276Y-1477500D01*
X29254724Y-2522500D02*
X28745276Y-2522500D01*
%TO.C,R6*%
X6581465Y-41847500D02*
X6072017Y-41847500D01*
X6581465Y-42892500D02*
X6072017Y-42892500D01*
D15*
%TO.C,D1*%
X11675000Y-27150000D02*
X14525000Y-27150000D01*
X14525000Y-28850000D02*
X11675000Y-28850000D01*
D11*
X10200000Y-28000000D02*
G75*
G02*
X10000000Y-28000000I-100000J0D01*
G01*
X10000000Y-28000000D02*
G75*
G02*
X10200000Y-28000000I100000J0D01*
G01*
D15*
%TO.C,U3*%
X4450000Y-31927500D02*
X4450000Y-39427500D01*
X14750000Y-31927500D02*
X14750000Y-39427500D01*
D11*
X14745000Y-28977500D02*
G75*
G02*
X14545000Y-28977500I-100000J0D01*
G01*
X14545000Y-28977500D02*
G75*
G02*
X14745000Y-28977500I100000J0D01*
G01*
%TD*%
M02*
