M48
; DRILL file {KiCad 9.0.6} date 2025-12-27T05:43:40+0100
; FORMAT={-:-/ absolute / metric / decimal}
; #@! TF.CreationDate,2025-12-27T05:43:40+01:00
; #@! TF.GenerationSoftware,Kicad,Pcbnew,9.0.6
; #@! TF.FileFunction,Plated,1,2,PTH
FMAT,2
METRIC
; #@! TA.AperFunction,Plated,PTH,ViaDrill
T1C0.300
; #@! TA.AperFunction,Plated,PTH,ViaDrill
T2C0.400
; #@! TA.AperFunction,Plated,PTH,ComponentDrill
T3C0.600
; #@! TA.AperFunction,Plated,PTH,ComponentDrill
T4C0.800
; #@! TA.AperFunction,Plated,PTH,ComponentDrill
T5C1.000
%
G90
G05
T1
X1.0Y-38.0
X1.0Y-40.0
X1.5Y-6.5
X1.5Y-23.5
X2.0Y-5.0
X2.0Y-7.0
X2.0Y-18.0
X2.0Y-36.5
X2.0Y-37.5
X2.0Y-38.5
X2.0Y-39.5
X2.5Y-7.5
X2.5Y-19.0
X2.5Y-36.0
X2.5Y-40.5
X2.642Y-45.307
X2.642Y-46.239
X3.5Y-7.5
X4.0Y-14.0
X4.0Y-33.0
X4.5Y-5.0
X4.5Y-7.5
X4.618Y-47.0
X5.0Y-7.0
X5.0Y-31.0
X5.0Y-38.5
X5.0Y-39.5
X5.0Y-40.5
X5.0Y-41.5
X5.177Y-46.5
X5.326Y-45.288
X5.5Y-6.5
X5.5Y-32.0
X5.5Y-33.0
X6.0Y-12.0
X6.0Y-20.0
X6.0Y-21.0
X6.0Y-22.5
X6.0Y-25.0
X7.0Y-13.0
X7.0Y-38.5
X7.0Y-39.5
X7.0Y-40.5
X7.0Y-41.5
X7.473Y-10.0
X8.0Y-29.5
X8.0Y-31.5
X8.0Y-47.5
X9.0Y-42.5
X9.5Y-47.0
X10.0Y-6.5
X10.0Y-37.5
X10.5Y-47.0
X10.6Y-7.5
X11.0Y-37.5
X11.5Y-47.0
X11.829Y-8.488
X11.99Y-6.168
X12.0Y-4.0
X12.0Y-10.5
X12.0Y-42.0
X12.5Y-47.0
X13.0Y-7.0
X13.0Y-8.5
X13.0Y-15.0
X13.0Y-36.0
X13.0Y-42.5
X13.053Y-16.476
X13.246Y-22.178
X13.471Y-9.68
X13.5Y-4.0
X13.5Y-11.0
X13.5Y-13.0
X13.5Y-19.5
X13.5Y-30.0
X13.5Y-31.5
X13.5Y-42.0
X14.0Y-17.5
X14.0Y-43.0
X15.0Y-6.0
X15.5Y-4.0
X15.5Y-35.0
X15.807Y-6.307
X16.0Y-32.0
X16.0Y-33.0
X16.0Y-39.5
X16.0Y-47.5
X16.5Y-7.0
X16.5Y-40.5
X17.0Y-8.0
X17.0Y-41.5
X18.0Y-9.0
X18.0Y-26.5
X18.0Y-45.5
X18.0Y-51.0
X18.5Y-16.5
X19.0Y-45.5
X19.5Y-8.5
X19.5Y-16.0
X19.5Y-17.5
X19.5Y-20.5
X19.5Y-26.5
X19.5Y-41.5
X19.5Y-46.0
X19.792Y-40.603
X20.0Y-36.5
X20.168Y-20.871
X20.243Y-20.137
X20.5Y-37.5
X20.5Y-47.0
X20.584Y-44.362
X20.973Y-20.209
X20.982Y-20.91
X21.0Y-7.5
X21.0Y-31.5
X21.0Y-36.5
X21.5Y-37.5
X21.5Y-52.0
X21.721Y-20.137
X21.732Y-20.903
X22.0Y-6.5
X22.0Y-32.5
X22.5Y-13.0
X22.5Y-15.0
X22.5Y-20.5
X22.5Y-51.5
X22.507Y-31.167
X23.0Y-10.0
X23.004Y-21.042
X23.5Y-5.0
X23.5Y-11.5
X23.5Y-20.5
X23.5Y-48.5
X23.597Y-19.793
X23.909Y-18.264
X24.0Y-9.0
X24.0Y-10.0
X24.0Y-17.0
X24.0Y-27.0
X24.0Y-41.0
X24.5Y-26.0
X25.0Y-41.0
X25.5Y-29.5
X26.0Y-33.5
X26.0Y-42.5
X26.5Y-29.5
X26.5Y-30.5
X26.5Y-35.5
X27.0Y-37.0
X27.0Y-51.0
X27.5Y-38.0
X28.0Y-3.0
X28.0Y-6.0
X28.0Y-9.0
X28.5Y-9.96
X28.5Y-44.5
X29.0Y-6.5
X29.0Y-11.5
X29.0Y-46.5
X29.25Y-4.75
X29.349Y-28.5
X29.349Y-31.5
X29.5Y-7.0
X29.5Y-38.0
X29.5Y-40.5
X29.5Y-45.5
X30.0Y-7.5
X30.0Y-11.0
X30.0Y-36.5
X30.27Y-26.73
X30.5Y-8.0
X30.5Y-33.0
X30.5Y-34.5
X30.5Y-41.0
X30.5Y-47.0
X31.0Y-5.5
X31.0Y-8.5
X31.0Y-11.5
X31.0Y-25.68
X31.0Y-33.5
X31.0Y-35.5
X31.0Y-37.5
X31.5Y-6.0
X31.5Y-9.0
X31.5Y-27.0
X32.0Y-6.5
X32.0Y-9.5
X32.0Y-32.5
X32.5Y-7.0
X32.5Y-10.0
X33.0Y-7.5
X33.0Y-10.5
X33.5Y-8.0
X33.5Y-33.0
X34.0Y-8.5
X34.0Y-29.5
X34.0Y-30.5
X34.0Y-31.5
X34.0Y-32.5
T2
X21.0Y-18.825
T4
X3.0Y-11.0
X3.0Y-13.0
X3.0Y-15.0
X5.0Y-11.0
X5.0Y-13.0
X5.0Y-15.0
X29.0Y-14.0
X29.0Y-16.0
X29.0Y-18.0
X29.0Y-20.0
X29.0Y-22.0
X31.0Y-14.0
X31.0Y-16.0
X31.0Y-18.0
X31.0Y-20.0
X31.0Y-22.0
T5
X1.42Y-43.5
X2.5Y-22.38
X2.5Y-24.92
X2.5Y-27.46
X2.5Y-30.0
X3.96Y-43.5
X6.5Y-43.5
X33.5Y-37.5
X33.5Y-40.04
X33.5Y-42.58
X33.5Y-45.12
X33.5Y-47.66
X33.5Y-50.2
T3
X28.119Y-25.68G85X29.219Y-25.68
G05
X28.119Y-34.32G85X29.219Y-34.32
G05
X32.449Y-25.68G85X33.249Y-25.68
G05
X32.449Y-34.32G85X33.249Y-34.32
G05
M30
