%TF.GenerationSoftware,KiCad,Pcbnew,9.0.7*%
%TF.CreationDate,2026-01-12T05:36:32+01:00*%
%TF.ProjectId,lsw5-esp32-test-jig,6c737735-2d65-4737-9033-322d74657374,rev?*%
%TF.SameCoordinates,Original*%
%TF.FileFunction,Soldermask,Top*%
%TF.FilePolarity,Negative*%
%FSLAX46Y46*%
G04 Gerber Fmt 4.6, Leading zero omitted, Abs format (unit mm)*
G04 Created by KiCad (PCBNEW 9.0.7) date 2026-01-12 05:36:32*
%MOMM*%
%LPD*%
G01*
G04 APERTURE LIST*
G04 Aperture macros list*
%AMRoundRect*
0 Rectangle with rounded corners*
0 $1 Rounding radius*
0 $2 $3 $4 $5 $6 $7 $8 $9 X,Y pos of 4 corners*
0 Add a 4 corners polygon primitive as box body*
4,1,4,$2,$3,$4,$5,$6,$7,$8,$9,$2,$3,0*
0 Add four circle primitives for the rounded corners*
1,1,$1+$1,$2,$3*
1,1,$1+$1,$4,$5*
1,1,$1+$1,$6,$7*
1,1,$1+$1,$8,$9*
0 Add four rect primitives between the rounded corners*
20,1,$1+$1,$2,$3,$4,$5,0*
20,1,$1+$1,$4,$5,$6,$7,0*
20,1,$1+$1,$6,$7,$8,$9,0*
20,1,$1+$1,$8,$9,$2,$3,0*%
G04 Aperture macros list end*
%ADD10C,0.010000*%
%ADD11RoundRect,0.237500X-0.237500X0.300000X-0.237500X-0.300000X0.237500X-0.300000X0.237500X0.300000X0*%
%ADD12C,3.200000*%
%ADD13C,2.000000*%
%ADD14RoundRect,0.237500X-0.287500X-0.237500X0.287500X-0.237500X0.287500X0.237500X-0.287500X0.237500X0*%
%ADD15RoundRect,0.237500X-0.250000X-0.237500X0.250000X-0.237500X0.250000X0.237500X-0.250000X0.237500X0*%
%ADD16RoundRect,0.237500X-0.300000X-0.237500X0.300000X-0.237500X0.300000X0.237500X-0.300000X0.237500X0*%
%ADD17RoundRect,0.150000X-0.150000X0.825000X-0.150000X-0.825000X0.150000X-0.825000X0.150000X0.825000X0*%
%ADD18R,1.905000X2.000000*%
%ADD19O,1.905000X2.000000*%
%ADD20RoundRect,0.237500X0.250000X0.237500X-0.250000X0.237500X-0.250000X-0.237500X0.250000X-0.237500X0*%
%ADD21O,1.204000X2.004000*%
%ADD22O,1.204000X2.304000*%
%ADD23C,0.650000*%
%ADD24RoundRect,0.237500X0.300000X0.237500X-0.300000X0.237500X-0.300000X-0.237500X0.300000X-0.237500X0*%
%ADD25R,1.700000X1.700000*%
%ADD26C,1.700000*%
%ADD27RoundRect,0.250000X-0.475000X0.337500X-0.475000X-0.337500X0.475000X-0.337500X0.475000X0.337500X0*%
%ADD28R,1.350000X1.350000*%
%ADD29C,1.350000*%
G04 APERTURE END LIST*
D10*
%TO.C,J5*%
X149566236Y-150987848D02*
X149166236Y-150987848D01*
X149166236Y-149737848D01*
X149566236Y-149737848D01*
X149566236Y-150987848D01*
G36*
X149566236Y-150987848D02*
G01*
X149166236Y-150987848D01*
X149166236Y-149737848D01*
X149566236Y-149737848D01*
X149566236Y-150987848D01*
G37*
X149066236Y-150987848D02*
X148666236Y-150987848D01*
X148666236Y-149737848D01*
X149066236Y-149737848D01*
X149066236Y-150987848D01*
G36*
X149066236Y-150987848D02*
G01*
X148666236Y-150987848D01*
X148666236Y-149737848D01*
X149066236Y-149737848D01*
X149066236Y-150987848D01*
G37*
X148566236Y-150987848D02*
X148166236Y-150987848D01*
X148166236Y-149737848D01*
X148566236Y-149737848D01*
X148566236Y-150987848D01*
G36*
X148566236Y-150987848D02*
G01*
X148166236Y-150987848D01*
X148166236Y-149737848D01*
X148566236Y-149737848D01*
X148566236Y-150987848D01*
G37*
X148066236Y-150987848D02*
X147666236Y-150987848D01*
X147666236Y-149737848D01*
X148066236Y-149737848D01*
X148066236Y-150987848D01*
G36*
X148066236Y-150987848D02*
G01*
X147666236Y-150987848D01*
X147666236Y-149737848D01*
X148066236Y-149737848D01*
X148066236Y-150987848D01*
G37*
X150066236Y-150987848D02*
X149666236Y-150987848D01*
X149666236Y-149737848D01*
X150066236Y-149737848D01*
X150066236Y-150987848D01*
G36*
X150066236Y-150987848D02*
G01*
X149666236Y-150987848D01*
X149666236Y-149737848D01*
X150066236Y-149737848D01*
X150066236Y-150987848D01*
G37*
X150566236Y-150987848D02*
X150166236Y-150987848D01*
X150166236Y-149737848D01*
X150566236Y-149737848D01*
X150566236Y-150987848D01*
G36*
X150566236Y-150987848D02*
G01*
X150166236Y-150987848D01*
X150166236Y-149737848D01*
X150566236Y-149737848D01*
X150566236Y-150987848D01*
G37*
X151066236Y-150987848D02*
X150666236Y-150987848D01*
X150666236Y-149737848D01*
X151066236Y-149737848D01*
X151066236Y-150987848D01*
G36*
X151066236Y-150987848D02*
G01*
X150666236Y-150987848D01*
X150666236Y-149737848D01*
X151066236Y-149737848D01*
X151066236Y-150987848D01*
G37*
X151566236Y-150987848D02*
X151166236Y-150987848D01*
X151166236Y-149737848D01*
X151566236Y-149737848D01*
X151566236Y-150987848D01*
G36*
X151566236Y-150987848D02*
G01*
X151166236Y-150987848D01*
X151166236Y-149737848D01*
X151566236Y-149737848D01*
X151566236Y-150987848D01*
G37*
X152366236Y-150987848D02*
X151666236Y-150987848D01*
X151666236Y-149737848D01*
X152366236Y-149737848D01*
X152366236Y-150987848D01*
G36*
X152366236Y-150987848D02*
G01*
X151666236Y-150987848D01*
X151666236Y-149737848D01*
X152366236Y-149737848D01*
X152366236Y-150987848D01*
G37*
X147566236Y-150987848D02*
X146866236Y-150987848D01*
X146866236Y-149737848D01*
X147566236Y-149737848D01*
X147566236Y-150987848D01*
G36*
X147566236Y-150987848D02*
G01*
X146866236Y-150987848D01*
X146866236Y-149737848D01*
X147566236Y-149737848D01*
X147566236Y-150987848D01*
G37*
X146766236Y-150987848D02*
X146066236Y-150987848D01*
X146066236Y-149737848D01*
X146766236Y-149737848D01*
X146766236Y-150987848D01*
G36*
X146766236Y-150987848D02*
G01*
X146066236Y-150987848D01*
X146066236Y-149737848D01*
X146766236Y-149737848D01*
X146766236Y-150987848D01*
G37*
X153166236Y-150987848D02*
X152466236Y-150987848D01*
X152466236Y-149737848D01*
X153166236Y-149737848D01*
X153166236Y-150987848D01*
G36*
X153166236Y-150987848D02*
G01*
X152466236Y-150987848D01*
X152466236Y-149737848D01*
X153166236Y-149737848D01*
X153166236Y-150987848D01*
G37*
%TD*%
D11*
%TO.C,C4*%
X156000000Y-145137500D03*
X156000000Y-146862500D03*
%TD*%
D12*
%TO.C,H4*%
X174500000Y-154250000D03*
%TD*%
%TO.C,H2*%
X174500000Y-61250000D03*
%TD*%
D13*
%TO.C,SW2*%
X146500000Y-121000000D03*
X140000000Y-121000000D03*
X146500000Y-116500000D03*
X140000000Y-116500000D03*
%TD*%
D14*
%TO.C,D1*%
X137375000Y-153500000D03*
X135625000Y-153500000D03*
%TD*%
D15*
%TO.C,R3*%
X141325000Y-153500000D03*
X139500000Y-153500000D03*
%TD*%
D16*
%TO.C,C5*%
X161887500Y-137500000D03*
X163612500Y-137500000D03*
%TD*%
D17*
%TO.C,U2*%
X159810000Y-138025000D03*
X158540000Y-138025000D03*
X157270000Y-138025000D03*
X156000000Y-138025000D03*
X154730000Y-138025000D03*
X153460000Y-138025000D03*
X152190000Y-138025000D03*
X152190000Y-142975000D03*
X153460000Y-142975000D03*
X154730000Y-142975000D03*
X156000000Y-142975000D03*
X157270000Y-142975000D03*
X158540000Y-142975000D03*
X159810000Y-142975000D03*
%TD*%
D18*
%TO.C,U1*%
X166790000Y-150300000D03*
D19*
X164250000Y-150300000D03*
X161710000Y-150300000D03*
%TD*%
D20*
%TO.C,R5*%
X163750000Y-140250000D03*
X161925000Y-140250000D03*
%TD*%
D15*
%TO.C,R4*%
X139500000Y-155500000D03*
X141325000Y-155500000D03*
%TD*%
%TO.C,R2*%
X155887500Y-152200000D03*
X157712500Y-152200000D03*
%TD*%
%TO.C,R1*%
X141887500Y-152000000D03*
X143712500Y-152000000D03*
%TD*%
D21*
%TO.C,J5*%
X145296236Y-155117848D03*
X153936236Y-155117848D03*
D22*
X145296236Y-150937848D03*
X153936236Y-150937848D03*
D23*
X152506236Y-151437848D03*
X146726236Y-151437848D03*
%TD*%
D14*
%TO.C,D2*%
X135635000Y-155500000D03*
X137385000Y-155500000D03*
%TD*%
D16*
%TO.C,C3*%
X164637500Y-147800000D03*
X166362500Y-147800000D03*
%TD*%
D24*
%TO.C,C2*%
X161612500Y-147800000D03*
X159887500Y-147800000D03*
%TD*%
D12*
%TO.C,H3*%
X127750000Y-154250000D03*
%TD*%
D13*
%TO.C,SW1*%
X134750000Y-121250000D03*
X128250000Y-121250000D03*
X134750000Y-116750000D03*
X128250000Y-116750000D03*
%TD*%
D25*
%TO.C,J3*%
X132315000Y-129420000D03*
D26*
X134855000Y-129420000D03*
X132315000Y-131960000D03*
X134855000Y-131960000D03*
X132315000Y-134500000D03*
X134855000Y-134500000D03*
%TD*%
D27*
%TO.C,C1*%
X157000000Y-77462500D03*
X157000000Y-79537500D03*
%TD*%
D12*
%TO.C,H1*%
X127750000Y-61250000D03*
%TD*%
D25*
%TO.C,J4*%
X142475000Y-129420000D03*
D26*
X145015000Y-129420000D03*
X142475000Y-131960000D03*
X145015000Y-131960000D03*
X142475000Y-134500000D03*
X145015000Y-134500000D03*
X142475000Y-137040000D03*
X145015000Y-137040000D03*
X142475000Y-139580000D03*
X145015000Y-139580000D03*
%TD*%
D28*
%TO.C,J2*%
X161000000Y-72750000D03*
D29*
X163000000Y-72750000D03*
X161000000Y-74750000D03*
X163000000Y-74750000D03*
X161000000Y-76750000D03*
X163000000Y-76750000D03*
X161000000Y-78750000D03*
X163000000Y-78750000D03*
X161000000Y-80750000D03*
X163000000Y-80750000D03*
%TD*%
D28*
%TO.C,J1*%
X135000000Y-69750000D03*
D29*
X137000000Y-69750000D03*
X135000000Y-71750000D03*
X137000000Y-71750000D03*
X135000000Y-73750000D03*
X137000000Y-73750000D03*
%TD*%
M02*
