M48
; DRILL file {KiCad 9.0.7} date 2026-01-12T05:36:42+0100
; FORMAT={-:-/ absolute / metric / decimal}
; #@! TF.CreationDate,2026-01-12T05:36:42+01:00
; #@! TF.GenerationSoftware,Kicad,Pcbnew,9.0.7
; #@! TF.FileFunction,Plated,1,2,PTH
FMAT,2
METRIC
; #@! TA.AperFunction,Plated,PTH,ViaDrill
T1C0.300
; #@! TA.AperFunction,Plated,PTH,ComponentDrill
T2C0.600
; #@! TA.AperFunction,Plated,PTH,ComponentDrill
T3C0.800
; #@! TA.AperFunction,Plated,PTH,ComponentDrill
T4C1.000
; #@! TA.AperFunction,Plated,PTH,ComponentDrill
T5C1.100
%
G90
G05
T1
X127.4Y-71.6
X128.0Y-136.8
X128.0Y-147.0
X129.2Y-104.8
X129.2Y-140.2
X129.4Y-125.8
X129.4Y-142.6
X129.6Y-111.2
X129.8Y-84.2
X130.2Y-93.4
X130.4Y-88.4
X130.6Y-124.6
X131.2Y-149.6
X131.4Y-145.4
X132.4Y-124.8
X132.4Y-143.0
X132.8Y-155.4
X133.4Y-85.8
X133.8Y-93.6
X133.8Y-138.8
X134.0Y-101.6
X135.6Y-140.8
X136.0Y-147.8
X138.6Y-62.8
X139.4Y-75.8
X139.8Y-133.4
X142.8Y-83.8
X143.0Y-63.2
X143.2Y-147.2
X143.8Y-76.8
X144.2Y-144.8
X144.4Y-147.8
X144.6Y-68.2
X145.0Y-81.6
X145.4Y-110.8
X145.8Y-143.0
X146.2Y-146.2
X147.2Y-67.8
X147.4Y-146.2
X147.6Y-135.2
X147.8Y-75.4
X148.0Y-136.8
X148.4Y-152.6
X148.6Y-155.6
X148.8Y-103.6
X149.191Y-149.181
X149.25Y-141.5
X149.4Y-151.8
X150.0Y-98.2
X150.0Y-116.6
X150.041Y-149.181
X150.25Y-142.346
X150.8Y-63.8
X151.0Y-152.4
X151.0Y-156.2
X151.2Y-143.8
X151.4Y-137.0
X152.0Y-72.0
X153.0Y-132.4
X153.6Y-134.8
X154.0Y-147.6
X154.6Y-97.8
X154.75Y-80.25
X156.0Y-92.6
X156.2Y-106.2
X156.4Y-133.8
X156.6Y-95.8
X157.0Y-74.25
X157.013Y-146.4
X157.2Y-105.2
X157.6Y-125.0
X157.8Y-66.6
X157.8Y-129.6
X157.8Y-135.8
X157.8Y-139.6
X158.0Y-103.4
X158.0Y-147.6
X158.2Y-85.4
X158.6Y-145.566
X159.4Y-116.8
X160.2Y-124.0
X160.8Y-115.4
X160.8Y-156.6
X161.2Y-88.4
X162.4Y-143.8
X162.8Y-101.4
X163.0Y-103.0
X163.2Y-119.6
X163.4Y-107.4
X163.6Y-129.4
X164.4Y-116.8
X165.0Y-136.2
X165.2Y-114.4
X165.2Y-128.8
X165.2Y-138.8
X166.8Y-124.8
X168.4Y-156.0
X168.8Y-126.0
X169.0Y-78.8
X169.0Y-145.8
X169.6Y-68.4
X169.8Y-121.8
X170.6Y-118.2
X170.6Y-138.0
X170.8Y-130.6
X171.0Y-134.8
X171.4Y-144.2
X171.6Y-88.4
X171.6Y-102.2
X171.8Y-97.0
X171.8Y-112.8
X172.2Y-117.6
X172.8Y-109.6
X173.0Y-85.4
X173.0Y-133.6
X173.2Y-148.6
X173.6Y-73.8
X173.8Y-68.0
X174.0Y-142.6
X174.2Y-138.6
X174.8Y-129.0
X175.0Y-87.6
X175.6Y-80.4
X175.6Y-108.2
X175.6Y-123.4
X176.0Y-74.8
X176.4Y-120.6
T3
X135.0Y-69.75
X135.0Y-71.75
X135.0Y-73.75
X137.0Y-69.75
X137.0Y-71.75
X137.0Y-73.75
X161.0Y-72.75
X161.0Y-74.75
X161.0Y-76.75
X161.0Y-78.75
X161.0Y-80.75
X163.0Y-72.75
X163.0Y-74.75
X163.0Y-76.75
X163.0Y-78.75
X163.0Y-80.75
T4
X132.315Y-129.42
X132.315Y-131.96
X132.315Y-134.5
X134.855Y-129.42
X134.855Y-131.96
X134.855Y-134.5
X142.475Y-129.42
X142.475Y-131.96
X142.475Y-134.5
X142.475Y-137.04
X142.475Y-139.58
X145.015Y-129.42
X145.015Y-131.96
X145.015Y-134.5
X145.015Y-137.04
X145.015Y-139.58
T5
X128.25Y-116.75
X128.25Y-121.25
X134.75Y-116.75
X134.75Y-121.25
X140.0Y-116.5
X140.0Y-121.0
X146.5Y-116.5
X146.5Y-121.0
X161.71Y-150.3
X164.25Y-150.3
X166.79Y-150.3
T2
X145.296Y-150.388G85X145.296Y-151.488
G05
X145.296Y-154.718G85X145.296Y-155.518
G05
X153.936Y-150.388G85X153.936Y-151.488
G05
X153.936Y-154.718G85X153.936Y-155.518
G05
M30
