%TF.GenerationSoftware,KiCad,Pcbnew,9.0.7*%
%TF.CreationDate,2026-01-12T05:36:31+01:00*%
%TF.ProjectId,lsw5-esp32-test-jig,6c737735-2d65-4737-9033-322d74657374,rev?*%
%TF.SameCoordinates,Original*%
%TF.FileFunction,Copper,L1,Top*%
%TF.FilePolarity,Positive*%
%FSLAX46Y46*%
G04 Gerber Fmt 4.6, Leading zero omitted, Abs format (unit mm)*
G04 Created by KiCad (PCBNEW 9.0.7) date 2026-01-12 05:36:31*
%MOMM*%
%LPD*%
G01*
G04 APERTURE LIST*
G04 Aperture macros list*
%AMRoundRect*
0 Rectangle with rounded corners*
0 $1 Rounding radius*
0 $2 $3 $4 $5 $6 $7 $8 $9 X,Y pos of 4 corners*
0 Add a 4 corners polygon primitive as box body*
4,1,4,$2,$3,$4,$5,$6,$7,$8,$9,$2,$3,0*
0 Add four circle primitives for the rounded corners*
1,1,$1+$1,$2,$3*
1,1,$1+$1,$4,$5*
1,1,$1+$1,$6,$7*
1,1,$1+$1,$8,$9*
0 Add four rect primitives between the rounded corners*
20,1,$1+$1,$2,$3,$4,$5,0*
20,1,$1+$1,$4,$5,$6,$7,0*
20,1,$1+$1,$6,$7,$8,$9,0*
20,1,$1+$1,$8,$9,$2,$3,0*%
G04 Aperture macros list end*
%TA.AperFunction,SMDPad,CuDef*%
%ADD10RoundRect,0.237500X-0.237500X0.300000X-0.237500X-0.300000X0.237500X-0.300000X0.237500X0.300000X0*%
%TD*%
%TA.AperFunction,ComponentPad*%
%ADD11C,2.000000*%
%TD*%
%TA.AperFunction,SMDPad,CuDef*%
%ADD12RoundRect,0.237500X-0.287500X-0.237500X0.287500X-0.237500X0.287500X0.237500X-0.287500X0.237500X0*%
%TD*%
%TA.AperFunction,SMDPad,CuDef*%
%ADD13RoundRect,0.237500X-0.250000X-0.237500X0.250000X-0.237500X0.250000X0.237500X-0.250000X0.237500X0*%
%TD*%
%TA.AperFunction,SMDPad,CuDef*%
%ADD14RoundRect,0.237500X-0.300000X-0.237500X0.300000X-0.237500X0.300000X0.237500X-0.300000X0.237500X0*%
%TD*%
%TA.AperFunction,SMDPad,CuDef*%
%ADD15RoundRect,0.150000X-0.150000X0.825000X-0.150000X-0.825000X0.150000X-0.825000X0.150000X0.825000X0*%
%TD*%
%TA.AperFunction,ComponentPad*%
%ADD16R,1.905000X2.000000*%
%TD*%
%TA.AperFunction,ComponentPad*%
%ADD17O,1.905000X2.000000*%
%TD*%
%TA.AperFunction,SMDPad,CuDef*%
%ADD18RoundRect,0.237500X0.250000X0.237500X-0.250000X0.237500X-0.250000X-0.237500X0.250000X-0.237500X0*%
%TD*%
%TA.AperFunction,ComponentPad*%
%ADD19O,1.000000X1.800000*%
%TD*%
%TA.AperFunction,ComponentPad*%
%ADD20O,1.000000X2.100000*%
%TD*%
%TA.AperFunction,SMDPad,CuDef*%
%ADD21R,0.600000X1.150000*%
%TD*%
%TA.AperFunction,SMDPad,CuDef*%
%ADD22R,0.300000X1.150000*%
%TD*%
%TA.AperFunction,SMDPad,CuDef*%
%ADD23RoundRect,0.237500X0.300000X0.237500X-0.300000X0.237500X-0.300000X-0.237500X0.300000X-0.237500X0*%
%TD*%
%TA.AperFunction,ComponentPad*%
%ADD24R,1.700000X1.700000*%
%TD*%
%TA.AperFunction,ComponentPad*%
%ADD25C,1.700000*%
%TD*%
%TA.AperFunction,SMDPad,CuDef*%
%ADD26RoundRect,0.250000X-0.475000X0.337500X-0.475000X-0.337500X0.475000X-0.337500X0.475000X0.337500X0*%
%TD*%
%TA.AperFunction,ComponentPad*%
%ADD27R,1.350000X1.350000*%
%TD*%
%TA.AperFunction,ComponentPad*%
%ADD28C,1.350000*%
%TD*%
%TA.AperFunction,ViaPad*%
%ADD29C,0.600000*%
%TD*%
%TA.AperFunction,Conductor*%
%ADD30C,0.200000*%
%TD*%
%TA.AperFunction,Conductor*%
%ADD31C,0.800000*%
%TD*%
%TA.AperFunction,Conductor*%
%ADD32C,0.600000*%
%TD*%
%TA.AperFunction,Conductor*%
%ADD33C,0.500000*%
%TD*%
G04 APERTURE END LIST*
D10*
%TO.P,C4,1*%
%TO.N,Net-(U2-VUSB)*%
X156000000Y-145137500D03*
%TO.P,C4,2*%
%TO.N,GND*%
X156000000Y-146862500D03*
%TD*%
D11*
%TO.P,SW2,2,2*%
%TO.N,Net-(U2-~{RST})*%
X146500000Y-121000000D03*
X140000000Y-121000000D03*
%TO.P,SW2,1,1*%
%TO.N,GND*%
X146500000Y-116500000D03*
X140000000Y-116500000D03*
%TD*%
D12*
%TO.P,D1,2,A*%
%TO.N,Net-(D1-A)*%
X137375000Y-153500000D03*
%TO.P,D1,1,K*%
%TO.N,Net-(D1-K)*%
X135625000Y-153500000D03*
%TD*%
D13*
%TO.P,R3,2*%
%TO.N,+3V3*%
X141325000Y-153500000D03*
%TO.P,R3,1*%
%TO.N,Net-(D1-A)*%
X139500000Y-153500000D03*
%TD*%
D14*
%TO.P,C5,1*%
%TO.N,VBUS*%
X161887500Y-137500000D03*
%TO.P,C5,2*%
%TO.N,GND*%
X163612500Y-137500000D03*
%TD*%
D15*
%TO.P,U2,1,VDD*%
%TO.N,VBUS*%
X159810000Y-138025000D03*
%TO.P,U2,2,GP0*%
%TO.N,Net-(D1-K)*%
X158540000Y-138025000D03*
%TO.P,U2,3,GP1*%
%TO.N,Net-(D2-K)*%
X157270000Y-138025000D03*
%TO.P,U2,4,~{RST}*%
%TO.N,Net-(U2-~{RST})*%
X156000000Y-138025000D03*
%TO.P,U2,5,URx*%
%TO.N,/RX*%
X154730000Y-138025000D03*
%TO.P,U2,6,UTx*%
%TO.N,/TX*%
X153460000Y-138025000D03*
%TO.P,U2,7,GP2*%
%TO.N,/SIM1*%
X152190000Y-138025000D03*
%TO.P,U2,8,GP3*%
%TO.N,/SIM2*%
X152190000Y-142975000D03*
%TO.P,U2,9,SDA*%
%TO.N,/SDA*%
X153460000Y-142975000D03*
%TO.P,U2,10,SCL*%
%TO.N,/SCL*%
X154730000Y-142975000D03*
%TO.P,U2,11,VUSB*%
%TO.N,Net-(U2-VUSB)*%
X156000000Y-142975000D03*
%TO.P,U2,12,D-*%
%TO.N,/USB_DN*%
X157270000Y-142975000D03*
%TO.P,U2,13,D+*%
%TO.N,/USB_DP*%
X158540000Y-142975000D03*
%TO.P,U2,14,VSS*%
%TO.N,GND*%
X159810000Y-142975000D03*
%TD*%
D16*
%TO.P,U1,1,GND*%
%TO.N,GND*%
X166790000Y-150300000D03*
D17*
%TO.P,U1,2,VO*%
%TO.N,+3V3*%
X164250000Y-150300000D03*
%TO.P,U1,3,VI*%
%TO.N,VBUS*%
X161710000Y-150300000D03*
%TD*%
D18*
%TO.P,R5,1*%
%TO.N,Net-(U2-~{RST})*%
X163750000Y-140250000D03*
%TO.P,R5,2*%
%TO.N,VBUS*%
X161925000Y-140250000D03*
%TD*%
D13*
%TO.P,R4,1*%
%TO.N,Net-(D2-A)*%
X139500000Y-155500000D03*
%TO.P,R4,2*%
%TO.N,+3V3*%
X141325000Y-155500000D03*
%TD*%
%TO.P,R2,1*%
%TO.N,Net-(J5-CC2)*%
X155887500Y-152200000D03*
%TO.P,R2,2*%
%TO.N,GND*%
X157712500Y-152200000D03*
%TD*%
%TO.P,R1,1*%
%TO.N,GND*%
X141887500Y-152000000D03*
%TO.P,R1,2*%
%TO.N,Net-(J5-CC1)*%
X143712500Y-152000000D03*
%TD*%
D19*
%TO.P,J5,SH3,SHELL_GND__2*%
%TO.N,GND*%
X145296236Y-155117848D03*
%TO.P,J5,SH4,SHELL_GND__3*%
X153936236Y-155117848D03*
D20*
%TO.P,J5,SH1,SHELL_GND*%
X145296236Y-150937848D03*
%TO.P,J5,SH2,SHELL_GND__1*%
X153936236Y-150937848D03*
D21*
%TO.P,J5,A1_B12,GND*%
X146416236Y-150362848D03*
%TO.P,J5,B1_A12,GND__1*%
X152816236Y-150362848D03*
%TO.P,J5,A4_B9,VBUS*%
%TO.N,VBUS*%
X147216236Y-150362848D03*
%TO.P,J5,B4_A9,VBUS__1*%
X152016236Y-150362848D03*
D22*
%TO.P,J5,A7,DN1*%
%TO.N,/USB_DN*%
X149866236Y-150362848D03*
%TO.P,J5,A6,DP1*%
%TO.N,/USB_DP*%
X149366236Y-150362848D03*
%TO.P,J5,B6,DP2*%
%TO.N,/USB_DN*%
X150366236Y-150362848D03*
%TO.P,J5,A8,SBU1*%
%TO.N,unconnected-(J5-SBU1-PadA8)*%
X150866236Y-150362848D03*
%TO.P,J5,B5,CC2*%
%TO.N,Net-(J5-CC2)*%
X151366236Y-150362848D03*
%TO.P,J5,B7,DN2*%
%TO.N,/USB_DP*%
X148866236Y-150362848D03*
%TO.P,J5,A5,CC1*%
%TO.N,Net-(J5-CC1)*%
X148366236Y-150362848D03*
%TO.P,J5,B8,SBU2*%
%TO.N,unconnected-(J5-SBU2-PadB8)*%
X147866236Y-150362848D03*
%TD*%
D12*
%TO.P,D2,1,K*%
%TO.N,Net-(D2-K)*%
X135635000Y-155500000D03*
%TO.P,D2,2,A*%
%TO.N,Net-(D2-A)*%
X137385000Y-155500000D03*
%TD*%
D14*
%TO.P,C3,1*%
%TO.N,+3V3*%
X164637500Y-147800000D03*
%TO.P,C3,2*%
%TO.N,GND*%
X166362500Y-147800000D03*
%TD*%
D23*
%TO.P,C2,1*%
%TO.N,VBUS*%
X161612500Y-147800000D03*
%TO.P,C2,2*%
%TO.N,GND*%
X159887500Y-147800000D03*
%TD*%
D11*
%TO.P,SW1,1,1*%
%TO.N,Net-(J1-Pin_4)*%
X134750000Y-121250000D03*
X128250000Y-121250000D03*
%TO.P,SW1,2,2*%
%TO.N,GND*%
X134750000Y-116750000D03*
X128250000Y-116750000D03*
%TD*%
D24*
%TO.P,J3,1,Pin_1*%
%TO.N,GND*%
X132315000Y-129420000D03*
D25*
%TO.P,J3,2,Pin_2*%
X134855000Y-129420000D03*
%TO.P,J3,3,Pin_3*%
X132315000Y-131960000D03*
%TO.P,J3,4,Pin_4*%
%TO.N,Net-(J1-Pin_4)*%
X134855000Y-131960000D03*
%TO.P,J3,5,Pin_5*%
%TO.N,Net-(J1-Pin_5)*%
X132315000Y-134500000D03*
%TO.P,J3,6,Pin_6*%
%TO.N,Net-(J1-Pin_6)*%
X134855000Y-134500000D03*
%TD*%
D26*
%TO.P,C1,1*%
%TO.N,+3V3*%
X157000000Y-77462500D03*
%TO.P,C1,2*%
%TO.N,GND*%
X157000000Y-79537500D03*
%TD*%
D24*
%TO.P,J4,1,Pin_1*%
%TO.N,/SIM1*%
X142475000Y-129420000D03*
D25*
%TO.P,J4,2,Pin_2*%
%TO.N,/SCL*%
X145015000Y-129420000D03*
%TO.P,J4,3,Pin_3*%
%TO.N,/SDA*%
X142475000Y-131960000D03*
%TO.P,J4,4,Pin_4*%
%TO.N,/SIM2*%
X145015000Y-131960000D03*
%TO.P,J4,5,Pin_5*%
%TO.N,+3V3*%
X142475000Y-134500000D03*
%TO.P,J4,6,Pin_6*%
X145015000Y-134500000D03*
%TO.P,J4,7,Pin_7*%
%TO.N,/RX*%
X142475000Y-137040000D03*
%TO.P,J4,8,Pin_8*%
%TO.N,/TX*%
X145015000Y-137040000D03*
%TO.P,J4,9,Pin_9*%
%TO.N,GND*%
X142475000Y-139580000D03*
%TO.P,J4,10,Pin_10*%
X145015000Y-139580000D03*
%TD*%
D27*
%TO.P,J2,1,Pin_1*%
%TO.N,/SIM1*%
X161000000Y-72750000D03*
D28*
%TO.P,J2,2,Pin_2*%
%TO.N,/SCL*%
X163000000Y-72750000D03*
%TO.P,J2,3,Pin_3*%
%TO.N,/SDA*%
X161000000Y-74750000D03*
%TO.P,J2,4,Pin_4*%
%TO.N,/SIM2*%
X163000000Y-74750000D03*
%TO.P,J2,5,Pin_5*%
%TO.N,+3V3*%
X161000000Y-76750000D03*
%TO.P,J2,6,Pin_6*%
X163000000Y-76750000D03*
%TO.P,J2,7,Pin_7*%
%TO.N,/RX*%
X161000000Y-78750000D03*
%TO.P,J2,8,Pin_8*%
%TO.N,/TX*%
X163000000Y-78750000D03*
%TO.P,J2,9,Pin_9*%
%TO.N,GND*%
X161000000Y-80750000D03*
%TO.P,J2,10,Pin_10*%
X163000000Y-80750000D03*
%TD*%
D27*
%TO.P,J1,1,Pin_1*%
%TO.N,GND*%
X135000000Y-69750000D03*
D28*
%TO.P,J1,2,Pin_2*%
X137000000Y-69750000D03*
%TO.P,J1,3,Pin_3*%
X135000000Y-71750000D03*
%TO.P,J1,4,Pin_4*%
%TO.N,Net-(J1-Pin_4)*%
X137000000Y-71750000D03*
%TO.P,J1,5,Pin_5*%
%TO.N,Net-(J1-Pin_5)*%
X135000000Y-73750000D03*
%TO.P,J1,6,Pin_6*%
%TO.N,Net-(J1-Pin_6)*%
X137000000Y-73750000D03*
%TD*%
D29*
%TO.N,GND*%
X165000000Y-136200000D03*
X165200000Y-138800000D03*
X162400000Y-143800000D03*
X158000000Y-147600000D03*
X131200000Y-149600000D03*
X160800000Y-156600000D03*
X151000000Y-156200000D03*
X148600000Y-155600000D03*
X148400000Y-152600000D03*
X151000000Y-152400000D03*
X149400000Y-151800000D03*
X154000000Y-147600000D03*
X143200000Y-147200000D03*
X146200000Y-146200000D03*
X144400000Y-147800000D03*
X147400000Y-146200000D03*
%TO.N,Net-(U2-~{RST})*%
X145400000Y-110800000D03*
%TO.N,GND*%
X176400000Y-120600000D03*
X171800000Y-112800000D03*
X148800000Y-103600000D03*
X150000000Y-116600000D03*
X157200000Y-105200000D03*
X156600000Y-95800000D03*
X158000000Y-103400000D03*
X154600000Y-97800000D03*
X173000000Y-85400000D03*
X176000000Y-74800000D03*
X173600000Y-73800000D03*
X169600000Y-68400000D03*
X143000000Y-63200000D03*
X138600000Y-62800000D03*
X143800000Y-76800000D03*
X142800000Y-83800000D03*
X129800000Y-84200000D03*
X130200000Y-93400000D03*
X133800000Y-93600000D03*
X134000000Y-101600000D03*
X129200000Y-104800000D03*
X129600000Y-111200000D03*
X132400000Y-124800000D03*
X130600000Y-124600000D03*
X129400000Y-125800000D03*
X128000000Y-136800000D03*
X135600000Y-140800000D03*
X171400000Y-144200000D03*
X174200000Y-138600000D03*
X165200000Y-128800000D03*
X171000000Y-134800000D03*
X173000000Y-133600000D03*
X174800000Y-129000000D03*
X175600000Y-123400000D03*
X170600000Y-118200000D03*
X165200000Y-114400000D03*
X160800000Y-115400000D03*
X159400000Y-116800000D03*
X163200000Y-119600000D03*
X169800000Y-121800000D03*
X157600000Y-125000000D03*
X157800000Y-129600000D03*
X163600000Y-129400000D03*
X170800000Y-130600000D03*
X170600000Y-138000000D03*
X169000000Y-145800000D03*
X168400000Y-156000000D03*
X173200000Y-148600000D03*
X174000000Y-142600000D03*
X153600000Y-134800000D03*
X153000000Y-132400000D03*
X156200000Y-106200000D03*
X156000000Y-92600000D03*
X161200000Y-88400000D03*
X162800000Y-101400000D03*
X171800000Y-97000000D03*
X175000000Y-87600000D03*
X169000000Y-78800000D03*
X171600000Y-88400000D03*
X175600000Y-80400000D03*
X173800000Y-68000000D03*
X150800000Y-63800000D03*
X147200000Y-67800000D03*
X152000000Y-72000000D03*
X145000000Y-81600000D03*
X147800000Y-75400000D03*
X157800000Y-66600000D03*
X144600000Y-68200000D03*
X127400000Y-71600000D03*
X133400000Y-85800000D03*
X130400000Y-88400000D03*
X150000000Y-98200000D03*
X172800000Y-109600000D03*
X163000000Y-103000000D03*
X163400000Y-107400000D03*
X171600000Y-102200000D03*
X175600000Y-108200000D03*
X166800000Y-124800000D03*
X164400000Y-116800000D03*
X172200000Y-117600000D03*
X168800000Y-126000000D03*
X160200000Y-124000000D03*
X133800000Y-138800000D03*
X131400000Y-145400000D03*
X129200000Y-140200000D03*
X132400000Y-143000000D03*
X129400000Y-142600000D03*
X128000000Y-147000000D03*
%TO.N,/USB_DP*%
X158600000Y-145566172D03*
%TO.N,/USB_DN*%
X157013340Y-146400000D03*
X150041236Y-149181219D03*
%TO.N,/USB_DP*%
X149191236Y-149181219D03*
%TO.N,Net-(D1-K)*%
X145800000Y-143000000D03*
X144200000Y-144800000D03*
X136000000Y-147800000D03*
%TO.N,/TX*%
X147600000Y-135200000D03*
X148000000Y-136800000D03*
X158200000Y-85400000D03*
%TO.N,/SIM1*%
X151400000Y-137000000D03*
%TO.N,Net-(D2-K)*%
X157800000Y-139600000D03*
X132800000Y-155400000D03*
%TO.N,Net-(U2-~{RST})*%
X156400000Y-133800000D03*
%TO.N,/SIM2*%
X151200000Y-143800000D03*
X139800000Y-133400000D03*
%TO.N,Net-(D1-K)*%
X157800000Y-135800000D03*
%TO.N,Net-(J1-Pin_6)*%
X139400000Y-75800000D03*
%TO.N,/SDA*%
X149250000Y-141500000D03*
%TO.N,/SCL*%
X150250000Y-142346000D03*
%TO.N,/SIM2*%
X154750000Y-80250000D03*
%TO.N,/SDA*%
X157000000Y-74250000D03*
%TD*%
D30*
%TO.N,Net-(U2-~{RST})*%
X146500000Y-121000000D02*
X147801000Y-119699000D01*
X147801000Y-113201000D02*
X145400000Y-110800000D01*
X147801000Y-119699000D02*
X147801000Y-113201000D01*
%TO.N,/RX*%
X159250000Y-78750000D02*
X159250000Y-105750000D01*
%TO.N,Net-(J5-CC2)*%
X151366236Y-150362848D02*
X151366236Y-151259513D01*
X151366236Y-151259513D02*
X152506723Y-152400000D01*
X152506723Y-152400000D02*
X155687500Y-152400000D01*
X155687500Y-152400000D02*
X155887500Y-152200000D01*
D31*
%TO.N,+3V3*%
X141325000Y-153500000D02*
X141325000Y-154400000D01*
X141325000Y-154400000D02*
X142108152Y-153616848D01*
X155024450Y-153616848D02*
X155283602Y-153876000D01*
X142108152Y-153616848D02*
X155024450Y-153616848D01*
X155283602Y-153876000D02*
X160674000Y-153876000D01*
X160674000Y-153876000D02*
X164250000Y-150300000D01*
D30*
%TO.N,/USB_DP*%
X158600000Y-145566172D02*
X158540000Y-145506172D01*
X158540000Y-145506172D02*
X158540000Y-142975000D01*
%TO.N,/USB_DN*%
X157013340Y-146400000D02*
X157270000Y-146143340D01*
X157270000Y-146143340D02*
X157270000Y-142975000D01*
%TO.N,/USB_DP*%
X158433828Y-145400000D02*
X158600000Y-145566172D01*
X149391235Y-150337849D02*
X149391235Y-149381218D01*
%TO.N,/USB_DN*%
X149866236Y-150362848D02*
X149841237Y-150337849D01*
%TO.N,/USB_DP*%
X149366236Y-150362848D02*
X149391235Y-150337849D01*
D32*
%TO.N,VBUS*%
X148176865Y-148327219D02*
X150394975Y-148327219D01*
X147704084Y-148800000D02*
X148176865Y-148327219D01*
X150394975Y-148327219D02*
X150467756Y-148400000D01*
X150467756Y-148400000D02*
X152202084Y-148400000D01*
D30*
%TO.N,/USB_DP*%
X149391235Y-149381218D02*
X149191236Y-149181219D01*
D32*
%TO.N,VBUS*%
X152202084Y-148400000D02*
X152602084Y-148800000D01*
D30*
%TO.N,/USB_DN*%
X149841237Y-150337849D02*
X149841237Y-149381218D01*
X149841237Y-149381218D02*
X150041236Y-149181219D01*
%TO.N,Net-(J5-CC1)*%
X147267236Y-152288848D02*
X148366236Y-151189848D01*
X144001348Y-152288848D02*
X147267236Y-152288848D01*
X148366236Y-151189848D02*
X148366236Y-150362848D01*
D31*
%TO.N,+3V3*%
X142475000Y-134500000D02*
X140600000Y-136375000D01*
X140600000Y-136375000D02*
X140600000Y-152775000D01*
X140600000Y-152775000D02*
X141325000Y-153500000D01*
D33*
%TO.N,GND*%
X145296236Y-150937848D02*
X145841236Y-150937848D01*
X145841236Y-150937848D02*
X146416236Y-150362848D01*
X152816236Y-150362848D02*
X153361236Y-150362848D01*
X153361236Y-150362848D02*
X153936236Y-150937848D01*
%TO.N,VBUS*%
X147216236Y-150362848D02*
X147216236Y-149287848D01*
X147216236Y-149287848D02*
X147704084Y-148800000D01*
D31*
X161710000Y-150300000D02*
X161710000Y-148800000D01*
D33*
X152016236Y-149385848D02*
X152602084Y-148800000D01*
X152016236Y-150362848D02*
X152016236Y-149385848D01*
D32*
X152602084Y-148800000D02*
X161710000Y-148800000D01*
D30*
%TO.N,Net-(D1-K)*%
X136000000Y-147800000D02*
X135625000Y-148175000D01*
X145800000Y-143200000D02*
X144200000Y-144800000D01*
X145800000Y-143000000D02*
X145800000Y-143200000D01*
X135625000Y-148175000D02*
X135625000Y-153500000D01*
%TO.N,/TX*%
X145015000Y-137040000D02*
X147760000Y-137040000D01*
X153400000Y-90200000D02*
X158200000Y-85400000D01*
X147760000Y-137040000D02*
X148000000Y-136800000D01*
X153400000Y-129400000D02*
X153400000Y-90200000D01*
X147600000Y-135200000D02*
X153400000Y-129400000D01*
%TO.N,/SIM1*%
X152190000Y-137790000D02*
X151400000Y-137000000D01*
%TO.N,Net-(D2-K)*%
X132800000Y-155400000D02*
X132900000Y-155500000D01*
X132900000Y-155500000D02*
X135635000Y-155500000D01*
X157270000Y-138025000D02*
X157270000Y-139070000D01*
X157270000Y-139070000D02*
X157800000Y-139600000D01*
%TO.N,Net-(U2-~{RST})*%
X156400000Y-133800000D02*
X156000000Y-134200000D01*
X156000000Y-134200000D02*
X156000000Y-138025000D01*
%TO.N,/SIM2*%
X139800000Y-133400000D02*
X139851000Y-133349000D01*
X139851000Y-133349000D02*
X143626000Y-133349000D01*
X143626000Y-133349000D02*
X145015000Y-131960000D01*
X152025000Y-142975000D02*
X151200000Y-143800000D01*
D31*
%TO.N,VBUS*%
X161612500Y-147800000D02*
X161612500Y-147187500D01*
X161612500Y-147187500D02*
X166600000Y-142200000D01*
X166600000Y-142200000D02*
X166600000Y-134600000D01*
X166600000Y-134600000D02*
X163235000Y-134600000D01*
X163235000Y-134600000D02*
X160335000Y-137500000D01*
D30*
%TO.N,Net-(U2-VUSB)*%
X156000000Y-145137500D02*
X156000000Y-142975000D01*
%TO.N,/USB_DN*%
X149866236Y-150362848D02*
X150366236Y-150362848D01*
%TO.N,/USB_DP*%
X148866236Y-150362848D02*
X149366236Y-150362848D01*
D31*
%TO.N,+3V3*%
X164637500Y-147800000D02*
X164637500Y-149912500D01*
%TO.N,VBUS*%
X161710000Y-148800000D02*
X161710000Y-147897500D01*
X161710000Y-147897500D02*
X161612500Y-147800000D01*
%TO.N,+3V3*%
X141325000Y-154400000D02*
X141325000Y-155500000D01*
D30*
%TO.N,/SCL*%
X154730000Y-143949999D02*
X153679999Y-145000000D01*
X150250000Y-144000000D02*
X150250000Y-142346000D01*
X153679999Y-145000000D02*
X151250000Y-145000000D01*
X154730000Y-142975000D02*
X154730000Y-143949999D01*
X151250000Y-145000000D02*
X150250000Y-144000000D01*
%TO.N,Net-(D1-K)*%
X157800000Y-135800000D02*
X158540000Y-136540000D01*
X158540000Y-136540000D02*
X158540000Y-138025000D01*
%TO.N,Net-(D2-A)*%
X137385000Y-155500000D02*
X139500000Y-155500000D01*
%TO.N,Net-(D1-A)*%
X137375000Y-153500000D02*
X139500000Y-153500000D01*
%TO.N,Net-(J1-Pin_6)*%
X134855000Y-134500000D02*
X136700000Y-134500000D01*
X137600000Y-132800000D02*
X137600000Y-112000000D01*
X136700000Y-134500000D02*
X137400000Y-133800000D01*
X137400000Y-133800000D02*
X137400000Y-133000000D01*
X137400000Y-133000000D02*
X137600000Y-132800000D01*
X137600000Y-112000000D02*
X139400000Y-110200000D01*
X139400000Y-110200000D02*
X139400000Y-75800000D01*
%TO.N,Net-(U2-~{RST})*%
X163750000Y-140250000D02*
X162750000Y-141250000D01*
X162750000Y-141250000D02*
X161250000Y-141250000D01*
X161250000Y-141250000D02*
X160250000Y-140250000D01*
X160250000Y-140250000D02*
X157500000Y-140250000D01*
X157500000Y-140250000D02*
X156000000Y-138750000D01*
D31*
%TO.N,VBUS*%
X161887500Y-137500000D02*
X161887500Y-140212500D01*
X161887500Y-137500000D02*
X160335000Y-137500000D01*
X160335000Y-137500000D02*
X159810000Y-138025000D01*
D30*
%TO.N,Net-(U2-~{RST})*%
X156000000Y-138025000D02*
X156000000Y-138999999D01*
%TO.N,/SDA*%
X149250000Y-141500000D02*
X152959999Y-141500000D01*
X153460000Y-142000001D02*
X153460000Y-142975000D01*
X152959999Y-141500000D02*
X153460000Y-142000001D01*
D31*
%TO.N,+3V3*%
X142475000Y-134500000D02*
X145015000Y-134500000D01*
D30*
%TO.N,/TX*%
X145015000Y-137040000D02*
X147975000Y-140000000D01*
X147975000Y-140000000D02*
X153000000Y-140000000D01*
X153000000Y-140000000D02*
X153460000Y-139540000D01*
X153460000Y-139540000D02*
X153460000Y-138025000D01*
%TO.N,/RX*%
X154730000Y-110270000D02*
X154730000Y-136250000D01*
X142475000Y-137040000D02*
X143626000Y-135889000D01*
X143626000Y-135889000D02*
X154369000Y-135889000D01*
X154369000Y-135889000D02*
X154730000Y-136250000D01*
X161000000Y-78750000D02*
X159250000Y-78750000D01*
X159250000Y-105750000D02*
X154730000Y-110270000D01*
X154730000Y-136250000D02*
X154730000Y-138025000D01*
%TO.N,/SIM2*%
X145015000Y-131960000D02*
X147250000Y-129725000D01*
X147250000Y-125500000D02*
X144500000Y-125500000D01*
X147250000Y-129725000D02*
X147250000Y-125500000D01*
X144500000Y-125500000D02*
X144500000Y-90500000D01*
X144500000Y-90500000D02*
X154750000Y-80250000D01*
%TO.N,/SDA*%
X142475000Y-131960000D02*
X138000000Y-127485000D01*
X138000000Y-127485000D02*
X138000000Y-113750000D01*
X138000000Y-113750000D02*
X141750000Y-110000000D01*
X141750000Y-110000000D02*
X141750000Y-90000000D01*
X141750000Y-90000000D02*
X157000000Y-74750000D01*
X157000000Y-74750000D02*
X157000000Y-74250000D01*
%TO.N,/SCL*%
X145015000Y-129420000D02*
X143250000Y-127655000D01*
X155250000Y-78500000D02*
X158500000Y-78500000D01*
X143250000Y-127655000D02*
X143250000Y-90500000D01*
X165000000Y-74750000D02*
X163000000Y-72750000D01*
X143250000Y-90500000D02*
X155250000Y-78500000D01*
X158500000Y-78500000D02*
X159250000Y-77750000D01*
X159250000Y-77750000D02*
X164750000Y-77750000D01*
X164750000Y-77750000D02*
X165000000Y-77500000D01*
X165000000Y-77500000D02*
X165000000Y-74750000D01*
%TO.N,/SIM1*%
X161000000Y-72750000D02*
X160113840Y-72750000D01*
X160113840Y-72750000D02*
X142475000Y-90388840D01*
X142475000Y-90388840D02*
X142475000Y-129420000D01*
D31*
%TO.N,+3V3*%
X161000000Y-76750000D02*
X163000000Y-76750000D01*
X157287500Y-77462500D02*
X158000000Y-76750000D01*
X158000000Y-76750000D02*
X161000000Y-76750000D01*
D30*
%TO.N,Net-(J1-Pin_5)*%
X132315000Y-134500000D02*
X126949000Y-129134000D01*
X126949000Y-129134000D02*
X126949000Y-81801000D01*
X126949000Y-81801000D02*
X135000000Y-73750000D01*
%TO.N,Net-(J1-Pin_4)*%
X134750000Y-121250000D02*
X137000000Y-123500000D01*
X137000000Y-123500000D02*
X137000000Y-132250000D01*
X136210000Y-131960000D02*
X134855000Y-131960000D01*
X137000000Y-132250000D02*
X136500000Y-132250000D01*
X136500000Y-132250000D02*
X136210000Y-131960000D01*
X128250000Y-121250000D02*
X134750000Y-121250000D01*
X137000000Y-71750000D02*
X137976000Y-72726000D01*
X137976000Y-72726000D02*
X137976000Y-110024000D01*
X137976000Y-110024000D02*
X131250000Y-116750000D01*
X131250000Y-116750000D02*
X131250000Y-118250000D01*
X131250000Y-118250000D02*
X128250000Y-121250000D01*
%TD*%
%TA.AperFunction,Conductor*%
%TO.N,GND*%
G36*
X160290441Y-149620185D02*
G01*
X160336196Y-149672989D01*
X160346140Y-149742147D01*
X160341333Y-149762819D01*
X160292778Y-149912254D01*
X160257000Y-150138146D01*
X160257000Y-150461853D01*
X160292778Y-150687746D01*
X160292778Y-150687749D01*
X160363450Y-150905255D01*
X160457351Y-151089546D01*
X160467283Y-151109038D01*
X160601714Y-151294066D01*
X160763434Y-151455786D01*
X160948462Y-151590217D01*
X161141055Y-151688348D01*
X161152244Y-151694049D01*
X161284501Y-151737022D01*
X161342176Y-151776459D01*
X161369375Y-151840818D01*
X161357460Y-151909664D01*
X161333864Y-151942634D01*
X160337319Y-152939181D01*
X160275996Y-152972666D01*
X160249638Y-152975500D01*
X158719341Y-152975500D01*
X158652302Y-152955815D01*
X158606547Y-152903011D01*
X158596603Y-152833853D01*
X158613803Y-152786402D01*
X158635450Y-152751307D01*
X158635453Y-152751300D01*
X158689680Y-152587652D01*
X158699999Y-152486654D01*
X158700000Y-152486641D01*
X158700000Y-152450000D01*
X157836500Y-152450000D01*
X157769461Y-152430315D01*
X157723706Y-152377511D01*
X157712500Y-152326000D01*
X157712500Y-152200000D01*
X157586500Y-152200000D01*
X157519461Y-152180315D01*
X157473706Y-152127511D01*
X157462500Y-152076000D01*
X157462500Y-151950000D01*
X157962500Y-151950000D01*
X158699999Y-151950000D01*
X158699999Y-151913360D01*
X158699998Y-151913345D01*
X158689680Y-151812347D01*
X158635453Y-151648699D01*
X158635448Y-151648688D01*
X158544947Y-151501965D01*
X158544944Y-151501961D01*
X158423038Y-151380055D01*
X158423034Y-151380052D01*
X158276311Y-151289551D01*
X158276300Y-151289546D01*
X158112652Y-151235319D01*
X158011654Y-151225000D01*
X157962500Y-151225000D01*
X157962500Y-151950000D01*
X157462500Y-151950000D01*
X157462500Y-151225000D01*
X157462499Y-151224999D01*
X157413361Y-151225000D01*
X157413343Y-151225001D01*
X157312347Y-151235319D01*
X157148699Y-151289546D01*
X157148688Y-151289551D01*
X157001965Y-151380052D01*
X156888034Y-151493983D01*
X156826711Y-151527467D01*
X156757019Y-151522483D01*
X156712672Y-151493982D01*
X156598351Y-151379661D01*
X156598350Y-151379660D01*
X156471876Y-151301650D01*
X156451518Y-151289093D01*
X156451513Y-151289091D01*
X156450069Y-151288612D01*
X156287753Y-151234826D01*
X156287751Y-151234825D01*
X156186678Y-151224500D01*
X155588330Y-151224500D01*
X155588312Y-151224501D01*
X155487247Y-151234825D01*
X155323484Y-151289092D01*
X155323481Y-151289093D01*
X155176648Y-151379661D01*
X155147917Y-151408393D01*
X155086594Y-151441878D01*
X155016902Y-151436894D01*
X154960969Y-151395022D01*
X154936552Y-151329558D01*
X154936236Y-151320712D01*
X154936236Y-151187848D01*
X154236236Y-151187848D01*
X154236236Y-150687848D01*
X154936236Y-150687848D01*
X154936236Y-150289356D01*
X154936235Y-150289352D01*
X154897808Y-150096166D01*
X154897805Y-150096154D01*
X154822428Y-149914176D01*
X154822421Y-149914163D01*
X154741723Y-149793391D01*
X154720845Y-149726714D01*
X154739329Y-149659334D01*
X154791308Y-149612643D01*
X154844825Y-149600500D01*
X160223402Y-149600500D01*
X160290441Y-149620185D01*
G37*
%TD.AperFunction*%
%TA.AperFunction,Conductor*%
G36*
X149113978Y-151434168D02*
G01*
X149129488Y-151434168D01*
X149168363Y-151438348D01*
X149564108Y-151438347D01*
X149564109Y-151438346D01*
X149564121Y-151438346D01*
X149602980Y-151434168D01*
X149629488Y-151434168D01*
X149668363Y-151438348D01*
X150064108Y-151438347D01*
X150064109Y-151438346D01*
X150064121Y-151438346D01*
X150102980Y-151434168D01*
X150129488Y-151434168D01*
X150168363Y-151438348D01*
X150564108Y-151438347D01*
X150564109Y-151438346D01*
X150564121Y-151438346D01*
X150602980Y-151434168D01*
X150629488Y-151434168D01*
X150668363Y-151438348D01*
X150704496Y-151438347D01*
X150716013Y-151441729D01*
X150727963Y-151440588D01*
X150748914Y-151451389D01*
X150771534Y-151458030D01*
X150780947Y-151467902D01*
X150790066Y-151472603D01*
X150811880Y-151500341D01*
X150835596Y-151541417D01*
X150885715Y-151628227D01*
X150885717Y-151628230D01*
X151004585Y-151747098D01*
X151004591Y-151747103D01*
X151762155Y-152504667D01*
X151795640Y-152565990D01*
X151790656Y-152635682D01*
X151748784Y-152691615D01*
X151683320Y-152716032D01*
X151674474Y-152716348D01*
X147988332Y-152716348D01*
X147921293Y-152696663D01*
X147875538Y-152643859D01*
X147865594Y-152574701D01*
X147894619Y-152511145D01*
X147900651Y-152504667D01*
X148017565Y-152387753D01*
X148846756Y-151558564D01*
X148880368Y-151500346D01*
X148887349Y-151493688D01*
X148891021Y-151484767D01*
X148912220Y-151469974D01*
X148930933Y-151452132D01*
X148941935Y-151449240D01*
X148948320Y-151444785D01*
X148976209Y-151440231D01*
X148983038Y-151438437D01*
X148985403Y-151438347D01*
X149064108Y-151438347D01*
X149107241Y-151433709D01*
X149111521Y-151433547D01*
X149113978Y-151434168D01*
G37*
%TD.AperFunction*%
%TA.AperFunction,Conductor*%
G36*
X146570203Y-139444884D02*
G01*
X146576681Y-139450916D01*
X147490139Y-140364374D01*
X147490149Y-140364385D01*
X147494479Y-140368715D01*
X147494480Y-140368716D01*
X147606284Y-140480520D01*
X147693095Y-140530639D01*
X147693097Y-140530641D01*
X147731151Y-140552611D01*
X147743215Y-140559577D01*
X147895943Y-140600500D01*
X148746561Y-140600500D01*
X148813600Y-140620185D01*
X148859355Y-140672989D01*
X148869299Y-140742147D01*
X148840274Y-140805703D01*
X148815452Y-140827602D01*
X148739711Y-140878210D01*
X148739707Y-140878213D01*
X148628213Y-140989707D01*
X148628210Y-140989711D01*
X148540609Y-141120814D01*
X148540602Y-141120827D01*
X148480264Y-141266498D01*
X148480261Y-141266510D01*
X148449500Y-141421153D01*
X148449500Y-141578846D01*
X148480261Y-141733489D01*
X148480264Y-141733501D01*
X148540602Y-141879172D01*
X148540609Y-141879185D01*
X148628210Y-142010288D01*
X148628213Y-142010292D01*
X148739707Y-142121786D01*
X148739711Y-142121789D01*
X148870814Y-142209390D01*
X148870827Y-142209397D01*
X149016498Y-142269735D01*
X149016503Y-142269737D01*
X149171153Y-142300499D01*
X149171156Y-142300500D01*
X149325500Y-142300500D01*
X149392539Y-142320185D01*
X149438294Y-142372989D01*
X149448269Y-142418844D01*
X149448903Y-142418782D01*
X149449438Y-142424215D01*
X149449500Y-142424500D01*
X149449500Y-142424846D01*
X149480261Y-142579489D01*
X149480264Y-142579501D01*
X149540602Y-142725172D01*
X149540609Y-142725185D01*
X149628602Y-142856874D01*
X149649480Y-142923551D01*
X149649500Y-142925765D01*
X149649500Y-143913330D01*
X149649499Y-143913348D01*
X149649499Y-144079054D01*
X149649498Y-144079054D01*
X149652594Y-144090609D01*
X149682324Y-144201561D01*
X149690424Y-144231787D01*
X149703629Y-144254658D01*
X149703630Y-144254660D01*
X149769477Y-144368712D01*
X149769481Y-144368717D01*
X149888349Y-144487585D01*
X149888354Y-144487589D01*
X150881284Y-145480520D01*
X150881286Y-145480521D01*
X150881290Y-145480524D01*
X151018209Y-145559573D01*
X151018212Y-145559575D01*
X151018216Y-145559577D01*
X151170943Y-145600501D01*
X151170945Y-145600501D01*
X151336654Y-145600501D01*
X151336670Y-145600500D01*
X153593330Y-145600500D01*
X153593346Y-145600501D01*
X153600942Y-145600501D01*
X153759053Y-145600501D01*
X153759056Y-145600501D01*
X153911784Y-145559577D01*
X153998703Y-145509394D01*
X154048715Y-145480520D01*
X154160519Y-145368716D01*
X154160519Y-145368714D01*
X154170723Y-145358511D01*
X154170726Y-145358506D01*
X154812820Y-144716413D01*
X154874142Y-144682929D01*
X154943834Y-144687913D01*
X154999767Y-144729785D01*
X155024184Y-144795249D01*
X155024500Y-144804095D01*
X155024500Y-145486669D01*
X155024501Y-145486687D01*
X155034825Y-145587752D01*
X155089092Y-145751515D01*
X155089093Y-145751518D01*
X155179661Y-145898351D01*
X155193982Y-145912672D01*
X155227467Y-145973995D01*
X155222483Y-146043687D01*
X155193985Y-146088032D01*
X155180052Y-146101965D01*
X155089551Y-146248688D01*
X155089546Y-146248699D01*
X155035319Y-146412347D01*
X155025000Y-146513345D01*
X155025000Y-146612500D01*
X155876000Y-146612500D01*
X155943039Y-146632185D01*
X155988794Y-146684989D01*
X156000000Y-146736500D01*
X156000000Y-146988500D01*
X155980315Y-147055539D01*
X155927511Y-147101294D01*
X155876000Y-147112500D01*
X155025001Y-147112500D01*
X155025001Y-147211654D01*
X155035319Y-147312652D01*
X155089546Y-147476300D01*
X155089551Y-147476311D01*
X155180052Y-147623034D01*
X155180055Y-147623038D01*
X155301960Y-147744943D01*
X155342520Y-147769961D01*
X155389245Y-147821909D01*
X155400466Y-147890872D01*
X155372623Y-147954954D01*
X155314554Y-147993810D01*
X155277423Y-147999500D01*
X152985024Y-147999500D01*
X152917985Y-147979815D01*
X152897343Y-147963181D01*
X152712376Y-147778213D01*
X152712372Y-147778210D01*
X152581269Y-147690609D01*
X152581256Y-147690602D01*
X152435585Y-147630264D01*
X152435573Y-147630261D01*
X152280929Y-147599500D01*
X152280926Y-147599500D01*
X150754578Y-147599500D01*
X150707126Y-147590061D01*
X150628476Y-147557483D01*
X150628464Y-147557480D01*
X150473820Y-147526719D01*
X150473817Y-147526719D01*
X148255707Y-147526719D01*
X148098022Y-147526719D01*
X148098020Y-147526719D01*
X147943373Y-147557480D01*
X147943363Y-147557483D01*
X147797692Y-147617821D01*
X147797679Y-147617828D01*
X147666577Y-147705428D01*
X147637197Y-147734809D01*
X147555076Y-147816930D01*
X147555074Y-147816932D01*
X147082297Y-148289707D01*
X147082294Y-148289711D01*
X146994693Y-148420814D01*
X146994687Y-148420826D01*
X146984890Y-148444478D01*
X146958011Y-148484704D01*
X146633285Y-148809430D01*
X146633283Y-148809433D01*
X146616013Y-148835278D01*
X146616014Y-148835279D01*
X146551150Y-148932356D01*
X146494579Y-149068930D01*
X146494576Y-149068940D01*
X146465736Y-149213927D01*
X146465736Y-149541119D01*
X146457918Y-149584452D01*
X146422144Y-149680365D01*
X146415737Y-149739964D01*
X146415736Y-149739983D01*
X146415736Y-150238848D01*
X146413185Y-150247533D01*
X146414474Y-150256495D01*
X146403495Y-150280535D01*
X146396051Y-150305887D01*
X146389210Y-150311814D01*
X146385449Y-150320051D01*
X146363214Y-150334340D01*
X146343247Y-150351642D01*
X146332732Y-150353929D01*
X146326671Y-150357825D01*
X146291736Y-150362848D01*
X146290236Y-150362848D01*
X146223197Y-150343163D01*
X146177442Y-150290359D01*
X146166236Y-150238848D01*
X146166236Y-149287848D01*
X146068391Y-149287848D01*
X146008863Y-149294249D01*
X146008856Y-149294251D01*
X145874149Y-149344493D01*
X145874147Y-149344494D01*
X145758386Y-149431154D01*
X145692922Y-149455571D01*
X145636623Y-149446448D01*
X145587927Y-149426277D01*
X145587919Y-149426275D01*
X145546236Y-149417983D01*
X145546236Y-150220859D01*
X145536296Y-150203643D01*
X145480441Y-150147788D01*
X145412032Y-150108292D01*
X145335732Y-150087848D01*
X145256740Y-150087848D01*
X145180440Y-150108292D01*
X145112031Y-150147788D01*
X145056176Y-150203643D01*
X145046236Y-150220859D01*
X145046236Y-149417984D01*
X145046235Y-149417983D01*
X145004552Y-149426275D01*
X145004544Y-149426277D01*
X144822564Y-149501655D01*
X144822551Y-149501662D01*
X144658773Y-149611096D01*
X144658769Y-149611099D01*
X144519487Y-149750381D01*
X144519484Y-149750385D01*
X144410050Y-149914163D01*
X144410043Y-149914176D01*
X144334666Y-150096154D01*
X144334663Y-150096166D01*
X144296236Y-150289352D01*
X144296236Y-150687848D01*
X144996236Y-150687848D01*
X144996236Y-151187848D01*
X144471791Y-151187848D01*
X144406695Y-151169387D01*
X144308854Y-151109038D01*
X144276518Y-151089093D01*
X144276513Y-151089091D01*
X144262607Y-151084483D01*
X144112753Y-151034826D01*
X144112751Y-151034825D01*
X144011678Y-151024500D01*
X143413330Y-151024500D01*
X143413312Y-151024501D01*
X143312247Y-151034825D01*
X143148484Y-151089092D01*
X143148481Y-151089093D01*
X143001651Y-151179659D01*
X142887327Y-151293983D01*
X142826004Y-151327467D01*
X142756312Y-151322483D01*
X142711965Y-151293982D01*
X142598038Y-151180055D01*
X142598034Y-151180052D01*
X142451311Y-151089551D01*
X142451300Y-151089546D01*
X142287652Y-151035319D01*
X142186654Y-151025000D01*
X142137500Y-151025000D01*
X142137500Y-151876000D01*
X142117815Y-151943039D01*
X142065011Y-151988794D01*
X142013500Y-152000000D01*
X141761500Y-152000000D01*
X141694461Y-151980315D01*
X141648706Y-151927511D01*
X141637500Y-151876000D01*
X141637500Y-151025000D01*
X141637499Y-151024999D01*
X141624502Y-151025000D01*
X141557462Y-151005316D01*
X141511706Y-150952513D01*
X141500500Y-150901000D01*
X141500500Y-144721153D01*
X143399500Y-144721153D01*
X143399500Y-144878846D01*
X143430261Y-145033489D01*
X143430264Y-145033501D01*
X143490602Y-145179172D01*
X143490609Y-145179185D01*
X143578210Y-145310288D01*
X143578213Y-145310292D01*
X143689707Y-145421786D01*
X143689711Y-145421789D01*
X143820814Y-145509390D01*
X143820827Y-145509397D01*
X143941972Y-145559576D01*
X143966503Y-145569737D01*
X144121153Y-145600499D01*
X144121156Y-145600500D01*
X144121158Y-145600500D01*
X144278844Y-145600500D01*
X144278845Y-145600499D01*
X144433497Y-145569737D01*
X144579179Y-145509394D01*
X144710289Y-145421789D01*
X144821789Y-145310289D01*
X144909394Y-145179179D01*
X144969737Y-145033497D01*
X144991670Y-144923231D01*
X145000638Y-144878150D01*
X145033023Y-144816239D01*
X145034518Y-144814716D01*
X146094587Y-143754647D01*
X146134812Y-143727770D01*
X146179179Y-143709394D01*
X146310289Y-143621789D01*
X146421789Y-143510289D01*
X146509394Y-143379179D01*
X146569737Y-143233497D01*
X146600500Y-143078842D01*
X146600500Y-142921158D01*
X146600500Y-142921155D01*
X146600499Y-142921153D01*
X146587713Y-142856874D01*
X146569737Y-142766503D01*
X146541038Y-142697216D01*
X146509397Y-142620827D01*
X146509390Y-142620814D01*
X146421789Y-142489711D01*
X146421786Y-142489707D01*
X146310292Y-142378213D01*
X146310288Y-142378210D01*
X146179185Y-142290609D01*
X146179172Y-142290602D01*
X146033501Y-142230264D01*
X146033489Y-142230261D01*
X145878845Y-142199500D01*
X145878842Y-142199500D01*
X145721158Y-142199500D01*
X145721155Y-142199500D01*
X145566510Y-142230261D01*
X145566498Y-142230264D01*
X145420827Y-142290602D01*
X145420814Y-142290609D01*
X145289711Y-142378210D01*
X145289707Y-142378213D01*
X145178213Y-142489707D01*
X145178210Y-142489711D01*
X145090609Y-142620814D01*
X145090602Y-142620827D01*
X145030264Y-142766498D01*
X145030261Y-142766510D01*
X144999500Y-142921153D01*
X144999500Y-143078843D01*
X145000097Y-143084906D01*
X144997616Y-143085150D01*
X144992341Y-143143874D01*
X144964648Y-143186114D01*
X144185339Y-143965425D01*
X144124016Y-143998910D01*
X144121850Y-143999361D01*
X143966508Y-144030261D01*
X143966498Y-144030264D01*
X143820827Y-144090602D01*
X143820814Y-144090609D01*
X143689711Y-144178210D01*
X143689707Y-144178213D01*
X143578213Y-144289707D01*
X143578210Y-144289711D01*
X143490609Y-144420814D01*
X143490602Y-144420827D01*
X143430264Y-144566498D01*
X143430261Y-144566510D01*
X143399500Y-144721153D01*
X141500500Y-144721153D01*
X141500500Y-140784039D01*
X141520185Y-140717000D01*
X141572989Y-140671245D01*
X141642147Y-140661301D01*
X141697386Y-140683721D01*
X141767445Y-140734622D01*
X141956782Y-140831095D01*
X142158870Y-140896757D01*
X142368754Y-140930000D01*
X142581246Y-140930000D01*
X142791127Y-140896757D01*
X142791130Y-140896757D01*
X142993217Y-140831095D01*
X143182554Y-140734622D01*
X143236716Y-140695270D01*
X143236717Y-140695270D01*
X142604409Y-140062962D01*
X142667993Y-140045925D01*
X142782007Y-139980099D01*
X142875099Y-139887007D01*
X142940925Y-139772993D01*
X142957962Y-139709408D01*
X143590270Y-140341717D01*
X143590270Y-140341716D01*
X143629622Y-140287554D01*
X143634514Y-140277954D01*
X143682488Y-140227157D01*
X143750308Y-140210361D01*
X143816444Y-140232897D01*
X143855486Y-140277954D01*
X143860375Y-140287550D01*
X143899728Y-140341716D01*
X144532037Y-139709408D01*
X144549075Y-139772993D01*
X144614901Y-139887007D01*
X144707993Y-139980099D01*
X144822007Y-140045925D01*
X144885590Y-140062962D01*
X144253282Y-140695269D01*
X144253282Y-140695270D01*
X144307449Y-140734624D01*
X144496782Y-140831095D01*
X144698870Y-140896757D01*
X144908754Y-140930000D01*
X145121246Y-140930000D01*
X145331127Y-140896757D01*
X145331130Y-140896757D01*
X145533217Y-140831095D01*
X145722554Y-140734622D01*
X145776716Y-140695270D01*
X145776717Y-140695270D01*
X145144408Y-140062962D01*
X145207993Y-140045925D01*
X145322007Y-139980099D01*
X145415099Y-139887007D01*
X145480925Y-139772993D01*
X145497962Y-139709408D01*
X146130270Y-140341717D01*
X146130270Y-140341716D01*
X146169622Y-140287554D01*
X146266095Y-140098217D01*
X146331757Y-139896130D01*
X146331757Y-139896127D01*
X146365000Y-139686246D01*
X146365000Y-139538597D01*
X146384685Y-139471558D01*
X146437489Y-139425803D01*
X146506647Y-139415859D01*
X146570203Y-139444884D01*
G37*
%TD.AperFunction*%
%TA.AperFunction,Conductor*%
G36*
X165642539Y-135520185D02*
G01*
X165688294Y-135572989D01*
X165699500Y-135624500D01*
X165699500Y-141775638D01*
X165679815Y-141842677D01*
X165663181Y-141863319D01*
X160913037Y-146613462D01*
X160913033Y-146613466D01*
X160901873Y-146630169D01*
X160901862Y-146630186D01*
X160899651Y-146633497D01*
X160814487Y-146760953D01*
X160788165Y-146824500D01*
X160785032Y-146832063D01*
X160785030Y-146832067D01*
X160764052Y-146882713D01*
X160720210Y-146937117D01*
X160653916Y-146959181D01*
X160586217Y-146941901D01*
X160584394Y-146940798D01*
X160501311Y-146889551D01*
X160501300Y-146889546D01*
X160337652Y-146835319D01*
X160236654Y-146825000D01*
X160137500Y-146825000D01*
X160137500Y-147676000D01*
X160117815Y-147743039D01*
X160065011Y-147788794D01*
X160013500Y-147800000D01*
X159887500Y-147800000D01*
X159887500Y-147875500D01*
X159867815Y-147942539D01*
X159815011Y-147988294D01*
X159763500Y-147999500D01*
X156722577Y-147999500D01*
X156655538Y-147979815D01*
X156609783Y-147927011D01*
X156599839Y-147857853D01*
X156628864Y-147794297D01*
X156657480Y-147769961D01*
X156698039Y-147744943D01*
X156819944Y-147623038D01*
X156819947Y-147623034D01*
X156887605Y-147513345D01*
X158850000Y-147513345D01*
X158850000Y-147550000D01*
X159637500Y-147550000D01*
X159637500Y-146824999D01*
X159538360Y-146825000D01*
X159538344Y-146825001D01*
X159437347Y-146835319D01*
X159273699Y-146889546D01*
X159273688Y-146889551D01*
X159126965Y-146980052D01*
X159126961Y-146980055D01*
X159005055Y-147101961D01*
X159005052Y-147101965D01*
X158914551Y-147248688D01*
X158914546Y-147248699D01*
X158860319Y-147412347D01*
X158850000Y-147513345D01*
X156887605Y-147513345D01*
X156910448Y-147476311D01*
X156910454Y-147476298D01*
X156911829Y-147472148D01*
X156969803Y-147287378D01*
X156982516Y-147268375D01*
X156991153Y-147247207D01*
X157001573Y-147239889D01*
X157008654Y-147229306D01*
X157029622Y-147220193D01*
X157048333Y-147207055D01*
X157066891Y-147203997D01*
X157072734Y-147201458D01*
X157077549Y-147202241D01*
X157088116Y-147200500D01*
X157092184Y-147200500D01*
X157092185Y-147200499D01*
X157246837Y-147169737D01*
X157359506Y-147123067D01*
X157392512Y-147109397D01*
X157392512Y-147109396D01*
X157392519Y-147109394D01*
X157523629Y-147021789D01*
X157635129Y-146910289D01*
X157722734Y-146779179D01*
X157761749Y-146684989D01*
X157783077Y-146633497D01*
X157813840Y-146478842D01*
X157813840Y-146435608D01*
X157818760Y-146401025D01*
X157822946Y-146386608D01*
X157829577Y-146375125D01*
X157868864Y-146228500D01*
X157869208Y-146227318D01*
X157887337Y-146198924D01*
X157904877Y-146170148D01*
X157906085Y-146169560D01*
X157906809Y-146168428D01*
X157937422Y-146154337D01*
X157967724Y-146139618D01*
X157969058Y-146139777D01*
X157970278Y-146139216D01*
X158003627Y-146143910D01*
X158037100Y-146147912D01*
X158038424Y-146148808D01*
X158039466Y-146148955D01*
X158042492Y-146151561D01*
X158075969Y-146174220D01*
X158089707Y-146187958D01*
X158089711Y-146187961D01*
X158220814Y-146275562D01*
X158220827Y-146275569D01*
X158366498Y-146335907D01*
X158366503Y-146335909D01*
X158521153Y-146366671D01*
X158521156Y-146366672D01*
X158521158Y-146366672D01*
X158678844Y-146366672D01*
X158678845Y-146366671D01*
X158833497Y-146335909D01*
X158979179Y-146275566D01*
X159110289Y-146187961D01*
X159221789Y-146076461D01*
X159309394Y-145945351D01*
X159369737Y-145799669D01*
X159400500Y-145645014D01*
X159400500Y-145487330D01*
X159400500Y-145487327D01*
X159400499Y-145487325D01*
X159369738Y-145332682D01*
X159369737Y-145332675D01*
X159360466Y-145310292D01*
X159309397Y-145186999D01*
X159309390Y-145186986D01*
X159221789Y-145055883D01*
X159221786Y-145055879D01*
X159176819Y-145010912D01*
X159143334Y-144949589D01*
X159140500Y-144923231D01*
X159140500Y-144465326D01*
X159160185Y-144398287D01*
X159212989Y-144352532D01*
X159282147Y-144342588D01*
X159327621Y-144358594D01*
X159399801Y-144401281D01*
X159557514Y-144447100D01*
X159557511Y-144447100D01*
X159559998Y-144447295D01*
X159560000Y-144447295D01*
X160060000Y-144447295D01*
X160060001Y-144447295D01*
X160062486Y-144447100D01*
X160220198Y-144401281D01*
X160361552Y-144317685D01*
X160361561Y-144317678D01*
X160477678Y-144201561D01*
X160477685Y-144201552D01*
X160561282Y-144060196D01*
X160561283Y-144060193D01*
X160607099Y-143902495D01*
X160607100Y-143902489D01*
X160609999Y-143865649D01*
X160610000Y-143865634D01*
X160610000Y-143225000D01*
X160060000Y-143225000D01*
X160060000Y-144447295D01*
X159560000Y-144447295D01*
X159560000Y-142725000D01*
X160060000Y-142725000D01*
X160610000Y-142725000D01*
X160610000Y-142084365D01*
X160609999Y-142084350D01*
X160607100Y-142047510D01*
X160607099Y-142047504D01*
X160561283Y-141889806D01*
X160561282Y-141889803D01*
X160477685Y-141748447D01*
X160477678Y-141748438D01*
X160361561Y-141632321D01*
X160361552Y-141632314D01*
X160220196Y-141548717D01*
X160220193Y-141548716D01*
X160062494Y-141502900D01*
X160062497Y-141502900D01*
X160060000Y-141502703D01*
X160060000Y-142725000D01*
X159560000Y-142725000D01*
X159560000Y-141502703D01*
X159557503Y-141502900D01*
X159399806Y-141548716D01*
X159399803Y-141548717D01*
X159258449Y-141632313D01*
X159252283Y-141637097D01*
X159250389Y-141634655D01*
X159201580Y-141661239D01*
X159131894Y-141656179D01*
X159099227Y-141635159D01*
X159098031Y-141636702D01*
X159091862Y-141631917D01*
X159002116Y-141578842D01*
X158950398Y-141548256D01*
X158950397Y-141548255D01*
X158950396Y-141548255D01*
X158950393Y-141548254D01*
X158792573Y-141502402D01*
X158792567Y-141502401D01*
X158755701Y-141499500D01*
X158755694Y-141499500D01*
X158324306Y-141499500D01*
X158324298Y-141499500D01*
X158287432Y-141502401D01*
X158287426Y-141502402D01*
X158129606Y-141548254D01*
X158129603Y-141548255D01*
X157988137Y-141631917D01*
X157981969Y-141636702D01*
X157980072Y-141634256D01*
X157931358Y-141660857D01*
X157861666Y-141655873D01*
X157829296Y-141635069D01*
X157828031Y-141636702D01*
X157821862Y-141631917D01*
X157732116Y-141578842D01*
X157680398Y-141548256D01*
X157680397Y-141548255D01*
X157680396Y-141548255D01*
X157680393Y-141548254D01*
X157522573Y-141502402D01*
X157522567Y-141502401D01*
X157485701Y-141499500D01*
X157485694Y-141499500D01*
X157054306Y-141499500D01*
X157054298Y-141499500D01*
X157017432Y-141502401D01*
X157017426Y-141502402D01*
X156859606Y-141548254D01*
X156859603Y-141548255D01*
X156718137Y-141631917D01*
X156711969Y-141636702D01*
X156710072Y-141634256D01*
X156661358Y-141660857D01*
X156591666Y-141655873D01*
X156559296Y-141635069D01*
X156558031Y-141636702D01*
X156551862Y-141631917D01*
X156462116Y-141578842D01*
X156410398Y-141548256D01*
X156410397Y-141548255D01*
X156410396Y-141548255D01*
X156410393Y-141548254D01*
X156252573Y-141502402D01*
X156252567Y-141502401D01*
X156215701Y-141499500D01*
X156215694Y-141499500D01*
X155784306Y-141499500D01*
X155784298Y-141499500D01*
X155747432Y-141502401D01*
X155747426Y-141502402D01*
X155589606Y-141548254D01*
X155589603Y-141548255D01*
X155448137Y-141631917D01*
X155441969Y-141636702D01*
X155440072Y-141634256D01*
X155391358Y-141660857D01*
X155321666Y-141655873D01*
X155289296Y-141635069D01*
X155288031Y-141636702D01*
X155281862Y-141631917D01*
X155192116Y-141578842D01*
X155140398Y-141548256D01*
X155140397Y-141548255D01*
X155140396Y-141548255D01*
X155140393Y-141548254D01*
X154982573Y-141502402D01*
X154982567Y-141502401D01*
X154945701Y-141499500D01*
X154945694Y-141499500D01*
X154514306Y-141499500D01*
X154514298Y-141499500D01*
X154477432Y-141502401D01*
X154477426Y-141502402D01*
X154319606Y-141548254D01*
X154319603Y-141548255D01*
X154178137Y-141631917D01*
X154171969Y-141636702D01*
X154170072Y-141634256D01*
X154121358Y-141660857D01*
X154051666Y-141655873D01*
X154031269Y-141646060D01*
X154018139Y-141638193D01*
X154011865Y-141631919D01*
X153870398Y-141548256D01*
X153865799Y-141546919D01*
X153854869Y-141540371D01*
X153848898Y-141533902D01*
X153830919Y-141521683D01*
X153824397Y-141515161D01*
X153824374Y-141515140D01*
X153447589Y-141138355D01*
X153447587Y-141138352D01*
X153328716Y-141019481D01*
X153328715Y-141019480D01*
X153241903Y-140969360D01*
X153241903Y-140969359D01*
X153241899Y-140969358D01*
X153191784Y-140940423D01*
X153039056Y-140899499D01*
X152880942Y-140899499D01*
X152873338Y-140899499D01*
X152873338Y-140899498D01*
X152873330Y-140899500D01*
X149829766Y-140899500D01*
X149762727Y-140879815D01*
X149760875Y-140878602D01*
X149684548Y-140827602D01*
X149639743Y-140773990D01*
X149631036Y-140704665D01*
X149661190Y-140641638D01*
X149720633Y-140604918D01*
X149753439Y-140600500D01*
X152913331Y-140600500D01*
X152913347Y-140600501D01*
X152920943Y-140600501D01*
X153079054Y-140600501D01*
X153079057Y-140600501D01*
X153231785Y-140559577D01*
X153281904Y-140530639D01*
X153368716Y-140480520D01*
X153480520Y-140368716D01*
X153480520Y-140368714D01*
X153490728Y-140358507D01*
X153490730Y-140358504D01*
X153818506Y-140030728D01*
X153818511Y-140030724D01*
X153828714Y-140020520D01*
X153828716Y-140020520D01*
X153940520Y-139908716D01*
X154009207Y-139789746D01*
X154009208Y-139789745D01*
X154013415Y-139782456D01*
X154019577Y-139771785D01*
X154060500Y-139619058D01*
X154060500Y-139515906D01*
X154080185Y-139448867D01*
X154132989Y-139403112D01*
X154202147Y-139393168D01*
X154247617Y-139409172D01*
X154319602Y-139451744D01*
X154337793Y-139457029D01*
X154477426Y-139497597D01*
X154477429Y-139497597D01*
X154477431Y-139497598D01*
X154514306Y-139500500D01*
X154514314Y-139500500D01*
X154945686Y-139500500D01*
X154945694Y-139500500D01*
X154982569Y-139497598D01*
X154982571Y-139497597D01*
X154982573Y-139497597D01*
X155041355Y-139480519D01*
X155140398Y-139451744D01*
X155281865Y-139368081D01*
X155281870Y-139368075D01*
X155288031Y-139363298D01*
X155289933Y-139365750D01*
X155338579Y-139339155D01*
X155408274Y-139344104D01*
X155428731Y-139353939D01*
X155441857Y-139361803D01*
X155448135Y-139368081D01*
X155589602Y-139451744D01*
X155594203Y-139453080D01*
X155605131Y-139459628D01*
X155611107Y-139466102D01*
X155629081Y-139478316D01*
X155631284Y-139480519D01*
X155631286Y-139480520D01*
X155631290Y-139480523D01*
X155768209Y-139559572D01*
X155768216Y-139559576D01*
X155920943Y-139600499D01*
X155949902Y-139600499D01*
X156016941Y-139620184D01*
X156037583Y-139636818D01*
X157015139Y-140614374D01*
X157015149Y-140614385D01*
X157019479Y-140618715D01*
X157019480Y-140618716D01*
X157131284Y-140730520D01*
X157131286Y-140730521D01*
X157131290Y-140730524D01*
X157254254Y-140801516D01*
X157268216Y-140809577D01*
X157380019Y-140839534D01*
X157420942Y-140850500D01*
X157420943Y-140850500D01*
X159949903Y-140850500D01*
X160016942Y-140870185D01*
X160037583Y-140886818D01*
X160881284Y-141730520D01*
X160881286Y-141730521D01*
X160881290Y-141730524D01*
X161018209Y-141809573D01*
X161018212Y-141809575D01*
X161018216Y-141809577D01*
X161170943Y-141850501D01*
X161170945Y-141850501D01*
X161336654Y-141850501D01*
X161336670Y-141850500D01*
X162663331Y-141850500D01*
X162663347Y-141850501D01*
X162670943Y-141850501D01*
X162829054Y-141850501D01*
X162829057Y-141850501D01*
X162981785Y-141809577D01*
X163053424Y-141768216D01*
X163118716Y-141730520D01*
X163230520Y-141618716D01*
X163230520Y-141618714D01*
X163240724Y-141608511D01*
X163240728Y-141608506D01*
X163587416Y-141261818D01*
X163648739Y-141228333D01*
X163675097Y-141225499D01*
X164049170Y-141225499D01*
X164049176Y-141225499D01*
X164150253Y-141215174D01*
X164314016Y-141160908D01*
X164460850Y-141070340D01*
X164582840Y-140948350D01*
X164673408Y-140801516D01*
X164727674Y-140637753D01*
X164738000Y-140536677D01*
X164737999Y-139963324D01*
X164731248Y-139897239D01*
X164727674Y-139862247D01*
X164703649Y-139789745D01*
X164673408Y-139698484D01*
X164582840Y-139551650D01*
X164460850Y-139429660D01*
X164361007Y-139368076D01*
X164314018Y-139339093D01*
X164314013Y-139339091D01*
X164312569Y-139338612D01*
X164150253Y-139284826D01*
X164150251Y-139284825D01*
X164049178Y-139274500D01*
X163450830Y-139274500D01*
X163450812Y-139274501D01*
X163349747Y-139284825D01*
X163185984Y-139339092D01*
X163185981Y-139339093D01*
X163039148Y-139429661D01*
X162999681Y-139469129D01*
X162938358Y-139502614D01*
X162868666Y-139497630D01*
X162812733Y-139455758D01*
X162788316Y-139390294D01*
X162788000Y-139381448D01*
X162788000Y-138502668D01*
X162807685Y-138435629D01*
X162860489Y-138389874D01*
X162929647Y-138379930D01*
X162977098Y-138397130D01*
X162998692Y-138410450D01*
X162998699Y-138410453D01*
X163162347Y-138464680D01*
X163263351Y-138474999D01*
X163862500Y-138474999D01*
X163961640Y-138474999D01*
X163961654Y-138474998D01*
X164062652Y-138464680D01*
X164226300Y-138410453D01*
X164226311Y-138410448D01*
X164373034Y-138319947D01*
X164373038Y-138319944D01*
X164494944Y-138198038D01*
X164494947Y-138198034D01*
X164585448Y-138051311D01*
X164585453Y-138051300D01*
X164639680Y-137887652D01*
X164649999Y-137786654D01*
X164650000Y-137786641D01*
X164650000Y-137750000D01*
X163862500Y-137750000D01*
X163862500Y-138474999D01*
X163263351Y-138474999D01*
X163362500Y-138474998D01*
X163362500Y-137250000D01*
X163862500Y-137250000D01*
X164649999Y-137250000D01*
X164649999Y-137213360D01*
X164649998Y-137213345D01*
X164639680Y-137112347D01*
X164585453Y-136948699D01*
X164585448Y-136948688D01*
X164494947Y-136801965D01*
X164494944Y-136801961D01*
X164373038Y-136680055D01*
X164373034Y-136680052D01*
X164226311Y-136589551D01*
X164226300Y-136589546D01*
X164062652Y-136535319D01*
X163961654Y-136525000D01*
X163862500Y-136525000D01*
X163862500Y-137250000D01*
X163362500Y-137250000D01*
X163362500Y-136524999D01*
X163263360Y-136525000D01*
X163263344Y-136525001D01*
X163162347Y-136535319D01*
X162998699Y-136589546D01*
X162998688Y-136589551D01*
X162851965Y-136680052D01*
X162838032Y-136693985D01*
X162834326Y-136696008D01*
X162832065Y-136699570D01*
X162803932Y-136712603D01*
X162776708Y-136727468D01*
X162772497Y-136727166D01*
X162768668Y-136728941D01*
X162737953Y-136724695D01*
X162707016Y-136722482D01*
X162702446Y-136719787D01*
X162699457Y-136719374D01*
X162686043Y-136710114D01*
X162669662Y-136700455D01*
X162666046Y-136697356D01*
X162648350Y-136679660D01*
X162637816Y-136673162D01*
X162630462Y-136666860D01*
X162616480Y-136645363D01*
X162599329Y-136626292D01*
X162597745Y-136616555D01*
X162592368Y-136608288D01*
X162592228Y-136582642D01*
X162588110Y-136557328D01*
X162592040Y-136548282D01*
X162591987Y-136538420D01*
X162605736Y-136516767D01*
X162615957Y-136493248D01*
X162623460Y-136485037D01*
X163571680Y-135536819D01*
X163633003Y-135503334D01*
X163659361Y-135500500D01*
X165575500Y-135500500D01*
X165642539Y-135520185D01*
G37*
%TD.AperFunction*%
%TA.AperFunction,Conductor*%
G36*
X143762226Y-137675524D02*
G01*
X143774810Y-137674985D01*
X143794674Y-137686581D01*
X143816444Y-137693999D01*
X143825719Y-137704703D01*
X143835151Y-137710209D01*
X143855486Y-137739056D01*
X143859951Y-137747820D01*
X143984890Y-137919786D01*
X144135213Y-138070109D01*
X144307179Y-138195048D01*
X144307181Y-138195049D01*
X144307184Y-138195051D01*
X144316493Y-138199794D01*
X144367290Y-138247766D01*
X144384087Y-138315587D01*
X144361552Y-138381722D01*
X144316505Y-138420760D01*
X144307446Y-138425376D01*
X144307440Y-138425380D01*
X144253282Y-138464727D01*
X144253282Y-138464728D01*
X144885591Y-139097037D01*
X144822007Y-139114075D01*
X144707993Y-139179901D01*
X144614901Y-139272993D01*
X144549075Y-139387007D01*
X144532037Y-139450591D01*
X143899728Y-138818282D01*
X143899727Y-138818282D01*
X143860380Y-138872440D01*
X143855483Y-138882051D01*
X143807506Y-138932845D01*
X143739684Y-138949638D01*
X143673550Y-138927098D01*
X143634516Y-138882048D01*
X143629626Y-138872452D01*
X143590270Y-138818282D01*
X143590269Y-138818282D01*
X142957962Y-139450590D01*
X142940925Y-139387007D01*
X142875099Y-139272993D01*
X142782007Y-139179901D01*
X142667993Y-139114075D01*
X142604407Y-139097036D01*
X143236716Y-138464728D01*
X143182547Y-138425373D01*
X143182547Y-138425372D01*
X143173500Y-138420763D01*
X143122706Y-138372788D01*
X143105912Y-138304966D01*
X143128451Y-138238832D01*
X143173508Y-138199793D01*
X143182816Y-138195051D01*
X143262007Y-138137515D01*
X143354786Y-138070109D01*
X143354788Y-138070106D01*
X143354792Y-138070104D01*
X143505104Y-137919792D01*
X143505106Y-137919788D01*
X143505109Y-137919786D01*
X143630048Y-137747820D01*
X143630047Y-137747820D01*
X143630051Y-137747816D01*
X143634514Y-137739054D01*
X143643160Y-137729900D01*
X143647897Y-137718232D01*
X143666696Y-137704979D01*
X143682488Y-137688259D01*
X143694710Y-137685231D01*
X143705004Y-137677976D01*
X143727985Y-137676991D01*
X143750308Y-137671463D01*
X143762226Y-137675524D01*
G37*
%TD.AperFunction*%
%TA.AperFunction,Conductor*%
G36*
X155718039Y-79120185D02*
G01*
X155763794Y-79172989D01*
X155775000Y-79224500D01*
X155775000Y-79287500D01*
X158224999Y-79287500D01*
X158224999Y-79224500D01*
X158227549Y-79215814D01*
X158226261Y-79206853D01*
X158237239Y-79182812D01*
X158244684Y-79157461D01*
X158251524Y-79151533D01*
X158255286Y-79143297D01*
X158277520Y-79129007D01*
X158297488Y-79111706D01*
X158308002Y-79109418D01*
X158314064Y-79105523D01*
X158348999Y-79100500D01*
X158413331Y-79100500D01*
X158413347Y-79100501D01*
X158525500Y-79100501D01*
X158592539Y-79120186D01*
X158638294Y-79172990D01*
X158649500Y-79224501D01*
X158649500Y-84534155D01*
X158629815Y-84601194D01*
X158577011Y-84646949D01*
X158507853Y-84656893D01*
X158478048Y-84648716D01*
X158433501Y-84630264D01*
X158433489Y-84630261D01*
X158278845Y-84599500D01*
X158278842Y-84599500D01*
X158121158Y-84599500D01*
X158121155Y-84599500D01*
X157966510Y-84630261D01*
X157966498Y-84630264D01*
X157820827Y-84690602D01*
X157820814Y-84690609D01*
X157689711Y-84778210D01*
X157689707Y-84778213D01*
X157578213Y-84889707D01*
X157578210Y-84889711D01*
X157490609Y-85020814D01*
X157490602Y-85020827D01*
X157430264Y-85166498D01*
X157430261Y-85166508D01*
X157399361Y-85321850D01*
X157366976Y-85383761D01*
X157365425Y-85385339D01*
X152919481Y-89831282D01*
X152919479Y-89831284D01*
X152891797Y-89879232D01*
X152880096Y-89899500D01*
X152840423Y-89968215D01*
X152799499Y-90120943D01*
X152799499Y-90120945D01*
X152799499Y-90289046D01*
X152799500Y-90289059D01*
X152799500Y-129099902D01*
X152779815Y-129166941D01*
X152763181Y-129187583D01*
X147585339Y-134365425D01*
X147524016Y-134398910D01*
X147521850Y-134399361D01*
X147366508Y-134430261D01*
X147366498Y-134430264D01*
X147220827Y-134490602D01*
X147220814Y-134490609D01*
X147089711Y-134578210D01*
X147089707Y-134578213D01*
X146978213Y-134689707D01*
X146978210Y-134689711D01*
X146890609Y-134820814D01*
X146890602Y-134820827D01*
X146830264Y-134966498D01*
X146830261Y-134966510D01*
X146799500Y-135121153D01*
X146799500Y-135164500D01*
X146779815Y-135231539D01*
X146727011Y-135277294D01*
X146675500Y-135288500D01*
X146331290Y-135288500D01*
X146264251Y-135268815D01*
X146218496Y-135216011D01*
X146208552Y-135146853D01*
X146220805Y-135108205D01*
X146266557Y-135018412D01*
X146332246Y-134816243D01*
X146365500Y-134606287D01*
X146365500Y-134393713D01*
X146332246Y-134183757D01*
X146266557Y-133981588D01*
X146170051Y-133792184D01*
X146170049Y-133792181D01*
X146170048Y-133792179D01*
X146045109Y-133620213D01*
X145894786Y-133469890D01*
X145722820Y-133344951D01*
X145722115Y-133344591D01*
X145714054Y-133340485D01*
X145663259Y-133292512D01*
X145646463Y-133224692D01*
X145668999Y-133158556D01*
X145714054Y-133119515D01*
X145722816Y-133115051D01*
X145837423Y-133031785D01*
X145894786Y-132990109D01*
X145894788Y-132990106D01*
X145894792Y-132990104D01*
X146045104Y-132839792D01*
X146045106Y-132839788D01*
X146045109Y-132839786D01*
X146170048Y-132667820D01*
X146170050Y-132667817D01*
X146170051Y-132667816D01*
X146266557Y-132478412D01*
X146332246Y-132276243D01*
X146365500Y-132066287D01*
X146365500Y-131853713D01*
X146332246Y-131643757D01*
X146318506Y-131601473D01*
X146316512Y-131531635D01*
X146348755Y-131475478D01*
X147608506Y-130215728D01*
X147608511Y-130215724D01*
X147618714Y-130205520D01*
X147618716Y-130205520D01*
X147730520Y-130093716D01*
X147796418Y-129979577D01*
X147809577Y-129956785D01*
X147850500Y-129804058D01*
X147850500Y-129645943D01*
X147850500Y-125420943D01*
X147809577Y-125268216D01*
X147809573Y-125268209D01*
X147730524Y-125131290D01*
X147730518Y-125131282D01*
X147618717Y-125019481D01*
X147618709Y-125019475D01*
X147481790Y-124940426D01*
X147481786Y-124940424D01*
X147481784Y-124940423D01*
X147329057Y-124899500D01*
X147329056Y-124899500D01*
X145224500Y-124899500D01*
X145157461Y-124879815D01*
X145111706Y-124827011D01*
X145100500Y-124775500D01*
X145100500Y-122008188D01*
X145120185Y-121941149D01*
X145172989Y-121895394D01*
X145242147Y-121885450D01*
X145305703Y-121914475D01*
X145324816Y-121935301D01*
X145355483Y-121977510D01*
X145522490Y-122144517D01*
X145713567Y-122283343D01*
X145812991Y-122334002D01*
X145924003Y-122390566D01*
X145924005Y-122390566D01*
X145924008Y-122390568D01*
X146044412Y-122429689D01*
X146148631Y-122463553D01*
X146381903Y-122500500D01*
X146381908Y-122500500D01*
X146618097Y-122500500D01*
X146851368Y-122463553D01*
X147075992Y-122390568D01*
X147286433Y-122283343D01*
X147477510Y-122144517D01*
X147644517Y-121977510D01*
X147783343Y-121786433D01*
X147890568Y-121575992D01*
X147963553Y-121351368D01*
X148000500Y-121118097D01*
X148000500Y-120881902D01*
X147963553Y-120648635D01*
X147963553Y-120648632D01*
X147922547Y-120522433D01*
X147920553Y-120452593D01*
X147952796Y-120396437D01*
X148159506Y-120189728D01*
X148159511Y-120189724D01*
X148169714Y-120179520D01*
X148169716Y-120179520D01*
X148281520Y-120067716D01*
X148339866Y-119966657D01*
X148360577Y-119930785D01*
X148401501Y-119778057D01*
X148401501Y-119619943D01*
X148401501Y-119612348D01*
X148401500Y-119612330D01*
X148401500Y-113290060D01*
X148401501Y-113290047D01*
X148401501Y-113121944D01*
X148360576Y-112969214D01*
X148360573Y-112969209D01*
X148281524Y-112832290D01*
X148281518Y-112832282D01*
X146234573Y-110785337D01*
X146201088Y-110724014D01*
X146200637Y-110721847D01*
X146192417Y-110680521D01*
X146169737Y-110566503D01*
X146134907Y-110482415D01*
X146109397Y-110420827D01*
X146109390Y-110420814D01*
X146021789Y-110289711D01*
X146021786Y-110289707D01*
X145910292Y-110178213D01*
X145910288Y-110178210D01*
X145779185Y-110090609D01*
X145779172Y-110090602D01*
X145633501Y-110030264D01*
X145633489Y-110030261D01*
X145478845Y-109999500D01*
X145478842Y-109999500D01*
X145321158Y-109999500D01*
X145321155Y-109999500D01*
X145248691Y-110013914D01*
X145179100Y-110007687D01*
X145123922Y-109964824D01*
X145100678Y-109898934D01*
X145100500Y-109892297D01*
X145100500Y-90800097D01*
X145120185Y-90733058D01*
X145136819Y-90712416D01*
X149786829Y-86062406D01*
X154764662Y-81084572D01*
X154825983Y-81051089D01*
X154828150Y-81050638D01*
X154886085Y-81039113D01*
X154983497Y-81019737D01*
X155129179Y-80959394D01*
X155260289Y-80871789D01*
X155371789Y-80760289D01*
X155459394Y-80629179D01*
X155519737Y-80483497D01*
X155550500Y-80328842D01*
X155550500Y-80171158D01*
X155550500Y-80171155D01*
X155550499Y-80171153D01*
X155519737Y-80016503D01*
X155481830Y-79924986D01*
X155775001Y-79924986D01*
X155785494Y-80027697D01*
X155840641Y-80194119D01*
X155840643Y-80194124D01*
X155932684Y-80343345D01*
X156056654Y-80467315D01*
X156205875Y-80559356D01*
X156205880Y-80559358D01*
X156372302Y-80614505D01*
X156372309Y-80614506D01*
X156475019Y-80624999D01*
X156749999Y-80624999D01*
X157250000Y-80624999D01*
X157524972Y-80624999D01*
X157524986Y-80624998D01*
X157627697Y-80614505D01*
X157794119Y-80559358D01*
X157794124Y-80559356D01*
X157943345Y-80467315D01*
X158067315Y-80343345D01*
X158159356Y-80194124D01*
X158159358Y-80194119D01*
X158214505Y-80027697D01*
X158214506Y-80027690D01*
X158224999Y-79924986D01*
X158225000Y-79924973D01*
X158225000Y-79787500D01*
X157250000Y-79787500D01*
X157250000Y-80624999D01*
X156749999Y-80624999D01*
X156750000Y-80624998D01*
X156750000Y-79787500D01*
X155775001Y-79787500D01*
X155775001Y-79924986D01*
X155481830Y-79924986D01*
X155459397Y-79870827D01*
X155459390Y-79870814D01*
X155415434Y-79805029D01*
X155371789Y-79739711D01*
X155371786Y-79739707D01*
X155260292Y-79628213D01*
X155260288Y-79628210D01*
X155212517Y-79596290D01*
X155167712Y-79542677D01*
X155159005Y-79473352D01*
X155189160Y-79410325D01*
X155193685Y-79405549D01*
X155462419Y-79136816D01*
X155489350Y-79122111D01*
X155515163Y-79105523D01*
X155521363Y-79104631D01*
X155523740Y-79103334D01*
X155550098Y-79100500D01*
X155651000Y-79100500D01*
X155718039Y-79120185D01*
G37*
%TD.AperFunction*%
%TA.AperFunction,Conductor*%
G36*
X154082151Y-129702773D02*
G01*
X154122680Y-129759687D01*
X154129500Y-129800244D01*
X154129500Y-135164500D01*
X154109815Y-135231539D01*
X154057011Y-135277294D01*
X154005500Y-135288500D01*
X148660097Y-135288500D01*
X148593058Y-135268815D01*
X148547303Y-135216011D01*
X148537359Y-135146853D01*
X148566384Y-135083297D01*
X148572416Y-135076819D01*
X151081030Y-132568205D01*
X153880520Y-129768716D01*
X153898112Y-129738244D01*
X153948679Y-129690029D01*
X154017286Y-129676805D01*
X154082151Y-129702773D01*
G37*
%TD.AperFunction*%
%TA.AperFunction,Conductor*%
G36*
X133430270Y-132721717D02*
G01*
X133430270Y-132721716D01*
X133469622Y-132667555D01*
X133474232Y-132658507D01*
X133522205Y-132607709D01*
X133590025Y-132590912D01*
X133656161Y-132613447D01*
X133695204Y-132658504D01*
X133699949Y-132667817D01*
X133824890Y-132839786D01*
X133975213Y-132990109D01*
X134147182Y-133115050D01*
X134155946Y-133119516D01*
X134206742Y-133167491D01*
X134223536Y-133235312D01*
X134200998Y-133301447D01*
X134155946Y-133340484D01*
X134147182Y-133344949D01*
X133975213Y-133469890D01*
X133824890Y-133620213D01*
X133699949Y-133792182D01*
X133695484Y-133800946D01*
X133647509Y-133851742D01*
X133579688Y-133868536D01*
X133513553Y-133845998D01*
X133474516Y-133800946D01*
X133470050Y-133792182D01*
X133345109Y-133620213D01*
X133194786Y-133469890D01*
X133022817Y-133344949D01*
X133013504Y-133340204D01*
X132962707Y-133292230D01*
X132945912Y-133224409D01*
X132968449Y-133158274D01*
X133013507Y-133119232D01*
X133022555Y-133114622D01*
X133076716Y-133075270D01*
X133076717Y-133075270D01*
X132444408Y-132442962D01*
X132507993Y-132425925D01*
X132622007Y-132360099D01*
X132715099Y-132267007D01*
X132780925Y-132152993D01*
X132797962Y-132089409D01*
X133430270Y-132721717D01*
G37*
%TD.AperFunction*%
%TA.AperFunction,Conductor*%
G36*
X133362971Y-121870185D02*
G01*
X133406416Y-121918203D01*
X133466657Y-122036433D01*
X133605483Y-122227510D01*
X133772490Y-122394517D01*
X133963567Y-122533343D01*
X134049500Y-122577128D01*
X134174003Y-122640566D01*
X134174005Y-122640566D01*
X134174008Y-122640568D01*
X134266292Y-122670553D01*
X134398631Y-122713553D01*
X134631903Y-122750500D01*
X134631908Y-122750500D01*
X134868097Y-122750500D01*
X134974126Y-122733705D01*
X135101368Y-122713553D01*
X135227566Y-122672547D01*
X135297404Y-122670553D01*
X135353563Y-122702798D01*
X136363181Y-123712416D01*
X136396666Y-123773739D01*
X136399500Y-123800097D01*
X136399500Y-129021884D01*
X136379815Y-129088923D01*
X136327011Y-129134678D01*
X136257853Y-129144622D01*
X136194297Y-129115597D01*
X136157569Y-129060202D01*
X136106095Y-128901782D01*
X136009624Y-128712449D01*
X135970270Y-128658282D01*
X135970269Y-128658282D01*
X135337962Y-129290590D01*
X135320925Y-129227007D01*
X135255099Y-129112993D01*
X135162007Y-129019901D01*
X135047993Y-128954075D01*
X134984409Y-128937037D01*
X135616716Y-128304728D01*
X135562550Y-128265375D01*
X135373217Y-128168904D01*
X135171129Y-128103242D01*
X134961246Y-128070000D01*
X134748754Y-128070000D01*
X134538872Y-128103242D01*
X134538869Y-128103242D01*
X134336782Y-128168904D01*
X134147439Y-128265380D01*
X134093282Y-128304727D01*
X134093282Y-128304728D01*
X134725591Y-128937037D01*
X134662007Y-128954075D01*
X134547993Y-129019901D01*
X134454901Y-129112993D01*
X134389075Y-129227007D01*
X134372037Y-129290591D01*
X133702642Y-128621196D01*
X133669319Y-128560609D01*
X133630527Y-128387364D01*
X133608354Y-128327913D01*
X133608350Y-128327906D01*
X133522190Y-128212812D01*
X133522187Y-128212809D01*
X133407093Y-128126649D01*
X133407086Y-128126645D01*
X133272379Y-128076403D01*
X133272372Y-128076401D01*
X133212844Y-128070000D01*
X132565000Y-128070000D01*
X132565000Y-128986988D01*
X132507993Y-128954075D01*
X132380826Y-128920000D01*
X132249174Y-128920000D01*
X132122007Y-128954075D01*
X132065000Y-128986988D01*
X132065000Y-128070000D01*
X131417155Y-128070000D01*
X131357627Y-128076401D01*
X131357620Y-128076403D01*
X131222913Y-128126645D01*
X131222906Y-128126649D01*
X131107812Y-128212809D01*
X131107809Y-128212812D01*
X131021649Y-128327906D01*
X131021645Y-128327913D01*
X130971403Y-128462620D01*
X130971401Y-128462627D01*
X130965000Y-128522155D01*
X130965000Y-129170000D01*
X131881988Y-129170000D01*
X131849075Y-129227007D01*
X131815000Y-129354174D01*
X131815000Y-129485826D01*
X131849075Y-129612993D01*
X131881988Y-129670000D01*
X130965000Y-129670000D01*
X130965000Y-130317844D01*
X130971401Y-130377372D01*
X130971403Y-130377379D01*
X131021645Y-130512086D01*
X131021649Y-130512093D01*
X131107809Y-130627187D01*
X131107812Y-130627190D01*
X131222906Y-130713350D01*
X131222913Y-130713354D01*
X131357620Y-130763596D01*
X131357619Y-130763596D01*
X131440444Y-130772501D01*
X131440116Y-130775550D01*
X131457014Y-130774642D01*
X131516196Y-130807642D01*
X132185591Y-131477037D01*
X132122007Y-131494075D01*
X132007993Y-131559901D01*
X131914901Y-131652993D01*
X131849075Y-131767007D01*
X131832037Y-131830591D01*
X131199728Y-131198282D01*
X131199727Y-131198282D01*
X131160380Y-131252439D01*
X131063904Y-131441782D01*
X130998242Y-131643869D01*
X130998242Y-131643872D01*
X130965000Y-131853753D01*
X130965000Y-132001403D01*
X130945315Y-132068442D01*
X130892511Y-132114197D01*
X130823353Y-132124141D01*
X130759797Y-132095116D01*
X130753319Y-132089084D01*
X127585819Y-128921584D01*
X127552334Y-128860261D01*
X127549500Y-128833903D01*
X127549500Y-122770784D01*
X127569185Y-122703745D01*
X127621989Y-122657990D01*
X127691147Y-122648046D01*
X127711812Y-122652851D01*
X127831459Y-122691727D01*
X127898631Y-122713553D01*
X128131903Y-122750500D01*
X128131908Y-122750500D01*
X128368097Y-122750500D01*
X128601368Y-122713553D01*
X128634468Y-122702798D01*
X128825992Y-122640568D01*
X129036433Y-122533343D01*
X129227510Y-122394517D01*
X129394517Y-122227510D01*
X129533343Y-122036433D01*
X129593583Y-121918204D01*
X129641558Y-121867409D01*
X129704068Y-121850500D01*
X133295932Y-121850500D01*
X133362971Y-121870185D01*
G37*
%TD.AperFunction*%
%TA.AperFunction,Conductor*%
G36*
X134389075Y-129612993D02*
G01*
X134454901Y-129727007D01*
X134547993Y-129820099D01*
X134662007Y-129885925D01*
X134725590Y-129902962D01*
X134093282Y-130535269D01*
X134093282Y-130535270D01*
X134147452Y-130574626D01*
X134147451Y-130574626D01*
X134156495Y-130579234D01*
X134207292Y-130627208D01*
X134224087Y-130695029D01*
X134201550Y-130761164D01*
X134156499Y-130800202D01*
X134147182Y-130804949D01*
X133975213Y-130929890D01*
X133824890Y-131080213D01*
X133699949Y-131252182D01*
X133695202Y-131261499D01*
X133647227Y-131312293D01*
X133579405Y-131329087D01*
X133513271Y-131306548D01*
X133474234Y-131261495D01*
X133469626Y-131252452D01*
X133430270Y-131198282D01*
X133430269Y-131198282D01*
X132797962Y-131830590D01*
X132780925Y-131767007D01*
X132715099Y-131652993D01*
X132622007Y-131559901D01*
X132507993Y-131494075D01*
X132444409Y-131477037D01*
X133113802Y-130807642D01*
X133175125Y-130774157D01*
X133189833Y-130775078D01*
X133189556Y-130772501D01*
X133272375Y-130763598D01*
X133407086Y-130713354D01*
X133407093Y-130713350D01*
X133522187Y-130627190D01*
X133522190Y-130627187D01*
X133608350Y-130512093D01*
X133608354Y-130512086D01*
X133658598Y-130377375D01*
X133667501Y-130294556D01*
X133670550Y-130294883D01*
X133669642Y-130277984D01*
X133702642Y-130218802D01*
X134372037Y-129549408D01*
X134389075Y-129612993D01*
G37*
%TD.AperFunction*%
%TA.AperFunction,Conductor*%
G36*
X135970270Y-130181717D02*
G01*
X135970270Y-130181716D01*
X136009622Y-130127554D01*
X136106095Y-129938217D01*
X136157569Y-129779797D01*
X136197006Y-129722122D01*
X136261365Y-129694923D01*
X136330211Y-129706837D01*
X136381687Y-129754081D01*
X136399500Y-129818115D01*
X136399500Y-131235499D01*
X136396949Y-131244184D01*
X136398238Y-131253146D01*
X136387259Y-131277186D01*
X136379815Y-131302538D01*
X136372974Y-131308465D01*
X136369213Y-131316702D01*
X136346978Y-131330991D01*
X136327011Y-131348293D01*
X136316496Y-131350580D01*
X136310435Y-131354476D01*
X136275500Y-131359499D01*
X136140718Y-131359499D01*
X136073679Y-131339814D01*
X136030233Y-131291794D01*
X136010541Y-131253146D01*
X136010051Y-131252184D01*
X136010049Y-131252181D01*
X136010048Y-131252179D01*
X135885109Y-131080213D01*
X135734786Y-130929890D01*
X135562817Y-130804949D01*
X135553504Y-130800204D01*
X135502707Y-130752230D01*
X135485912Y-130684409D01*
X135508449Y-130618274D01*
X135553507Y-130579232D01*
X135562555Y-130574622D01*
X135616716Y-130535270D01*
X135616717Y-130535270D01*
X134984408Y-129902962D01*
X135047993Y-129885925D01*
X135162007Y-129820099D01*
X135255099Y-129727007D01*
X135320925Y-129612993D01*
X135337962Y-129549408D01*
X135970270Y-130181717D01*
G37*
%TD.AperFunction*%
%TA.AperFunction,Conductor*%
G36*
X141793834Y-110907915D02*
G01*
X141849767Y-110949787D01*
X141874184Y-111015251D01*
X141874500Y-111024097D01*
X141874500Y-127945500D01*
X141854815Y-128012539D01*
X141802011Y-128058294D01*
X141750501Y-128069500D01*
X141577130Y-128069500D01*
X141577123Y-128069501D01*
X141517516Y-128075908D01*
X141382671Y-128126202D01*
X141382664Y-128126206D01*
X141267455Y-128212452D01*
X141267452Y-128212455D01*
X141181206Y-128327664D01*
X141181202Y-128327671D01*
X141130908Y-128462517D01*
X141124501Y-128522116D01*
X141124500Y-128522135D01*
X141124500Y-129460902D01*
X141104815Y-129527941D01*
X141052011Y-129573696D01*
X140982853Y-129583640D01*
X140919297Y-129554615D01*
X140912819Y-129548583D01*
X138636819Y-127272583D01*
X138603334Y-127211260D01*
X138600500Y-127184902D01*
X138600500Y-122008188D01*
X138620185Y-121941149D01*
X138672989Y-121895394D01*
X138742147Y-121885450D01*
X138805703Y-121914475D01*
X138824816Y-121935301D01*
X138855483Y-121977510D01*
X139022490Y-122144517D01*
X139213567Y-122283343D01*
X139312991Y-122334002D01*
X139424003Y-122390566D01*
X139424005Y-122390566D01*
X139424008Y-122390568D01*
X139544412Y-122429689D01*
X139648631Y-122463553D01*
X139881903Y-122500500D01*
X139881908Y-122500500D01*
X140118097Y-122500500D01*
X140351368Y-122463553D01*
X140575992Y-122390568D01*
X140786433Y-122283343D01*
X140977510Y-122144517D01*
X141144517Y-121977510D01*
X141283343Y-121786433D01*
X141390568Y-121575992D01*
X141463553Y-121351368D01*
X141500500Y-121118097D01*
X141500500Y-120881902D01*
X141463553Y-120648631D01*
X141417811Y-120507853D01*
X141390568Y-120424008D01*
X141390566Y-120424005D01*
X141390566Y-120424003D01*
X141283342Y-120213566D01*
X141144517Y-120022490D01*
X140977510Y-119855483D01*
X140786433Y-119716657D01*
X140575996Y-119609433D01*
X140351368Y-119536446D01*
X140118097Y-119499500D01*
X140118092Y-119499500D01*
X139881908Y-119499500D01*
X139881903Y-119499500D01*
X139648631Y-119536446D01*
X139424003Y-119609433D01*
X139213566Y-119716657D01*
X139104550Y-119795862D01*
X139022490Y-119855483D01*
X139022488Y-119855485D01*
X139022487Y-119855485D01*
X138855484Y-120022488D01*
X138824818Y-120064697D01*
X138769487Y-120107362D01*
X138699874Y-120113341D01*
X138638079Y-120080735D01*
X138603722Y-120019896D01*
X138600500Y-119991811D01*
X138600500Y-117489330D01*
X138620185Y-117422291D01*
X138672989Y-117376536D01*
X138734229Y-117365712D01*
X138777341Y-117369104D01*
X139476212Y-116670233D01*
X139487482Y-116712292D01*
X139559890Y-116837708D01*
X139662292Y-116940110D01*
X139787708Y-117012518D01*
X139829765Y-117023787D01*
X139130893Y-117722658D01*
X139213828Y-117782914D01*
X139424197Y-117890102D01*
X139648752Y-117963065D01*
X139648751Y-117963065D01*
X139881948Y-118000000D01*
X140118052Y-118000000D01*
X140351247Y-117963065D01*
X140575802Y-117890102D01*
X140786163Y-117782918D01*
X140786169Y-117782914D01*
X140869104Y-117722658D01*
X140869105Y-117722658D01*
X140170233Y-117023787D01*
X140212292Y-117012518D01*
X140337708Y-116940110D01*
X140440110Y-116837708D01*
X140512518Y-116712292D01*
X140523787Y-116670233D01*
X141222658Y-117369105D01*
X141222658Y-117369104D01*
X141282914Y-117286169D01*
X141282918Y-117286163D01*
X141390102Y-117075802D01*
X141463065Y-116851247D01*
X141500000Y-116618052D01*
X141500000Y-116381947D01*
X141463065Y-116148752D01*
X141390102Y-115924197D01*
X141282914Y-115713828D01*
X141222658Y-115630894D01*
X141222658Y-115630893D01*
X140523787Y-116329765D01*
X140512518Y-116287708D01*
X140440110Y-116162292D01*
X140337708Y-116059890D01*
X140212292Y-115987482D01*
X140170234Y-115976212D01*
X140869105Y-115277340D01*
X140869104Y-115277338D01*
X140786174Y-115217087D01*
X140575802Y-115109897D01*
X140351247Y-115036934D01*
X140351248Y-115036934D01*
X140118052Y-115000000D01*
X139881948Y-115000000D01*
X139648752Y-115036934D01*
X139424197Y-115109897D01*
X139213830Y-115217084D01*
X139130894Y-115277340D01*
X139829766Y-115976212D01*
X139787708Y-115987482D01*
X139662292Y-116059890D01*
X139559890Y-116162292D01*
X139487482Y-116287708D01*
X139476212Y-116329766D01*
X138777340Y-115630894D01*
X138734229Y-115634287D01*
X138720618Y-115631427D01*
X138706853Y-115633407D01*
X138687101Y-115624386D01*
X138665852Y-115619923D01*
X138655948Y-115610159D01*
X138643297Y-115604382D01*
X138631556Y-115586113D01*
X138616095Y-115570871D01*
X138612268Y-115556100D01*
X138605523Y-115545604D01*
X138600500Y-115510669D01*
X138600500Y-114050097D01*
X138620185Y-113983058D01*
X138636819Y-113962416D01*
X141662819Y-110936416D01*
X141724142Y-110902931D01*
X141793834Y-110907915D01*
G37*
%TD.AperFunction*%
%TA.AperFunction,Conductor*%
G36*
X136918834Y-112032914D02*
G01*
X136974767Y-112074786D01*
X136999184Y-112140250D01*
X136999500Y-112149096D01*
X136999500Y-122350902D01*
X136979815Y-122417941D01*
X136927011Y-122463696D01*
X136857853Y-122473640D01*
X136794297Y-122444615D01*
X136787819Y-122438583D01*
X136202798Y-121853563D01*
X136169313Y-121792240D01*
X136172547Y-121727566D01*
X136213553Y-121601368D01*
X136233705Y-121474126D01*
X136250500Y-121368097D01*
X136250500Y-121131902D01*
X136213553Y-120898631D01*
X136140566Y-120674003D01*
X136033342Y-120463566D01*
X136025370Y-120452593D01*
X135894517Y-120272490D01*
X135727510Y-120105483D01*
X135536433Y-119966657D01*
X135536427Y-119966654D01*
X135325996Y-119859433D01*
X135101368Y-119786446D01*
X134868097Y-119749500D01*
X134868092Y-119749500D01*
X134631908Y-119749500D01*
X134631903Y-119749500D01*
X134398631Y-119786446D01*
X134174003Y-119859433D01*
X133963566Y-119966657D01*
X133854550Y-120045862D01*
X133772490Y-120105483D01*
X133772488Y-120105485D01*
X133772487Y-120105485D01*
X133605485Y-120272487D01*
X133605485Y-120272488D01*
X133605483Y-120272490D01*
X133545862Y-120354550D01*
X133466657Y-120463566D01*
X133444092Y-120507853D01*
X133408855Y-120577011D01*
X133406417Y-120581795D01*
X133358442Y-120632591D01*
X133295932Y-120649500D01*
X129999097Y-120649500D01*
X129932058Y-120629815D01*
X129886303Y-120577011D01*
X129876359Y-120507853D01*
X129905384Y-120444297D01*
X129911416Y-120437819D01*
X130632578Y-119716657D01*
X131730520Y-118618716D01*
X131809577Y-118481784D01*
X131850501Y-118329057D01*
X131850501Y-118170942D01*
X131850501Y-118163347D01*
X131850500Y-118163329D01*
X131850500Y-117050096D01*
X131870185Y-116983057D01*
X131886814Y-116962420D01*
X132217287Y-116631947D01*
X133250000Y-116631947D01*
X133250000Y-116868052D01*
X133286934Y-117101247D01*
X133359897Y-117325802D01*
X133467087Y-117536174D01*
X133527338Y-117619104D01*
X133527340Y-117619105D01*
X134226212Y-116920233D01*
X134237482Y-116962292D01*
X134309890Y-117087708D01*
X134412292Y-117190110D01*
X134537708Y-117262518D01*
X134579765Y-117273787D01*
X133880893Y-117972658D01*
X133963828Y-118032914D01*
X134174197Y-118140102D01*
X134398752Y-118213065D01*
X134398751Y-118213065D01*
X134631948Y-118250000D01*
X134868052Y-118250000D01*
X135101247Y-118213065D01*
X135325802Y-118140102D01*
X135536163Y-118032918D01*
X135536169Y-118032914D01*
X135619104Y-117972658D01*
X135619105Y-117972658D01*
X134920233Y-117273787D01*
X134962292Y-117262518D01*
X135087708Y-117190110D01*
X135190110Y-117087708D01*
X135262518Y-116962292D01*
X135273787Y-116920234D01*
X135972658Y-117619105D01*
X135972658Y-117619104D01*
X136032914Y-117536169D01*
X136032918Y-117536163D01*
X136140102Y-117325802D01*
X136213065Y-117101247D01*
X136250000Y-116868052D01*
X136250000Y-116631947D01*
X136213065Y-116398752D01*
X136140102Y-116174197D01*
X136032914Y-115963828D01*
X135972658Y-115880894D01*
X135972658Y-115880893D01*
X135273787Y-116579765D01*
X135262518Y-116537708D01*
X135190110Y-116412292D01*
X135087708Y-116309890D01*
X134962292Y-116237482D01*
X134920234Y-116226212D01*
X135619105Y-115527340D01*
X135619104Y-115527338D01*
X135536174Y-115467087D01*
X135325802Y-115359897D01*
X135101247Y-115286934D01*
X135101248Y-115286934D01*
X134868052Y-115250000D01*
X134631948Y-115250000D01*
X134398752Y-115286934D01*
X134174197Y-115359897D01*
X133963830Y-115467084D01*
X133880894Y-115527340D01*
X134579766Y-116226212D01*
X134537708Y-116237482D01*
X134412292Y-116309890D01*
X134309890Y-116412292D01*
X134237482Y-116537708D01*
X134226212Y-116579766D01*
X133527340Y-115880894D01*
X133467084Y-115963830D01*
X133359897Y-116174197D01*
X133286934Y-116398752D01*
X133250000Y-116631947D01*
X132217287Y-116631947D01*
X136787819Y-112061414D01*
X136849142Y-112027930D01*
X136918834Y-112032914D01*
G37*
%TD.AperFunction*%
%TA.AperFunction,Conductor*%
G36*
X145987482Y-116712292D02*
G01*
X146059890Y-116837708D01*
X146162292Y-116940110D01*
X146287708Y-117012518D01*
X146329764Y-117023787D01*
X145630893Y-117722658D01*
X145713828Y-117782914D01*
X145924197Y-117890102D01*
X146148752Y-117963065D01*
X146148751Y-117963065D01*
X146381948Y-118000000D01*
X146618052Y-118000000D01*
X146851245Y-117963065D01*
X147038181Y-117902326D01*
X147108022Y-117900331D01*
X147167855Y-117936411D01*
X147198684Y-117999112D01*
X147200500Y-118020257D01*
X147200500Y-119398901D01*
X147191855Y-119428338D01*
X147185332Y-119458329D01*
X147181576Y-119463345D01*
X147180815Y-119465940D01*
X147164181Y-119486583D01*
X147103562Y-119547201D01*
X147042238Y-119580685D01*
X146977563Y-119577450D01*
X146851370Y-119536447D01*
X146618097Y-119499500D01*
X146618092Y-119499500D01*
X146381908Y-119499500D01*
X146381903Y-119499500D01*
X146148631Y-119536446D01*
X145924003Y-119609433D01*
X145713566Y-119716657D01*
X145604550Y-119795862D01*
X145522490Y-119855483D01*
X145522488Y-119855485D01*
X145522487Y-119855485D01*
X145355484Y-120022488D01*
X145324818Y-120064697D01*
X145269487Y-120107362D01*
X145199874Y-120113341D01*
X145138079Y-120080735D01*
X145103722Y-120019896D01*
X145100500Y-119991811D01*
X145100500Y-117489330D01*
X145120185Y-117422291D01*
X145172989Y-117376536D01*
X145234229Y-117365712D01*
X145277341Y-117369104D01*
X145976212Y-116670233D01*
X145987482Y-116712292D01*
G37*
%TD.AperFunction*%
%TA.AperFunction,Conductor*%
G36*
X136086415Y-74495529D02*
G01*
X136100315Y-74511570D01*
X136103379Y-74515787D01*
X136234213Y-74646621D01*
X136383904Y-74755378D01*
X136464763Y-74796577D01*
X136548764Y-74839379D01*
X136548767Y-74839380D01*
X136624498Y-74863986D01*
X136724736Y-74896555D01*
X136907486Y-74925500D01*
X136907487Y-74925500D01*
X137092513Y-74925500D01*
X137092514Y-74925500D01*
X137232102Y-74903391D01*
X137301395Y-74912345D01*
X137354847Y-74957342D01*
X137375487Y-75024093D01*
X137375500Y-75025864D01*
X137375500Y-109723902D01*
X137355815Y-109790941D01*
X137339181Y-109811583D01*
X130769481Y-116381282D01*
X130769479Y-116381285D01*
X130719361Y-116468094D01*
X130719359Y-116468096D01*
X130690425Y-116518209D01*
X130690424Y-116518210D01*
X130674544Y-116577472D01*
X130649499Y-116670943D01*
X130649499Y-116670945D01*
X130649499Y-116839046D01*
X130649500Y-116839059D01*
X130649500Y-117949902D01*
X130629815Y-118016941D01*
X130613181Y-118037583D01*
X128853563Y-119797200D01*
X128792240Y-119830685D01*
X128727564Y-119827450D01*
X128601370Y-119786447D01*
X128368097Y-119749500D01*
X128368092Y-119749500D01*
X128131908Y-119749500D01*
X128131903Y-119749500D01*
X127898630Y-119786447D01*
X127898627Y-119786447D01*
X127711818Y-119847146D01*
X127641977Y-119849141D01*
X127582144Y-119813061D01*
X127551316Y-119750360D01*
X127549500Y-119729215D01*
X127549500Y-118270257D01*
X127569185Y-118203218D01*
X127621989Y-118157463D01*
X127691147Y-118147519D01*
X127711819Y-118152326D01*
X127898754Y-118213065D01*
X128131948Y-118250000D01*
X128368052Y-118250000D01*
X128601247Y-118213065D01*
X128825802Y-118140102D01*
X129036163Y-118032918D01*
X129036169Y-118032914D01*
X129119104Y-117972658D01*
X129119105Y-117972658D01*
X128420234Y-117273787D01*
X128462292Y-117262518D01*
X128587708Y-117190110D01*
X128690110Y-117087708D01*
X128762518Y-116962292D01*
X128773787Y-116920234D01*
X129472658Y-117619105D01*
X129472658Y-117619104D01*
X129532914Y-117536169D01*
X129532918Y-117536163D01*
X129640102Y-117325802D01*
X129713065Y-117101247D01*
X129750000Y-116868052D01*
X129750000Y-116631947D01*
X129713065Y-116398752D01*
X129640102Y-116174197D01*
X129532914Y-115963828D01*
X129472658Y-115880894D01*
X129472658Y-115880893D01*
X128773787Y-116579765D01*
X128762518Y-116537708D01*
X128690110Y-116412292D01*
X128587708Y-116309890D01*
X128462292Y-116237482D01*
X128420233Y-116226212D01*
X129119105Y-115527340D01*
X129119104Y-115527338D01*
X129036174Y-115467087D01*
X128825802Y-115359897D01*
X128601247Y-115286934D01*
X128601248Y-115286934D01*
X128368052Y-115250000D01*
X128131948Y-115250000D01*
X127898751Y-115286934D01*
X127711818Y-115347673D01*
X127641977Y-115349668D01*
X127582144Y-115313588D01*
X127551316Y-115250887D01*
X127549500Y-115229742D01*
X127549500Y-82101096D01*
X127569185Y-82034057D01*
X127585814Y-82013420D01*
X134661019Y-74938214D01*
X134722342Y-74904730D01*
X134768098Y-74903423D01*
X134907486Y-74925500D01*
X134907487Y-74925500D01*
X135092513Y-74925500D01*
X135092514Y-74925500D01*
X135275264Y-74896555D01*
X135451235Y-74839379D01*
X135616096Y-74755378D01*
X135765787Y-74646621D01*
X135896621Y-74515787D01*
X135899680Y-74511576D01*
X135955006Y-74468909D01*
X136024619Y-74462926D01*
X136086415Y-74495529D01*
G37*
%TD.AperFunction*%
%TA.AperFunction,Conductor*%
G36*
X145238246Y-111585524D02*
G01*
X145242147Y-111584964D01*
X145248667Y-111586080D01*
X145309012Y-111598084D01*
X145321851Y-111600638D01*
X145383761Y-111633024D01*
X145385339Y-111634574D01*
X147164181Y-113413416D01*
X147197666Y-113474739D01*
X147200500Y-113501097D01*
X147200500Y-114979742D01*
X147180815Y-115046781D01*
X147128011Y-115092536D01*
X147058853Y-115102480D01*
X147038182Y-115097673D01*
X146851247Y-115036934D01*
X146851248Y-115036934D01*
X146618052Y-115000000D01*
X146381948Y-115000000D01*
X146148752Y-115036934D01*
X145924197Y-115109897D01*
X145713830Y-115217084D01*
X145630894Y-115277340D01*
X146329766Y-115976212D01*
X146287708Y-115987482D01*
X146162292Y-116059890D01*
X146059890Y-116162292D01*
X145987482Y-116287708D01*
X145976212Y-116329766D01*
X145277340Y-115630894D01*
X145234229Y-115634287D01*
X145165852Y-115619923D01*
X145116095Y-115570871D01*
X145100500Y-115510669D01*
X145100500Y-111707702D01*
X145106435Y-111687486D01*
X145107564Y-111666448D01*
X145116082Y-111654635D01*
X145120185Y-111640663D01*
X145136106Y-111626866D01*
X145148431Y-111609776D01*
X145161984Y-111604443D01*
X145172989Y-111594908D01*
X145193840Y-111591909D01*
X145213449Y-111584195D01*
X145238246Y-111585524D01*
G37*
%TD.AperFunction*%
%TA.AperFunction,Conductor*%
G36*
X158555739Y-86147930D02*
G01*
X158564930Y-86148280D01*
X158586488Y-86163321D01*
X158609995Y-86175088D01*
X158614688Y-86182997D01*
X158622230Y-86188260D01*
X158632233Y-86212568D01*
X158645648Y-86235177D01*
X158647453Y-86249553D01*
X158648820Y-86252873D01*
X158648257Y-86255950D01*
X158649500Y-86265844D01*
X158649500Y-105449902D01*
X158629815Y-105516941D01*
X158613181Y-105537583D01*
X154249481Y-109901282D01*
X154249477Y-109901287D01*
X154231887Y-109931755D01*
X154181320Y-109979971D01*
X154112713Y-109993193D01*
X154047848Y-109967225D01*
X154007320Y-109910311D01*
X154000500Y-109869755D01*
X154000500Y-90500097D01*
X154020185Y-90433058D01*
X154036819Y-90412416D01*
X154929757Y-89519478D01*
X158214662Y-86234572D01*
X158229127Y-86226357D01*
X158239313Y-86215468D01*
X158266746Y-86204992D01*
X158271952Y-86202036D01*
X158278028Y-86200500D01*
X158278842Y-86200500D01*
X158433497Y-86169737D01*
X158486381Y-86147831D01*
X158495111Y-86145625D01*
X158521379Y-86146623D01*
X158547515Y-86143814D01*
X158555739Y-86147930D01*
G37*
%TD.AperFunction*%
%TA.AperFunction,Conductor*%
G36*
X160055703Y-79455648D02*
G01*
X160074817Y-79476475D01*
X160103379Y-79515787D01*
X160234213Y-79646621D01*
X160234216Y-79646623D01*
X160308831Y-79700834D01*
X160323806Y-79720254D01*
X160953554Y-80350000D01*
X160947339Y-80350000D01*
X160845606Y-80377259D01*
X160754394Y-80429920D01*
X160679920Y-80504394D01*
X160627259Y-80595606D01*
X160600000Y-80697339D01*
X160600000Y-80703553D01*
X160010015Y-80113568D01*
X159984230Y-80115598D01*
X159915852Y-80101234D01*
X159866095Y-80052183D01*
X159850500Y-79991980D01*
X159850500Y-79549361D01*
X159870185Y-79482322D01*
X159922989Y-79436567D01*
X159992147Y-79426623D01*
X160055703Y-79455648D01*
G37*
%TD.AperFunction*%
%TA.AperFunction,Conductor*%
G36*
X162086415Y-79495529D02*
G01*
X162100315Y-79511570D01*
X162103379Y-79515787D01*
X162234213Y-79646621D01*
X162234216Y-79646623D01*
X162308831Y-79700834D01*
X162323806Y-79720254D01*
X162953554Y-80350000D01*
X162947339Y-80350000D01*
X162845606Y-80377259D01*
X162754394Y-80429920D01*
X162679920Y-80504394D01*
X162627259Y-80595606D01*
X162600000Y-80697339D01*
X162600000Y-80703552D01*
X162010014Y-80113566D01*
X162009730Y-80113589D01*
X161990270Y-80113589D01*
X161989985Y-80113566D01*
X161400000Y-80703551D01*
X161400000Y-80697339D01*
X161372741Y-80595606D01*
X161320080Y-80504394D01*
X161245606Y-80429920D01*
X161154394Y-80377259D01*
X161052661Y-80350000D01*
X161046447Y-80350000D01*
X161660675Y-79735771D01*
X161691165Y-79700836D01*
X161765787Y-79646621D01*
X161896621Y-79515787D01*
X161899680Y-79511576D01*
X161955006Y-79468909D01*
X162024619Y-79462926D01*
X162086415Y-79495529D01*
G37*
%TD.AperFunction*%
%TA.AperFunction,Conductor*%
G36*
X136014238Y-72410686D02*
G01*
X136049162Y-72441165D01*
X136103378Y-72515786D01*
X136103379Y-72515787D01*
X136234213Y-72646621D01*
X136238432Y-72649686D01*
X136281094Y-72705019D01*
X136287069Y-72774633D01*
X136254459Y-72836426D01*
X136253221Y-72837681D01*
X136246317Y-72844584D01*
X136234213Y-72853379D01*
X136103379Y-72984213D01*
X136094584Y-72996317D01*
X136087681Y-73003221D01*
X136065237Y-73015476D01*
X136044981Y-73031094D01*
X136035079Y-73031943D01*
X136026358Y-73036706D01*
X136000849Y-73034881D01*
X135975367Y-73037069D01*
X135966578Y-73032430D01*
X135956666Y-73031722D01*
X135936193Y-73016395D01*
X135913574Y-73004459D01*
X135901250Y-72990237D01*
X135900733Y-72989850D01*
X135900595Y-72989481D01*
X135899686Y-72988432D01*
X135896621Y-72984213D01*
X135765787Y-72853379D01*
X135750833Y-72842514D01*
X135691165Y-72799162D01*
X135676190Y-72779742D01*
X135046448Y-72150000D01*
X135052661Y-72150000D01*
X135154394Y-72122741D01*
X135245606Y-72070080D01*
X135320080Y-71995606D01*
X135372741Y-71904394D01*
X135400000Y-71802661D01*
X135400000Y-71796447D01*
X136014238Y-72410686D01*
G37*
%TD.AperFunction*%
%TA.AperFunction,Conductor*%
G36*
X174503244Y-58250670D02*
G01*
X174807046Y-58266592D01*
X174819953Y-58267949D01*
X174951089Y-58288718D01*
X175117209Y-58315028D01*
X175129896Y-58317724D01*
X175420625Y-58395625D01*
X175432965Y-58399635D01*
X175713938Y-58507490D01*
X175725790Y-58512767D01*
X175993968Y-58649411D01*
X176005199Y-58655896D01*
X176257608Y-58819812D01*
X176268109Y-58827441D01*
X176502010Y-59016850D01*
X176511655Y-59025535D01*
X176724464Y-59238344D01*
X176733149Y-59247989D01*
X176922558Y-59481890D01*
X176930187Y-59492391D01*
X177094101Y-59744796D01*
X177100591Y-59756036D01*
X177237231Y-60024206D01*
X177242510Y-60036064D01*
X177350363Y-60317033D01*
X177354374Y-60329376D01*
X177432273Y-60620097D01*
X177434971Y-60632794D01*
X177482050Y-60930046D01*
X177483407Y-60942953D01*
X177499330Y-61246756D01*
X177499500Y-61253246D01*
X177499500Y-154246753D01*
X177499330Y-154253243D01*
X177483407Y-154557046D01*
X177482050Y-154569953D01*
X177434971Y-154867205D01*
X177432273Y-154879902D01*
X177354374Y-155170623D01*
X177350363Y-155182966D01*
X177242510Y-155463935D01*
X177237231Y-155475793D01*
X177100591Y-155743963D01*
X177094101Y-155755203D01*
X176930187Y-156007608D01*
X176922558Y-156018109D01*
X176733149Y-156252010D01*
X176724464Y-156261655D01*
X176511655Y-156474464D01*
X176502010Y-156483149D01*
X176268109Y-156672558D01*
X176257608Y-156680187D01*
X176005203Y-156844101D01*
X175993963Y-156850591D01*
X175725793Y-156987231D01*
X175713935Y-156992510D01*
X175432966Y-157100363D01*
X175420623Y-157104374D01*
X175129902Y-157182273D01*
X175117205Y-157184971D01*
X174819953Y-157232050D01*
X174807046Y-157233407D01*
X174503244Y-157249330D01*
X174496754Y-157249500D01*
X127753246Y-157249500D01*
X127746756Y-157249330D01*
X127442953Y-157233407D01*
X127430046Y-157232050D01*
X127132794Y-157184971D01*
X127120097Y-157182273D01*
X126829376Y-157104374D01*
X126817033Y-157100363D01*
X126536064Y-156992510D01*
X126524206Y-156987231D01*
X126256036Y-156850591D01*
X126244796Y-156844101D01*
X125992391Y-156680187D01*
X125981890Y-156672558D01*
X125747989Y-156483149D01*
X125738344Y-156474464D01*
X125525535Y-156261655D01*
X125516850Y-156252010D01*
X125327441Y-156018109D01*
X125319812Y-156007608D01*
X125241976Y-155887751D01*
X125155896Y-155755199D01*
X125149408Y-155743963D01*
X125093197Y-155633644D01*
X125012767Y-155475790D01*
X125007489Y-155463935D01*
X124952682Y-155321158D01*
X124899635Y-155182965D01*
X124895625Y-155170623D01*
X124879983Y-155112247D01*
X124817724Y-154879896D01*
X124815028Y-154867205D01*
X124811685Y-154846100D01*
X124769454Y-154579454D01*
X124767949Y-154569953D01*
X124766592Y-154557046D01*
X124750670Y-154253243D01*
X124750500Y-154246753D01*
X124750500Y-154128711D01*
X125899500Y-154128711D01*
X125899500Y-154371288D01*
X125930076Y-154603546D01*
X125931162Y-154611789D01*
X125947835Y-154674012D01*
X125993947Y-154846104D01*
X126066320Y-155020827D01*
X126086776Y-155070212D01*
X126208064Y-155280289D01*
X126208066Y-155280292D01*
X126208067Y-155280293D01*
X126355733Y-155472736D01*
X126355739Y-155472743D01*
X126527256Y-155644260D01*
X126527262Y-155644265D01*
X126719711Y-155791936D01*
X126929788Y-155913224D01*
X127153900Y-156006054D01*
X127388211Y-156068838D01*
X127568586Y-156092584D01*
X127628711Y-156100500D01*
X127628712Y-156100500D01*
X127871289Y-156100500D01*
X127919388Y-156094167D01*
X128111789Y-156068838D01*
X128346100Y-156006054D01*
X128570212Y-155913224D01*
X128780289Y-155791936D01*
X128972738Y-155644265D01*
X129144265Y-155472738D01*
X129291936Y-155280289D01*
X129413224Y-155070212D01*
X129506054Y-154846100D01*
X129568838Y-154611789D01*
X129600500Y-154371288D01*
X129600500Y-154128712D01*
X129599377Y-154120185D01*
X129568838Y-153888214D01*
X129568838Y-153888211D01*
X129506054Y-153653900D01*
X129413224Y-153429788D01*
X129291936Y-153219711D01*
X129144265Y-153027262D01*
X129144260Y-153027256D01*
X128972743Y-152855739D01*
X128972736Y-152855733D01*
X128780293Y-152708067D01*
X128780292Y-152708066D01*
X128780289Y-152708064D01*
X128608661Y-152608974D01*
X128570214Y-152586777D01*
X128570205Y-152586773D01*
X128346104Y-152493947D01*
X128111785Y-152431161D01*
X127871289Y-152399500D01*
X127871288Y-152399500D01*
X127628712Y-152399500D01*
X127628711Y-152399500D01*
X127388214Y-152431161D01*
X127153895Y-152493947D01*
X126929794Y-152586773D01*
X126929785Y-152586777D01*
X126719706Y-152708067D01*
X126527263Y-152855733D01*
X126527256Y-152855739D01*
X126355739Y-153027256D01*
X126355733Y-153027263D01*
X126208067Y-153219706D01*
X126086777Y-153429785D01*
X126086773Y-153429794D01*
X125993947Y-153653895D01*
X125931161Y-153888214D01*
X125899500Y-154128711D01*
X124750500Y-154128711D01*
X124750500Y-129213054D01*
X126348498Y-129213054D01*
X126389423Y-129365785D01*
X126418358Y-129415900D01*
X126418359Y-129415904D01*
X126418360Y-129415904D01*
X126457864Y-129484329D01*
X126468479Y-129502714D01*
X126468481Y-129502717D01*
X126587349Y-129621585D01*
X126587355Y-129621590D01*
X130981241Y-134015476D01*
X131014726Y-134076799D01*
X131011492Y-134141473D01*
X130997753Y-134183757D01*
X130964500Y-134393713D01*
X130964500Y-134606286D01*
X130977712Y-134689707D01*
X130997754Y-134816243D01*
X131051130Y-134980518D01*
X131063444Y-135018414D01*
X131159951Y-135207820D01*
X131284890Y-135379786D01*
X131435213Y-135530109D01*
X131607179Y-135655048D01*
X131607181Y-135655049D01*
X131607184Y-135655051D01*
X131796588Y-135751557D01*
X131998757Y-135817246D01*
X132208713Y-135850500D01*
X132208714Y-135850500D01*
X132421286Y-135850500D01*
X132421287Y-135850500D01*
X132631243Y-135817246D01*
X132833412Y-135751557D01*
X133022816Y-135655051D01*
X133064866Y-135624500D01*
X133194786Y-135530109D01*
X133194788Y-135530106D01*
X133194792Y-135530104D01*
X133345104Y-135379792D01*
X133345106Y-135379788D01*
X133345109Y-135379786D01*
X133470048Y-135207820D01*
X133470047Y-135207820D01*
X133470051Y-135207816D01*
X133474514Y-135199054D01*
X133522488Y-135148259D01*
X133590308Y-135131463D01*
X133656444Y-135153999D01*
X133695486Y-135199056D01*
X133699951Y-135207820D01*
X133824890Y-135379786D01*
X133975213Y-135530109D01*
X134147179Y-135655048D01*
X134147181Y-135655049D01*
X134147184Y-135655051D01*
X134336588Y-135751557D01*
X134538757Y-135817246D01*
X134748713Y-135850500D01*
X134748714Y-135850500D01*
X134961286Y-135850500D01*
X134961287Y-135850500D01*
X135171243Y-135817246D01*
X135373412Y-135751557D01*
X135562816Y-135655051D01*
X135604866Y-135624500D01*
X135734786Y-135530109D01*
X135734788Y-135530106D01*
X135734792Y-135530104D01*
X135885104Y-135379792D01*
X135885106Y-135379788D01*
X135885109Y-135379786D01*
X135958448Y-135278842D01*
X136010051Y-135207816D01*
X136010349Y-135207230D01*
X136030235Y-135168205D01*
X136078209Y-135117409D01*
X136140719Y-135100500D01*
X136613331Y-135100500D01*
X136613347Y-135100501D01*
X136620943Y-135100501D01*
X136779054Y-135100501D01*
X136779057Y-135100501D01*
X136931785Y-135059577D01*
X136988994Y-135026547D01*
X137068716Y-134980520D01*
X137180520Y-134868716D01*
X137180520Y-134868714D01*
X137190724Y-134858511D01*
X137190728Y-134858506D01*
X137758506Y-134290728D01*
X137758511Y-134290724D01*
X137768714Y-134280520D01*
X137768716Y-134280520D01*
X137880520Y-134168716D01*
X137959577Y-134031784D01*
X137993475Y-133905276D01*
X138000500Y-133879058D01*
X138000500Y-133720943D01*
X138000500Y-133300098D01*
X138020185Y-133233059D01*
X138036820Y-133212416D01*
X138080517Y-133168719D01*
X138080517Y-133168718D01*
X138080520Y-133168716D01*
X138159577Y-133031784D01*
X138200501Y-132879057D01*
X138200501Y-132720942D01*
X138200501Y-132713347D01*
X138200500Y-132713329D01*
X138200500Y-128834097D01*
X138220185Y-128767058D01*
X138272989Y-128721303D01*
X138342147Y-128711359D01*
X138405703Y-128740384D01*
X138412181Y-128746416D01*
X141141241Y-131475476D01*
X141174726Y-131536799D01*
X141171492Y-131601473D01*
X141157753Y-131643757D01*
X141124500Y-131853713D01*
X141124500Y-132066286D01*
X141157753Y-132276239D01*
X141223444Y-132478414D01*
X141269195Y-132568205D01*
X141282091Y-132636874D01*
X141255815Y-132701615D01*
X141198709Y-132741872D01*
X141158710Y-132748500D01*
X140303438Y-132748500D01*
X140236399Y-132728815D01*
X140234546Y-132727601D01*
X140179187Y-132690610D01*
X140179172Y-132690602D01*
X140033501Y-132630264D01*
X140033489Y-132630261D01*
X139878845Y-132599500D01*
X139878842Y-132599500D01*
X139721158Y-132599500D01*
X139721155Y-132599500D01*
X139566510Y-132630261D01*
X139566498Y-132630264D01*
X139420827Y-132690602D01*
X139420814Y-132690609D01*
X139289711Y-132778210D01*
X139289707Y-132778213D01*
X139178213Y-132889707D01*
X139178210Y-132889711D01*
X139090609Y-133020814D01*
X139090602Y-133020827D01*
X139030264Y-133166498D01*
X139030261Y-133166510D01*
X138999500Y-133321153D01*
X138999500Y-133478846D01*
X139030261Y-133633489D01*
X139030264Y-133633501D01*
X139090602Y-133779172D01*
X139090609Y-133779185D01*
X139178210Y-133910288D01*
X139178213Y-133910292D01*
X139289707Y-134021786D01*
X139289711Y-134021789D01*
X139420814Y-134109390D01*
X139420827Y-134109397D01*
X139564021Y-134168709D01*
X139566503Y-134169737D01*
X139721153Y-134200499D01*
X139721156Y-134200500D01*
X139721158Y-134200500D01*
X139878844Y-134200500D01*
X139878845Y-134200499D01*
X140033497Y-134169737D01*
X140179179Y-134109394D01*
X140310289Y-134021789D01*
X140346258Y-133985820D01*
X140407580Y-133952334D01*
X140433940Y-133949500D01*
X141063198Y-133949500D01*
X141130237Y-133969185D01*
X141175992Y-134021989D01*
X141185936Y-134091147D01*
X141181129Y-134111818D01*
X141157753Y-134183760D01*
X141124500Y-134393713D01*
X141124500Y-134525637D01*
X141104815Y-134592676D01*
X141088181Y-134613318D01*
X139900538Y-135800960D01*
X139900537Y-135800961D01*
X139862977Y-135857174D01*
X139862969Y-135857186D01*
X139861063Y-135860040D01*
X139801987Y-135948453D01*
X139788745Y-135980423D01*
X139785398Y-135988502D01*
X139785395Y-135988508D01*
X139734105Y-136112333D01*
X139734105Y-136112334D01*
X139704164Y-136262861D01*
X139704164Y-136262863D01*
X139699500Y-136286308D01*
X139699500Y-152400500D01*
X139679815Y-152467539D01*
X139627011Y-152513294D01*
X139575500Y-152524500D01*
X139200830Y-152524500D01*
X139200812Y-152524501D01*
X139099747Y-152534825D01*
X138935984Y-152589092D01*
X138935981Y-152589093D01*
X138789148Y-152679661D01*
X138667159Y-152801650D01*
X138643138Y-152840596D01*
X138635551Y-152847419D01*
X138631312Y-152856703D01*
X138610011Y-152870391D01*
X138591190Y-152887321D01*
X138579554Y-152889965D01*
X138572534Y-152894477D01*
X138537599Y-152899500D01*
X138374901Y-152899500D01*
X138307862Y-152879815D01*
X138269362Y-152840596D01*
X138245340Y-152801650D01*
X138123351Y-152679661D01*
X138123350Y-152679660D01*
X137976516Y-152589092D01*
X137812753Y-152534826D01*
X137812751Y-152534825D01*
X137711678Y-152524500D01*
X137038330Y-152524500D01*
X137038312Y-152524501D01*
X136937247Y-152534825D01*
X136773484Y-152589092D01*
X136773481Y-152589093D01*
X136626648Y-152679661D01*
X136587681Y-152718629D01*
X136526358Y-152752114D01*
X136456666Y-152747130D01*
X136426103Y-152730523D01*
X136418773Y-152725083D01*
X136373350Y-152679660D01*
X136279881Y-152622007D01*
X136275603Y-152618833D01*
X136257626Y-152595026D01*
X136237678Y-152572848D01*
X136236299Y-152566783D01*
X136233499Y-152563074D01*
X136232520Y-152550154D01*
X136225500Y-152519258D01*
X136225500Y-148655903D01*
X136245185Y-148588864D01*
X136297989Y-148543109D01*
X136301999Y-148541362D01*
X136379179Y-148509394D01*
X136510289Y-148421789D01*
X136621789Y-148310289D01*
X136709394Y-148179179D01*
X136769737Y-148033497D01*
X136800500Y-147878842D01*
X136800500Y-147721158D01*
X136800500Y-147721155D01*
X136800499Y-147721153D01*
X136782419Y-147630261D01*
X136769737Y-147566503D01*
X136766001Y-147557483D01*
X136709397Y-147420827D01*
X136709390Y-147420814D01*
X136621789Y-147289711D01*
X136621786Y-147289707D01*
X136510292Y-147178213D01*
X136510288Y-147178210D01*
X136379185Y-147090609D01*
X136379172Y-147090602D01*
X136233501Y-147030264D01*
X136233489Y-147030261D01*
X136078845Y-146999500D01*
X136078842Y-146999500D01*
X135921158Y-146999500D01*
X135921155Y-146999500D01*
X135766510Y-147030261D01*
X135766498Y-147030264D01*
X135620827Y-147090602D01*
X135620814Y-147090609D01*
X135489711Y-147178210D01*
X135489707Y-147178213D01*
X135378213Y-147289707D01*
X135378210Y-147289711D01*
X135290609Y-147420814D01*
X135290602Y-147420827D01*
X135230264Y-147566498D01*
X135230261Y-147566508D01*
X135199362Y-147721848D01*
X135193248Y-147734809D01*
X135191982Y-147745884D01*
X135178762Y-147765523D01*
X135173767Y-147776115D01*
X135169826Y-147780937D01*
X135144480Y-147806284D01*
X135138334Y-147816930D01*
X135065423Y-147943215D01*
X135024499Y-148095943D01*
X135024499Y-148095945D01*
X135024499Y-148264046D01*
X135024500Y-148264059D01*
X135024500Y-152519258D01*
X135004815Y-152586297D01*
X134965597Y-152624796D01*
X134876653Y-152679657D01*
X134876649Y-152679660D01*
X134754661Y-152801648D01*
X134664093Y-152948481D01*
X134664091Y-152948486D01*
X134656079Y-152972666D01*
X134609826Y-153112247D01*
X134609826Y-153112248D01*
X134609825Y-153112248D01*
X134599500Y-153213315D01*
X134599500Y-153786669D01*
X134599501Y-153786687D01*
X134609825Y-153887752D01*
X134664092Y-154051515D01*
X134664093Y-154051518D01*
X134694306Y-154100500D01*
X134754659Y-154198349D01*
X134754661Y-154198351D01*
X134876649Y-154320339D01*
X134876653Y-154320342D01*
X135001819Y-154397546D01*
X135048544Y-154449494D01*
X135059765Y-154518456D01*
X135031922Y-154582538D01*
X135001819Y-154608622D01*
X134886653Y-154679657D01*
X134886649Y-154679660D01*
X134764659Y-154801650D01*
X134740638Y-154840596D01*
X134688690Y-154887321D01*
X134635099Y-154899500D01*
X133482940Y-154899500D01*
X133415901Y-154879815D01*
X133395263Y-154863185D01*
X133310289Y-154778211D01*
X133310288Y-154778210D01*
X133310287Y-154778209D01*
X133179185Y-154690609D01*
X133179172Y-154690602D01*
X133033501Y-154630264D01*
X133033489Y-154630261D01*
X132878845Y-154599500D01*
X132878842Y-154599500D01*
X132721158Y-154599500D01*
X132721155Y-154599500D01*
X132566510Y-154630261D01*
X132566498Y-154630264D01*
X132420827Y-154690602D01*
X132420814Y-154690609D01*
X132289711Y-154778210D01*
X132289707Y-154778213D01*
X132178213Y-154889707D01*
X132178210Y-154889711D01*
X132090609Y-155020814D01*
X132090602Y-155020827D01*
X132030264Y-155166498D01*
X132030261Y-155166510D01*
X131999500Y-155321153D01*
X131999500Y-155478846D01*
X132030261Y-155633489D01*
X132030264Y-155633501D01*
X132090602Y-155779172D01*
X132090609Y-155779185D01*
X132178210Y-155910288D01*
X132178213Y-155910292D01*
X132289707Y-156021786D01*
X132289711Y-156021789D01*
X132420814Y-156109390D01*
X132420827Y-156109397D01*
X132566498Y-156169735D01*
X132566503Y-156169737D01*
X132710344Y-156198349D01*
X132721153Y-156200499D01*
X132721156Y-156200500D01*
X132721158Y-156200500D01*
X132878844Y-156200500D01*
X132878845Y-156200499D01*
X133033497Y-156169737D01*
X133130378Y-156129608D01*
X133177864Y-156109939D01*
X133225316Y-156100500D01*
X134635099Y-156100500D01*
X134702138Y-156120185D01*
X134740638Y-156159404D01*
X134764660Y-156198350D01*
X134886650Y-156320340D01*
X135033484Y-156410908D01*
X135197247Y-156465174D01*
X135298323Y-156475500D01*
X135971676Y-156475499D01*
X135971684Y-156475498D01*
X135971687Y-156475498D01*
X136027030Y-156469844D01*
X136072753Y-156465174D01*
X136236516Y-156410908D01*
X136383350Y-156320340D01*
X136422319Y-156281371D01*
X136483642Y-156247886D01*
X136553334Y-156252870D01*
X136597681Y-156281371D01*
X136636650Y-156320340D01*
X136783484Y-156410908D01*
X136947247Y-156465174D01*
X137048323Y-156475500D01*
X137721676Y-156475499D01*
X137721684Y-156475498D01*
X137721687Y-156475498D01*
X137777030Y-156469844D01*
X137822753Y-156465174D01*
X137986516Y-156410908D01*
X138133350Y-156320340D01*
X138255340Y-156198350D01*
X138279362Y-156159404D01*
X138286948Y-156152580D01*
X138291188Y-156143297D01*
X138312488Y-156129608D01*
X138331310Y-156112679D01*
X138342945Y-156110034D01*
X138349966Y-156105523D01*
X138384901Y-156100500D01*
X138537599Y-156100500D01*
X138604638Y-156120185D01*
X138643138Y-156159404D01*
X138667160Y-156198350D01*
X138789150Y-156320340D01*
X138935984Y-156410908D01*
X139099747Y-156465174D01*
X139200823Y-156475500D01*
X139799176Y-156475499D01*
X139799184Y-156475498D01*
X139799187Y-156475498D01*
X139854530Y-156469844D01*
X139900253Y-156465174D01*
X140064016Y-156410908D01*
X140210850Y-156320340D01*
X140324819Y-156206371D01*
X140386142Y-156172886D01*
X140455834Y-156177870D01*
X140500181Y-156206371D01*
X140614150Y-156320340D01*
X140760984Y-156410908D01*
X140924747Y-156465174D01*
X141025823Y-156475500D01*
X141624176Y-156475499D01*
X141624184Y-156475498D01*
X141624187Y-156475498D01*
X141679530Y-156469844D01*
X141725253Y-156465174D01*
X141889016Y-156410908D01*
X142035850Y-156320340D01*
X142157840Y-156198350D01*
X142248408Y-156051516D01*
X142302674Y-155887753D01*
X142313000Y-155786677D01*
X142312999Y-155213324D01*
X142302674Y-155112247D01*
X142248408Y-154948484D01*
X142243960Y-154941273D01*
X142239264Y-154924715D01*
X142230523Y-154911113D01*
X142225500Y-154876178D01*
X142225500Y-154824362D01*
X142245185Y-154757323D01*
X142261819Y-154736681D01*
X142444833Y-154553667D01*
X142506156Y-154520182D01*
X142532514Y-154517348D01*
X144172236Y-154517348D01*
X144239275Y-154537033D01*
X144285030Y-154589837D01*
X144296236Y-154641348D01*
X144296236Y-154867848D01*
X144996236Y-154867848D01*
X144996236Y-155367848D01*
X144296236Y-155367848D01*
X144296236Y-155616343D01*
X144334663Y-155809529D01*
X144334666Y-155809541D01*
X144410043Y-155991519D01*
X144410050Y-155991532D01*
X144519484Y-156155310D01*
X144519487Y-156155314D01*
X144658769Y-156294596D01*
X144658773Y-156294599D01*
X144822551Y-156404033D01*
X144822564Y-156404040D01*
X145004544Y-156479417D01*
X145046236Y-156487710D01*
X145046236Y-155684836D01*
X145056176Y-155702053D01*
X145112031Y-155757908D01*
X145180440Y-155797404D01*
X145256740Y-155817848D01*
X145335732Y-155817848D01*
X145412032Y-155797404D01*
X145480441Y-155757908D01*
X145536296Y-155702053D01*
X145546236Y-155684836D01*
X145546236Y-156487710D01*
X145587926Y-156479417D01*
X145587928Y-156479417D01*
X145769907Y-156404040D01*
X145769920Y-156404033D01*
X145933698Y-156294599D01*
X145933702Y-156294596D01*
X146072984Y-156155314D01*
X146072987Y-156155310D01*
X146182421Y-155991532D01*
X146182428Y-155991519D01*
X146257805Y-155809541D01*
X146257808Y-155809529D01*
X146296235Y-155616343D01*
X146296236Y-155616340D01*
X146296236Y-155367848D01*
X145596236Y-155367848D01*
X145596236Y-154867848D01*
X146296236Y-154867848D01*
X146296236Y-154641348D01*
X146315921Y-154574309D01*
X146368725Y-154528554D01*
X146420236Y-154517348D01*
X152812236Y-154517348D01*
X152879275Y-154537033D01*
X152925030Y-154589837D01*
X152936236Y-154641348D01*
X152936236Y-154867848D01*
X153636236Y-154867848D01*
X153636236Y-155367848D01*
X152936236Y-155367848D01*
X152936236Y-155616343D01*
X152974663Y-155809529D01*
X152974666Y-155809541D01*
X153050043Y-155991519D01*
X153050050Y-155991532D01*
X153159484Y-156155310D01*
X153159487Y-156155314D01*
X153298769Y-156294596D01*
X153298773Y-156294599D01*
X153462551Y-156404033D01*
X153462564Y-156404040D01*
X153644544Y-156479417D01*
X153686236Y-156487710D01*
X153686236Y-155684836D01*
X153696176Y-155702053D01*
X153752031Y-155757908D01*
X153820440Y-155797404D01*
X153896740Y-155817848D01*
X153975732Y-155817848D01*
X154052032Y-155797404D01*
X154120441Y-155757908D01*
X154176296Y-155702053D01*
X154186236Y-155684836D01*
X154186236Y-156487710D01*
X154227926Y-156479417D01*
X154227928Y-156479417D01*
X154409907Y-156404040D01*
X154409920Y-156404033D01*
X154573698Y-156294599D01*
X154573702Y-156294596D01*
X154712984Y-156155314D01*
X154712987Y-156155310D01*
X154822421Y-155991532D01*
X154822428Y-155991519D01*
X154897805Y-155809541D01*
X154897808Y-155809529D01*
X154936235Y-155616343D01*
X154936236Y-155616340D01*
X154936236Y-155367848D01*
X154236236Y-155367848D01*
X154236236Y-154867848D01*
X154936236Y-154867848D01*
X154939682Y-154864401D01*
X154955921Y-154809101D01*
X155008725Y-154763346D01*
X155077883Y-154753402D01*
X155084410Y-154754519D01*
X155145802Y-154766731D01*
X155194908Y-154776500D01*
X155194910Y-154776500D01*
X160762693Y-154776500D01*
X160762694Y-154776499D01*
X160936666Y-154741895D01*
X161018606Y-154707953D01*
X161100547Y-154674013D01*
X161100550Y-154674011D01*
X161212062Y-154599501D01*
X161227640Y-154589092D01*
X161248036Y-154575464D01*
X161694789Y-154128711D01*
X172649500Y-154128711D01*
X172649500Y-154371288D01*
X172680076Y-154603546D01*
X172681162Y-154611789D01*
X172697835Y-154674012D01*
X172743947Y-154846104D01*
X172816320Y-155020827D01*
X172836776Y-155070212D01*
X172958064Y-155280289D01*
X172958066Y-155280292D01*
X172958067Y-155280293D01*
X173105733Y-155472736D01*
X173105739Y-155472743D01*
X173277256Y-155644260D01*
X173277262Y-155644265D01*
X173469711Y-155791936D01*
X173679788Y-155913224D01*
X173903900Y-156006054D01*
X174138211Y-156068838D01*
X174318586Y-156092584D01*
X174378711Y-156100500D01*
X174378712Y-156100500D01*
X174621289Y-156100500D01*
X174669388Y-156094167D01*
X174861789Y-156068838D01*
X175096100Y-156006054D01*
X175320212Y-155913224D01*
X175530289Y-155791936D01*
X175722738Y-155644265D01*
X175894265Y-155472738D01*
X176041936Y-155280289D01*
X176163224Y-155070212D01*
X176256054Y-154846100D01*
X176318838Y-154611789D01*
X176350500Y-154371288D01*
X176350500Y-154128712D01*
X176349377Y-154120185D01*
X176318838Y-153888214D01*
X176318838Y-153888211D01*
X176256054Y-153653900D01*
X176163224Y-153429788D01*
X176041936Y-153219711D01*
X175894265Y-153027262D01*
X175894260Y-153027256D01*
X175722743Y-152855739D01*
X175722736Y-152855733D01*
X175530293Y-152708067D01*
X175530292Y-152708066D01*
X175530289Y-152708064D01*
X175358661Y-152608974D01*
X175320214Y-152586777D01*
X175320205Y-152586773D01*
X175096104Y-152493947D01*
X174861785Y-152431161D01*
X174621289Y-152399500D01*
X174621288Y-152399500D01*
X174378712Y-152399500D01*
X174378711Y-152399500D01*
X174138214Y-152431161D01*
X173903895Y-152493947D01*
X173679794Y-152586773D01*
X173679785Y-152586777D01*
X173469706Y-152708067D01*
X173277263Y-152855733D01*
X173277256Y-152855739D01*
X173105739Y-153027256D01*
X173105733Y-153027263D01*
X172958067Y-153219706D01*
X172836777Y-153429785D01*
X172836773Y-153429794D01*
X172743947Y-153653895D01*
X172681161Y-153888214D01*
X172649500Y-154128711D01*
X161694789Y-154128711D01*
X162036813Y-153786687D01*
X162884318Y-152939181D01*
X163993726Y-151829771D01*
X164055047Y-151796288D01*
X164100802Y-151794981D01*
X164135646Y-151800500D01*
X164135647Y-151800500D01*
X164364353Y-151800500D01*
X164364354Y-151800500D01*
X164590245Y-151764722D01*
X164590248Y-151764721D01*
X164590249Y-151764721D01*
X164807755Y-151694049D01*
X164807755Y-151694048D01*
X164807758Y-151694048D01*
X165011538Y-151590217D01*
X165194663Y-151457168D01*
X165260465Y-151433690D01*
X165328519Y-151449515D01*
X165377214Y-151499621D01*
X165383726Y-151514153D01*
X165394144Y-151542083D01*
X165394149Y-151542093D01*
X165480309Y-151657187D01*
X165480312Y-151657190D01*
X165595406Y-151743350D01*
X165595413Y-151743354D01*
X165730120Y-151793596D01*
X165730127Y-151793598D01*
X165789655Y-151799999D01*
X165789672Y-151800000D01*
X166540000Y-151800000D01*
X166540000Y-150790747D01*
X166577708Y-150812518D01*
X166717591Y-150850000D01*
X166862409Y-150850000D01*
X167002292Y-150812518D01*
X167040000Y-150790747D01*
X167040000Y-151800000D01*
X167790328Y-151800000D01*
X167790344Y-151799999D01*
X167849872Y-151793598D01*
X167849879Y-151793596D01*
X167984586Y-151743354D01*
X167984593Y-151743350D01*
X168099687Y-151657190D01*
X168099690Y-151657187D01*
X168185850Y-151542093D01*
X168185854Y-151542086D01*
X168236096Y-151407379D01*
X168236098Y-151407372D01*
X168242499Y-151347844D01*
X168242500Y-151347827D01*
X168242500Y-150550000D01*
X167280748Y-150550000D01*
X167302518Y-150512292D01*
X167340000Y-150372409D01*
X167340000Y-150227591D01*
X167302518Y-150087708D01*
X167280748Y-150050000D01*
X168242500Y-150050000D01*
X168242500Y-149252172D01*
X168242499Y-149252155D01*
X168236098Y-149192627D01*
X168236096Y-149192620D01*
X168185854Y-149057913D01*
X168185850Y-149057906D01*
X168099690Y-148942812D01*
X168099687Y-148942809D01*
X167984593Y-148856649D01*
X167984586Y-148856645D01*
X167849879Y-148806403D01*
X167849872Y-148806401D01*
X167790344Y-148800000D01*
X167242345Y-148800000D01*
X167175306Y-148780315D01*
X167129551Y-148727511D01*
X167119607Y-148658353D01*
X167148632Y-148594797D01*
X167154664Y-148588319D01*
X167244944Y-148498038D01*
X167244947Y-148498034D01*
X167335448Y-148351311D01*
X167335453Y-148351300D01*
X167389680Y-148187652D01*
X167399999Y-148086654D01*
X167400000Y-148086641D01*
X167400000Y-148050000D01*
X166486500Y-148050000D01*
X166419461Y-148030315D01*
X166373706Y-147977511D01*
X166362500Y-147926000D01*
X166362500Y-147800000D01*
X166236500Y-147800000D01*
X166169461Y-147780315D01*
X166123706Y-147727511D01*
X166112500Y-147676000D01*
X166112500Y-147550000D01*
X166612500Y-147550000D01*
X167399999Y-147550000D01*
X167399999Y-147513360D01*
X167399998Y-147513345D01*
X167389680Y-147412347D01*
X167335453Y-147248699D01*
X167335448Y-147248688D01*
X167244947Y-147101965D01*
X167244944Y-147101961D01*
X167123038Y-146980055D01*
X167123034Y-146980052D01*
X166976311Y-146889551D01*
X166976300Y-146889546D01*
X166812652Y-146835319D01*
X166711654Y-146825000D01*
X166612500Y-146825000D01*
X166612500Y-147550000D01*
X166112500Y-147550000D01*
X166112500Y-146824999D01*
X166013360Y-146825000D01*
X166013344Y-146825001D01*
X165912347Y-146835319D01*
X165748699Y-146889546D01*
X165748688Y-146889551D01*
X165601965Y-146980052D01*
X165588032Y-146993985D01*
X165526708Y-147027468D01*
X165457016Y-147022482D01*
X165412672Y-146993982D01*
X165398351Y-146979661D01*
X165398350Y-146979660D01*
X165285880Y-146910288D01*
X165251518Y-146889093D01*
X165251513Y-146889091D01*
X165250069Y-146888612D01*
X165087753Y-146834826D01*
X165087751Y-146834825D01*
X164986678Y-146824500D01*
X164288330Y-146824500D01*
X164288312Y-146824501D01*
X164187247Y-146834825D01*
X164023484Y-146889092D01*
X164023481Y-146889093D01*
X163876648Y-146979661D01*
X163754661Y-147101648D01*
X163664093Y-147248481D01*
X163664091Y-147248486D01*
X163642829Y-147312652D01*
X163609826Y-147412247D01*
X163609826Y-147412248D01*
X163609825Y-147412248D01*
X163599500Y-147513315D01*
X163599500Y-148086669D01*
X163599501Y-148086687D01*
X163609825Y-148187752D01*
X163609826Y-148187755D01*
X163631797Y-148254057D01*
X163664092Y-148351516D01*
X163718538Y-148439787D01*
X163737000Y-148504883D01*
X163737000Y-148807158D01*
X163717315Y-148874197D01*
X163669295Y-148917643D01*
X163488461Y-149009783D01*
X163387024Y-149083482D01*
X163303434Y-149144214D01*
X163303432Y-149144216D01*
X163303431Y-149144216D01*
X163141715Y-149305932D01*
X163080318Y-149390438D01*
X163024987Y-149433103D01*
X162955374Y-149439082D01*
X162893579Y-149406476D01*
X162879682Y-149390438D01*
X162868773Y-149375423D01*
X162818286Y-149305934D01*
X162656566Y-149144214D01*
X162656563Y-149144212D01*
X162653963Y-149141991D01*
X162653248Y-149140896D01*
X162653121Y-149140769D01*
X162653147Y-149140742D01*
X162615773Y-149083482D01*
X162610500Y-149047705D01*
X162610500Y-148297311D01*
X162616794Y-148258307D01*
X162640174Y-148187753D01*
X162650500Y-148086677D01*
X162650499Y-147513324D01*
X162648115Y-147489989D01*
X162660884Y-147421298D01*
X162683789Y-147389709D01*
X167299464Y-142774036D01*
X167354363Y-142691873D01*
X167398013Y-142626547D01*
X167431953Y-142544606D01*
X167465895Y-142462666D01*
X167500500Y-142288692D01*
X167500500Y-142111308D01*
X167500500Y-134511309D01*
X167500500Y-134511306D01*
X167500499Y-134511304D01*
X167465896Y-134337341D01*
X167465893Y-134337332D01*
X167398016Y-134173459D01*
X167398009Y-134173446D01*
X167299464Y-134025965D01*
X167299461Y-134025961D01*
X167174037Y-133900537D01*
X167174034Y-133900535D01*
X167026553Y-133801990D01*
X167026540Y-133801983D01*
X166862667Y-133734106D01*
X166862658Y-133734103D01*
X166688694Y-133699500D01*
X166688691Y-133699500D01*
X163323691Y-133699500D01*
X163146308Y-133699500D01*
X163146306Y-133699500D01*
X163028866Y-133722861D01*
X163028865Y-133722861D01*
X162972341Y-133734103D01*
X162972332Y-133734106D01*
X162808459Y-133801983D01*
X162808446Y-133801990D01*
X162660966Y-133900534D01*
X162660964Y-133900537D01*
X160048319Y-136513181D01*
X159986996Y-136546666D01*
X159960638Y-136549500D01*
X159594298Y-136549500D01*
X159557432Y-136552401D01*
X159557426Y-136552402D01*
X159399606Y-136598254D01*
X159399605Y-136598254D01*
X159327621Y-136640825D01*
X159259897Y-136658006D01*
X159193635Y-136635846D01*
X159149872Y-136581380D01*
X159140501Y-136534092D01*
X159140501Y-136460945D01*
X159140501Y-136460943D01*
X159099577Y-136308215D01*
X159054571Y-136230263D01*
X159020520Y-136171284D01*
X158908716Y-136059480D01*
X158908715Y-136059479D01*
X158904385Y-136055149D01*
X158904374Y-136055139D01*
X158634574Y-135785339D01*
X158601089Y-135724016D01*
X158600638Y-135721849D01*
X158569738Y-135566510D01*
X158569737Y-135566503D01*
X158542398Y-135500500D01*
X158509397Y-135420827D01*
X158509390Y-135420814D01*
X158421789Y-135289711D01*
X158421786Y-135289707D01*
X158310292Y-135178213D01*
X158310288Y-135178210D01*
X158179185Y-135090609D01*
X158179172Y-135090602D01*
X158033501Y-135030264D01*
X158033489Y-135030261D01*
X157878845Y-134999500D01*
X157878842Y-134999500D01*
X157721158Y-134999500D01*
X157721155Y-134999500D01*
X157566510Y-135030261D01*
X157566498Y-135030264D01*
X157420827Y-135090602D01*
X157420814Y-135090609D01*
X157289711Y-135178210D01*
X157289707Y-135178213D01*
X157178213Y-135289707D01*
X157178210Y-135289711D01*
X157090609Y-135420814D01*
X157090602Y-135420827D01*
X157030264Y-135566498D01*
X157030261Y-135566510D01*
X156999500Y-135721153D01*
X156999500Y-135878846D01*
X157030261Y-136033489D01*
X157030264Y-136033501D01*
X157090602Y-136179172D01*
X157090609Y-136179185D01*
X157178210Y-136310288D01*
X157178213Y-136310292D01*
X157205740Y-136337819D01*
X157239225Y-136399142D01*
X157234241Y-136468834D01*
X157192369Y-136524767D01*
X157126905Y-136549184D01*
X157118059Y-136549500D01*
X157054298Y-136549500D01*
X157017432Y-136552401D01*
X157017426Y-136552402D01*
X156859606Y-136598254D01*
X156859599Y-136598257D01*
X156787620Y-136640825D01*
X156719896Y-136658008D01*
X156653634Y-136635848D01*
X156609871Y-136581381D01*
X156600500Y-136534093D01*
X156600500Y-134666259D01*
X156620185Y-134599220D01*
X156672989Y-134553465D01*
X156677048Y-134551698D01*
X156779172Y-134509397D01*
X156779172Y-134509396D01*
X156779179Y-134509394D01*
X156910289Y-134421789D01*
X157021789Y-134310289D01*
X157109394Y-134179179D01*
X157113728Y-134168717D01*
X157169735Y-134033501D01*
X157169737Y-134033497D01*
X157200500Y-133878842D01*
X157200500Y-133721158D01*
X157200500Y-133721155D01*
X157200499Y-133721153D01*
X157183061Y-133633489D01*
X157169737Y-133566503D01*
X157133427Y-133478842D01*
X157109397Y-133420827D01*
X157109390Y-133420814D01*
X157021789Y-133289711D01*
X157021786Y-133289707D01*
X156910292Y-133178213D01*
X156910288Y-133178210D01*
X156779185Y-133090609D01*
X156779172Y-133090602D01*
X156633501Y-133030264D01*
X156633489Y-133030261D01*
X156478845Y-132999500D01*
X156478842Y-132999500D01*
X156321158Y-132999500D01*
X156321155Y-132999500D01*
X156166510Y-133030261D01*
X156166498Y-133030264D01*
X156020827Y-133090602D01*
X156020814Y-133090609D01*
X155889711Y-133178210D01*
X155889707Y-133178213D01*
X155778213Y-133289707D01*
X155778210Y-133289711D01*
X155690609Y-133420814D01*
X155690602Y-133420827D01*
X155630264Y-133566498D01*
X155630261Y-133566508D01*
X155599362Y-133721848D01*
X155590597Y-133738603D01*
X155586578Y-133757081D01*
X155567833Y-133782121D01*
X155566977Y-133783759D01*
X155565428Y-133785335D01*
X155542183Y-133808581D01*
X155480861Y-133842068D01*
X155411169Y-133837085D01*
X155355234Y-133795215D01*
X155330816Y-133729751D01*
X155330500Y-133720902D01*
X155330500Y-110570096D01*
X155350185Y-110503057D01*
X155366814Y-110482420D01*
X159618713Y-106230521D01*
X159618716Y-106230520D01*
X159730520Y-106118716D01*
X159780639Y-106031904D01*
X159809577Y-105981785D01*
X159850500Y-105829058D01*
X159850500Y-105670943D01*
X159850500Y-81508019D01*
X159870185Y-81440980D01*
X159922989Y-81395225D01*
X159984230Y-81384401D01*
X160010016Y-81386430D01*
X160600000Y-80796446D01*
X160600000Y-80802661D01*
X160627259Y-80904394D01*
X160679920Y-80995606D01*
X160754394Y-81070080D01*
X160845606Y-81122741D01*
X160947339Y-81150000D01*
X160953553Y-81150000D01*
X160363568Y-81739983D01*
X160363568Y-81739984D01*
X160384165Y-81754949D01*
X160548956Y-81838915D01*
X160548959Y-81838916D01*
X160724852Y-81896066D01*
X160907527Y-81925000D01*
X161092473Y-81925000D01*
X161275147Y-81896066D01*
X161451040Y-81838916D01*
X161451043Y-81838915D01*
X161615836Y-81754947D01*
X161615845Y-81754942D01*
X161636430Y-81739984D01*
X161636431Y-81739983D01*
X161046448Y-81150000D01*
X161052661Y-81150000D01*
X161154394Y-81122741D01*
X161245606Y-81070080D01*
X161320080Y-80995606D01*
X161372741Y-80904394D01*
X161400000Y-80802661D01*
X161400000Y-80796447D01*
X161989983Y-81386430D01*
X161990276Y-81386408D01*
X162009729Y-81386408D01*
X162010015Y-81386430D01*
X162600000Y-80796445D01*
X162600000Y-80802661D01*
X162627259Y-80904394D01*
X162679920Y-80995606D01*
X162754394Y-81070080D01*
X162845606Y-81122741D01*
X162947339Y-81150000D01*
X162953553Y-81150000D01*
X162363568Y-81739983D01*
X162363568Y-81739984D01*
X162384165Y-81754949D01*
X162548956Y-81838915D01*
X162548959Y-81838916D01*
X162724852Y-81896066D01*
X162907527Y-81925000D01*
X163092473Y-81925000D01*
X163275147Y-81896066D01*
X163451040Y-81838916D01*
X163451043Y-81838915D01*
X163615836Y-81754947D01*
X163615845Y-81754942D01*
X163636430Y-81739984D01*
X163636431Y-81739983D01*
X163046448Y-81150000D01*
X163052661Y-81150000D01*
X163154394Y-81122741D01*
X163245606Y-81070080D01*
X163320080Y-80995606D01*
X163372741Y-80904394D01*
X163400000Y-80802661D01*
X163400000Y-80796447D01*
X163989983Y-81386430D01*
X163989984Y-81386430D01*
X164004942Y-81365845D01*
X164004947Y-81365836D01*
X164088915Y-81201043D01*
X164088916Y-81201040D01*
X164146066Y-81025147D01*
X164175000Y-80842473D01*
X164175000Y-80657526D01*
X164146066Y-80474852D01*
X164088916Y-80298959D01*
X164088915Y-80298956D01*
X164004949Y-80134165D01*
X163989983Y-80113568D01*
X163400000Y-80703551D01*
X163400000Y-80697339D01*
X163372741Y-80595606D01*
X163320080Y-80504394D01*
X163245606Y-80429920D01*
X163154394Y-80377259D01*
X163052661Y-80350000D01*
X163046447Y-80350000D01*
X163660675Y-79735771D01*
X163691165Y-79700836D01*
X163765787Y-79646621D01*
X163896621Y-79515787D01*
X164005378Y-79366096D01*
X164089379Y-79201235D01*
X164146555Y-79025264D01*
X164175500Y-78842514D01*
X164175500Y-78657486D01*
X164149590Y-78493898D01*
X164158545Y-78424604D01*
X164203541Y-78371153D01*
X164270292Y-78350513D01*
X164272063Y-78350500D01*
X164663331Y-78350500D01*
X164663347Y-78350501D01*
X164670943Y-78350501D01*
X164829054Y-78350501D01*
X164829057Y-78350501D01*
X164981785Y-78309577D01*
X165031904Y-78280639D01*
X165118716Y-78230520D01*
X165230520Y-78118716D01*
X165230520Y-78118714D01*
X165240728Y-78108507D01*
X165240730Y-78108504D01*
X165358506Y-77990728D01*
X165358511Y-77990724D01*
X165368714Y-77980520D01*
X165368716Y-77980520D01*
X165480520Y-77868716D01*
X165559577Y-77731784D01*
X165600500Y-77579057D01*
X165600500Y-74670943D01*
X165559577Y-74518216D01*
X165559577Y-74518215D01*
X165531110Y-74468909D01*
X165519883Y-74449463D01*
X165519883Y-74449462D01*
X165480524Y-74381290D01*
X165480521Y-74381286D01*
X165480520Y-74381284D01*
X165368716Y-74269480D01*
X165368715Y-74269479D01*
X165364385Y-74265149D01*
X165364374Y-74265139D01*
X164188215Y-73088980D01*
X164154730Y-73027657D01*
X164153423Y-72981901D01*
X164175500Y-72842513D01*
X164175500Y-72657486D01*
X164173779Y-72646618D01*
X164146555Y-72474736D01*
X164108395Y-72357290D01*
X164089380Y-72298767D01*
X164089379Y-72298764D01*
X164039587Y-72201043D01*
X164005378Y-72133904D01*
X163896621Y-71984213D01*
X163765787Y-71853379D01*
X163616096Y-71744622D01*
X163562778Y-71717455D01*
X163451235Y-71660620D01*
X163451232Y-71660619D01*
X163275265Y-71603445D01*
X163132972Y-71580908D01*
X163092514Y-71574500D01*
X162907486Y-71574500D01*
X162867028Y-71580908D01*
X162724734Y-71603445D01*
X162548767Y-71660619D01*
X162548764Y-71660620D01*
X162383900Y-71744624D01*
X162268392Y-71828545D01*
X162202586Y-71852025D01*
X162134532Y-71836199D01*
X162096241Y-71802539D01*
X162052884Y-71744622D01*
X162032546Y-71717454D01*
X162032544Y-71717453D01*
X162032544Y-71717452D01*
X161917335Y-71631206D01*
X161917328Y-71631202D01*
X161782482Y-71580908D01*
X161782483Y-71580908D01*
X161722883Y-71574501D01*
X161722881Y-71574500D01*
X161722873Y-71574500D01*
X161722864Y-71574500D01*
X160277129Y-71574500D01*
X160277123Y-71574501D01*
X160217516Y-71580908D01*
X160082671Y-71631202D01*
X160082664Y-71631206D01*
X159967455Y-71717452D01*
X159967452Y-71717455D01*
X159881206Y-71832664D01*
X159881202Y-71832671D01*
X159830908Y-71967517D01*
X159824501Y-72027116D01*
X159824500Y-72027135D01*
X159824500Y-72152060D01*
X159804815Y-72219099D01*
X159762503Y-72259445D01*
X159745130Y-72269475D01*
X159745121Y-72269482D01*
X157967847Y-74046756D01*
X157906524Y-74080241D01*
X157836832Y-74075257D01*
X157780899Y-74033385D01*
X157765605Y-74006527D01*
X157709397Y-73870827D01*
X157709390Y-73870814D01*
X157621789Y-73739711D01*
X157621786Y-73739707D01*
X157510292Y-73628213D01*
X157510288Y-73628210D01*
X157379185Y-73540609D01*
X157379172Y-73540602D01*
X157233501Y-73480264D01*
X157233489Y-73480261D01*
X157078845Y-73449500D01*
X157078842Y-73449500D01*
X156921158Y-73449500D01*
X156921155Y-73449500D01*
X156766510Y-73480261D01*
X156766498Y-73480264D01*
X156620827Y-73540602D01*
X156620814Y-73540609D01*
X156489711Y-73628210D01*
X156489707Y-73628213D01*
X156378213Y-73739707D01*
X156378210Y-73739711D01*
X156290609Y-73870814D01*
X156290602Y-73870827D01*
X156230264Y-74016498D01*
X156230261Y-74016510D01*
X156199500Y-74171153D01*
X156199500Y-74328846D01*
X156230261Y-74483489D01*
X156230264Y-74483501D01*
X156253328Y-74539182D01*
X156260797Y-74608651D01*
X156229522Y-74671130D01*
X156226448Y-74674315D01*
X141381286Y-89519478D01*
X141269481Y-89631282D01*
X141269479Y-89631285D01*
X141219361Y-89718094D01*
X141219359Y-89718096D01*
X141190425Y-89768209D01*
X141190424Y-89768210D01*
X141190423Y-89768215D01*
X141149499Y-89920943D01*
X141149499Y-89920945D01*
X141149499Y-90089046D01*
X141149500Y-90089059D01*
X141149500Y-109699903D01*
X141129815Y-109766942D01*
X141113181Y-109787584D01*
X138412181Y-112488584D01*
X138392744Y-112499196D01*
X138376011Y-112513697D01*
X138362679Y-112515613D01*
X138350858Y-112522069D01*
X138328771Y-112520489D01*
X138306853Y-112523641D01*
X138294601Y-112518045D01*
X138281166Y-112517085D01*
X138263439Y-112503814D01*
X138243297Y-112494616D01*
X138236014Y-112483284D01*
X138225233Y-112475213D01*
X138217495Y-112454467D01*
X138205523Y-112435838D01*
X138202371Y-112413919D01*
X138200816Y-112409749D01*
X138200500Y-112400903D01*
X138200500Y-112300096D01*
X138220185Y-112233057D01*
X138236814Y-112212420D01*
X139758506Y-110690727D01*
X139758511Y-110690724D01*
X139768714Y-110680520D01*
X139768716Y-110680520D01*
X139880520Y-110568716D01*
X139959577Y-110431784D01*
X140000500Y-110279057D01*
X140000500Y-76379765D01*
X140020185Y-76312726D01*
X140021398Y-76310874D01*
X140109390Y-76179185D01*
X140109390Y-76179184D01*
X140109394Y-76179179D01*
X140169737Y-76033497D01*
X140200500Y-75878842D01*
X140200500Y-75721158D01*
X140200500Y-75721155D01*
X140200499Y-75721153D01*
X140189048Y-75663585D01*
X140169737Y-75566503D01*
X140148731Y-75515789D01*
X140109397Y-75420827D01*
X140109390Y-75420814D01*
X140021789Y-75289711D01*
X140021786Y-75289707D01*
X139910292Y-75178213D01*
X139910288Y-75178210D01*
X139779185Y-75090609D01*
X139779172Y-75090602D01*
X139633501Y-75030264D01*
X139633489Y-75030261D01*
X139478845Y-74999500D01*
X139478842Y-74999500D01*
X139321158Y-74999500D01*
X139321155Y-74999500D01*
X139166510Y-75030261D01*
X139166498Y-75030264D01*
X139020827Y-75090602D01*
X139020814Y-75090609D01*
X138889711Y-75178210D01*
X138889707Y-75178213D01*
X138788181Y-75279740D01*
X138726858Y-75313225D01*
X138657166Y-75308241D01*
X138601233Y-75266369D01*
X138576816Y-75200905D01*
X138576500Y-75192059D01*
X138576500Y-72646944D01*
X138576500Y-72646943D01*
X138568180Y-72615894D01*
X138557089Y-72574500D01*
X138535577Y-72494216D01*
X138524329Y-72474734D01*
X138456524Y-72357290D01*
X138456521Y-72357286D01*
X138456520Y-72357284D01*
X138344716Y-72245480D01*
X138344715Y-72245479D01*
X138340385Y-72241149D01*
X138340374Y-72241139D01*
X138188215Y-72088980D01*
X138154730Y-72027657D01*
X138153423Y-71981901D01*
X138173779Y-71853379D01*
X138175500Y-71842514D01*
X138175500Y-71657486D01*
X138146555Y-71474736D01*
X138089379Y-71298765D01*
X138089379Y-71298764D01*
X138005377Y-71133903D01*
X137896621Y-70984213D01*
X137765787Y-70853379D01*
X137755818Y-70846136D01*
X137691165Y-70799162D01*
X137676190Y-70779742D01*
X137046447Y-70150000D01*
X137052661Y-70150000D01*
X137154394Y-70122741D01*
X137245606Y-70070080D01*
X137320080Y-69995606D01*
X137372741Y-69904394D01*
X137400000Y-69802661D01*
X137400000Y-69796447D01*
X137989983Y-70386430D01*
X137989984Y-70386430D01*
X138004942Y-70365845D01*
X138004947Y-70365836D01*
X138088915Y-70201043D01*
X138088916Y-70201040D01*
X138146066Y-70025147D01*
X138175000Y-69842473D01*
X138175000Y-69657526D01*
X138146066Y-69474852D01*
X138088916Y-69298959D01*
X138088915Y-69298956D01*
X138004949Y-69134165D01*
X137989983Y-69113568D01*
X137400000Y-69703551D01*
X137400000Y-69697339D01*
X137372741Y-69595606D01*
X137320080Y-69504394D01*
X137245606Y-69429920D01*
X137154394Y-69377259D01*
X137052661Y-69350000D01*
X137046446Y-69350000D01*
X137636430Y-68760015D01*
X137615834Y-68745050D01*
X137451043Y-68661084D01*
X137451040Y-68661083D01*
X137275147Y-68603933D01*
X137092473Y-68575000D01*
X136907527Y-68575000D01*
X136724852Y-68603933D01*
X136548959Y-68661083D01*
X136548956Y-68661084D01*
X136384166Y-68745049D01*
X136268287Y-68829240D01*
X136202480Y-68852719D01*
X136134426Y-68836893D01*
X136096136Y-68803232D01*
X136032190Y-68717812D01*
X136032187Y-68717809D01*
X135917093Y-68631649D01*
X135917086Y-68631645D01*
X135782379Y-68581403D01*
X135782372Y-68581401D01*
X135722844Y-68575000D01*
X135250000Y-68575000D01*
X135250000Y-69434314D01*
X135245606Y-69429920D01*
X135154394Y-69377259D01*
X135052661Y-69350000D01*
X134947339Y-69350000D01*
X134845606Y-69377259D01*
X134754394Y-69429920D01*
X134750000Y-69434314D01*
X134750000Y-68575000D01*
X134277155Y-68575000D01*
X134217627Y-68581401D01*
X134217620Y-68581403D01*
X134082913Y-68631645D01*
X134082906Y-68631649D01*
X133967812Y-68717809D01*
X133967809Y-68717812D01*
X133881649Y-68832906D01*
X133881645Y-68832913D01*
X133831403Y-68967620D01*
X133831401Y-68967627D01*
X133825000Y-69027155D01*
X133825000Y-69500000D01*
X134684314Y-69500000D01*
X134679920Y-69504394D01*
X134627259Y-69595606D01*
X134600000Y-69697339D01*
X134600000Y-69802661D01*
X134627259Y-69904394D01*
X134679920Y-69995606D01*
X134684314Y-70000000D01*
X133825000Y-70000000D01*
X133825000Y-70472844D01*
X133831401Y-70532372D01*
X133831403Y-70532379D01*
X133881645Y-70667086D01*
X133881649Y-70667093D01*
X133967809Y-70782187D01*
X133967812Y-70782190D01*
X134053232Y-70846136D01*
X134095103Y-70902070D01*
X134100087Y-70971761D01*
X134079240Y-71018287D01*
X133995049Y-71134166D01*
X133911084Y-71298956D01*
X133911083Y-71298959D01*
X133853933Y-71474852D01*
X133825000Y-71657526D01*
X133825000Y-71842473D01*
X133853933Y-72025147D01*
X133911083Y-72201040D01*
X133911084Y-72201043D01*
X133995050Y-72365834D01*
X134010015Y-72386430D01*
X134600000Y-71796445D01*
X134600000Y-71802661D01*
X134627259Y-71904394D01*
X134679920Y-71995606D01*
X134754394Y-72070080D01*
X134845606Y-72122741D01*
X134947339Y-72150000D01*
X134953553Y-72150000D01*
X134339355Y-72764196D01*
X134308833Y-72799163D01*
X134234213Y-72853378D01*
X134103381Y-72984210D01*
X134103381Y-72984211D01*
X134103379Y-72984213D01*
X134073554Y-73025264D01*
X133994622Y-73133903D01*
X133910620Y-73298764D01*
X133910619Y-73298767D01*
X133853445Y-73474734D01*
X133824500Y-73657486D01*
X133824500Y-73842514D01*
X133824499Y-73842514D01*
X133846576Y-73981901D01*
X133837621Y-74051194D01*
X133811784Y-74088979D01*
X126580286Y-81320478D01*
X126468481Y-81432282D01*
X126468479Y-81432285D01*
X126418361Y-81519094D01*
X126418359Y-81519096D01*
X126389425Y-81569209D01*
X126389424Y-81569210D01*
X126389423Y-81569215D01*
X126348499Y-81721943D01*
X126348499Y-81880057D01*
X126348499Y-81880059D01*
X126348500Y-81890058D01*
X126348500Y-129047330D01*
X126348499Y-129047348D01*
X126348499Y-129213054D01*
X126348498Y-129213054D01*
X124750500Y-129213054D01*
X124750500Y-61253246D01*
X124750670Y-61246757D01*
X124753953Y-61184108D01*
X124756856Y-61128711D01*
X125899500Y-61128711D01*
X125899500Y-61371288D01*
X125931161Y-61611785D01*
X125993947Y-61846104D01*
X126086773Y-62070205D01*
X126086776Y-62070212D01*
X126208064Y-62280289D01*
X126208066Y-62280292D01*
X126208067Y-62280293D01*
X126355733Y-62472736D01*
X126355739Y-62472743D01*
X126527256Y-62644260D01*
X126527262Y-62644265D01*
X126719711Y-62791936D01*
X126929788Y-62913224D01*
X127153900Y-63006054D01*
X127388211Y-63068838D01*
X127568586Y-63092584D01*
X127628711Y-63100500D01*
X127628712Y-63100500D01*
X127871289Y-63100500D01*
X127919388Y-63094167D01*
X128111789Y-63068838D01*
X128346100Y-63006054D01*
X128570212Y-62913224D01*
X128780289Y-62791936D01*
X128972738Y-62644265D01*
X129144265Y-62472738D01*
X129291936Y-62280289D01*
X129413224Y-62070212D01*
X129506054Y-61846100D01*
X129568838Y-61611789D01*
X129600500Y-61371288D01*
X129600500Y-61128712D01*
X129600500Y-61128711D01*
X172649500Y-61128711D01*
X172649500Y-61371288D01*
X172681161Y-61611785D01*
X172743947Y-61846104D01*
X172836773Y-62070205D01*
X172836776Y-62070212D01*
X172958064Y-62280289D01*
X172958066Y-62280292D01*
X172958067Y-62280293D01*
X173105733Y-62472736D01*
X173105739Y-62472743D01*
X173277256Y-62644260D01*
X173277262Y-62644265D01*
X173469711Y-62791936D01*
X173679788Y-62913224D01*
X173903900Y-63006054D01*
X174138211Y-63068838D01*
X174318586Y-63092584D01*
X174378711Y-63100500D01*
X174378712Y-63100500D01*
X174621289Y-63100500D01*
X174669388Y-63094167D01*
X174861789Y-63068838D01*
X175096100Y-63006054D01*
X175320212Y-62913224D01*
X175530289Y-62791936D01*
X175722738Y-62644265D01*
X175894265Y-62472738D01*
X176041936Y-62280289D01*
X176163224Y-62070212D01*
X176256054Y-61846100D01*
X176318838Y-61611789D01*
X176350500Y-61371288D01*
X176350500Y-61128712D01*
X176318838Y-60888211D01*
X176256054Y-60653900D01*
X176163224Y-60429788D01*
X176041936Y-60219711D01*
X175894265Y-60027262D01*
X175894260Y-60027256D01*
X175722743Y-59855739D01*
X175722736Y-59855733D01*
X175530293Y-59708067D01*
X175530292Y-59708066D01*
X175530289Y-59708064D01*
X175320212Y-59586776D01*
X175320205Y-59586773D01*
X175096104Y-59493947D01*
X174861785Y-59431161D01*
X174621289Y-59399500D01*
X174621288Y-59399500D01*
X174378712Y-59399500D01*
X174378711Y-59399500D01*
X174138214Y-59431161D01*
X173903895Y-59493947D01*
X173679794Y-59586773D01*
X173679785Y-59586777D01*
X173469706Y-59708067D01*
X173277263Y-59855733D01*
X173277256Y-59855739D01*
X173105739Y-60027256D01*
X173105733Y-60027263D01*
X172958067Y-60219706D01*
X172836777Y-60429785D01*
X172836773Y-60429794D01*
X172743947Y-60653895D01*
X172681161Y-60888214D01*
X172649500Y-61128711D01*
X129600500Y-61128711D01*
X129568838Y-60888211D01*
X129506054Y-60653900D01*
X129413224Y-60429788D01*
X129291936Y-60219711D01*
X129144265Y-60027262D01*
X129144260Y-60027256D01*
X128972743Y-59855739D01*
X128972736Y-59855733D01*
X128780293Y-59708067D01*
X128780292Y-59708066D01*
X128780289Y-59708064D01*
X128570212Y-59586776D01*
X128570205Y-59586773D01*
X128346104Y-59493947D01*
X128111785Y-59431161D01*
X127871289Y-59399500D01*
X127871288Y-59399500D01*
X127628712Y-59399500D01*
X127628711Y-59399500D01*
X127388214Y-59431161D01*
X127153895Y-59493947D01*
X126929794Y-59586773D01*
X126929785Y-59586777D01*
X126719706Y-59708067D01*
X126527263Y-59855733D01*
X126527256Y-59855739D01*
X126355739Y-60027256D01*
X126355733Y-60027263D01*
X126208067Y-60219706D01*
X126086777Y-60429785D01*
X126086773Y-60429794D01*
X125993947Y-60653895D01*
X125931161Y-60888214D01*
X125899500Y-61128711D01*
X124756856Y-61128711D01*
X124766592Y-60942951D01*
X124767949Y-60930046D01*
X124804904Y-60696715D01*
X124815029Y-60632786D01*
X124817723Y-60620107D01*
X124895627Y-60329368D01*
X124899636Y-60317033D01*
X125007493Y-60036054D01*
X125012763Y-60024215D01*
X125149415Y-59756023D01*
X125155891Y-59744808D01*
X125319819Y-59492380D01*
X125327434Y-59481899D01*
X125516858Y-59247979D01*
X125525525Y-59238354D01*
X125738354Y-59025525D01*
X125747979Y-59016858D01*
X125981899Y-58827434D01*
X125992380Y-58819819D01*
X126244808Y-58655891D01*
X126256023Y-58649415D01*
X126524215Y-58512763D01*
X126536054Y-58507493D01*
X126817040Y-58399633D01*
X126829368Y-58395627D01*
X127120107Y-58317723D01*
X127132786Y-58315029D01*
X127430046Y-58267949D01*
X127442951Y-58266592D01*
X127746756Y-58250669D01*
X127753246Y-58250500D01*
X127815892Y-58250500D01*
X174434108Y-58250500D01*
X174496754Y-58250500D01*
X174503244Y-58250670D01*
G37*
%TD.AperFunction*%
%TD*%
M02*
